<?xml version="1.0" encoding="UTF-8" standalone="no"?>
<svg
   xmlns:dc="http://purl.org/dc/elements/1.1/"
   xmlns:cc="http://creativecommons.org/ns#"
   xmlns:rdf="http://www.w3.org/1999/02/22-rdf-syntax-ns#"
   xmlns:svg="http://www.w3.org/2000/svg"
   xmlns="http://www.w3.org/2000/svg"
   xmlns:sodipodi="http://sodipodi.sourceforge.net/DTD/sodipodi-0.dtd"
   xmlns:inkscape="http://www.inkscape.org/namespaces/inkscape"
   height="1000"
   width="1000"
   sodipodi:docname="MOD_Question.svg"
   version="1.1"
   id="svg19"
   viewBox="0 0 1000 1000"
   inkscape:version="1.0.1 (3bc2e813f5, 2020-09-07)"
   inkscape:export-filename="C:\Users\metro\OneDrive\Desktop\attris-glyphs\NOUN_Light.png"
   inkscape:export-xdpi="96"
   inkscape:export-ydpi="96">
  <sodipodi:namedview
     id="base"
     pagecolor="#ffffff"
     bordercolor="#666666"
     borderopacity="1.0"
     inkscape:pageopacity="0.0"
     inkscape:pageshadow="2"
     inkscape:zoom="1"
     inkscape:cx="469.10873"
     inkscape:cy="474.14092"
     inkscape:document-units="px"
     inkscape:current-layer="layer25"
     showgrid="false"
     showguides="true"
     inkscape:window-width="1662"
     inkscape:window-height="1017"
     inkscape:window-x="0"
     inkscape:window-y="0"
     inkscape:window-maximized="0"
     showborder="true"
     inkscape:showpageshadow="false"
     inkscape:document-rotation="0">
    <sodipodi:guide
       id="guide_baseline"
       inkscape:label="baseline"
       position="0,253"
       orientation="0,1" />
    <sodipodi:guide
       id="guide_ascender"
       inkscape:label="ascender"
       position="0,945"
       orientation="0,1" />
    <sodipodi:guide
       id="guide_caps"
       inkscape:label="caps"
       position="0,896"
       orientation="0,1" />
    <sodipodi:guide
       id="guide_xheight"
       inkscape:label="xheight"
       position="0,729"
       orientation="0,1" />
    <sodipodi:guide
       id="guide_descender"
       inkscape:label="descender"
       position="0,28"
       orientation="0,1" />
  </sodipodi:namedview>
  <defs
     id="defs4" />
  <metadata
     id="metadata7">
    <rdf:RDF>
      <cc:Work
         rdf:about="">
        <dc:format>image/svg+xml</dc:format>
        <dc:type
           rdf:resource="http://purl.org/dc/dcmitype/StillImage" />
        <dc:title />
      </cc:Work>
    </rdf:RDF>
  </metadata>
  <g
     inkscape:groupmode="layer"
     id="layer25"
     inkscape:label="MOD_Question"
     style="display:inline"
     sodipodi:insensitive="true">
    <path
       id="path1293"
       style="stroke-width:5.4338;stroke-miterlimit:4;stroke-dasharray:none"
       d="m 558.48633,104 c -16.49504,0.21226 -33.11178,0.54485 -49.36914,4.16827 -17.31813,4.07801 -34.50156,8.9103 -51.85742,12.77009 -11.13128,2.38066 -22.06261,5.8413 -32.91016,9.61216 -6.92089,2.37322 -13.82065,4.81008 -20.70117,7.34233 -3.7088,1.36497 -7.83349,2.82039 -11.46289,4.52351 -1.53394,0.71981 -3.01584,1.5869 -4.52344,2.38055 -11.8121,7.95945 -25.68244,16.29327 -37.4043,25.84004 -4.84738,3.94791 -9.36202,8.40689 -13.79883,12.96846 -6.4555,7.08709 -11.97656,13.50485 -14.30664,23.84933 -2.60268,10.63113 -5.15232,21.27868 -7.68164,31.93444 -3.34088,13.51856 -6.70941,27.15521 -7.25586,41.31823 -0.56125,12.40963 -0.91517,25.02536 1.94727,37.11998 1.34427,4.91881 1.30428,5.24727 3.09961,9.94895 2.67135,6.99583 6.42522,13.30107 9.68164,19.91865 3.02288,6.08791 5.99907,12.18171 8.45898,18.61997 1.91739,5.32917 3.86306,10.66027 5.32813,16.19327 l 26.06055,-17.18748 c -2.14458,-5.19594 -3.92244,-10.59088 -5.69141,-15.97645 -2.25472,-6.77332 -5.95994,-12.64533 -9.26758,-18.72838 -4.08339,-7.83751 -8.36489,-15.70031 -11.01172,-24.41447 -0.48219,-1.58748 -0.85155,-3.21818 -1.27734,-4.828 -2.6362,-11.70279 -2.34482,-23.86761 -1.75781,-35.84435 0.58556,-13.95576 4.23999,-27.30165 7.52734,-40.61237 2.47085,-10.82845 5.32344,-21.52895 8.23828,-32.19971 2.42562,-9.2841 8.4763,-15.67163 14.43945,-21.91398 2.71776,-2.73273 5.47676,-5.39553 8.32227,-7.92363 9.90333,-4.9421 20.3465,-8.36763 30.64453,-11.94197 10.66282,-3.74745 21.47163,-6.84251 32.36133,-9.50836 17.51186,-4.43748 34.92269,-9.37208 52.51562,-13.3537 16.10091,-3.59378 32.49838,-4.47558 48.84766,-4.48428 4.92258,0.28628 7.80788,0.26722 12.64063,1.26409 11.4999,2.37211 23.25058,7.82251 34.16992,12.57862 13.21604,6.22278 26.33195,13.01536 38.45898,21.87477 2.07947,1.51915 4.08846,3.16993 6.13281,4.75418 6.86304,5.61024 13.36965,11.82639 18.89063,19.25201 2.84903,3.83188 6.99465,10.18542 9.57422,14.06185 7.99573,12.29058 15.5046,24.81184 21.21094,38.79697 2.88676,7.89434 3.7523,16.55335 4.51562,25.03269 0.41179,11.07531 -0.32466,22.20088 -1.3457,33.20775 -0.21403,2.1242 -0.39548,4.25202 -0.64258,6.3712 -0.23033,1.97544 -1.20244,8.72433 -1.46484,10.86011 -0.62154,5.05898 -1.05401,10.15353 -1.54688,15.23137 -0.86491,7.52738 -1.8326,15.02878 -3.17578,22.45837 -1.93558,11.71764 -3.76615,23.45084 -5.9043,35.12004 -1.65899,8.49742 -3.33823,16.93679 -5.88281,25.13187 -2.666,7.5731 -6.82958,14.30657 -11.26953,20.56223 -0.65743,0.85309 -2.35975,3.10643 -3.11719,3.91914 -0.60241,0.64639 -1.26458,1.21188 -1.89648,1.81771 -0.86032,0.90401 -1.73345,1.79087 -2.58008,2.71272 -10.51765,11.4522 4.11853,-4.17179 -8.70508,9.44147 -3.53084,3.39518 -6.98958,6.92806 -10.51367,10.36185 -2.24411,0.60268 -4.53783,1.00968 -6.85938,1.29638 -5.62784,0.66922 -11.26929,0.0326 -16.89257,-0.346 -8.97434,-1.19713 -17.88265,-3.30121 -26.68164,-5.69995 -7.72554,-2.14932 -15.30289,-4.96391 -22.6543,-8.48878 -8.16928,-3.81292 -15.41269,-9.68626 -22.53711,-15.64889 -5.7841,-5.05269 -11.3977,-10.56888 -16.04688,-17.08598 -10.22366,-14.78618 -1.25038,-8.44397 -31.49804,10.74016 -2.67444,7.11264 -3.31976,14.84837 -4.2461,22.4722 -0.49253,4.05355 -0.97561,8.109 -1.46289,12.16342 -4.41142,41.90883 -6.77831,84.07465 -9.50195,126.17147 -2.16991,31.0781 -3.17476,62.24191 -4.01953,93.40199 -0.584,15.46396 -0.6316,30.93259 -0.61133,46.40689 -0.24444,7.76445 0.005,15.49587 0.68164,23.21498 l 25.95703,-16.04103 c -0.71768,-7.47484 -1.25727,-14.97876 -1.16211,-22.51143 -0.0104,-15.27884 -0.0669,-30.55223 -0.22461,-45.83021 0.0912,-30.7785 0.88502,-61.54264 2.39844,-92.27169 1.94221,-42.31902 4.70968,-84.6754 11.125,-126.42521 1.43282,1.31265 2.8839,2.59129 4.34766,3.84071 7.23422,5.96136 14.29378,12.4285 22.42187,16.63387 7.55213,3.80822 15.55488,6.06218 23.48633,8.48647 5.39288,1.55641 10.79702,2.88313 16.22852,4.22825 2.46357,0.6101 4.89499,1.39401 7.36132,1.98841 0.90821,0.21888 1.82945,0.35547 2.74414,0.53285 5.74874,0.32654 11.5066,0.9287 17.26368,0.60437 5.8873,-0.42121 11.68416,-1.17445 17.03711,-4.37358 9.24972,-6.3364 18.55791,-12.55744 27.75,-19.00979 1.56398,-1.09783 5.71423,-5.04854 6.92968,-6.21204 5.21581,-4.99295 10.36597,-10.08479 15.46485,-15.24291 3.14128,-3.25455 6.27478,-6.52034 9.42382,-9.76441 2.72789,-2.81017 5.46244,-5.5923 7.55665,-9.12312 4.19832,-6.74033 8.36656,-13.67457 10.82812,-21.58643 2.30477,-8.25091 3.76369,-16.74988 5.23242,-25.25413 2.02309,-11.79356 3.97252,-23.60984 6.32031,-35.32073 1.42553,-7.47346 2.16231,-15.05537 2.85352,-22.66828 1.00804,-10.79261 2.39375,-21.52966 3.38867,-32.32427 1.03075,-11.29442 2.02852,-22.69744 1.38281,-34.06356 -0.85319,-8.86237 -1.61089,-18.02702 -5.06445,-26.09378 -6.3101,-13.78253 -14.55848,-26.06204 -22.30469,-38.73468 -1.32522,-2.13777 -7.57196,-12.30395 -9.25195,-14.69161 -5.52526,-7.8527 -12.53458,-13.85458 -19.53906,-19.71104 -5.78512,-4.5005 -6.79662,-5.47982 -12.91992,-9.45531 -10.45586,-6.78835 -21.5122,-12.11951 -32.56641,-17.36509 -7.22595,-3.2271 -11.55806,-5.20579 -18.80078,-8.26734 -4.66459,-1.97176 -10.05074,-4.33361 -14.96484,-5.55 -4.94546,-1.22417 -8.05778,-1.14548 -13.11719,-1.42326 z m -169.25195,45.39654 c 0.59554,-0.39297 -2.11109,1.51622 -7.3711,5.18553 3.3801,-2.4305 6.69722,-4.74088 7.3711,-5.18553 z m 128.88867,87.3422 -8.27344,6.32046 c -0.43353,-0.51683 -0.88003,-1.02004 -1.35742,-1.49015 -0.41095,-0.27115 -0.78766,-0.62987 -1.23242,-0.81197 -0.36306,-0.14865 -0.763,-0.13263 -1.14649,-0.16148 -11.689,-0.87935 -21.80169,28.38186 -30.95898,19.25893 -3.29243,3.51813 -5.25513,8.23386 -7.03711,12.97769 -1.92087,5.95703 -3.60447,12.03727 -4.42383,18.3593 -0.64538,5.63495 -1.10777,11.31837 -0.25195,16.96604 0.66516,3.80177 2.00508,7.32866 3.49609,10.77937 2.3072,4.93653 4.11837,10.29294 7.25977,14.60394 0.52253,0.41498 0.97911,0.98343 1.56835,1.24563 1.18476,0.5272 2.53755,0.032 3.67383,-0.2768 3.09646,-0.84132 6.12868,-1.98751 9.12891,-3.21329 3.86294,-1.32731 7.699,-2.72268 11.54102,-4.12905 0.30807,0.12261 0.57893,0.24431 0.90429,0.36907 0.84325,-0.56904 1.58908,-1.03158 2.38281,-1.5455 0.34498,-0.13875 0.63692,-0.26525 0.76563,-0.35063 1.02125,-0.67743 2.03775,-1.36374 3.05664,-2.04607 0.0704,-0.0424 0.13704,-0.0827 0.20703,-0.12457 0.17632,-0.12573 0.35728,-0.24874 0.53516,-0.37369 1.27934,-0.85852 2.55937,-1.71464 3.83594,-2.57893 0.70746,-0.45865 1.42767,-0.91466 2.14843,-1.37019 -2.18978,1.50576 -3.5205,2.41071 -5.00586,3.42318 14.16496,-8.2135 18.34775,-6.74683 18.5,-12.12419 4.58488,-3.22317 8.94921,-6.81077 12.61524,-11.18997 2.48238,-3.10363 4.79386,-6.42177 6.02929,-10.50026 0.97197,-4.16222 1.18941,-8.43318 0.58399,-12.71242 -0.79673,-5.35319 -2.6143,-9.67612 -5.50195,-13.93498 -3.40857,-4.93954 -7.48647,-9.10104 -11.88282,-12.78853 -1.61383,-1.57525 -3.54941,-3.40977 -5.07031,-5.11173 -2.12859,-2.38201 -3.90931,-5.1538 -6.08984,-7.46921 z m -9.1836,85.83129 c -0.48652,0.28212 -1.00325,0.59387 -1.51367,0.89963 -0.10877,0.0776 -0.22192,0.15279 -0.33008,0.23067 -2.6939,1.9398 -1.01361,0.81738 1.84375,-1.1303 z m -6.27734,-75.56632 c -0.71025,0.49055 -1.42051,0.98135 -2.13086,1.47169 0.67811,-0.55322 1.42525,-1.00639 2.13086,-1.47169 z m -12.04688,25.47789 c 0.16064,0.48997 0.31747,0.98018 0.46485,1.47631 l -0.84766,0.49595 c 0.11738,-0.66088 0.24501,-1.31868 0.38281,-1.97226 z m 42.53516,26.94727 c 0.30723,-0.0521 -0.4274,0.59939 -1.69922,1.52936 0.14159,-0.12788 -0.11219,0.006 -1.38476,0.81659 -1.10887,0.7063 -2.20176,1.44534 -3.30274,2.16833 -0.0253,-0.16602 -0.0537,-0.34718 -0.0801,-0.51901 4.1625,-2.80016 6.09638,-3.93249 6.4668,-3.99527 z m -2.28125,8.08742 c -0.76352,0.51979 -2.4143,1.66036 -3.42773,2.35517 -1.1e-4,-0.006 -0.002,-0.0106 -0.002,-0.0162 1.14328,-0.77951 2.28509,-1.56227 3.42969,-2.33903 z M 482.5332,425.09748 c 0.0578,0.0272 0.10621,0.0685 0.1543,0.11302 -0.14165,0.0853 -0.28215,0.17314 -0.42383,0.25836 -0.12291,0.0739 0.14139,-0.43167 0.26953,-0.37138 z m 125.95703,45.7933 c -6.56783,4.71091 -12.98182,9.04027 0,0 z" />
  </g>
</svg>
