<?xml version="1.0" encoding="UTF-8" standalone="no"?>
<svg
   xmlns:dc="http://purl.org/dc/elements/1.1/"
   xmlns:cc="http://creativecommons.org/ns#"
   xmlns:rdf="http://www.w3.org/1999/02/22-rdf-syntax-ns#"
   xmlns:svg="http://www.w3.org/2000/svg"
   xmlns="http://www.w3.org/2000/svg"
   xmlns:sodipodi="http://sodipodi.sourceforge.net/DTD/sodipodi-0.dtd"
   xmlns:inkscape="http://www.inkscape.org/namespaces/inkscape"
   height="1000"
   width="1000"
   sodipodi:docname="NOUN_Air.svg"
   version="1.1"
   id="svg19"
   viewBox="0 0 1000 1000"
   inkscape:version="1.0.1 (3bc2e813f5, 2020-09-07)"
   inkscape:export-filename="C:\Users\metro\OneDrive\Desktop\attris-glyphs\NOUN_Light.png"
   inkscape:export-xdpi="96"
   inkscape:export-ydpi="96">
  <sodipodi:namedview
     id="base"
     pagecolor="#ffffff"
     bordercolor="#666666"
     borderopacity="1.0"
     inkscape:pageopacity="0.0"
     inkscape:pageshadow="2"
     inkscape:zoom="1"
     inkscape:cx="469.10873"
     inkscape:cy="474.14092"
     inkscape:document-units="px"
     inkscape:current-layer="layer4"
     showgrid="false"
     showguides="true"
     inkscape:window-width="1662"
     inkscape:window-height="1017"
     inkscape:window-x="0"
     inkscape:window-y="0"
     inkscape:window-maximized="0"
     showborder="true"
     inkscape:showpageshadow="false"
     inkscape:document-rotation="0">
    <sodipodi:guide
       id="guide_baseline"
       inkscape:label="baseline"
       position="0,253"
       orientation="0,1" />
    <sodipodi:guide
       id="guide_ascender"
       inkscape:label="ascender"
       position="0,945"
       orientation="0,1" />
    <sodipodi:guide
       id="guide_caps"
       inkscape:label="caps"
       position="0,896"
       orientation="0,1" />
    <sodipodi:guide
       id="guide_xheight"
       inkscape:label="xheight"
       position="0,729"
       orientation="0,1" />
    <sodipodi:guide
       id="guide_descender"
       inkscape:label="descender"
       position="0,28"
       orientation="0,1" />
  </sodipodi:namedview>
  <defs
     id="defs4" />
  <metadata
     id="metadata7">
    <rdf:RDF>
      <cc:Work
         rdf:about="">
        <dc:format>image/svg+xml</dc:format>
        <dc:type
           rdf:resource="http://purl.org/dc/dcmitype/StillImage" />
        <dc:title />
      </cc:Work>
    </rdf:RDF>
  </metadata>
  <g
     inkscape:groupmode="layer"
     id="layer4"
     inkscape:label="NOUN_Air"
     sodipodi:insensitive="true"
     style="display:inline">
    <path
       id="path34-9"
       style="display:inline;fill:#000000;fill-opacity:1;fill-rule:nonzero;stroke:none;stroke-width:1.56859"
       d="m 272.39287,123.27129 c 5.26321,1.95746 10.17419,4.83018 14.97147,7.74135 9.05572,5.49539 18.18253,10.87708 27.07692,16.63966 3.57784,2.31805 15.66383,11.95635 18.7938,14.41849 9.97103,8.7602 21.09764,16.3584 30.27432,26.04727 4.26397,4.50195 5.16027,6.21052 8.69284,11.3088 8.50239,15.09682 17.39036,30.05009 24.98046,45.65984 2.02596,4.16656 3.85326,8.43042 5.77989,12.64563 11.74878,28.39094 22.48189,57.20893 33.34439,85.96142 9.65614,24.4286 16.02855,49.96858 22.76562,75.33382 3.86394,13.54304 5.92281,27.58902 9.90437,41.09652 0.73518,2.49412 1.6285,4.93696 2.44274,7.40546 4.42164,11.66184 7.56254,23.79858 12.40905,35.28858 2.47311,6.27487 5.17326,12.4706 7.36076,18.8568 1.99161,3.72906 2.07649,8.57607 4.79516,11.88934 -6.6873,-3.92635 -13.66131,-7.38425 -20.06193,-11.77905 -0.49764,-0.34169 0.17677,-1.2098 0.26352,-1.81496 0.15305,-1.06737 0.30577,-2.1348 0.45595,-3.20259 0.94285,-6.70335 1.54738,-13.4266 2.19279,-20.16656 2.48341,-23.55645 3.70776,-47.25209 6.45624,-70.78028 0.67913,-5.81368 1.55687,-11.60147 2.33532,-17.40222 4.34261,-29.76109 11.66567,-59.01861 21.03613,-87.53631 1.90698,-5.80361 4.02257,-11.53382 6.03386,-17.30071 2.13574,-5.83703 4.18807,-11.70645 6.40721,-17.51106 3.71494,-9.71715 10.75077,-26.82132 14.7542,-36.34259 5.57758,-13.26497 9.73195,-23.10674 16.08754,-35.99268 2.74972,-5.57504 5.74534,-11.02049 8.61802,-16.53073 9.69332,-18.24892 20.25635,-36.10607 33.04797,-52.29591 6.33574,-8.01891 7.99102,-9.52286 14.67737,-16.69773 6.63088,-6.41265 13.37965,-12.90112 20.98364,-18.1372 2.26082,-1.55679 5.54318,-3.28763 7.92515,-4.60154 5.61999,-2.8702 2.84139,-1.50302 8.33154,-4.11053 0,0 18.83708,12.73547 18.83708,12.73547 v 0 c -5.47734,2.46898 -2.71932,1.15326 -8.26824,3.95969 -0.633,0.34973 -7.05795,3.88433 -7.78795,4.34611 -7.7774,4.91997 -14.84267,10.98129 -21.50487,17.34164 -6.50927,6.61262 -8.90751,8.77622 -15.01605,16.20384 -13.03575,15.85066 -23.56744,33.63718 -33.51828,51.60096 -2.89928,5.45734 -5.93673,10.84075 -8.69784,16.37203 -14.44092,28.92924 -25.75381,59.42891 -36.97022,89.75508 -11.77614,34.09327 -22.00267,68.57708 -26.76103,104.51176 -0.72887,5.79867 -1.55867,11.58509 -2.18658,17.39604 -2.56079,23.69873 -3.63035,47.54934 -5.37071,71.3164 -0.41852,6.89799 -0.79293,13.79031 -1.46485,20.66804 -0.11034,1.12873 -0.19265,2.2612 -0.34754,3.38448 -0.11358,0.82308 0.32092,2.69907 -0.45697,2.4496 -7.34633,-2.35607 -14.125,-6.26086 -21.18749,-9.39128 -1.65636,-3.97872 -2.71651,-8.18302 -4.33328,-12.1798 -2.28942,-6.26171 -4.77911,-12.44664 -7.18395,-18.66296 -4.43559,-11.56423 -7.55081,-23.60386 -11.87873,-35.21396 -5.04314,-15.85742 -7.93205,-32.24935 -11.85786,-48.41536 -6.37537,-25.2557 -12.73114,-50.57808 -22.27472,-74.83754 -10.82721,-28.77209 -21.43897,-57.65645 -33.57507,-85.88877 -2.00019,-4.21091 -3.91085,-8.46726 -6.00058,-12.63276 -7.85873,-15.665 -16.83685,-30.77332 -25.8902,-45.73728 -3.73833,-5.09632 -4.39554,-6.35897 -8.77171,-10.87914 -9.10049,-9.39996 -19.77434,-17.10779 -29.676,-25.56215 -3.26406,-2.52746 -6.49085,-5.10571 -9.79217,-7.58236 -3.09497,-2.32186 -11.69689,-3.67546 -9.39434,-6.81139 2.33067,-3.17425 6.77603,3.91936 10.32346,5.54599 3.86308,1.77133 -7.27059,-4.4603 -11.09901,-6.3081 -0.92465,-0.44629 -1.91797,-0.72656 -2.87695,-1.08984 0,0 -18.15366,-14.48477 -18.15366,-14.48477 z m -31.58372,115.60336 c 15.61321,14.70416 29.88938,30.72811 43.86183,47.02964 34.54994,39.54976 56.37268,87.93168 79.91341,134.57707 34.4418,68.99619 70.18333,137.3019 106.24044,205.43099 16.77658,33.89665 36.43911,66.75575 49.81792,102.302 1.14632,3.66161 2.0726,7.34008 1.16992,11.15331 -0.34406,1.45337 -1.11731,2.73006 -1.57682,4.13859 -1.75288,0.48169 1.21448,1.48707 0.80527,1.23073 -6.33834,-3.97054 -12.81027,-7.71596 -19.16652,-11.65664 -0.11668,-0.0724 0.29722,0.10755 0.40908,0.0274 0.23657,-0.16914 0.35343,-0.46606 0.53014,-0.69909 3.05546,-6.7056 3.58683,-14.30059 4.82632,-21.50981 2.04396,-11.86122 4.49822,-23.61559 7.357,-35.29892 5.56484,-21.62164 12.11488,-42.95201 18.71312,-64.26256 8.45481,-27.69281 18.83775,-54.68528 29.85697,-81.40323 10.30435,-25.20455 23.37051,-49.04101 36.9317,-72.53552 14.05458,-22.98712 27.81277,-46.15745 42.19261,-68.93618 12.71759,-20.45855 27.58416,-39.36141 42.37996,-58.26552 7.4117,-9.29609 14.4222,-18.9403 21.9972,-28.10185 3.3925,-4.10306 8.783,-10.12574 12.2697,-14.06689 6.5871,-7.26935 13.7181,-13.97985 20.8486,-20.68142 3.591,-3.37499 7.7943,-7.46795 11.6236,-10.59525 2.0545,-1.67787 4.224,-3.20401 6.336,-4.806 7.6826,-5.40521 15.8277,-10.04927 23.9673,-14.68292 0,0 18.3016,12.16656 18.3016,12.16656 v 0 c -8.0896,4.48312 -16.1364,9.05093 -23.6229,14.54955 -13.9876,10.55606 -26.8221,22.69903 -38.7987,35.55504 -11.8617,13.65325 -23.1024,27.80691 -34.3474,41.98987 -14.9765,18.68593 -29.8316,37.50578 -42.63703,57.84341 -14.45679,22.69213 -27.99959,45.96348 -42.18188,68.83351 -13.43717,23.44988 -26.45374,47.20566 -36.91555,72.22251 -11.10915,26.634 -21.36764,53.62634 -29.44794,81.39749 -6.53189,21.33367 -13.06443,42.68519 -17.99743,64.47747 -2.57146,11.73287 -4.88558,23.51344 -6.96485,35.3477 -1.2255,7.61297 -1.68905,15.58596 -4.77562,22.71589 -0.0995,0.15297 -1.70498,2.82517 -2.122,2.62799 -7.64027,-3.61239 -23.44679,-5.12109 -20.58996,-14.95294 0.49709,-1.18678 1.20445,-2.35691 1.50617,-3.61774 0.78485,-3.27975 -0.0943,-6.56291 -0.917,-9.73588 C 489.01227,683.60616 470.48713,651.36123 454.35384,618.37131 418.90739,550.04852 383.68293,481.60874 348.5454,413.12032 324.06516,366.09824 300.99888,317.51328 265.61168,277.71695 c -14.61001,-16.66429 -29.60393,-32.95987 -46.0272,-47.80301 0,0 21.22467,8.96055 21.22467,8.96055 z" />
  </g>
</svg>
