<?xml version="1.0" encoding="UTF-8" standalone="no"?>
<svg
   xmlns:dc="http://purl.org/dc/elements/1.1/"
   xmlns:cc="http://creativecommons.org/ns#"
   xmlns:rdf="http://www.w3.org/1999/02/22-rdf-syntax-ns#"
   xmlns:svg="http://www.w3.org/2000/svg"
   xmlns="http://www.w3.org/2000/svg"
   xmlns:sodipodi="http://sodipodi.sourceforge.net/DTD/sodipodi-0.dtd"
   xmlns:inkscape="http://www.inkscape.org/namespaces/inkscape"
   height="1000"
   width="1000"
   sodipodi:docname="NOUN_Gate.svg"
   version="1.1"
   id="svg19"
   viewBox="0 0 1000 1000"
   inkscape:version="1.0.1 (3bc2e813f5, 2020-09-07)"
   inkscape:export-filename="C:\Users\metro\OneDrive\Desktop\attris-glyphs\NOUN_Light.png"
   inkscape:export-xdpi="96"
   inkscape:export-ydpi="96">
  <sodipodi:namedview
     id="base"
     pagecolor="#ffffff"
     bordercolor="#666666"
     borderopacity="1.0"
     inkscape:pageopacity="0.0"
     inkscape:pageshadow="2"
     inkscape:zoom="1"
     inkscape:cx="469.10873"
     inkscape:cy="474.14092"
     inkscape:document-units="px"
     inkscape:current-layer="layer23"
     showgrid="false"
     showguides="true"
     inkscape:window-width="1662"
     inkscape:window-height="1017"
     inkscape:window-x="0"
     inkscape:window-y="0"
     inkscape:window-maximized="0"
     showborder="true"
     inkscape:showpageshadow="false"
     inkscape:document-rotation="0">
    <sodipodi:guide
       id="guide_baseline"
       inkscape:label="baseline"
       position="0,253"
       orientation="0,1" />
    <sodipodi:guide
       id="guide_ascender"
       inkscape:label="ascender"
       position="0,945"
       orientation="0,1" />
    <sodipodi:guide
       id="guide_caps"
       inkscape:label="caps"
       position="0,896"
       orientation="0,1" />
    <sodipodi:guide
       id="guide_xheight"
       inkscape:label="xheight"
       position="0,729"
       orientation="0,1" />
    <sodipodi:guide
       id="guide_descender"
       inkscape:label="descender"
       position="0,28"
       orientation="0,1" />
  </sodipodi:namedview>
  <defs
     id="defs4" />
  <metadata
     id="metadata7">
    <rdf:RDF>
      <cc:Work
         rdf:about="">
        <dc:format>image/svg+xml</dc:format>
        <dc:type
           rdf:resource="http://purl.org/dc/dcmitype/StillImage" />
        <dc:title />
      </cc:Work>
    </rdf:RDF>
  </metadata>
  <g
     inkscape:groupmode="layer"
     id="layer23"
     inkscape:label="NOUN_Gate"
     style="display:inline"
     sodipodi:insensitive="true">
    <path
       id="path1257"
       style="stroke-width:4.88013;stroke-miterlimit:4;stroke-dasharray:none"
       d="m 572.53959,444.05527 c 2.75931,0.60259 5.49877,1.33257 8.14199,2.30262 2.38845,0.96466 4.67469,2.16812 6.93242,3.38508 1.52953,0.6785 1.93826,1.65084 2.10508,3.15471 0.1197,2.14903 0.0946,4.30328 0.0757,6.45451 -0.0225,2.20107 -0.0587,4.40211 -0.0443,6.6033 -0.19748,1.94486 -1.15834,3.0875 -2.38779,4.54645 -0.45301,1.06028 -1.39406,1.53229 -2.24976,2.21616 -0.89505,0.71532 -1.77876,1.45835 -2.67517,2.1837 -0.37892,0.31677 -0.74093,0.65291 -1.13678,0.9503 -1.30055,0.97704 -1.16155,0.74431 -2.65774,1.52749 -0.50102,0.26227 -1.97831,1.09257 -1.48357,0.8197 24.37301,-13.44284 32.03068,-17.31812 22.59091,-12.51809 -3.14115,1.56009 -6.3349,2.91765 -9.74734,3.83471 -2.66767,0.45764 -5.51105,1.10516 -8.21485,0.60481 -1.74265,-0.63865 -3.01156,-1.9886 -4.45584,-3.06388 -1.38588,-1.17893 -2.02516,-2.82538 -2.76678,-4.39402 -0.97412,-2.05397 -1.68482,-4.16715 -2.06285,-6.39035 -0.61496,-1.92945 -0.97396,-3.9029 -1.14193,-5.90885 -0.41466,-2.60956 0.70469,-4.19598 2.2602,-6.23089 0.56303,-0.77687 1.51045,-2.25443 2.22395,-2.90531 0.6564,-0.59878 2.5098,-1.14821 3.37248,-1.57188 -8.04628,4.42716 -16.10836,8.82836 -24.13883,13.2815 -0.3858,0.21394 0.81554,-0.34966 1.20208,-0.56238 8.84561,-4.868 17.66068,-9.7862 26.49163,-14.67828 0.34873,-0.19319 1.39659,-0.76998 1.04741,-0.57754 -8.15627,4.495 -32.68588,17.8784 -24.46868,13.48525 8.84486,-4.72872 17.56788,-9.66136 26.35181,-14.49204 -8.21851,4.53324 -16.4296,9.0787 -24.65553,13.59969 -1.48571,0.81655 1.07285,-0.67341 1.46587,-0.83972 1.00837,-0.42671 2.1197,-0.71537 3.17108,-1.02517 2.33336,-0.55608 4.23553,-0.93881 6.47292,0.0255 2.45247,1.2757 4.11854,3.09524 5.08455,5.56589 0.70905,2.04269 0.50727,4.07358 0.21135,6.1507 -0.17461,2.69622 -0.78252,5.18484 -1.69763,7.7238 -1.77045,2.22795 -4.53681,3.43223 -6.92239,4.97335 -7.69501,5.92407 -23.28748,13.27315 21.53714,-11.61114 0.3672,-0.20385 -0.73167,0.41238 -1.10353,0.60842 -1.16187,0.61252 -0.53165,0.17512 -1.30078,0.76356 -1.43736,0.0771 -1.50075,-1.22011 -1.63633,-2.28562 -0.0824,-1.7962 -0.26711,-3.6254 0.0852,-5.39976 0.23743,-0.95667 1.05395,-1.30696 1.69839,-1.95779 0.84844,-0.85686 0.97867,-1.14504 2.15144,-1.6405 1.50008,-1.32038 3.28291,-2.23708 4.25951,-3.9996 0.69409,-3.25223 -3.06819,-4.68766 -5.63886,-5.59257 -12.35768,-3.59418 -14.60214,3.37044 -29.95482,14.60529 -0.66883,0.48944 0.8864,1.36711 1.3296,2.05067 2.96693,3.23661 6.06719,6.35871 9.04154,9.58977 1.65265,1.65875 3.02893,3.54425 3.89138,5.68248 0.0857,0.39762 1.97617,3.2691 1.32514,3.30515 -0.18171,0.0101 -0.33992,-0.12411 -0.50988,-0.18617 -9.01742,-5.34619 -0.98509,-0.24672 24.13735,-14.04874 0.21136,-0.11612 -0.46304,0.17316 -0.70689,0.18098 -0.30113,0.01 -0.60848,-0.0369 -0.8936,-0.12962 -0.9644,-0.31379 -1.32305,-0.70261 -2.11351,-1.30646 -2.23072,-1.86634 -4.02049,-4.05123 -4.82043,-6.79046 -0.49314,-2.54945 -0.45075,-5.15557 -0.43161,-7.73746 0.005,-0.39243 0.0104,-0.78486 0.0157,-1.1773 0,0 -26.49233,12.85205 -26.49233,12.85205 v 0 c 0.003,0.39647 0.007,0.79295 0.0102,1.18942 0.0536,2.84232 0.0938,5.71774 0.85544,8.48539 1.13021,3.12502 3.11127,5.74641 5.63531,8.01518 0.43938,0.43615 0.84159,0.90928 1.31813,1.30844 9.11138,7.63189 29.45912,-1.30436 30.62269,-12.7899 -0.2621,-1.82931 -1.07281,-3.40238 -1.97891,-5.0222 -1.09269,-2.39317 -2.57955,-4.59328 -4.52492,-6.4461 -2.92691,-3.03113 -6.05657,-5.89748 -8.69607,-9.16875 -4.50312,-8.55288 0.0506,-0.10571 -25.21289,14.12345 -0.19229,0.10831 0.25727,-0.35754 0.43678,-0.48419 0.23561,-0.16622 0.50001,-0.31246 0.78505,-0.37783 0.85554,-0.1962 1.54805,0.0338 2.3863,0.18849 0.47237,0.11764 3.05558,1.01125 3.35329,1.01796 0.17127,0.004 -0.002,-0.48699 -0.17108,-0.46169 -0.16688,0.025 -0.27761,0.18343 -0.41642,0.27514 -1.53111,1.10437 -3.00014,2.26713 -4.50486,3.40371 -1.43654,1.68765 -2.74414,3.37051 -2.84084,5.63801 -0.10128,2.04705 -0.0776,4.11114 0.26221,6.13951 0.50396,2.16485 1.40022,4.16033 3.54378,5.27863 1.39344,0.67649 2.21919,0.89324 3.71571,0.081 11.29664,-6.13166 19.90818,-10.00028 29.12271,-16.48128 2.68459,-1.76324 5.37301,-3.58272 6.22593,-6.76164 0.76226,-2.67895 1.12602,-5.43357 1.44626,-8.18835 0.24453,-2.51823 0.062,-5.01561 -0.89717,-7.40027 -1.33056,-2.93123 -3.25139,-5.37261 -6.0941,-7.13838 -2.58487,-1.7413 -4.55072,-2.36955 -7.73123,-1.77583 -11.71056,1.52288 -22.43402,10.85933 -31.42693,15.63398 8.2079,-4.49575 32.85917,-17.937 24.6237,-13.48724 -8.84959,4.78158 -17.65416,9.63843 -26.4661,14.48272 -0.34749,0.19103 -1.35883,0.81261 -1.0108,0.62247 8.11922,-4.43583 16.20916,-8.92013 24.32577,-13.36028 0.38806,-0.21229 -0.75958,0.45086 -1.13937,0.67628 -8.9166,4.84033 -17.8332,9.68066 -26.7498,14.52099 -2.37564,1.47149 -3.65626,3.47151 -5.03038,5.78769 -1.33357,2.53136 -1.99615,5.07135 -1.51232,7.91522 0.26923,2.06832 0.74248,4.09142 1.28891,6.10855 0.54175,2.39868 1.35669,4.71699 2.394,6.96434 0.91174,1.97199 1.82853,3.95307 3.40034,5.54611 1.62879,1.35659 3.35863,2.6196 5.10592,3.84495 0.93051,0.42849 1.80115,0.9152 2.85081,1.05149 2.02765,0.26328 4.37526,-0.40597 6.41006,-0.4121 3.53778,-0.56609 7.01214,-1.56758 10.10332,-3.34257 11.03783,-4.11841 1.40448,-0.4451 28.27444,-15.22688 1.89057,-1.04005 3.53211,-2.38644 5.16652,-3.75256 1.84608,-1.50793 3.48733,-3.12925 4.68713,-5.16745 1.08254,-1.88149 1.68906,-3.84177 1.60865,-6.01823 0.0253,-2.19471 0.0131,-4.38961 0.0236,-6.58442 0.005,-2.30928 0.10519,-4.6383 -0.24108,-6.93037 -0.50077,-2.18562 -1.43523,-4.13142 -3.52747,-5.33294 -2.40821,-1.18975 -4.7871,-2.41823 -7.14518,-3.69344 -2.69613,-0.98314 -5.43626,-1.85843 -8.23302,-2.54656 0,0 -24.59546,16.04633 -24.59546,16.04633 z m -152.33256,3.3245 c -1.81895,0.49581 -3.72748,0.16647 -5.50728,-0.20943 0.0757,-0.22394 0.0513,-0.27571 0.36295,-0.38887 0.44113,-0.16019 1.81881,-0.21607 1.41613,0.0187 -20.79066,12.11969 -33.40615,17.47994 -23.58072,13.27325 2.26248,-0.64199 4.64224,-0.68294 6.98428,-0.72298 0.59975,0.13761 2.80507,-0.12191 2.33538,0.95262 -1.17915,0.8971 -2.0757,1.98426 -3.51175,2.5002 -7.54213,5.47402 -27.45803,15.41408 23.43446,-12.84286 0.25526,-0.14172 -0.52932,0.2504 -0.78979,0.38323 -1.78072,0.90809 0.22214,-0.0579 -1.59631,0.80467 -1.31144,0.59935 -2.21151,0.84865 -3.60983,0.5393 -1.5105,-1.32788 -2.04597,-3.09787 -2.7753,-4.84495 -0.59945,-1.56097 -1.2184,-3.27362 -0.86227,-4.94166 1.81302,-1.24302 3.22536,-2.92029 5.06263,-4.13679 0.46193,-0.30584 0.96893,-0.54473 1.4534,-0.81709 -8.03186,4.47712 -16.06371,8.95424 -24.09557,13.43136 0.42832,-0.0623 0.85232,-0.20946 1.28495,-0.18689 2.00695,0.10468 4.83002,1.40105 6.30865,2.68553 1.34653,1.77816 1.26127,4.04638 1.31609,6.14585 0.005,2.34747 -0.0388,4.69465 -0.0575,7.04206 -0.33276,2.24975 -1.77531,2.77819 -3.61401,3.76649 -9.80694,3.58636 -0.88358,0.37684 23.67985,-13.15945 0.27996,-0.15428 -0.57026,0.29284 -0.86831,0.41246 -1.28244,0.51465 -2.69461,0.6714 -4.05077,0.91894 -2.82621,0.45574 -5.63555,0.89455 -8.47203,0.38627 -3.2969,-0.90597 -6.28299,-2.59621 -8.89321,-4.69153 -1.66936,-1.54449 -2.59601,-3.48643 -3.04182,-5.62749 -0.29228,-1.89342 -0.50928,-3.8763 0.4854,-5.6083 0.46318,-0.73319 0.50123,-1.62107 1.05024,-2.31421 0.16065,-0.20282 0.43004,-0.31458 0.58117,-0.52395 1.11335,-1.54243 -0.33435,-0.34317 1.19955,-1.42586 0.22618,-0.25074 0.42684,-0.52462 0.67854,-0.75222 1.11173,-1.00526 0.64376,-0.39784 2.02104,-1.13207 0.36997,-0.19723 1.41227,-0.89245 1.04524,-0.69032 -36.09233,19.87603 -31.86806,17.58717 -23.15246,12.87584 1.97019,-0.9758 4.14126,-1.29088 6.32549,-1.45304 2.49519,-0.33766 3.23476,0.20656 5.32744,1.43218 0,0 24.94969,-15.41235 24.94969,-15.41235 v 0 c -2.04452,-1.08285 -3.74954,-2.97213 -6.26546,-2.78728 -2.35639,0.0195 -4.73337,0.0698 -7.0235,0.66231 -11.0186,3.28718 -1.33093,0.299 -27.81996,15.05192 -1.4528,0.80913 -2.44303,2.09386 -3.47707,3.3205 -0.96066,1.71816 -1.92197,3.34792 -2.36702,5.28553 -0.35554,2.31621 -0.32113,4.61698 0.26516,6.90571 0.73667,2.68004 1.99079,5.12462 4.06759,7.11278 2.84148,2.39828 6.0764,4.36142 9.58305,5.76125 0.96869,0.32754 2.01123,0.72364 3.03055,0.90442 2.05664,0.36474 4.15038,-0.19376 6.20116,-0.32086 12.97221,-1.59991 19.01189,-3.62385 32.60585,-15.62123 1.76852,-1.63147 2.49777,-3.77721 2.45057,-6.11259 0.0245,-2.38644 0.0739,-4.7743 -0.0408,-7.15961 -0.17913,-2.81937 -0.50381,-5.6184 -2.36461,-7.9433 -0.37329,-0.39448 -0.70214,-0.83171 -1.11987,-1.18345 -2.28112,-1.92075 -5.54151,-2.45058 -8.21419,-3.67239 -9.02501,4.68741 -18.1062,9.27798 -27.07503,14.06226 -1.49829,0.79923 -4.55813,4.15506 -5.19263,5.64934 -0.22802,0.53698 -0.24242,1.13525 -0.36362,1.70288 0.1374,2.06499 0.5893,4.07538 1.47238,5.97667 0.91179,2.17863 1.82944,4.26775 3.45484,6.07562 1.44595,1.48157 3.26093,2.23998 5.41538,1.86124 0.93865,-0.20215 1.7723,-0.41274 2.61301,-0.87325 15.72098,-8.61126 18.84419,-8.97763 27.54644,-15.39945 1.33785,-1.54575 2.58938,-3.11315 2.24556,-5.24276 -0.62623,-2.19209 -2.05463,-3.86243 -4.53842,-4.16798 -2.49389,-0.45571 -5.06472,-0.17678 -7.58683,-0.0506 -11.30371,0.9066 -2.64158,0.0447 -27.72811,14.53407 -1.0121,0.58457 -0.0833,3.79267 0.36229,4.48182 0.29753,0.36173 0.52401,0.78872 0.8926,1.0852 1.346,1.08263 4.59931,1.19157 6.29753,1.50162 0,0 23.84947,-17.08707 23.84947,-17.08707 z M 262.49742,730.72174 c 0.3572,-6.84358 0.23593,-13.69934 0.17084,-20.54811 -0.91932,-18.12284 -2.53324,-36.20426 -3.64678,-54.3167 -1.01377,-19.43053 -2.41263,-38.83868 -3.61022,-58.25929 -1.35017,-24.10267 -2.15951,-48.24692 -1.74335,-72.38355 0.72048,-16.38216 2.57253,-32.69514 4.66365,-48.96244 1.89678,-12.69483 3.20709,-25.45601 4.87054,-38.17797 0.61378,-7.02814 2.01036,-13.9744 2.70917,-20.99225 0.40401,-4.05726 0.37248,-5.7856 0.49462,-9.99978 -0.10478,-19.61662 -0.3277,-39.22622 0.32386,-58.83619 0.60292,-12.6065 1.49465,-25.20664 3.68858,-37.65998 1.57235,-9.69503 4.45418,-19.11813 7.20371,-28.55144 1.421,-4.46577 2.2712,-9.057 2.61265,-13.70558 0.80987,-4.24647 0.65213,-8.58231 0.62751,-12.87733 0.16269,-10.17568 0.40493,-20.3461 1.21164,-30.49539 0.69021,-5.3498 0.76211,-10.73694 1.13542,-16.10571 0.11989,-14.43353 0.18267,-28.86586 0.59072,-43.29916 0.63298,-16.14254 1.86236,-32.26535 3.55211,-48.33812 0.14961,-0.69471 0.64654,-5.94359 1.86504,-6.42068 0.456,-0.17854 1.86195,0.0408 1.44654,0.29377 -23.06432,14.04268 -33.29456,12.66097 -20.46572,13.61303 13.81907,2.04778 27.71066,3.5815 41.60338,5.08724 13.69062,1.55638 27.2388,4.0304 40.88991,5.84975 6.2963,0.83914 17.23765,2.08959 23.46455,2.81663 35.79384,4.28151 71.88905,5.48211 107.89337,7.13036 14.87767,0.53521 29.78155,1.65068 44.68249,1.27262 6.90306,-0.17514 8.07534,-0.41037 14.84042,-1.073 10.97729,-1.48937 21.78125,-3.88726 32.67999,-5.79904 8.4598,-1.49972 16.96299,-2.67156 25.48969,-3.75551 7.35928,-0.9584 14.77497,-1.56135 22.04686,-3.04392 4.66881,-1.20583 9.50655,-1.38744 14.31303,-1.51643 6.67805,-0.10336 13.35383,-0.22964 20.0332,-0.2196 8.30367,-0.0422 16.61008,-0.0985 24.90495,0.30905 2.3553,0.47598 7.56736,-0.22026 9.54047,1.29318 0.35236,0.27027 0.56837,0.6706 0.85255,1.0059 0.40957,0.71708 0.85958,1.41451 1.22871,2.15125 2.35838,4.70714 3.95559,9.78324 5.65176,14.72589 0.90268,2.63041 1.77449,5.27034 2.66173,7.90551 1.10738,3.22102 2.21476,6.44204 3.32214,9.66306 8.88232,24.79722 15.73113,50.18949 21.18817,75.85882 1.32217,6.21936 2.48908,12.46777 3.73362,18.70165 8.62284,44.05266 11.93558,88.81142 14.86747,133.46891 2.28222,41.74074 3.30668,83.53854 3.16566,125.33364 -0.12942,22.30913 -0.7124,44.60989 -2.14772,66.87791 -1.0303,11.29205 -1.74741,22.58771 -1.86541,33.92123 0.0439,13.28039 0.021,26.55221 -0.66074,39.81873 -0.75061,10.58128 -1.67024,21.15078 -2.46438,31.72915 -0.51171,7.1192 -1.00119,14.24222 -1.37025,21.37035 -0.27399,7.1826 -0.59856,14.36347 -0.86198,21.54644 -0.0936,3.30229 -0.0799,6.58271 -0.41591,9.87136 0,0 26.48012,-12.57888 26.48012,-12.57888 v 0 c 0.26869,-3.33229 0.3312,-6.66344 0.22133,-10.0045 -0.0438,-7.08233 0.0254,-14.16858 0.50593,-21.23887 0.51055,-7.17877 1.14734,-14.34891 1.62824,-21.52959 0.23809,-10.40487 0.81227,-20.79764 1.36931,-31.19068 0.75809,-13.40205 1.31672,-26.7981 1.28373,-40.22282 0.28338,-11.14998 0.69216,-22.29646 1.07787,-33.44358 0.53909,-13.59859 1.30968,-27.21797 1.19918,-40.83072 -0.0313,-3.85195 -0.18939,-7.70201 -0.29704,-11.5527 -0.12924,-4.62304 -0.27574,-9.24562 -0.41361,-13.86841 -1.12584,-41.5547 -1.85919,-83.12959 -4.91616,-124.61148 -2.83883,-44.91114 -5.07889,-90.0457 -13.75737,-134.36333 -6.40235,-32.18897 -13.11496,-64.37881 -23.2792,-95.72178 -7.19303,-24.05323 0.84201,2.90311 -5.29909,-17.93537 -1.53252,-5.20026 -2.92499,-10.54689 -5.07123,-15.56234 -0.38079,-0.88984 -0.8606,-1.73823 -1.29089,-2.60734 -0.46569,-0.6691 -0.83072,-1.41281 -1.39707,-2.0073 -2.61254,-2.7423 -7.28327,-1.88145 -10.6762,-2.26274 -8.40473,-0.41745 -16.80958,-0.1789 -25.22347,-0.26467 -6.57652,5e-5 -13.1511,-0.21708 -19.72624,-0.0914 -4.87746,0.12604 -9.82898,0.0432 -14.6229,1.00098 -7.33801,1.88398 -14.84843,2.88385 -22.39809,3.67339 -4.39582,0.53002 -8.86415,0.77451 -13.23895,1.44061 -2.54407,0.38736 -5.04725,0.99041 -7.58248,1.42715 -1.5708,0.2706 -3.14858,0.50302 -4.72287,0.75454 -1.64117,0.27925 -8.29381,1.40342 -9.94963,1.7161 -7.67504,1.44935 -15.24648,3.39186 -22.99542,4.49424 -2.3994,0.28989 -4.79167,0.63965 -7.19821,0.86965 -17.92834,1.71336 -36.04353,0.67348 -54.01177,0.60301 -35.64607,-1.08038 -71.34657,-2.70962 -106.66527,-7.69803 -7.76627,-0.95998 -15.54807,-1.80858 -23.30374,-2.8433 -13.51092,-1.80257 -26.8562,-4.53075 -40.37056,-6.30718 -13.59739,-1.5899 -27.2685,-2.89606 -40.69365,-5.56214 -1.1369,-0.2617 -2.3332,-1.21854 -3.41069,-0.7851 -4.88668,1.96576 -25.14898,4.7773 -28.42475,14.77454 -0.72781,2.2212 -0.64924,4.61727 -0.83475,6.90371 -0.54305,15.9603 -1.62111,31.89617 -2.31966,47.85012 -0.59083,14.6673 -0.978,29.35354 -2.22612,43.98746 -0.34827,5.31147 -0.50186,10.63338 -0.76722,15.94914 -0.431,10.21668 -0.61426,20.4425 -1.29737,30.64878 -0.22232,4.34097 -0.55494,8.66209 -1.14136,12.97222 -0.32597,4.39587 -1.16602,8.7234 -2.32162,12.99068 -2.47395,9.58598 -5.27668,19.10638 -7.12056,28.82886 -1.84311,12.34258 -1.38139,24.88305 -2.12994,37.30461 -0.43147,19.7655 -0.30965,39.54787 -1.41061,59.29461 -0.72931,10.27163 -1.90174,20.50159 -3.11003,30.73124 -1.51803,12.73776 -3.16252,25.45651 -4.82406,38.1775 -1.72427,16.2255 -3.3562,32.47242 -3.6646,48.79092 -0.0335,24.14959 1.05014,48.28794 2.04569,72.41535 0.94206,19.54065 1.58409,39.09803 2.98432,58.61505 1.48743,18.10705 3.16742,36.23479 2.94978,54.41613 -0.22649,6.90485 -0.26833,13.86851 -1.36492,20.70988 0,0 26.75561,-12.5345 26.75561,-12.5345 z" />
  </g>
</svg>
