<?xml version="1.0" encoding="UTF-8" standalone="no"?>
<svg
   xmlns:dc="http://purl.org/dc/elements/1.1/"
   xmlns:cc="http://creativecommons.org/ns#"
   xmlns:rdf="http://www.w3.org/1999/02/22-rdf-syntax-ns#"
   xmlns:svg="http://www.w3.org/2000/svg"
   xmlns="http://www.w3.org/2000/svg"
   xmlns:sodipodi="http://sodipodi.sourceforge.net/DTD/sodipodi-0.dtd"
   xmlns:inkscape="http://www.inkscape.org/namespaces/inkscape"
   height="1000"
   width="1000"
   sodipodi:docname="NOUN_Spirit.svg"
   version="1.1"
   id="svg19"
   viewBox="0 0 1000 1000"
   inkscape:version="1.0.1 (3bc2e813f5, 2020-09-07)"
   inkscape:export-filename="C:\Users\metro\OneDrive\Desktop\attris-glyphs\NOUN_Light.png"
   inkscape:export-xdpi="96"
   inkscape:export-ydpi="96">
  <sodipodi:namedview
     id="base"
     pagecolor="#ffffff"
     bordercolor="#666666"
     borderopacity="1.0"
     inkscape:pageopacity="0.0"
     inkscape:pageshadow="2"
     inkscape:zoom="1"
     inkscape:cx="469.10873"
     inkscape:cy="474.14092"
     inkscape:document-units="px"
     inkscape:current-layer="layer5"
     showgrid="false"
     showguides="true"
     inkscape:window-width="1662"
     inkscape:window-height="1017"
     inkscape:window-x="0"
     inkscape:window-y="0"
     inkscape:window-maximized="0"
     showborder="true"
     inkscape:showpageshadow="false"
     inkscape:document-rotation="0">
    <sodipodi:guide
       id="guide_baseline"
       inkscape:label="baseline"
       position="0,253"
       orientation="0,1" />
    <sodipodi:guide
       id="guide_ascender"
       inkscape:label="ascender"
       position="0,945"
       orientation="0,1" />
    <sodipodi:guide
       id="guide_caps"
       inkscape:label="caps"
       position="0,896"
       orientation="0,1" />
    <sodipodi:guide
       id="guide_xheight"
       inkscape:label="xheight"
       position="0,729"
       orientation="0,1" />
    <sodipodi:guide
       id="guide_descender"
       inkscape:label="descender"
       position="0,28"
       orientation="0,1" />
  </sodipodi:namedview>
  <defs
     id="defs4" />
  <metadata
     id="metadata7">
    <rdf:RDF>
      <cc:Work
         rdf:about="">
        <dc:format>image/svg+xml</dc:format>
        <dc:type
           rdf:resource="http://purl.org/dc/dcmitype/StillImage" />
        <dc:title />
      </cc:Work>
    </rdf:RDF>
  </metadata>
  <g
     inkscape:groupmode="layer"
     id="layer5"
     inkscape:label="NOUN_Spirit"
     style="display:inline"
     sodipodi:insensitive="true">
    <path
       style="stroke-width:5;stroke-miterlimit:4;stroke-dasharray:none"
       id="path946"
       d="m 580.50691,104 c -9.13711,5.3892 -18.37776,10.6066 -27.41133,16.1676 -2.04963,1.26174 -8.07478,7.31206 -8.86191,8.08979 -2.66321,2.63138 -5.28341,5.30593 -7.92363,7.96037 -3.54355,3.56262 -7.08513,7.1272 -10.62769,10.69081 -4.29734,4.32025 -8.59467,8.64051 -12.89201,12.96077 -21.07779,21.37229 -42.64475,42.25467 -63.70506,63.64429 -14.68469,14.9143 -17.32417,17.79071 -31.49684,32.63839 -15.81732,16.67708 -31.35008,33.82388 -43.71397,53.28674 -6.51485,10.25546 -7.42578,12.73736 -12.70311,23.32481 -8.23741,16.66028 -12.13891,34.79901 -15.78738,52.87835 -1.97641,10.70056 -4.05226,21.38098 -6.04037,32.07936 -0.62097,3.07987 -1.36183,6.16018 -2.29872,9.16181 -0.24951,0.79937 -0.53728,1.58714 -0.8477,2.36489 -0.23433,0.58713 -0.63511,1.11222 -0.78516,1.72631 -0.11281,0.46162 0.01,0.95035 0.015,1.42553 0.48912,0.62421 0.7646,1.5052 1.46736,1.87263 2.17124,1.13519 4.88269,-0.73706 6.56352,-1.4857 2.56398,-1.14198 5.08693,-2.37631 7.66751,-3.48025 10.57584,-4.5242 17.043,-6.86362 28.25587,-11.17101 36.76979,-13.48667 72.79959,-29.15514 110.31624,-40.5466 7.27717,-2.20962 14.65431,-4.07549 21.98146,-6.11323 32.62899,-8.68208 66.19679,-12.62313 99.70061,-16.05692 5.45811,-0.64065 10.93878,-1.12418 16.36546,-2.01054 1.4505,-0.23692 3.1939,-0.42178 4.58519,-0.98598 -0.24527,-0.0623 -0.59376,-0.39624 -0.73581,-0.18681 -0.48754,0.7188 -0.52002,1.65802 -0.81594,2.4746 -0.57892,1.59755 -1.1528,3.19841 -1.80799,4.76622 -0.97439,2.33165 -2.01777,4.63434 -3.07892,6.9278 -5.23805,11.32102 -4.84681,10.13061 -11.37507,22.42116 -23.11938,40.10295 -50.80773,77.34304 -78.22293,114.56452 -4.77046,6.3388 -9.51963,12.69367 -14.31137,19.01638 -16.44546,21.69983 -10.4498,13.41986 -26.42056,34.92406 -12.72386,17.13232 -25.2286,34.42799 -37.85513,51.63201 -11.60468,16.13343 -23.68393,31.94698 -34.55843,48.59445 -4.59631,7.03635 -6.50048,10.36473 -10.71478,17.40787 -3.06643,5.54489 -6.49808,10.94978 -8.83491,16.86825 -1.56692,3.96853 -2.50101,8.09449 -3.34392,12.25941 -0.97158,6.16671 -1.82354,12.35366 -2.6905,18.53689 -0.91508,6.9809 -2.62944,13.88232 -2.74719,20.94325 -0.0763,1.78582 0.31065,3.47449 0.82729,5.16086 0,0 26.12168,-14.32578 26.12168,-14.32578 v 0 c -0.44424,-1.37028 -0.6434,-2.75427 -0.59644,-4.20588 0.12081,-6.92951 1.75323,-13.70338 2.77905,-20.53282 0.94302,-6.09504 1.66617,-12.21958 2.65269,-18.30599 0.77896,-3.41926 0.89292,-4.28737 2.00461,-7.6537 2.34941,-7.11425 6.02622,-13.67583 9.64151,-20.20333 13.18007,-22.49421 28.2353,-43.79236 43.47299,-64.9289 12.50609,-17.23079 25.0357,-34.44237 37.72111,-51.54193 23.74467,-32.00712 1.71388,-2.19153 26.0384,-34.75986 4.69751,-6.28953 9.3519,-12.61115 14.02786,-18.91673 27.67715,-37.79921 55.77798,-75.43878 79.8726,-115.6733 6.39285,-11.39366 7.19397,-12.41519 12.47623,-23.13848 1.54254,-3.13144 6.35302,-12.14847 6.05544,-16.15585 -0.0786,-1.0584 -0.73547,-1.99113 -1.10321,-2.9867 -0.45981,-0.21719 -0.87358,-0.59949 -1.37943,-0.65157 -0.4827,-0.0497 -4.18223,0.97739 -4.30292,1.00585 -5.68272,1.34017 -11.48136,2.01583 -17.24446,2.90991 -34.12777,4.42779 -68.44921,8.33937 -101.80625,17.1282 -7.40543,2.04919 -14.85983,3.92898 -22.21629,6.14757 -37.1622,11.20753 -72.82915,26.70243 -109.373,39.67311 -8.54105,3.10107 -18.43268,6.60312 -27.01766,10.00246 -2.39218,0.94722 -4.75978,1.95681 -7.11413,2.99453 -1.2222,0.53871 -4.05888,1.28331 -4.55228,3.15162 -0.11697,0.44293 0.20457,0.89309 0.30685,1.33964 1.53121,-4.64431 2.80632,-9.38394 3.54892,-14.22376 1.72362,-10.56545 3.5939,-21.10715 5.36026,-31.66566 3.55874,-17.71857 7.47112,-35.46781 15.36252,-51.86178 5.18443,-10.40612 6.00884,-12.71675 12.44234,-22.7992 12.16113,-19.05865 27.34679,-35.91455 42.71942,-52.39677 4.93549,-5.21941 9.82918,-10.47867 14.80646,-15.65823 26.41951,-27.49323 53.92674,-53.90557 80.96809,-80.77934 11.02279,-10.81017 21.90492,-21.84725 33.31666,-32.25426 2.02136,-1.84339 4.09024,-3.63667 6.21287,-5.36251 1.19637,-0.97272 5.09147,-3.46281 3.73647,-2.72696 -7.84729,4.26157 -15.49537,8.88017 -23.24305,13.32025 0,0 23.16693,-18.69699 23.16693,-18.69699 z" />
  </g>
</svg>
