<?xml version="1.0" encoding="UTF-8" standalone="no"?>
<svg
   xmlns:dc="http://purl.org/dc/elements/1.1/"
   xmlns:cc="http://creativecommons.org/ns#"
   xmlns:rdf="http://www.w3.org/1999/02/22-rdf-syntax-ns#"
   xmlns:svg="http://www.w3.org/2000/svg"
   xmlns="http://www.w3.org/2000/svg"
   xmlns:sodipodi="http://sodipodi.sourceforge.net/DTD/sodipodi-0.dtd"
   xmlns:inkscape="http://www.inkscape.org/namespaces/inkscape"
   height="90.484322"
   width="470.578"
   version="1.1"
   id="svg19"
   viewBox="0 0 470.578 90.484322"
   sodipodi:docname="ADJ_Make.svg"
   inkscape:version="1.0.1 (3bc2e813f5, 2020-09-07)">
  <metadata
     id="metadata8">
    <rdf:RDF>
      <cc:Work
         rdf:about="">
        <dc:format>image/svg+xml</dc:format>
        <dc:type
           rdf:resource="http://purl.org/dc/dcmitype/StillImage" />
      </cc:Work>
    </rdf:RDF>
  </metadata>
  <defs
     id="defs6" />
  <sodipodi:namedview
     pagecolor="#ffffff"
     bordercolor="#666666"
     borderopacity="1"
     objecttolerance="10"
     gridtolerance="10"
     guidetolerance="10"
     inkscape:pageopacity="0"
     inkscape:pageshadow="2"
     inkscape:window-width="830"
     inkscape:window-height="480"
     id="namedview4"
     showgrid="false"
     inkscape:zoom="2.2142981"
     inkscape:cx="-48.455879"
     inkscape:cy="-410.57214"
     inkscape:window-x="0"
     inkscape:window-y="0"
     inkscape:window-maximized="0"
     inkscape:current-layer="svg19" />
  <path
     style="stroke-width:5;stroke-miterlimit:4;stroke-dasharray:none"
     id="path1155"
     d="M 0,83.87754 C 4.37998,84.04087 8.62709,83.46738 12.91856,82.6482 27.17529,79.63941 41.59118,77.61979 56.078,76.13899 67.39431,75.20207 78.71623,73.92943 90.08695,73.9094 c 2.89271,-0.005 5.78372,0.14034 8.67558,0.21051 17.40871,0.96339 34.37858,5.26506 51.52392,8.13687 2.57032,0.34284 5.13525,0.72892 7.71097,1.02852 5.71772,0.66506 9.88898,1.02819 15.6683,1.08924 7.91294,0.0836 15.76492,-0.63362 23.63026,-1.3823 8.6962,-0.80314 17.21111,-2.83341 25.85609,-3.98957 7.62908,-1.02029 10.23722,-1.09424 17.97412,-1.66372 9.06963,-0.48663 18.15123,-0.26998 27.22781,-0.33547 3.23894,-0.0234 6.47938,-0.15399 9.7169,-0.0554 5.22046,0.15892 10.43117,0.55171 15.64675,0.82757 39.92495,2.86859 79.62011,8.11542 119.45963,11.87372 6.41317,0.50793 12.85006,1.06043 19.28866,0.74007 0.81652,-0.0406 1.62954,-0.13506 2.44317,-0.21479 0.5027,-0.0493 1.0716,0.0864 1.50551,-0.17215 11.49544,-6.84997 22.77558,-14.05496 34.16338,-21.08244 -0.70444,-3.6095 -2.98802,-6.02194 -5.59066,-8.41924 C 455.76897,52.96755 446.42416,45.59813 437.27303,37.98055 430.1482,31.82789 422.66813,26.08816 414.35484,21.62033 407.98933,18.1993 404.90228,17.04307 398.20789,14.15445 388.56479,10.33513 378.94259,6.36931 368.9294,3.59914 364.09825,2.26259 362.98876,2.13885 358.2036,1.20896 352.47022,0.32982 355.2307,0.72939 349.92366,0 c 0,0 -31.81502,22.53404 -31.81502,22.53404 v 0 c 5.43826,0.57284 2.62264,0.28325 8.44717,0.86575 4.69811,0.68083 6.02507,0.78158 10.78077,1.86833 10.12803,2.3144 19.89003,5.93784 29.52832,9.76293 7.12479,3.07319 8.86668,3.62253 15.5698,7.28216 8.09731,4.42081 15.43618,9.9859 22.47585,15.91726 8.9946,7.42063 18.07249,14.78107 26.48711,22.86386 0.87862,0.95204 2.1002,2.02023 2.84365,3.12887 0.471,0.70234 0.47005,0.97577 0.40953,0.97038 -0.1803,-0.0161 -0.31979,-0.1697 -0.47968,-0.25456 11.07745,-6.54045 22.0931,-13.18672 33.23236,-19.62135 0.45643,-0.26366 -0.67964,0.84561 -1.14789,1.08765 -0.7908,0.40877 -1.67245,0.62774 -2.54175,0.81952 -6.79764,1.49969 -13.86056,1.01497 -20.75097,1.07971 -4.43737,-0.16952 -8.87769,-0.27404 -13.31209,-0.50855 -35.6774,-1.88678 -71.18312,-6.15368 -106.56849,-10.95622 -4.85517,-0.62755 -9.69624,-1.37601 -14.56551,-1.88265 -12.32501,-1.2824 -24.75769,-0.12513 -37.10329,0.0727 -4.98386,0.28596 -12.77335,0.67949 -17.79525,1.17251 -6.50152,0.63827 -12.84373,1.89859 -19.26407,3.03156 -2.16809,0.38259 -4.34518,0.7123 -6.51777,1.06845 -7.7778,0.92284 -15.55441,1.79097 -23.39911,1.86542 -5.84744,0.0555 -9.6346,-0.24144 -15.4328,-0.82661 -2.56576,-0.25895 -5.12291,-0.59705 -7.68437,-0.89558 -8.1977,-1.22263 -7.87246,-1.10216 -16.17698,-2.64053 -8.92397,-1.65312 -17.8213,-3.68802 -26.82593,-4.8758 -2.96472,-0.39107 -5.95227,-0.58348 -8.92841,-0.87523 -2.88961,-0.15966 -5.77586,-0.40082 -8.66882,-0.47898 -11.35254,-0.30668 -22.72363,0.64493 -34.00458,1.7892 -14.226,1.6623 -28.44892,3.38256 -42.57426,5.77612 -3.96838,0.60326 -7.91266,1.68021 -11.9563,1.35355 0,0 -32.18488,23.38368 -32.18488,23.38368 z" />
</svg>
