<?xml version="1.0" encoding="UTF-8" standalone="no"?>
<svg
   xmlns:dc="http://purl.org/dc/elements/1.1/"
   xmlns:cc="http://creativecommons.org/ns#"
   xmlns:rdf="http://www.w3.org/1999/02/22-rdf-syntax-ns#"
   xmlns:svg="http://www.w3.org/2000/svg"
   xmlns="http://www.w3.org/2000/svg"
   xmlns:sodipodi="http://sodipodi.sourceforge.net/DTD/sodipodi-0.dtd"
   xmlns:inkscape="http://www.inkscape.org/namespaces/inkscape"
   height="292.42697"
   width="361.48886"
   version="1.1"
   id="svg19"
   viewBox="0 0 361.48886 292.42697"
   sodipodi:docname="ADJ_Yes.svg"
   inkscape:version="1.0.1 (3bc2e813f5, 2020-09-07)">
  <metadata
     id="metadata8">
    <rdf:RDF>
      <cc:Work
         rdf:about="">
        <dc:format>image/svg+xml</dc:format>
        <dc:type
           rdf:resource="http://purl.org/dc/dcmitype/StillImage" />
      </cc:Work>
    </rdf:RDF>
  </metadata>
  <defs
     id="defs6" />
  <sodipodi:namedview
     pagecolor="#ffffff"
     bordercolor="#666666"
     borderopacity="1"
     objecttolerance="10"
     gridtolerance="10"
     guidetolerance="10"
     inkscape:pageopacity="0"
     inkscape:pageshadow="2"
     inkscape:window-width="830"
     inkscape:window-height="480"
     id="namedview4"
     showgrid="false"
     inkscape:zoom="2.8825231"
     inkscape:cx="-136.58764"
     inkscape:cy="-191.12948"
     inkscape:window-x="0"
     inkscape:window-y="0"
     inkscape:window-maximized="0"
     inkscape:current-layer="svg19" />
  <path
     id="path1189"
     style="stroke-width:5;stroke-miterlimit:4;stroke-dasharray:none"
     d="m 136.41281,171.34888 c 3.63541,-0.14334 7.27546,-0.0866 10.91264,-0.0568 2.37065,0.0226 4.74137,0.0353 7.11211,0.0414 2.92524,0.0118 5.84958,-0.0633 8.77483,-0.0701 3.36277,0.0228 6.7256,0.0146 10.08838,0.0338 2.80301,0.0336 5.60609,0.004 8.40912,-0.007 4.5306,0.44656 9.009,1.31918 13.52337,1.929 3.46225,0.64296 6.94897,0.61811 10.44688,0.53557 1.14089,-0.12343 2.24553,-0.43992 3.3639,-0.68383 0,0 31.71976,-23.86451 31.71976,-23.86451 v 0 c -1.14318,0.13921 -2.30692,0.22212 -3.39038,0.64791 -3.13438,1.16246 -6.83577,0.84436 -10.09786,0.67004 -2.77731,-0.29774 -5.5636,-0.58183 -8.30664,-1.12675 -0.68493,-0.13607 -1.35891,-0.32236 -2.03836,-0.48354 -0.49694,-0.14493 -0.98491,-0.32516 -1.4908,-0.43478 -0.49734,-0.10777 -1.00755,-0.14384 -1.51132,-0.21575 -2.841,-0.42875 -5.71784,-0.2237 -8.5851,-0.24644 -3.39384,0.0191 -6.78773,0.0112 -10.18157,0.0338 -2.86091,-0.007 -5.72085,-0.0825 -8.58176,-0.0701 -2.40873,0.006 -4.81743,0.0191 -7.22606,0.0414 -3.58496,0.0287 -7.17331,0.0904 -10.75626,-0.0568 0,0 -32.18488,23.38368 -32.18488,23.38368 z M 35.33593,252.33896 c -0.64882,-10.96125 -0.62682,-21.95392 -0.70349,-32.93103 -0.40738,-15.81809 0.54581,-31.6018 2.37002,-47.30552 1.95728,-15.74598 4.91836,-31.36561 8.39192,-46.84341 2.77861,-12.39788 7.75106,-24.0441 13.44302,-35.338851 6.24883,-11.52515 15.73732,-20.72669 24.83464,-29.98531 9.44562,-10.29827 20.33729,-18.63577 31.68539,-26.68951 5.68252,-3.87097 11.33065,-7.80484 17.1641,-11.44869 1.49724,-0.93525 3.01674,-1.83469 4.54003,-2.7269 1.30688,-0.76546 5.2579,-3.00926 3.94988,-2.24575 -9.90687,5.78281 -19.83109,11.53583 -29.74663,17.30375 9.65778,-4.95137 20.47802,-6.42663 31.09857,-7.83884 12.78197,-1.57382 25.62152,-2.52078 38.4738,-3.27488 2.2749,-0.10477 4.54881,-0.23381 6.8247,-0.3143 5.18443,-0.18335 8.7289,-0.29501 13.95498,0.12491 11.63399,0.93481 23.13177,3.22629 34.59456,5.30864 14.82565,3.30304 30.27143,5.55907 44.07527,12.28085 6.49568,3.16308 8.90405,5.24491 14.72458,9.40145 9.22744,7.59051 17.47468,16.6229 22.17246,27.75275 0.68327,1.6188 1.17557,3.31172 1.76335,4.96758 2.92167,10.79511 3.2695,22.018601 3.52695,33.130131 -0.37357,11.64076 1.07499,23.1898 2.20743,34.74743 1.16762,12.05198 1.58365,24.15127 1.68579,36.25318 -0.0137,1.86015 -0.035,3.72026 -0.0412,5.58045 -0.007,1.98305 0.0147,12.98572 -0.0224,14.50356 -0.18158,7.42854 -0.84713,14.83268 -1.44976,22.23488 -0.65931,9.95138 -1.00455,19.94125 -0.4819,29.90558 0.95796,7.89135 1.94465,15.75776 2.41049,23.69732 -0.14878,2.8124 0.77586,6.7609 -1.73378,8.92073 -0.54358,0.46782 -1.29727,0.61188 -1.9459,0.91782 0,0 36.40446,-15.09972 36.40446,-15.09972 v 0 c 0.4147,-0.76767 0.94773,-1.48237 1.24412,-2.30301 1.1921,-3.30071 0.61303,-6.87535 0.47902,-10.27363 -0.57891,-7.95929 -1.13755,-15.91787 -2.11707,-23.84096 -0.73238,-9.67894 -0.7451,-19.39677 -0.0329,-29.08167 0.70813,-14.24634 1.5029,-28.49732 1.64823,-42.76253 -0.42086,-12.13628 -0.78898,-24.28843 -2.07363,-36.37166 -0.57934,-6.23212 -1.21363,-12.45978 -1.50981,-18.71392 -0.25936,-5.47667 -0.13528,-5.2899 -0.22776,-10.67964 -0.03,-1.7494 -0.0861,-3.498261 -0.12907,-5.247391 -0.41924,-11.49295 -0.87833,-23.14504 -4.11773,-34.25512 -0.69488,-1.7596 -1.28907,-3.56238 -2.08465,-5.2788 -5.32795,-11.4947 -14.1582,-20.84722 -23.74378,-28.92176 -5.8346,-4.23899 -8.83213,-6.78602 -15.37234,-10.01913 -14.18299,-7.01126 -30.17544,-8.60509 -45.35778,-12.2915404 -7.4888,-1.59691 -16.91637,-3.65861 -24.54198,-5.10191 -2.98771,-0.56548 -5.97396,-1.15642 -8.98762,-1.56139004 -6.9953,-0.94 -13.99644,-0.65486 -21.01421,-0.19686 -12.85657,0.66657004 -25.71905,1.25964004 -38.49294,2.94996004 -10.61443,1.28857 -21.45111,2.23517 -31.43147,6.36668 -20.9279,11.9293004 -42.2011,23.0943004 -61.57712,37.4547904 -11.37637,8.28567 -22.29416,16.97923 -31.77333,27.45031 -9.19492,9.56402 -18.53462,19.27571 -24.62289,31.208561 -5.51407,11.45974 -9.71723,23.44652 -12.45192,35.88635 -3.4233,15.61485 -6.25615,31.38395 -8.27745,47.24239 C 1.25925,204.8314 0.6316,220.76094 0.70349,236.69563 0.62569,247.91196 0.63669,259.1421 0,270.34355 c 0,0 35.336,-18.00459 35.336,-18.00459 z" />
</svg>
