<?xml version="1.0" encoding="UTF-8" standalone="no"?>
<svg
   xmlns:dc="http://purl.org/dc/elements/1.1/"
   xmlns:cc="http://creativecommons.org/ns#"
   xmlns:rdf="http://www.w3.org/1999/02/22-rdf-syntax-ns#"
   xmlns:svg="http://www.w3.org/2000/svg"
   xmlns="http://www.w3.org/2000/svg"
   xmlns:sodipodi="http://sodipodi.sourceforge.net/DTD/sodipodi-0.dtd"
   xmlns:inkscape="http://www.inkscape.org/namespaces/inkscape"
   height="346.3541"
   width="393.02252"
   version="1.1"
   id="svg19"
   viewBox="0 0 1179.0676 1039.0623"
   sodipodi:docname="ADJ_That.svg"
   inkscape:version="1.0.1 (3bc2e813f5, 2020-09-07)">
  <metadata
     id="metadata8">
    <rdf:RDF>
      <cc:Work
         rdf:about="">
        <dc:format>image/svg+xml</dc:format>
        <dc:type
           rdf:resource="http://purl.org/dc/dcmitype/StillImage" />
        <dc:title></dc:title>
      </cc:Work>
    </rdf:RDF>
  </metadata>
  <defs
     id="defs6" />
  <sodipodi:namedview
     pagecolor="#ffffff"
     bordercolor="#666666"
     borderopacity="1"
     objecttolerance="10"
     gridtolerance="10"
     guidetolerance="10"
     inkscape:pageopacity="0"
     inkscape:pageshadow="2"
     inkscape:window-width="1920"
     inkscape:window-height="1017"
     id="namedview4"
     showgrid="false"
     inkscape:zoom="0.86766803"
     inkscape:cx="-273.93048"
     inkscape:cy="-76.703735"
     inkscape:window-x="-8"
     inkscape:window-y="-8"
     inkscape:window-maximized="1"
     inkscape:current-layer="svg19"
     inkscape:document-rotation="0"
     scale-x="3" />
  <path
     style="stroke-width:5;stroke-miterlimit:4;stroke-dasharray:none"
     id="path1110"
     d="m 607.19101,349.17937 c 1.3113,0.16485 2.63097,0.273 3.93389,0.49456 5.79123,0.98481 18.93766,3.70352 23.53509,4.65576 17.72351,3.67096 35.36786,7.58585 52.97743,11.76637 13.4494,3.52253 28.2218,5.99949 38.71961,15.95905 5.21375,4.94643 6.41771,7.86051 10.16265,13.99161 1.40794,3.05956 2.97064,6.05254 4.2238,9.17868 4.32282,10.78369 7.13807,22.15434 10.04629,33.37245 5.51702,21.28129 0.36606,1.70404 6.02955,23.1105 4.4647,17.04893 9.53859,34.00369 12.35478,51.43364 0.58787,3.63842 1.0131,7.30125 1.51965,10.95188 1.63086,15.54441 2.97941,31.23291 1.68933,46.86184 -0.8048,9.74995 -1.80954,13.81342 -3.59177,23.44863 -3.41423,15.07717 -7.21977,30.32724 -14.95689,43.86931 -5.10861,8.94148 -6.45131,9.68949 -13.19133,17.3476 6.49358,-2.95073 -22.31316,17.19855 -17.2724,12.25598 4.00624,-3.92821 12.1196,-4.41357 13.68398,-9.80185 1.09333,-3.7658 -7.64441,1.79367 -11.5242,2.3628 -9.10154,1.33512 -17.07392,1.33246 -26.26915,1.64185 -34.70172,1.21441 -69.07598,-4.13676 -103.29306,-9.12806 -6.48204,-0.98914 -12.96319,-1.98415 -19.44613,-2.96743 -15.59441,-2.36526 -22.98949,-3.54409 -38.5707,-5.5437 -15.82994,-2.03153 -31.70973,-3.68957 -47.56295,-5.52704 -9.29512,-1.39944 -19.32434,-2.42719 -27.45323,-7.70548 -5.26491,-3.41864 -9.65435,-8.62038 -13.14159,-13.71847 -2.15106,-3.1447 -3.87373,-6.56194 -5.81059,-9.84292 -10.23107,-19.98126 -15.30671,-42.0849 -15.49713,-64.51964 -0.0479,-5.64741 0.43104,-11.28701 0.64656,-16.93051 2.54298,-29.60508 10.89808,-58.41747 23.67994,-85.21008 2.45868,-5.15374 5.29974,-10.11617 7.94961,-15.17426 9.75263,-16.56365 21.134,-32.42621 35.44582,-45.38944 7.63065,-6.91162 10.37071,-8.3841 18.80976,-14.19043 -4.40204,2.59363 -9.48929,4.27518 -13.20613,7.78089 -2.83288,2.67196 6.94071,-3.5362 10.4641,-5.19462 7.9612,-3.74726 16.18492,-7.17909 24.61767,-9.7292 2.08587,-0.63078 4.21197,-1.11996 6.31795,-1.67995 12.91227,-2.70629 26.17889,-2.91036 39.31079,-2.38876 10.84188,0.52167 21.67437,1.22329 32.53005,1.35833 0.90166,-0.021 1.80332,-0.0419 2.70498,-0.0629 0,0 23.7325,-17.47203 23.7325,-17.47203 v 0 c -0.9087,0.0932 -1.8174,0.18638 -2.7261,0.27957 -10.95575,0.29813 -21.89265,-0.10447 -32.82025,-0.95694 -13.31648,-0.68441 -26.75771,-0.31015 -39.94072,1.79256 -2.19181,0.54311 -4.40672,1.00029 -6.57543,1.62932 -5.18143,1.50286 -10.83284,3.64043 -15.77822,5.69183 -19.08458,7.91651 -37.01798,17.82525 -54.41134,29.113 -8.31878,5.9782 -11.0737,7.52702 -18.53082,14.61606 -13.88102,13.19587 -24.77258,29.23381 -34.2513,45.7635 -2.58663,5.09812 -5.35046,10.11013 -7.75987,15.29436 -12.63039,27.17623 -20.82587,56.24416 -23.37313,86.13551 -0.26325,5.76544 -0.79253,11.52487 -0.78975,17.29632 0.0112,23.35776 4.96882,45.16144 15.42874,66.01844 5.25138,9.26901 10.25106,19.05061 19.33879,25.28236 8.43757,5.78592 19.01906,6.76507 28.82328,7.94076 16.14033,1.4861 32.29474,2.8967 48.38813,4.844 15.31734,1.85339 23.30212,3.12112 38.60381,5.45911 6.47425,0.98923 12.94463,2.0036 19.41694,3.00539 34.00373,5.11414 68.12508,10.90287 102.64052,10.16484 9.14117,-0.15781 17.16362,-0.0695 26.2438,-1.09017 3.92365,-0.44103 8.05435,-0.35387 11.69438,-1.8835 2.71974,-1.14291 33.19058,-15.45912 43.28293,-23.25309 2.82925,-2.18493 5.27517,-4.82564 7.91275,-7.23846 6.53033,-7.92962 7.93769,-8.85792 12.85781,-17.98401 7.45742,-13.83237 11.09547,-29.25794 14.48771,-44.46981 1.75447,-9.81455 2.74607,-13.89771 3.48676,-23.83112 1.17745,-15.79083 -0.37105,-31.62208 -1.81881,-47.33436 -1.25176,-9.66971 -1.36779,-12.01037 -3.28818,-21.38748 -2.85406,-13.93624 -7.44349,-27.43753 -10.89583,-41.22354 -3.02135,-11.52315 -5.84757,-23.10836 -9.02587,-34.58944 -1.72369,-6.22652 -4.64964,-16.37062 -6.97886,-22.45756 -1.24601,-3.2562 -2.80531,-6.38372 -4.20796,-9.57559 -3.85318,-6.47793 -5.15499,-9.67833 -10.59572,-14.93524 -11.08309,-10.70865 -26.38726,-12.76336 -40.76456,-16.05085 -26.1588,-5.80727 -52.3872,-11.45304 -78.11777,-18.98591 0,0 -24.25439,17.25514 -24.25439,17.25514 z" />
</svg>
