<?xml version="1.0" encoding="UTF-8" standalone="no"?>
<svg
   xmlns:dc="http://purl.org/dc/elements/1.1/"
   xmlns:cc="http://creativecommons.org/ns#"
   xmlns:rdf="http://www.w3.org/1999/02/22-rdf-syntax-ns#"
   xmlns:svg="http://www.w3.org/2000/svg"
   xmlns="http://www.w3.org/2000/svg"
   xmlns:sodipodi="http://sodipodi.sourceforge.net/DTD/sodipodi-0.dtd"
   xmlns:inkscape="http://www.inkscape.org/namespaces/inkscape"
   height="346.3541"
   width="393.02252"
   version="1.1"
   id="svg19"
   viewBox="0 0 1179.0676 1039.0623"
   sodipodi:docname="ADJ_Both.svg"
   inkscape:version="1.0.1 (3bc2e813f5, 2020-09-07)">
  <metadata
     id="metadata8">
    <rdf:RDF>
      <cc:Work
         rdf:about="">
        <dc:format>image/svg+xml</dc:format>
        <dc:type
           rdf:resource="http://purl.org/dc/dcmitype/StillImage" />
        <dc:title></dc:title>
      </cc:Work>
    </rdf:RDF>
  </metadata>
  <defs
     id="defs6" />
  <sodipodi:namedview
     pagecolor="#ffffff"
     bordercolor="#666666"
     borderopacity="1"
     objecttolerance="10"
     gridtolerance="10"
     guidetolerance="10"
     inkscape:pageopacity="0"
     inkscape:pageshadow="2"
     inkscape:window-width="1920"
     inkscape:window-height="1017"
     id="namedview4"
     showgrid="false"
     inkscape:zoom="0.61353395"
     inkscape:cx="-177.90033"
     inkscape:cy="-53.993293"
     inkscape:window-x="-8"
     inkscape:window-y="-8"
     inkscape:window-maximized="1"
     inkscape:current-layer="svg19"
     inkscape:document-rotation="0" />
  <path
     id="path1087-1"
     style="display:inline;stroke-width:5;stroke-miterlimit:4;stroke-dasharray:none"
     d="m 617.51499,478.97131 c -0.51968,0.11501 -1.0522,0.18253 -1.55905,0.34503 -0.55313,0.17734 -1.10573,0.37948 -1.60844,0.67048 -19.44895,11.25825 -35.49456,15.6124 -48.38819,30.40357 -3.55596,3.71166 -4.86579,7.34856 -6.10432,12.21585 -1.8054,6.43128 -2.36571,13.08504 -2.7592,19.72333 -0.67703,7.46406 1.08079,12.94085 4.4866,19.46152 2.89212,5.60843 7.11918,10.24584 11.21189,14.98011 3.52544,3.75601 6.62613,7.92872 10.64239,11.1879 4.71394,3.01534 10.42934,1.74973 15.67416,1.26547 5.73785,-0.54823 11.52301,-0.66904 17.21424,-1.629 39.44363,-21.96562 43.28725,-10.46905 45.15708,-35.00799 0.0145,-5.31267 -1.18029,-10.49743 -1.94502,-15.72673 -0.87946,-4.85007 -2.38678,-9.56651 -3.97743,-14.22379 -1.14861,-3.13078 -2.57808,-6.13281 -4.35899,-8.95101 -2.3842,-3.16054 -5.22803,-5.93901 -7.91023,-8.8428 -3.18959,-3.35124 -5.87954,-7.11477 -8.5937,-10.84687 -2.19997,-3.15105 -4.10451,-6.47498 -6.51321,-9.4731 -2.60016,-2.97699 -5.27132,-5.84609 -8.80338,-7.68681 -17.51841,-4.79399 -1.96438,-0.89318 -45.12095,24.28078 -0.37883,0.22097 -0.34467,0.81266 -0.5911,1.17545 -0.67062,0.98728 -1.34528,1.33773 -2.06799,2.55309 -1.35302,2.95557 -1.60691,6.34738 -1.89759,9.56042 -0.31831,3.68775 -0.10171,7.29292 0.52749,10.92873 0.18646,0.89212 0.37937,1.78291 0.55939,2.67635 0.87939,4.3644 2.12938,7.43707 3.97653,11.4363 1.99061,4.03422 3.24732,8.34288 4.5276,12.63969 0.98689,3.63559 2.72978,6.89412 5.09553,9.80085 1.95797,2.24962 4.36939,4.05169 6.77068,5.79964 1.97136,1.37565 3.87751,2.82695 6.06811,3.83663 1.75977,0.52193 3.56135,0.90341 5.33126,1.43876 0,0 40.96727,-28.05416 40.96727,-28.05416 v 0 c -1.33719,-0.35934 -0.67636,-0.14173 -1.98151,-0.65571 -1.91192,-0.57556 0.47627,0.37751 -1.55724,-0.38885 -0.32406,-0.12213 -0.6174,-0.33146 -0.95478,-0.40962 -0.25701,-0.0596 -0.52763,0.003 -0.79145,0.005 -2.10558,-0.11162 -3.53679,-1.24981 -5.27272,-2.35091 -2.12717,-1.4914 -4.2746,-2.98949 -6.14154,-4.80036 -2.11654,-2.27195 -3.49659,-4.95001 -4.34932,-7.94422 -1.53477,-4.44682 -2.68175,-9.05876 -4.77617,-13.28539 -2.0214,-4.0002 -3.56513,-8.10888 -3.86909,-12.63857 -0.22758,-3.32031 -0.18312,-6.66453 0.2597,-9.9684 0.43214,-2.66741 1.01143,-5.23658 3.23349,-6.99903 0.73688,-0.57371 1.48994,-1.54149 2.30983,-1.96721 0.29473,-0.15303 1.25494,-0.40632 0.96649,-0.24177 -42.40224,24.18853 -48.21767,38.34614 -41.51431,22.64752 0.16969,-0.22539 0.2614,-0.54107 0.50908,-0.67616 1.75362,-0.95652 5.18454,3.58186 6.15478,4.57847 2.28203,3.01877 4.3692,6.16291 6.61298,9.2106 2.82011,3.90595 5.60833,7.84499 8.73279,11.51716 2.5595,2.63736 5.29653,5.13806 7.30838,8.2446 1.71722,2.34241 2.89567,5.02592 4.00683,7.69532 1.56319,4.36444 2.89587,8.80055 3.69234,13.37611 0.82517,4.82916 1.7217,9.72589 1.17812,14.64109 -0.24533,1.64617 -0.38594,3.71467 -1.43189,5.11239 -0.24539,0.32791 -0.58479,0.59623 -0.95302,0.77554 -0.32155,0.15658 -1.36364,0.38038 -1.05382,0.20169 13.74132,-7.92509 27.59905,-15.64659 41.39858,-23.46989 -0.49948,0.31192 -0.96267,0.69138 -1.49844,0.93575 -4.57423,2.08641 -10.35835,1.5187 -15.23467,2.05888 -2.8421,0.19485 -5.68823,0.38936 -8.51512,0.75445 -0.34727,0.0448 -3.08122,0.50148 -3.66963,0.5201 -0.39432,0.0125 -0.78572,-0.0721 -1.17858,-0.10817 -4.30464,-2.19967 -7.1086,-6.4334 -10.58871,-9.65424 -3.78127,-4.47633 -7.31263,-9.19348 -10.46019,-14.13675 -1.12078,-2.15494 -1.67942,-2.99191 -2.40054,-5.32673 -1.17293,-3.79764 -1.15554,-7.81813 -0.87,-11.73978 0.49406,-6.35268 1.2849,-12.7133 3.52279,-18.72459 0.66687,-1.59786 1.02103,-2.64564 1.91177,-4.09233 1.4037,-2.2798 3.30511,-4.20664 5.18404,-6.08748 1.24206,-1.10328 2.10849,-1.925 3.44679,-2.90881 0.54199,-0.39843 2.2623,-1.45456 1.67863,-1.12014 -73.76932,42.26587 -51.34729,31.8305 -38.44964,21.81385 0,0 39.39354,-30.33113 39.39354,-30.33113 z m -9.79173,-2.85198 c -3.75903,0.5532 -7.60044,1.86526 -10.90649,3.77665 -14.76544,8.53662 -29.47382,17.17155 -44.21073,25.75733 -2.88906,2.28915 -5.94986,4.40515 -8.66073,6.91366 -1.06805,0.98833 -2.05942,2.05733 -3.12538,3.04792 -2.30333,2.82039 -4.97817,5.41086 -7.0336,8.43044 -0.92219,1.35478 -2.37559,4.10204 -3.14052,5.50156 -1.98011,3.94653 -4.07888,7.88895 -5.16246,12.20326 -0.38655,1.53905 -0.92285,5.18363 -1.1626,6.70598 -0.75542,7.37342 -1.47759,14.82126 -1.3065,22.24083 0.42668,3.80382 0.62017,7.94113 2.39764,11.43359 1.39339,2.73782 2.25575,3.28241 4.4244,5.55524 4.73897,4.22036 10.12022,7.5465 16.04759,9.82191 4.06159,1.55917 6.4519,2.09339 10.63781,3.22838 5.25344,1.17106 10.51059,2.6518 15.91062,2.98546 3.35942,0.20758 4.13101,0.0357 7.51414,-0.20874 6.56312,-0.66282 12.74373,-2.82498 18.89969,-5.04979 4.42066,-1.65965 8.7977,-3.44227 13.09265,-5.40605 1.15967,-0.53024 2.347,-1.01176 3.45312,-1.6462 44.72474,-25.65278 32.08518,-14.40189 47.26121,-28.30831 4.44104,-4.78975 7.48534,-10.54457 10.16806,-16.4412 2.07691,-3.55989 3.26272,-7.53658 4.26066,-11.50994 1.35058,-4.30596 2.87872,-8.10172 3.47676,-12.61024 0.59653,-5.17197 0.8451,-10.37582 1.0733,-15.57469 0.38384,-3.80083 -0.40215,-7.50041 -1.40337,-11.14194 -1.72209,-4.55342 -4.31978,-8.72372 -7.01489,-12.7566 -2.57864,-3.94937 -5.91292,-7.25177 -9.46561,-10.31256 -3.00409,-2.42778 -5.81503,-5.07953 -8.94741,-7.34419 -2.48464,-1.61629 -5.33112,-2.52228 -8.05415,-3.65211 -4.16346,-1.50529 -8.58473,-2.05078 -12.92179,-2.8265 -3.77982,-0.79648 -7.54501,-1.65905 -11.36666,-2.23336 -2.29342,-0.29015 -4.56318,-0.51796 -6.87026,-0.52861 -16.66987,6.31392 -2.8422,1.01052 -44.5422,25.45603 -0.34335,0.20128 -0.49284,0.63069 -0.79067,0.8947 -0.26993,0.23928 -0.61508,0.37994 -0.89869,0.60283 -0.51873,0.40767 -1.64167,1.51589 -2.07097,1.92942 -2.22179,2.23125 -4.48762,4.44018 -6.19972,7.10471 -1.26894,0.96408 -1.79092,2.42072 -2.63117,3.69328 -0.34319,0.51977 -0.79332,0.96129 -1.16157,1.4636 -1.16409,1.58785 -1.1082,1.6493 -2.04447,3.43548 -2.5339,3.10179 -3.78242,6.96644 -5.78381,10.37359 -0.55969,0.86507 -0.81915,1.8902 -1.34899,2.76997 -0.22118,0.36726 -0.54452,0.66399 -0.78384,1.0197 -0.72065,1.0711 -1.09401,2.17937 -1.43287,3.40995 -0.91066,1.98229 -1.71812,3.93797 -2.10107,6.09888 -0.58487,0.92905 -0.3312,0.43026 -0.7474,1.50322 0,0 45.07496,-20.96844 45.07496,-20.96844 v 0 c 0.42232,-1.16976 0.24102,-0.5426 0.51661,-1.88917 0.76084,-1.86415 1.63449,-3.67574 2.33879,-5.56322 1.30883,-2.17143 2.48718,-4.38277 3.56231,-6.68303 1.62419,-3.52641 3.75206,-6.7581 5.84441,-10.01927 2.00856,-2.7834 4.02521,-5.53788 6.23782,-8.15788 2.08715,-2.15066 4.15944,-4.32102 6.53858,-6.15573 1.03744,-0.77463 2.09842,-1.68694 3.1877,-2.38349 0.30212,-0.19319 1.27932,-0.64722 0.96856,-0.46827 -46.67884,26.87991 -55.27154,31.9982 -40.69712,23.32814 0.19847,-0.27343 0.33695,-0.60267 0.59539,-0.82029 0.20616,-0.17359 0.50409,-0.19267 0.74678,-0.30986 0.25023,-0.12083 0.45908,-0.34003 0.72971,-0.40308 1.07418,-0.25026 2.30534,0.1591 3.38927,0.003 3.84442,0.16951 7.651,0.73538 11.40597,1.57912 4.05142,0.92907 8.14109,1.6127 12.22268,2.38318 1.41047,0.45374 2.61295,1.097 3.96151,1.68523 1.62342,0.70813 0.73922,0.23012 2.33909,0.70569 0.40097,0.11919 0.78689,0.28416 1.18033,0.42624 3.28692,1.68319 5.8656,4.43878 8.76372,6.68237 3.3289,2.66113 6.39301,5.55062 8.79864,9.10617 2.43662,3.50604 4.77805,7.21952 6.01085,11.33666 0.74232,3.27817 1.08379,6.52683 0.83565,9.89506 -0.0758,4.94793 -0.27355,9.92358 -1.33548,14.77478 -1.14646,4.10176 -2.52889,8.13229 -3.68199,12.23284 -1.26319,3.70052 -2.8577,7.25726 -4.53917,10.78462 -2.69662,5.41513 -5.90389,10.56962 -10.80139,14.288 -14.93727,10.203 -4.00197,2.63057 36.15798,-20.4027 1.1526,-0.66106 -2.29734,1.33782 -3.47676,1.94974 -4.10116,2.12781 -8.37492,3.91918 -12.6739,5.60086 -5.98637,2.18252 -11.95231,4.48691 -18.18554,5.87415 -1.16688,0.21464 -2.32377,0.4933 -3.50063,0.64392 -6.48377,0.82981 -12.97397,-0.47198 -19.32734,-1.6281 -8.95512,-2.08118 -17.78799,-4.68814 -24.64849,-11.15182 -0.65964,-0.67292 -1.38801,-1.28476 -1.97894,-2.01877 -2.59797,-3.227 -2.65839,-7.87228 -2.98278,-11.77814 -0.0125,-7.13588 0.26903,-14.29753 1.66079,-21.31739 1.42176,-6.30363 3.58705,-11.89498 7.11138,-17.3592 3.13661,-4.7057 6.79404,-9.05887 11.04724,-12.80536 3.69154,-3.40152 7.72851,-6.42894 11.97563,-9.10355 -13.2943,7.66002 -26.57141,15.34997 -39.88291,22.98005 -0.70797,0.4058 1.37144,-0.88519 2.07048,-1.30618 2.33254,-1.40472 4.83942,-2.42907 7.30247,-3.57726 0,0 39.81008,-29.79585 39.81008,-29.79585 z m -8.99874,-121.4745 c 1.3113,0.16485 2.63097,0.273 3.93389,0.49456 5.79123,0.98481 18.93766,3.70352 23.53509,4.65576 17.72351,3.67096 35.36786,7.58585 52.97743,11.76637 13.4494,3.52253 28.2218,5.99949 38.71961,15.95905 5.21375,4.94643 6.41771,7.86051 10.16265,13.99161 1.40794,3.05956 2.97064,6.05254 4.2238,9.17868 4.32282,10.78369 7.13807,22.15434 10.04629,33.37245 5.51702,21.28129 0.36606,1.70404 6.02955,23.1105 4.4647,17.04893 9.53859,34.00369 12.35478,51.43364 0.58787,3.63842 1.0131,7.30125 1.51965,10.95188 1.63086,15.54441 2.97941,31.23291 1.68933,46.86184 -0.8048,9.74995 -1.80954,13.81342 -3.59177,23.44863 -3.41423,15.07717 -7.21977,30.32724 -14.95689,43.86931 -5.10861,8.94148 -6.45131,9.68949 -13.19133,17.3476 6.49358,-2.95073 -22.31316,17.19855 -17.2724,12.25598 4.00624,-3.92821 12.1196,-4.41357 13.68398,-9.80185 1.09333,-3.7658 -7.64441,1.79367 -11.5242,2.3628 -9.10154,1.33512 -17.07392,1.33246 -26.26915,1.64185 -34.70172,1.21441 -69.07598,-4.13676 -103.29306,-9.12806 -6.48204,-0.98914 -12.96319,-1.98415 -19.44613,-2.96743 -15.59441,-2.36526 -22.98949,-3.54409 -38.5707,-5.5437 -15.82994,-2.03153 -31.70973,-3.68957 -47.56295,-5.52704 -9.29512,-1.39944 -19.32434,-2.42719 -27.45323,-7.70548 -5.26491,-3.41864 -9.65435,-8.62038 -13.14159,-13.71847 -2.15106,-3.1447 -3.87373,-6.56194 -5.81059,-9.84292 -10.23107,-19.98126 -15.30671,-42.0849 -15.49713,-64.51964 -0.0479,-5.64741 0.43104,-11.28701 0.64656,-16.93051 2.54298,-29.60508 10.89808,-58.41747 23.67994,-85.21008 2.45868,-5.15374 5.29974,-10.11617 7.94961,-15.17426 9.75263,-16.56365 21.134,-32.42621 35.44582,-45.38944 7.63065,-6.91162 10.37071,-8.3841 18.80976,-14.19043 -4.40204,2.59363 -9.48929,4.27518 -13.20613,7.78089 -2.83288,2.67196 6.94071,-3.5362 10.4641,-5.19462 7.9612,-3.74726 16.18492,-7.17909 24.61767,-9.7292 2.08587,-0.63078 4.21197,-1.11996 6.31795,-1.67995 12.91227,-2.70629 26.17889,-2.91036 39.31079,-2.38876 10.84188,0.52167 21.67437,1.22329 32.53005,1.35833 0.90166,-0.021 1.80332,-0.0419 2.70498,-0.0629 0,0 23.7325,-17.47203 23.7325,-17.47203 v 0 c -0.9087,0.0932 -1.8174,0.18638 -2.7261,0.27957 -10.95575,0.29813 -21.89265,-0.10447 -32.82025,-0.95694 -13.31648,-0.68441 -26.75771,-0.31015 -39.94072,1.79256 -2.19181,0.54311 -4.40672,1.00029 -6.57543,1.62932 -5.18143,1.50286 -10.83284,3.64043 -15.77822,5.69183 -19.08458,7.91651 -37.01798,17.82525 -54.41134,29.113 -8.31878,5.9782 -11.0737,7.52702 -18.53082,14.61606 -13.88102,13.19587 -24.77258,29.23381 -34.2513,45.7635 -2.58663,5.09812 -5.35046,10.11013 -7.75987,15.29436 -12.63039,27.17623 -20.82587,56.24416 -23.37313,86.13551 -0.26325,5.76544 -0.79253,11.52487 -0.78975,17.29632 0.0112,23.35776 4.96882,45.16144 15.42874,66.01844 5.25138,9.26901 10.25106,19.05061 19.33879,25.28236 8.43757,5.78592 19.01906,6.76507 28.82328,7.94076 16.14033,1.4861 32.29474,2.8967 48.38813,4.844 15.31734,1.85339 23.30212,3.12112 38.60381,5.45911 6.47425,0.98923 12.94463,2.0036 19.41694,3.00539 34.00373,5.11414 68.12508,10.90287 102.64052,10.16484 9.14117,-0.15781 17.16362,-0.0695 26.2438,-1.09017 3.92365,-0.44103 8.05435,-0.35387 11.69438,-1.8835 2.71974,-1.14291 33.19058,-15.45912 43.28293,-23.25309 2.82925,-2.18493 5.27517,-4.82564 7.91275,-7.23846 6.53033,-7.92962 7.93769,-8.85792 12.85781,-17.98401 7.45742,-13.83237 11.09547,-29.25794 14.48771,-44.46981 1.75447,-9.81455 2.74607,-13.89771 3.48676,-23.83112 1.17745,-15.79083 -0.37105,-31.62208 -1.81881,-47.33436 -1.25176,-9.66971 -1.36779,-12.01037 -3.28818,-21.38748 -2.85406,-13.93624 -7.44349,-27.43753 -10.89583,-41.22354 -3.02135,-11.52315 -5.84757,-23.10836 -9.02587,-34.58944 -1.72369,-6.22652 -4.64964,-16.37062 -6.97886,-22.45756 -1.24601,-3.2562 -2.80531,-6.38372 -4.20796,-9.57559 -3.85318,-6.47793 -5.15499,-9.67833 -10.59572,-14.93524 -11.08309,-10.70865 -26.38726,-12.76336 -40.76456,-16.05085 -26.1588,-5.80727 -52.3872,-11.45304 -78.11777,-18.98591 0,0 -24.25439,17.25514 -24.25439,17.25514 z" />
</svg>
