<?xml version="1.0" encoding="UTF-8" standalone="no"?>
<svg
   xmlns:dc="http://purl.org/dc/elements/1.1/"
   xmlns:cc="http://creativecommons.org/ns#"
   xmlns:rdf="http://www.w3.org/1999/02/22-rdf-syntax-ns#"
   xmlns:svg="http://www.w3.org/2000/svg"
   xmlns="http://www.w3.org/2000/svg"
   xmlns:sodipodi="http://sodipodi.sourceforge.net/DTD/sodipodi-0.dtd"
   xmlns:inkscape="http://www.inkscape.org/namespaces/inkscape"
   height="316.65616"
   width="169.4278"
   version="1.1"
   id="svg19"
   viewBox="0 0 169.4278 316.65616"
   sodipodi:docname="ADJ_Big.svg"
   inkscape:version="1.0.1 (3bc2e813f5, 2020-09-07)">
  <metadata
     id="metadata8">
    <rdf:RDF>
      <cc:Work
         rdf:about="">
        <dc:format>image/svg+xml</dc:format>
        <dc:type
           rdf:resource="http://purl.org/dc/dcmitype/StillImage" />
      </cc:Work>
    </rdf:RDF>
  </metadata>
  <defs
     id="defs6" />
  <sodipodi:namedview
     pagecolor="#ffffff"
     bordercolor="#666666"
     borderopacity="1"
     objecttolerance="10"
     gridtolerance="10"
     guidetolerance="10"
     inkscape:pageopacity="0"
     inkscape:pageshadow="2"
     inkscape:window-width="1920"
     inkscape:window-height="1017"
     id="namedview4"
     showgrid="false"
     inkscape:zoom="0.94904323"
     inkscape:cx="-380.61139"
     inkscape:cy="-103.65574"
     inkscape:window-x="-8"
     inkscape:window-y="-8"
     inkscape:window-maximized="1"
     inkscape:current-layer="svg19" />
  <path
     style="display:inline;stroke-width:3.55967;stroke-miterlimit:4;stroke-dasharray:none"
     id="path1010-3"
     d="m 19.349468,306.90284 c -1.18286,-6.48316 -1.03057,-13.0773 -0.77535,-19.62863 0.99564,-10.30291 1.61411,-20.63468 2.42279,-30.95187 0.62067,-10.45879 1.37945,-20.90161 2.23575,-31.344 1.03747,-12.02646 2.57336,-24.00918 4.16349,-35.97467 1.49255,-9.68623 2.46174,-19.43459 3.66817,-29.1573 1.32796,-11.06594 4.23935,-21.84352 6.7953,-32.66918 3.07889,-11.68481 5.36959,-23.54842 8.06282,-35.32126 1.81527,-7.03313 3.40126,-14.1269 5.41134,-21.10937 1.37081,-4.76178 2.01229,-6.62671 3.53635,-11.36086 2.92021,-9.01014 6.246,-17.91356 10.79325,-26.24461 2.46215,-4.21968 5.29332,-8.35064 8.76497,-11.8293 0.70119,-0.7026 1.45797,-1.34817 2.18696,-2.02224 0.77325,-0.64722 1.53234,-1.31153 2.31975,-1.94167 0.83869,-0.67118 3.61161,-2.76321 4.54544,-3.36212 0.77624,-0.49784 3.19933,-1.8378 2.40249,-1.37323 -15.8643,9.24908 -20.61384,11.543 -12.37919,7.43298 5.31198,-2.49889 10.92845,-4.28464 16.56762,-5.89182 1.39686,-0.3981 2.78812,-0.8232 4.20595,-1.13976 1.39978,-0.31254 2.82543,-0.49706 4.23814,-0.74558 1.866472,0.01 3.738412,-0.11301 5.599412,0.0292 4.89961,0.37438 10.2652,1.49132 15.01591,2.59045 6.49869,1.50356 12.81112,3.44011 19.10671,5.612 3.97101,1.71384 9.00999,2.95481 12.30277,5.93427 0.0932,0.13928 0.26915,0.25088 0.27966,0.41782 0.0125,0.19837 -0.16493,0.36386 -0.21837,0.55539 -0.18704,0.67033 -0.36524,1.34416 -0.50199,2.02639 -0.28841,1.43899 -0.54013,2.88533 -0.77287,4.33424 -0.90771,5.65092 -1.60417,11.03424 -2.38497,16.73309 -2.10575,16.79194 -4.30901,33.5726 -6.28401,50.38046 -0.27197,3.43836 -0.99332,6.90249 -0.68877,10.36709 0.13712,1.55995 0.55105,3.61362 0.82815,5.13368 0.76765,3.62588 0.39284,1.83539 1.12506,5.37134 0,0 18.42535,-9.81077 18.42535,-9.81077 v 0 c -0.7481,-3.49019 -0.38548,-1.72703 -1.08632,-5.28979 -0.29005,-1.95552 -0.49643,-2.97777 -0.58561,-4.91472 -0.15259,-3.31421 0.27756,-6.63839 0.34455,-9.9472 1.0766,-16.67442 2.74517,-33.32236 5.44155,-49.82043 1.5224,-8.4363 1.57061,-9.37561 3.35834,-17.07957 0.35164,-1.51536 0.80263,-3.00688 1.15204,-4.52275 0.42281,-1.83431 0.91959,-3.49666 -0.38679,-5.04481 -3.72795,-3.34598 -8.91842,-4.50869 -13.5091,-6.18212 C 148.58207,7.10297 142.06029,5.27267 135.44749,3.64417 130.73976,2.48482 125.45153,1.18565 120.6184,0.50011 118.74918,0.23498 116.857,0.1667 114.9763,0 c -1.46226,0.18837 -2.94089,0.27786 -4.38676,0.56512 -1.45586,0.28925 -2.86834,0.76326 -4.29821,1.1604 -5.58809,1.55206 -11.187442,3.16167 -16.532912,5.42675 -11.50466,5.39213 -23.00557,11.42448 -32.40247,20.03674 -4.22451,4.28408 -7.90016,9.06773 -10.63429,14.43891 -4.17476,8.45346 -7.24868,17.38787 -10.16539,26.33401 -3.44281,10.76334 -6.49723,21.6363 -8.94547,32.66972 -2.57684,11.76812 -4.86105,23.60383 -7.98384,35.24724 -2.67987,10.8954 -5.55318,21.76894 -6.84858,32.93958 -1.27054,9.68937 -2.40544,19.39465 -3.55638,29.09866 -1.50909,11.99714 -3.1229,23.98972 -4.10159,36.044 -0.90462,10.49062 -1.90548,20.97453 -2.46307,31.49133 -0.61111,10.34948 -1.33207,20.68639 -2.41238995,31.00013 -0.34477,6.74502 -0.38411,13.4721 0.26654,20.20357 0,0 18.83797995,-9.75332 18.83797995,-9.75332 z" />
</svg>
