<?xml version="1.0" encoding="UTF-8" standalone="no"?>
<svg
   xmlns:dc="http://purl.org/dc/elements/1.1/"
   xmlns:cc="http://creativecommons.org/ns#"
   xmlns:rdf="http://www.w3.org/1999/02/22-rdf-syntax-ns#"
   xmlns:svg="http://www.w3.org/2000/svg"
   xmlns="http://www.w3.org/2000/svg"
   xmlns:sodipodi="http://sodipodi.sourceforge.net/DTD/sodipodi-0.dtd"
   xmlns:inkscape="http://www.inkscape.org/namespaces/inkscape"
   height="33.703415"
   width="827.22461"
   version="1.1"
   id="svg19"
   viewBox="0 0 827.22461 33.703415"
   sodipodi:docname="LINK_Of.svg"
   inkscape:version="1.0.1 (3bc2e813f5, 2020-09-07)">
  <metadata
     id="metadata8">
    <rdf:RDF>
      <cc:Work
         rdf:about="">
        <dc:format>image/svg+xml</dc:format>
        <dc:type
           rdf:resource="http://purl.org/dc/dcmitype/StillImage" />
      </cc:Work>
    </rdf:RDF>
  </metadata>
  <defs
     id="defs6" />
  <sodipodi:namedview
     pagecolor="#ffffff"
     bordercolor="#666666"
     borderopacity="1"
     objecttolerance="10"
     gridtolerance="10"
     guidetolerance="10"
     inkscape:pageopacity="0"
     inkscape:pageshadow="2"
     inkscape:window-width="830"
     inkscape:window-height="480"
     id="namedview4"
     showgrid="false"
     inkscape:zoom="1.2596337"
     inkscape:cx="332.71777"
     inkscape:cy="-744.53107"
     inkscape:window-x="0"
     inkscape:window-y="0"
     inkscape:window-maximized="0"
     inkscape:current-layer="svg19" />
  <path
     id="path958"
     style="stroke-width:5;stroke-miterlimit:4;stroke-dasharray:none"
     d="m 721.62305,3e-5 c -10.43866,0.0833 -20.88026,0.19017 -31.31446,0.50781 -12.72463,0.72465 -25.42018,1.8532 -38.10156,3.11915 -7.75689,0.77887 -15.49638,1.78029 -23.25976,2.48632 -11.44612,1.04095 -22.93236,1.57031 -34.41602,1.96875 -10.4361,0.26029 -20.86334,0.52825 -31.28516,1.16016 -12.22067,0.74097 -4.39867,0.36202 -15.9414,1.20312 -2.38963,0.17413 -4.78256,0.29921 -7.17383,0.44922 -15.74257,0.51822 -31.47926,1.1588 -47.21094,1.94727 -24.92418,1.13802 -49.85469,2.11363 -74.77929,3.23828 -19.8706,0.82577 -39.76044,1.66453 -59.63868,0.43945 -24.34123,-1.25883 -48.62596,-3.37079 -72.77734,-6.70898 -4.33057,-0.5601 -8.65314,-1.19148 -12.99219,-1.68164 -23.9619,-2.70687 -48.09791,-3.66123 -72.16211,-4.94531 -9.86725,-0.29 -19.6387,-0.66592 -29.50976,-0.625 -13.76706,0.0571 -27.51476,1.03778 -41.19727,2.50976 -15.52382,1.63008 -31.115341,2.30971 -46.718751,2.65235 -13.7872,-0.1194 -27.5827,-0.82442 -41.26953,-2.55079 -5.8975,-0.65243 -11.8104,-1.29137 -17.75,-1.3164 L 0,21.38089 c 6.056386,-0.25349 12.106044,0.21727 18.138672,0.69531 13.893607,1.37707 27.839137,2.14603 41.794917,2.45508 15.74289,-0.0838 31.47491,-1.03632 47.140631,-2.55273 13.82908,-1.48188 27.69818,-2.71941 41.60937,-3.05078 11.9091,-0.28369 17.82992,-0.0599 29.92774,0.13476 28.29242,0.88957 56.52379,3.25341 84.61719,6.66602 24.04906,3.03794 48.16444,5.58431 72.34961,7.23633 19.99355,1.4087 40.02264,0.52394 60.01367,-0.35547 24.97915,-1.29712 49.9675,-2.39141 74.96094,-3.3711 15.4564,-0.56913 30.9216,-0.76718 46.37695,-1.35937 2.43454,-0.15028 4.8698,-0.27682 7.30273,-0.45117 8.53801,-0.61184 17.05445,-1.44055 25.60157,-1.94141 9.56891,-0.56073 12.4401,-0.60972 22.21679,-0.9668 19.07315,-0.50897 38.08053,-2.02168 57.07031,-3.77734 12.5767,-1.31968 25.17308,-2.37548 37.80079,-3.04492 10.34566,-0.56197 20.70591,-0.53888 31.0625,-0.51367 13.15312,-0.21057 26.29781,0.47818 39.42773,1.16992 7.34227,0.41028 14.6743,0.92578 22.0293,0.67578 5.5232,-0.29852 11.04303,-0.58049 16.57422,-0.66992 5.35463,-0.0335 10.70768,-0.0983 16.0625,-0.0723 3.68318,-0.0981 7.3537,0.22292 11.01757,0.54688 L 827.22461,1.59961 C 823.47455,1.3246 819.72458,0.8746 815.96094,0.93555 c -5.38883,0.0302 -10.77814,-0.0406 -16.16602,0.0879 -5.53758,0.0912 -11.08129,0.07 -16.60156,0.58203 -7.46533,0.43095 -14.92488,0.18336 -22.39648,-0.0879 C 747.73579,1.07086 734.68846,0.20657 721.62305,0 Z" />
</svg>
