<?xml version="1.0" encoding="UTF-8" standalone="no"?>
<svg
   xmlns:dc="http://purl.org/dc/elements/1.1/"
   xmlns:cc="http://creativecommons.org/ns#"
   xmlns:rdf="http://www.w3.org/1999/02/22-rdf-syntax-ns#"
   xmlns:svg="http://www.w3.org/2000/svg"
   xmlns="http://www.w3.org/2000/svg"
   xmlns:sodipodi="http://sodipodi.sourceforge.net/DTD/sodipodi-0.dtd"
   xmlns:inkscape="http://www.inkscape.org/namespaces/inkscape"
   height="698.96606"
   width="46.007999"
   version="1.1"
   id="svg19"
   viewBox="0 0 46.007999 698.96606"
   sodipodi:docname="LINK_From.svg"
   inkscape:version="1.0.1 (3bc2e813f5, 2020-09-07)">
  <metadata
     id="metadata8">
    <rdf:RDF>
      <cc:Work
         rdf:about="">
        <dc:format>image/svg+xml</dc:format>
        <dc:type
           rdf:resource="http://purl.org/dc/dcmitype/StillImage" />
      </cc:Work>
    </rdf:RDF>
  </metadata>
  <defs
     id="defs6" />
  <sodipodi:namedview
     pagecolor="#ffffff"
     bordercolor="#666666"
     borderopacity="1"
     objecttolerance="10"
     gridtolerance="10"
     guidetolerance="10"
     inkscape:pageopacity="0"
     inkscape:pageshadow="2"
     inkscape:window-width="830"
     inkscape:window-height="480"
     id="namedview4"
     showgrid="false"
     inkscape:zoom="1.2160819"
     inkscape:cx="-464.21765"
     inkscape:cy="245.48303"
     inkscape:window-x="0"
     inkscape:window-y="0"
     inkscape:window-maximized="0"
     inkscape:current-layer="svg19" />
  <path
     style="stroke-width:5;stroke-miterlimit:4;stroke-dasharray:none"
     id="path953"
     d="m 19.30952,13.23347 c -0.64919,4.76978 -1.21729,9.54925 -1.8401,14.32264 -1.40997,12.90164 -3.4141,25.72751 -5.18982,38.58137 -2.65757,17.08298 -2.14067,34.44832 -1.8359,51.67337 0.13554,19.42466 1.34756,38.8165 1.84804,58.22872 0.3353,13.68974 -0.19797,27.37548 -0.33651,41.06297 -0.31398,12.69553 -1.31624,25.3645 -2.2238,38.02853 -0.92974,12.6319 -2.08801,25.24425 -3.15084,37.86642 -1.21991,14.74935 -1.95083,29.53351 -2.52152,44.32043 -0.43661,13.48658 0.0104,26.98434 0.31305,40.46936 0.4826,18.94565 0.70043,37.89571 0.85038,56.8464 0.0357,15.37491 -0.2671,30.73875 0.11928,46.11042 0.40036,11.24368 0.38533,22.49526 0.62481,33.74144 0.29869,7.41031 0.43844,14.81339 0.39034,22.22775 0.0298,12.14884 -0.29063,24.29372 -0.38141,36.44204 -0.17091,8.42162 -0.19038,16.84469 -0.30766,25.26688 -0.0154,6.98023 -0.65967,13.95365 -1.47402,20.88157 -0.66368,5.96994 -1.22739,11.9507 -1.48302,17.95259 -0.15042,3.57248 -0.17607,7.14838 -0.19117,10.72344 -0.0478,3.06683 0.0217,6.13259 0.077,9.19872 0.17955,5.14336 -0.0977,10.27403 -0.46262,15.40175 -0.46197,3.6915 -1.11344,7.35455 -1.46014,11.06 -0.18081,2.17612 -0.18821,4.36088 -0.19228,6.54287 -0.0356,2.49503 0.2128,5.00919 -0.14031,7.48534 -0.11376,0.43252 -0.22753,0.86504 -0.3413,1.29757 0,0 26.74253,-12.97931 26.74253,-12.97931 v 0 c 0.0752,-0.53001 0.15038,-1.06001 0.22557,-1.59001 0.11291,-2.57679 0.0213,-5.15633 0.0857,-7.73489 0.0187,-2.09423 0.0589,-4.19015 0.2576,-6.27654 0.35832,-3.68322 0.9144,-7.34424 1.20565,-11.03432 0.30135,-5.20081 0.53961,-10.39261 0.43692,-15.60449 0.0505,-3.08701 0.11029,-6.17357 0.0507,-9.26101 -0.014,-3.51239 -0.0165,-7.02554 0.0963,-10.5366 0.24356,-5.90613 0.66859,-11.80392 1.36571,-17.6752 0.70517,-7.0439 1.46925,-14.1204 1.41226,-21.20523 -0.11033,-8.33555 -0.1009,-16.67252 -0.15331,-25.00853 0.0964,-12.18455 0.10685,-24.37673 0.69254,-36.54994 0.10353,-2.64522 0.24301,-4.97441 0.18465,-7.59799 -0.10885,-4.89315 -0.75542,-9.76786 -0.83647,-14.66313 -0.39128,-11.24693 -0.16409,-22.50346 -0.63126,-33.7489 -0.56976,-15.1967 -1.08453,-30.39378 -0.9397,-45.60564 -0.0314,-19.02562 -0.0841,-38.05271 -0.49839,-57.07462 -0.23785,-13.52545 -0.092,-27.03994 0.1741,-40.56409 0.24121,-14.68317 0.80983,-29.36645 2.2682,-43.98569 1.27494,-12.68328 2.70145,-25.35848 3.40318,-38.09006 0.66187,-12.75285 1.90687,-25.46798 2.28097,-38.23308 0.0692,-13.62698 -0.16663,-27.25325 -0.22464,-40.88 -0.44828,-19.29501 -2.45657,-38.51545 -2.54573,-57.82739 -0.0134,-4.23065 -0.11093,-8.46188 -0.0401,-12.69196 C 35.23283,79.40706 36.48603,66.3369 38.23143,53.3209 39.70008,40.34882 41.53754,27.42588 43.8661,14.57812 44.62807,9.7244 45.13192,4.83629 46.008,0 c 0,0 -26.69843,13.23347 -26.69843,13.23347 z" />
</svg>
