<svg xmlns="http://www.w3.org/2000/svg" height="393.257" width="265.151"><path d="M234.445 324.585c2.255 4.031 4.888 7.826 7.473 11.649 3.656 4.92 6.458 10.274 8.885 15.88 3.019 7.156 5.666 14.443 8.286 21.751 2.044 5.83 4.187 11.645 5.705 17.64l.357 1.752-26.706-12.916-.352-1.615c-1.488-5.842-3.448-11.554-5.487-17.224-2.612-7.271-5.33-14.502-8.468-21.567a103.41 103.41 0 00-9.184-15.472c-2.668-3.911-5.211-7.9-7.84-11.836l27.33 11.958zm-97.892-203.257c4.947-2.244 10.128-3.893 15.274-5.604 5-1.657 10.04-3.31 14.109-6.74 3.274-3.449 6.493-7.08 9.126-11.056 1.559-2.355 3.168-5.507 4.487-7.97 3.383-6.986 5.948-14.404 6.82-22.147.176-1.57.222-3.151.334-4.727-.081-1.7-.031-3.413-.244-5.102-1.028-8.149-4.431-16.623-8.272-23.823-1.015-1.904-2.177-3.727-3.266-5.591-2.609-3.883-3.904-6.34-7.407-9.49-1.488-1.34-6.588-4.533-4.844-3.55 6.203 3.493 12.628 6.727 18.248 11.098 2.21 1.719-5.174-2.163-7.844-3.006-3.215-1.016-6.523-1.71-9.784-2.564-15.205-3.115-30.71-4.587-46.222-4.666-9.576-.048-12.278.24-21.833.757-10.75.783-21.46 2.394-31.858 5.276-5.26 1.458-11.992 3.555-16.564 6.814-2.478 1.766-4.446 4.155-6.668 6.233-1.918 3.147-4.154 6.121-5.754 9.441C30.78 52.4 28.093 62 26.51 70.095c-1.58 8.089-2.528 16.782-1.802 25.043.36 4.106 1.435 8.117 2.153 12.176 1.605 4.307 2.849 8.766 4.815 12.921 7.83 16.547 19.972 30.125 32.876 42.861C77.037 175.42 84.62 181.527 98 193.03c5.948 4.917 11.893 9.838 17.843 14.752 31.435 25.965 4.44 3.7 35.267 28.92 9.454 7.733 21.574 17.527 30.654 25.835 4.42 4.045 8.6 8.346 12.9 12.518 14.415 15.53 29.016 31.259 40.182 49.369l-26.578-11.766c-10.435-17.561-24.148-32.929-38.13-47.716-4.24-4.096-8.37-8.309-12.721-12.288-8.762-8.016-21.034-18.055-30.113-25.535-17.657-14.548-35.406-28.985-52.945-43.676-13.277-11.454-21.408-18.05-33.796-30.355-13.243-13.155-25.69-27.254-33.596-44.368-2.006-4.344-3.239-9.005-4.859-13.508-.657-4.21-1.688-8.379-1.971-12.63-.561-8.415.665-17.28 2.329-25.484 1.648-8.129 4.436-18.478 7.88-26.09 1.624-3.588 3.88-6.855 5.819-10.282 2.326-2.334 4.342-5.024 6.978-7 4.717-3.539 11.74-5.645 17.25-7.188C50.907 3.59 61.715 1.76 72.595.898 82.407.291 84.769-.009 94.616 0c15.54.014 31.062 1.42 46.377 4.038 3.235.71 6.504 1.28 9.704 2.132 15.013 4.001 23.107 10.593 38.715 20.091 1.759 1.07 3.228 2.577 4.656 4.06 3.198 3.323 4.65 6.08 7.088 9.958 1.05 1.925 2.172 3.812 3.15 5.775 3.852 7.735 7.115 16.329 8.018 24.981.189 1.806.11 3.63.165 5.444-.35 4.055-.378 5.77-1.19 9.758-1.288 6.33-3.884 12.298-6.531 18.153-1.312 2.525-3.036 5.993-4.591 8.405-2.682 4.16-6.004 7.943-9.115 11.775-1.549 1.463-1.82 1.869-3.619 2.988-3.482 2.167-7.607 3.103-11.386 4.594-4.92 1.68-9.889 3.3-14.573 5.58l-24.93-16.404z"/></svg>