<?xml version="1.0" encoding="UTF-8" standalone="no"?>
<svg
   xmlns:dc="http://purl.org/dc/elements/1.1/"
   xmlns:cc="http://creativecommons.org/ns#"
   xmlns:rdf="http://www.w3.org/1999/02/22-rdf-syntax-ns#"
   xmlns:svg="http://www.w3.org/2000/svg"
   xmlns="http://www.w3.org/2000/svg"
   xmlns:sodipodi="http://sodipodi.sourceforge.net/DTD/sodipodi-0.dtd"
   xmlns:inkscape="http://www.inkscape.org/namespaces/inkscape"
   height="393.25699"
   width="265.15091"
   version="1.1"
   id="svg19"
   viewBox="0 0 265.15091 393.25699"
   sodipodi:docname="MOD_With.svg"
   inkscape:version="1.0.1 (3bc2e813f5, 2020-09-07)">
  <metadata
     id="metadata8">
    <rdf:RDF>
      <cc:Work
         rdf:about="">
        <dc:format>image/svg+xml</dc:format>
        <dc:type
           rdf:resource="http://purl.org/dc/dcmitype/StillImage" />
      </cc:Work>
    </rdf:RDF>
  </metadata>
  <defs
     id="defs6" />
  <sodipodi:namedview
     pagecolor="#ffffff"
     bordercolor="#666666"
     borderopacity="1"
     objecttolerance="10"
     gridtolerance="10"
     guidetolerance="10"
     inkscape:pageopacity="0"
     inkscape:pageshadow="2"
     inkscape:window-width="830"
     inkscape:window-height="480"
     id="namedview4"
     showgrid="false"
     inkscape:zoom="2.1614365"
     inkscape:cx="-220.57476"
     inkscape:cy="-157.11453"
     inkscape:window-x="0"
     inkscape:window-y="0"
     inkscape:window-maximized="0"
     inkscape:current-layer="svg19" />
  <path
     id="path986"
     style="stroke-width:5;stroke-miterlimit:4;stroke-dasharray:none"
     d="m 30.70604,324.58511 c -2.25553,4.03137 -4.88791,7.82614 -7.47358,11.64843 -3.65518,4.92011 -6.45768,10.27477 -8.88405,15.88061 -3.01951,7.15623 -5.66649,14.44277 -8.28639,21.75093 -2.04367,5.82993 -4.18718,11.64509 -5.70483,17.63992 -0.11906,0.58399 -0.23813,1.16798 -0.35719,1.75197 0,0 26.7058,-12.91591 26.7058,-12.91591 v 0 c 0.11741,-0.53827 0.23483,-1.07655 0.35224,-1.61482 1.48819,-5.84272 3.44803,-11.55405 5.4864,-17.22458 2.61258,-7.27111 5.33012,-14.50179 8.46894,-21.56634 2.60698,-5.4301 5.67493,-10.57046 9.18401,-15.47206 2.66733,-3.91126 5.2108,-7.90017 7.83921,-11.83619 0,0 -27.33056,11.95804 -27.33056,11.95804 z m 97.89166,-203.2575 c -4.94727,-2.24406 -10.1274,-3.89213 -15.27387,-5.6037 -4.9999,-1.65716 -10.03926,-3.30912 -14.10894,-6.7402 -3.27385,-3.4487 -6.4934,-7.07921 -9.1262,-11.055876 -1.55872,-2.35435 -3.16747,-5.50654 -4.48696,-7.9699 -3.3825,-6.98547 -5.94776,-14.40347 -6.81918,-22.14728 -0.17661,-1.56945 -0.22308,-3.15083 -0.33463,-4.72625 0.0814,-1.70082 0.0314,-3.41306 0.24435,-5.10246 1.0273,-8.14887 4.43101,-16.62267 8.27119,-23.82295 1.01571,-1.90444 2.17734,-3.72739 3.26601,-5.59109 2.60949,-3.88247 3.90449,-6.34006 7.40719,-9.49071 1.48832,-1.33873 6.58832,-4.53202 4.84408,-3.54972 -6.20311,3.49343 -12.62818,6.72725 -18.24756,11.09819 -2.2102,1.71917 5.17401,-2.16244 7.84402,-3.00596 3.21483,-1.01565 6.52278,-1.70881 9.78418,-2.56322 15.20441,-3.11546 30.70926,-4.5871 46.22197,-4.66617 9.57577,-0.0488 12.27777,0.23924 21.83296,0.75657 10.74955,0.78322 21.45909,2.39362 31.85798,5.27623 5.25961,1.45798 11.99159,3.55489 16.56393,6.81436 2.47731,1.766 4.44521,4.15492 6.66782,6.23238 1.91808,3.14718 4.15393,6.12148 5.75423,9.44154 3.60938,7.48819 6.29729,17.08749 7.87919,25.1834 1.58049,8.08872 2.52894,16.78251 1.80266,25.04324 -0.36097,4.10572 -1.43531,8.117186 -2.15297,12.175786 -1.60506,4.30713 -2.84904,8.76665 -4.81518,12.9214 -7.83029,16.54663 -19.97244,30.12438 -32.87565,42.86091 -12.48472,12.32346 -20.0685,18.43094 -33.44866,29.93256 -5.94743,4.91754 -11.8923,9.83816 -17.84228,14.75261 -31.43548,25.96446 -4.44089,3.70001 -35.26717,28.91885 -9.45384,7.73414 -21.57449,17.52746 -30.65456,25.83626 -4.42035,4.04487 -8.59998,8.34517 -12.89997,12.51776 -14.4148,15.53068 -29.01554,31.25838 -40.18155,49.36869 0,0 26.57752,-11.76608 26.57752,-11.76608 v 0 c 10.43527,-17.56121 24.14794,-32.92862 38.13017,-47.7153 4.24037,-4.09631 8.37102,-8.30933 12.7211,-12.28893 8.76152,-8.01531 21.03431,-18.05426 30.11276,-25.5345 17.65682,-14.54842 35.40613,-28.98521 52.94532,-43.67624 13.27739,-11.45334 21.40807,-18.0502 33.79583,-30.355 13.24325,-13.15455 25.69079,-27.25333 33.59607,-44.36809 2.00642,-4.34385 3.23901,-9.004886 4.85852,-13.507326 0.65724,-4.21036 1.68831,-8.37917 1.97172,-12.63108 0.56089,-8.41478 -0.66534,-17.27897 -2.32916,-25.48377 -1.64827,-8.12807 -4.43645,-18.47779 -7.88017,-26.08916 -1.62342,-3.58812 -3.87904,-6.85518 -5.81856,-10.28277 -2.32605,-2.33345 -4.34241,-5.0234 -6.97815,-7.00036 -4.71694,-3.53797 -11.74085,-5.6443997 -17.24933,-7.1875997 -10.51438,-2.94559 -21.32303,-4.77573 -32.20237,-5.63845997 -9.81149,-0.60674 -12.17362,-0.90672 -22.02122,-0.8980100035 C 154.99437,0.01398433 139.47243,1.4198443 124.15746,4.0377143 c -3.2344,0.71082 -6.50329,1.27972 -9.7032,2.13245 -15.0137,4.0009397 -23.10784,10.5923497 -38.71507,20.0909297 -1.75925,1.07069 -3.22794,2.57726 -4.65637,4.06081 -3.19835,3.32176 -4.64916,6.07854 -7.08793,9.957 -1.04979,1.92494 -2.17186,3.81218 -3.14938,5.77481 -3.85278,7.73545 -7.11562,16.32916 -8.01901,24.98156 -0.1885,1.80547 -0.10954,3.62891 -0.16431,5.44336 0.34897,4.05563 0.37819,5.7695 1.1896,9.75792 1.28775,6.32985 3.88386,12.29871 6.5315,18.153036 1.31189,2.525 3.03554,5.9936 4.5908,8.40562 2.68231,4.15992 6.00341,7.94291 9.11464,11.77469 1.54908,1.46263 1.82053,1.86884 3.61876,2.98788 3.48253,2.16718 7.60742,3.10341 11.38618,4.59464 4.92017,1.6795 9.88923,3.29959 14.5728,5.57905 0,0 24.93123,-16.40386 24.93123,-16.40386 z" />
</svg>
