<?xml version="1.0" encoding="UTF-8" standalone="no"?>
<svg
   xmlns:dc="http://purl.org/dc/elements/1.1/"
   xmlns:cc="http://creativecommons.org/ns#"
   xmlns:rdf="http://www.w3.org/1999/02/22-rdf-syntax-ns#"
   xmlns:svg="http://www.w3.org/2000/svg"
   xmlns="http://www.w3.org/2000/svg"
   xmlns:sodipodi="http://sodipodi.sourceforge.net/DTD/sodipodi-0.dtd"
   xmlns:inkscape="http://www.inkscape.org/namespaces/inkscape"
   width="300mm"
   height="300mm"
   viewBox="0 0 300 300"
   version="1.1"
   id="svg42"
   inkscape:version="1.0.1 (3bc2e813f5, 2020-09-07)"
   sodipodi:docname="NOUN_Sword.svg">
  <defs
     id="defs36" />
  <sodipodi:namedview
     id="base"
     pagecolor="#ffffff"
     bordercolor="#666666"
     borderopacity="1.0"
     inkscape:pageopacity="0.0"
     inkscape:pageshadow="2"
     inkscape:zoom="0.5"
     inkscape:cx="495.459"
     inkscape:cy="440"
     inkscape:document-units="mm"
     inkscape:current-layer="layer1"
     inkscape:document-rotation="0"
     showgrid="false"
     inkscape:window-width="1267"
     inkscape:window-height="1040"
     inkscape:window-x="512"
     inkscape:window-y="95"
     inkscape:window-maximized="0" />
  <metadata
     id="metadata39">
    <rdf:RDF>
      <cc:Work
         rdf:about="">
        <dc:format>image/svg+xml</dc:format>
        <dc:type
           rdf:resource="http://purl.org/dc/dcmitype/StillImage" />
        <dc:title></dc:title>
      </cc:Work>
    </rdf:RDF>
  </metadata>
  <g
     inkscape:label="Layer 1"
     inkscape:groupmode="layer"
     id="layer1">
    <path
       style="stroke-width:1.32292"
       id="path438"
       d="m 40.84158,110.09508 c -2.394381,2.37697 -5.250389,4.24625 -7.93623,6.27425 -3.893634,3.01727 -7.821861,6.00441 -11.552221,9.22325 -1.701287,1.49898 -3.257459,3.15332 -4.800183,4.81199 -0.923807,0.99324 -2.151596,2.15598 -2.56647,3.51373 -0.32133,1.05162 -0.299663,2.17872 -0.449495,3.26808 0.764402,1.79098 1.04181,3.88098 2.293206,5.37292 2.303092,2.74581 6.695095,3.35136 9.876532,3.78536 2.338524,0.31901 4.697493,0.47141 7.051952,0.63569 6.023192,0.42026 12.925099,0.62016 18.910937,0.84156 23.543321,0.72385 47.000665,2.94459 70.429112,5.26595 15.97854,1.63535 31.94092,3.45132 47.9853,4.29194 12.80489,0.57799 25.6183,7.9e-4 38.41488,-0.49275 8.67177,-0.28842 17.32549,-0.92111 25.98505,-1.43623 5.42275,-0.30027 10.85165,-0.47692 16.28033,-0.628 3.19169,-0.045 6.38414,-0.0396 9.57602,-0.0155 0.40322,-0.007 0.80644,-0.0145 1.20967,-0.0217 0,0 9.64853,-15.31194 9.64853,-15.31194 v 0 c -0.47176,-0.0271 -0.94351,-0.0543 -1.41526,-0.0814 -3.30655,0.0265 -6.61329,0.0301 -9.91924,0.10802 -5.60532,0.12795 -11.19881,0.5551 -16.79771,0.83519 -8.78177,0.54459 -17.52108,1.53756 -26.29623,2.17374 -12.59696,0.78565 -25.2094,1.31153 -37.83487,1.06361 -16.16451,-0.34158 -32.27878,-1.64353 -48.39598,-2.86859 -23.5027,-1.8288 -46.975952,-4.01595 -70.491076,-5.68594 -7.430929,-0.53309 -10.756537,-0.6956 -17.924698,-1.47627 -2.063927,-0.22478 -4.121163,-0.50796 -6.178698,-0.78522 -1.285454,-0.17322 -2.555417,-0.64941 -3.849817,-0.56615 -1.385125,0.0891 -1.723782,4.56277 -0.446156,4.14 0.01,0.29992 -0.257506,0.81374 0.02998,0.89975 0.318429,0.0953 0.500459,-0.438 0.738688,-0.66978 1.882724,-1.83173 3.735239,-3.69457 5.843412,-5.27708 3.644408,-2.92624 7.231118,-5.93587 11.13009,-8.52641 1.332812,-0.86963 2.745816,-1.81226 4.116173,-2.62957 0.692338,-0.41293 2.437027,-1.57389 3.378525,-1.5829 0.105172,-0.001 0.189273,0.0918 0.283909,0.13767 0,0 -16.327967,-8.5872 -16.327967,-8.5872 z" />
    <path
       style="stroke-width:1.32292"
       id="path440"
       d="m 74.401205,108.40624 c 0.604372,0.21901 0.756722,0.31252 1.435198,0.38028 2.555973,0.25528 5.339387,0.14552 7.906478,0.19552 12.769032,0.21724 25.513839,1.0767 38.256619,1.86731 11.9999,0.77114 23.99656,1.58881 36.00031,2.29861 8.48534,0.57294 16.9888,0.73835 25.48331,1.1151 7.42241,0.39776 14.84193,0.84798 22.26235,1.28131 3.61091,0.18971 1.83241,0.0997 5.33546,0.27059 0,0 9.54699,-14.88895 9.54699,-14.88895 v 0 c -3.51335,-0.0894 -1.72823,-0.0423 -5.35533,-0.1418 -7.50444,-0.20243 -15.00818,-0.44447 -22.50752,-0.790536 -8.50793,-0.456846 -17.00811,-1.029571 -25.53191,-1.111843 -12.1446,-0.372994 -24.28963,-0.770467 -36.42458,-1.389417 -12.51243,-0.738508 -24.98715,-1.838685 -37.443843,-3.230049 -1.652352,-0.145722 -3.303384,-0.306454 -4.956215,-0.446627 -0.4616,-0.03915 -0.924975,-0.05653 -1.386104,-0.100862 -0.0835,-0.008 -1.246706,-0.356299 -1.319671,0.07967 0,0 -11.301542,14.611694 -11.301542,14.611694 z" />
    <path
       style="stroke-width:1.32292"
       id="path442"
       d="m 54.059184,179.32552 c 3.998161,-0.26257 7.991481,-0.48884 11.998103,-0.59646 16.239834,-0.11587 32.479593,0.18859 48.717243,0.42132 16.58799,0.26066 33.1713,0.76823 49.74508,1.49662 11.46681,0.55673 22.93521,1.09782 34.39539,1.77994 1.66936,0.11629 3.33871,0.23258 5.00807,0.34887 0,0 9.33321,-14.08351 9.33321,-14.08351 v 0 c -1.69063,-0.10074 -3.38126,-0.20148 -5.0719,-0.30222 -3.2125,-0.20457 -7.46031,-0.48914 -10.67227,-0.63693 -8.06193,-0.37096 -16.13561,-0.44321 -24.19833,-0.79587 -3.64404,-0.1216 -10.90117,-0.3779 -14.47977,-0.4384 -11.96539,-0.20228 -23.93722,0.0198 -35.90068,-0.35677 -15.92627,-0.41532 -31.849598,-0.94488 -47.753339,-1.91485 -3.820835,-0.27714 -7.640106,-0.59514 -11.468553,-0.67278 0,0 -9.652254,15.75104 -9.652254,15.75104 z" />
    <path
       style="stroke-width:1.32292"
       id="path446"
       d="m 227.95315,86.846208 c 0.34468,3.805613 0.36634,7.634552 0.50567,11.451735 0.4231,10.322077 1.12139,20.629767 1.59379,30.950007 0.38164,10.42146 0.73658,20.8453 0.88859,31.27294 0.0718,8.85178 -0.19232,17.70306 -0.56264,26.5461 -0.38666,7.26091 -0.93308,14.512 -1.64252,21.74821 -0.52435,5.51682 -0.79994,11.05196 -1.24327,16.57529 0,0 17.58285,-2.10475 17.58285,-2.10475 v 0 c 0.31771,-5.47876 0.65332,-10.95621 1.09023,-16.42703 0.49506,-7.35794 0.86602,-14.72148 1.15013,-22.09074 0.35046,-9.03074 0.61376,-18.07069 0.37313,-27.10836 -0.3082,-10.47355 -0.7792,-20.9406 -1.30425,-31.40539 -0.43401,-10.25441 -0.92834,-20.51724 -0.65123,-30.783601 0.0703,-3.837662 0.10024,-7.686514 0.44655,-11.511288 0,0 -18.22703,2.886877 -18.22703,2.886877 z" />
  </g>
</svg>
