<?xml version="1.0" encoding="UTF-8" standalone="no"?>
<svg
   xmlns:dc="http://purl.org/dc/elements/1.1/"
   xmlns:cc="http://creativecommons.org/ns#"
   xmlns:rdf="http://www.w3.org/1999/02/22-rdf-syntax-ns#"
   xmlns:svg="http://www.w3.org/2000/svg"
   xmlns="http://www.w3.org/2000/svg"
   xmlns:sodipodi="http://sodipodi.sourceforge.net/DTD/sodipodi-0.dtd"
   xmlns:inkscape="http://www.inkscape.org/namespaces/inkscape"
   width="300mm"
   height="300mm"
   viewBox="0 0 300 300"
   version="1.1"
   id="svg42"
   inkscape:version="1.0.1 (3bc2e813f5, 2020-09-07)"
   sodipodi:docname="NOUN_Shape.svg">
  <defs
     id="defs36" />
  <sodipodi:namedview
     id="base"
     pagecolor="#ffffff"
     bordercolor="#666666"
     borderopacity="1.0"
     inkscape:pageopacity="0.0"
     inkscape:pageshadow="2"
     inkscape:zoom="0.35"
     inkscape:cx="400"
     inkscape:cy="560"
     inkscape:document-units="mm"
     inkscape:current-layer="layer1"
     inkscape:document-rotation="0"
     showgrid="false"
     inkscape:window-width="1267"
     inkscape:window-height="1040"
     inkscape:window-x="514"
     inkscape:window-y="86"
     inkscape:window-maximized="0" />
  <metadata
     id="metadata39">
    <rdf:RDF>
      <cc:Work
         rdf:about="">
        <dc:format>image/svg+xml</dc:format>
        <dc:type
           rdf:resource="http://purl.org/dc/dcmitype/StillImage" />
        <dc:title></dc:title>
      </cc:Work>
    </rdf:RDF>
  </metadata>
  <g
     inkscape:label="Layer 1"
     inkscape:groupmode="layer"
     id="layer1">
    <path
       style="stroke-width:1.32292"
       id="path209"
       d="m 129.81064,12.805553 c -3.13757,4.904876 -6.23761,9.831077 -9.48943,14.665335 -8.91375,12.749376 -16.37948,26.398812 -23.516972,40.194526 -9.743469,19.110854 -16.497752,39.522316 -23.564929,59.719756 -5.652585,16.17127 -10.425044,32.62863 -15.447116,49.00139 -3.272811,10.62684 -6.60881,21.2361 -10.312654,31.72157 -2.572051,7.40605 -5.895088,14.50091 -9.562718,21.41782 -3.394538,6.17534 -7.469106,11.93006 -11.365929,17.78931 -1.417069,2.37539 -4.563238,5.73605 -2.357332,8.65608 1.572949,2.08217 3.322146,2.06393 5.695318,2.70673 1.583508,0.14182 3.162091,0.35842 4.750522,0.42545 4.053679,0.17107 9.72806,-0.0356 13.66624,-0.24484 9.1728,-0.48727 18.297242,-1.46259 27.428772,-2.42566 16.48193,-1.89017 32.919918,-4.11025 49.429888,-5.75008 15.39547,-1.43409 30.86102,-1.83087 46.31372,-2.04509 9.67575,-0.0489 19.35262,0.0813 29.02016,0.4843 8.9077,0.35777 17.77556,1.31938 26.62753,2.33676 6.42751,0.76462 12.85409,1.53663 19.28845,2.24174 4.12034,0.50667 8.24421,0.98591 12.35761,1.54715 11.34275,1.56835 13.7176,-1.25372 30.00366,-7.52311 0.57697,-0.22211 0.14554,-1.24329 0.05,-1.85412 -0.11321,-0.72332 -0.44511,-1.39496 -0.66768,-2.09245 -0.49741,-0.79844 -0.93953,-1.63415 -1.4923,-2.39535 -3.10528,-4.27622 -6.91457,-8.14208 -10.45892,-12.03971 -3.49399,-3.84227 -7.0004,-7.67324 -10.49753,-11.51265 -11.09746,-11.99229 -21.49368,-24.60366 -31.31389,-37.6561 -8.73012,-11.82304 -16.20178,-24.49022 -23.15603,-37.41645 -7.21407,-13.68303 -13.64645,-27.75606 -19.97832,-41.86274 -4.37992,-9.766147 -8.38543,-19.686659 -12.19845,-29.685276 -2.63275,-7.084891 -5.12039,-14.222749 -7.43941,-21.416283 -0.84811,-2.728391 -1.69819,-5.455964 -2.53028,-8.18928 0,0 -24.47912,7.517413 -24.47912,7.517413 v 0 c 0.91028,2.721565 1.82442,5.441829 2.75395,8.156895 2.49178,7.186089 5.00021,14.368719 7.86185,21.418368 4.02288,9.995153 8.22955,19.908451 12.95428,29.596973 6.64549,14.02508 13.32098,28.03926 20.32666,41.88883 6.84222,13.12219 14.15332,26.03316 23.13446,37.83762 10.01321,13.00191 20.72616,25.44322 31.56009,37.76522 3.75249,4.31189 6.38177,7.28053 10.00364,11.6399 3.19648,3.84736 6.45447,7.76106 9.0918,12.02861 0.36734,0.5944 0.65765,1.23308 0.98647,1.84961 0.0372,0.24863 0.23395,0.52635 0.11148,0.74589 -0.0773,0.13865 -0.61288,-0.0723 -0.46115,-0.11906 7.97767,-2.45759 16.01008,-4.73395 24.00528,-7.13391 0.37698,-0.11316 -0.75697,0.23594 -1.14882,0.27297 -0.7684,0.0726 -2.67478,-0.0984 -3.37158,-0.14771 -4.18177,-0.47651 -8.34242,-1.13727 -12.53406,-1.54054 -6.61696,-0.59568 -13.22763,-1.25781 -19.83297,-1.971 -8.85826,-0.95355 -17.71093,-2.06599 -26.61148,-2.53346 -9.92326,-0.41386 -19.85091,-0.43228 -29.78202,-0.30346 -15.62795,0.34589 -31.26166,0.89164 -46.85009,2.08511 -16.67346,1.54379 -33.24517,3.85403 -49.858647,5.92343 -14.485962,1.53876 -29.103712,3.19442 -43.683925,2.12626 -0.952133,-0.13687 -1.904315,-0.27337 -2.856394,-0.4106 -0.484603,-0.0699 -0.994228,-0.0414 -1.453653,-0.21063 -1.420802,-0.52346 2.22744,-5.4391 2.512057,-6.06129 3.807574,-5.93455 7.781505,-11.77597 11.123459,-17.9937 3.584922,-7.02128 6.75662,-14.24232 9.237128,-21.73433 3.42052,-10.43976 6.302759,-21.04109 9.35977,-31.59082 4.687248,-16.27318 9.231493,-32.59516 14.530639,-48.68341 6.754436,-20.26034 13.778696,-40.53552 23.893686,-59.415898 7.55195,-13.850254 15.5004,-27.509911 24.91034,-40.201654 3.63082,-5.060544 7.1841,-10.184876 11.0758,-15.0499154 0,0 -25.79086,5.4495604 -25.79086,5.4495604 z" />
  </g>
</svg>
