<?xml version="1.0" encoding="UTF-8" standalone="no"?>
<svg
   xmlns:dc="http://purl.org/dc/elements/1.1/"
   xmlns:cc="http://creativecommons.org/ns#"
   xmlns:rdf="http://www.w3.org/1999/02/22-rdf-syntax-ns#"
   xmlns:svg="http://www.w3.org/2000/svg"
   xmlns="http://www.w3.org/2000/svg"
   xmlns:sodipodi="http://sodipodi.sourceforge.net/DTD/sodipodi-0.dtd"
   xmlns:inkscape="http://www.inkscape.org/namespaces/inkscape"
   width="300mm"
   height="300mm"
   viewBox="0 0 300 300"
   version="1.1"
   id="svg42"
   inkscape:version="1.0.1 (3bc2e813f5, 2020-09-07)"
   sodipodi:docname="NOUN_Jail.svg">
  <defs
     id="defs36" />
  <sodipodi:namedview
     id="base"
     pagecolor="#ffffff"
     bordercolor="#666666"
     borderopacity="1.0"
     inkscape:pageopacity="0.0"
     inkscape:pageshadow="2"
     inkscape:zoom="0.35"
     inkscape:cx="400"
     inkscape:cy="560"
     inkscape:document-units="mm"
     inkscape:current-layer="layer1"
     inkscape:document-rotation="0"
     showgrid="false"
     inkscape:window-width="1267"
     inkscape:window-height="1040"
     inkscape:window-x="512"
     inkscape:window-y="95"
     inkscape:window-maximized="0" />
  <metadata
     id="metadata39">
    <rdf:RDF>
      <cc:Work
         rdf:about="">
        <dc:format>image/svg+xml</dc:format>
        <dc:type
           rdf:resource="http://purl.org/dc/dcmitype/StillImage" />
        <dc:title></dc:title>
      </cc:Work>
    </rdf:RDF>
  </metadata>
  <g
     inkscape:label="Layer 1"
     inkscape:groupmode="layer"
     id="layer1">
    <path
       style="stroke-width:1.32292"
       id="path231"
       d="m 30.850707,267.57257 c -0.449855,-5.60873 -0.591867,-11.23867 -0.773567,-16.86092 -0.45483,-16.46797 -0.567124,-32.94297 -0.699297,-49.41597 -0.336486,-19.93121 0.184291,-39.86116 0.987185,-59.77469 0.6253,-13.97368 1.43247,-27.93875 2.89112,-41.851783 1.200087,-11.050055 2.946263,-22.029015 4.561845,-33.022934 1.14276,-8.365587 2.260749,-16.7339 3.461362,-25.091654 0.523713,-3.135249 0.92643,-6.289611 1.499105,-9.416859 0.226936,-1.239245 0.670578,-3.644435 1.156422,-4.869993 0.26262,-0.662469 0.671134,-1.257347 1.0067,-1.88602 1.708798,-2.149669 3.974693,-3.209276 6.539918,-4.051545 1.259364,-0.4135 5.08653,-1.492173 3.828978,-1.07319 -19.460654,6.483777 -25.871571,7.21798 -13.404164,5.22588 14.743414,-1.385953 29.59785,-0.487469 44.367711,0.03004 16.056715,0.67679 32.100545,1.627045 48.143505,2.568121 12.00777,0.986279 24.03697,0.844999 36.05396,0.21219 10.09084,-0.62326 20.15931,-1.550598 30.23403,-2.385037 6.56361,-0.532061 13.13442,-0.97098 19.70832,-1.353342 4.83805,-0.270138 9.68039,-0.455249 14.52303,-0.61966 3.91341,-0.133641 7.82813,-0.230684 11.73497,0.07158 2.75571,0.173722 5.36892,0.841894 7.75789,2.222457 3.48829,2.377641 5.23572,6.261941 6.92882,9.977834 3.27309,7.898249 4.60511,16.41725 6.04619,24.794453 2.09857,12.213039 3.40479,24.533034 4.45778,36.873431 1.27505,15.106601 1.78242,30.259291 2.21808,45.408411 0.32983,13.16481 0.53023,26.33232 0.63693,39.50069 0.0578,10.33761 0.21791,20.67432 0.25395,31.01202 -0.0227,7.86718 -0.0744,15.73398 -0.0489,23.6012 -0.0421,5.77955 -0.2485,11.55577 -0.57547,17.32564 -0.13076,3.66155 -0.64665,7.28455 -1.18584,10.90238 -0.47104,2.68705 -1.06251,5.36609 -1.94829,7.94858 0,0 25.30579,-6.11653 25.30579,-6.11653 v 0 c 0.75742,-2.7455 1.4307,-5.52394 1.79564,-8.35204 0.44292,-3.66863 0.76306,-7.35009 0.83717,-11.04699 0.1991,-5.78394 0.18741,-11.5706 0.19675,-17.3575 -0.0601,-7.83162 -0.22302,-15.66129 -0.38611,-23.49138 -0.15237,-10.31983 -0.21558,-20.64138 -0.5329,-30.95819 -0.3679,-13.12801 -0.708,-26.25711 -1.1974,-39.38134 -0.53959,-15.20044 -1.0646,-30.40646 -2.01258,-45.587574 -0.94969,-12.437935 -2.13267,-24.858546 -4.04942,-37.190402 -1.28614,-8.629912 -2.47591,-17.383556 -5.48738,-25.616315 -1.71251,-4.19395 -3.4943,-8.469744 -6.95806,-11.549175 -2.65007,-1.956397 -5.04037,-2.994131 -8.35266,-3.3623 -4.0041,-0.418429 -8.00877,-0.519355 -12.03307,-0.281338 -4.90251,0.132655 -9.80187,0.345045 -14.69847,0.62141 -6.72614,0.394199 -13.4433,0.915799 -20.15679,1.485355 -10.22244,0.894847 -20.42728,2.004627 -30.66908,2.665214 -12.09497,0.712414 -24.20571,1.03681 -36.30792,0.189614 -16.15095,-0.723844 -32.29305,-1.603564 -48.43648,-2.47509 -7.83309,-0.309868 -15.666903,-0.603858 -23.502954,-0.8306 -4.304774,-0.124562 -9.836401,-0.292987 -14.175854,-0.202073 -2.047158,0.04289 -4.09077,0.190768 -6.136155,0.286152 -14.928649,1.704632 -5.197886,0.291338 -33.82473,8.767519 -4.508759,1.335008 -8.236516,3.085297 -10.557082,7.331482 -0.289667,0.773654 -0.636725,1.528188 -0.869004,2.320964 -0.37778,1.289386 -0.741779,3.757311 -0.933856,5.048528 -0.465607,3.130002 -0.845216,6.272175 -1.248937,9.410459 -1.002753,8.337555 -2.081605,16.665932 -3.133252,24.997407 -1.365033,10.9943 -2.939897,21.96407 -4.0594795,32.987033 -1.2606366,13.9054 -1.9847311,27.84543 -2.0810008,41.8107 -0.2722329,19.9146 -0.5177311,39.82976 -0.6398458,59.7459 -0.1326134,16.60053 -0.2465864,33.20299 -0.6992964,49.79859 -0.1830234,5.76334 -0.3293356,11.53359 -0.7735665,17.28416 0,0 25.4157,-6.95295 25.4157,-6.95295 z" />
    <path
       style="stroke-width:1.32292"
       id="path233"
       d="m 134.47804,47.050965 c -1.39645,2.903998 -2.85584,5.792565 -4.26578,8.698828 -5.59189,10.985055 -11.52741,21.792927 -17.43487,32.610747 -7.22262,13.68237 -14.615085,27.27349 -21.910608,40.91672 -8.636535,16.237 -16.097266,33.05697 -23.503596,49.8791 -0.991947,2.28959 -1.998163,4.57305 -2.975843,6.86876 -2.154563,5.0592 -2.984344,7.01806 -4.810353,12.10752 -1.788583,4.98515 -3.290276,10.04703 -4.762833,15.13144 -2.219182,7.24636 -3.24684,14.76067 -4.254841,22.24775 -0.624851,4.7369 -1.119328,9.4899 -1.563833,14.24674 -0.232064,3.23604 -0.681665,6.49008 -0.200253,9.71803 0.205568,0.47718 0.340326,0.99157 0.616702,1.43155 2.326563,3.70381 7.623122,3.45109 11.402036,3.68132 10.991656,0.33742 21.992259,0.15573 32.985953,0.0172 11.704239,-0.0715 23.385399,-0.65917 35.023369,-1.88732 10.44895,-1.34135 20.84443,-3.11406 31.17854,-5.15573 8.12929,-1.68588 16.17234,-3.75385 24.21866,-5.79136 6.3519,-1.61925 12.66868,-3.33839 19.12992,-4.46591 5.2082,-0.79699 10.45393,-1.31062 15.70117,-1.76688 3.49847,-0.30752 7.00329,-0.52759 10.50971,-0.71906 11.43003,-0.25663 19.2962,-4.60755 31.72358,-8.48314 2.37455,-1.46564 2.49317,-4.01985 2.47304,-6.56 -0.91955,-8.25995 -3.69805,-16.19712 -6.07292,-24.12558 -0.52775,-1.75508 -1.04992,-3.51186 -1.58325,-5.26525 -1.30216,-4.28106 -2.03903,-6.85707 -3.68182,-11.07186 -2.54846,-6.53841 -5.74891,-12.72681 -8.9953,-18.93559 -4.46947,-8.30167 -9.17914,-16.48019 -14.4231,-24.32048 -3.31328,-4.95371 -4.46733,-6.41366 -7.97416,-11.18303 -6.8395,-8.95155 -13.96731,-17.66198 -20.42963,-26.89503 -4.63478,-6.72441 -8.98427,-13.637049 -12.91756,-20.79393 0,0 -24.04742,7.910888 -24.04742,7.910888 v 0 c 4.07431,7.232162 8.65326,14.141552 13.49395,20.885022 2.24868,3.14984 3.87437,5.47726 6.22795,8.56722 4.73111,6.21135 9.97201,12.00829 14.70376,18.21957 3.66636,4.86504 4.56331,5.92466 7.99464,11.01034 5.23456,7.75832 9.95145,15.85682 14.41292,24.07924 2.70248,5.23583 3.86632,7.24633 6.15897,12.64596 3.07355,7.23883 5.22011,14.80525 7.39675,22.34697 2.17239,7.68061 4.75416,15.52656 4.68906,23.58583 -0.45202,2.54255 -0.91141,2.99222 -3.3076,3.74628 7.95036,-2.43277 15.89125,-4.89669 23.85107,-7.29831 0.32164,-0.097 -0.61447,0.274 -0.93217,0.38327 -1.65719,0.57001 -3.42309,0.69194 -5.16068,0.74694 -3.58105,0.17914 -7.16054,0.40248 -10.73224,0.71961 -5.37395,0.4811 -10.74348,1.02007 -16.08985,1.75281 -2.80848,0.4008 -3.62481,0.47366 -6.39189,1.04035 -4.40214,0.90155 -8.68202,2.29894 -13.05627,3.31714 -8.07082,2.07857 -16.14605,4.14427 -24.2828,5.95267 -10.42379,2.23326 -20.93448,4.09976 -31.49389,5.5623 -11.65543,1.32079 -23.36823,2.02079 -35.09884,2.18391 -10.67314,0.11552 -21.355213,0.18 -32.02221,-0.26093 -1.95599,-0.10552 -3.903845,-0.18425 -5.853244,-0.37849 -1.073994,-0.10701 -3.011885,-0.1652 -3.908481,-1.00695 -0.193318,-0.18149 -0.272163,-0.45516 -0.408244,-0.68274 -0.486037,-3.00479 0.03567,-6.05681 0.156991,-9.07429 0.324334,-4.68688 0.697425,-9.37066 1.203301,-14.04192 0.820581,-7.32979 1.867,-14.64079 3.849343,-21.76217 3.02577,-11.45295 6.840839,-22.65086 11.542398,-33.53367 7.006751,-16.91122 14.421086,-33.67422 23.432176,-49.63332 7.54,-13.633 15.02948,-27.292419 22.40096,-41.01742 6.05565,-11.017618 12.14674,-22.015085 18.48497,-32.873566 1.77237,-3.063597 3.76018,-6.020001 5.28091,-9.217234 0,0 -25.69642,5.989135 -25.69642,5.989135 z" />
    <path
       style="stroke-width:1.32292"
       id="path239"
       d="m 135.75305,176.54853 c -0.76922,-2.84052 -0.65912,-5.79228 -0.43905,-8.6947 0.60813,-4.34493 1.33326,-8.81023 3.21818,-12.8194 0.34531,-0.73447 0.7826,-1.42208 1.1739,-2.13312 2.73378,-4.18211 6.32752,-7.59426 10.42182,-10.4074 1.93181,-1.06357 1.88317,-1.12079 3.92352,-1.91499 0.66234,-0.25782 2.69064,-0.91678 2.01119,-0.70821 -41.77243,12.82291 -27.31891,7.51941 -18.87487,6.22141 5.12194,-0.21146 9.36597,2.85188 13.22211,5.85617 3.60364,2.94983 6.46985,6.63232 8.35424,10.89933 0.40111,0.90827 0.70847,1.85512 1.06271,2.78268 2.19155,6.74233 1.95874,13.3098 1.10831,20.24137 -1.07482,7.90724 -3.74626,15.40184 -6.88959,22.68951 -3.03273,6.98061 -7.10812,13.41712 -11.33594,19.71946 -2.92626,4.08853 -5.86465,8.18753 -9.08373,12.05278 -2.02147,2.50894 -4.21735,4.87754 -6.50722,7.14244 -1.11522,1.19046 -0.5559,0.62323 -1.67405,1.70555 0,0 25.62366,-4.91486 25.62366,-4.91486 v 0 c 1.05483,-1.13448 0.51807,-0.56156 1.61066,-1.71843 2.1697,-2.37212 4.30612,-4.77502 6.24501,-7.34312 2.99606,-3.97236 5.91417,-8.00837 8.60052,-12.19827 4.07462,-6.4791 8.08687,-13.03099 11.04674,-20.11312 3.10964,-7.53016 5.68131,-15.26471 6.75083,-23.37937 0.87368,-7.34381 1.09977,-14.33231 -1.19497,-21.47701 -0.37158,-1.01128 -0.69524,-2.04149 -1.11476,-3.03384 -1.94708,-4.60563 -4.84635,-8.73236 -8.67419,-11.96128 -4.03251,-3.35041 -8.36836,-6.72822 -13.63944,-7.73975 -1.30476,-0.0298 -2.55779,-0.16003 -3.83928,0.22245 -10.47543,3.12654 -22.69666,4.92175 -32.05313,11.42209 -4.01918,3.24614 -7.60083,7.01554 -10.12047,11.56695 -0.3649,0.8012 -0.7689,1.58572 -1.09471,2.4036 -1.71321,4.30074 -2.40017,8.94487 -3.08128,13.49314 -0.31031,3.23607 -0.50249,6.48129 0.009,9.7104 0,0 25.23455,-7.57246 25.23455,-7.57246 z" />
  </g>
</svg>
