<?xml version="1.0" encoding="UTF-8" standalone="no"?>
<svg
   xmlns:dc="http://purl.org/dc/elements/1.1/"
   xmlns:cc="http://creativecommons.org/ns#"
   xmlns:rdf="http://www.w3.org/1999/02/22-rdf-syntax-ns#"
   xmlns:svg="http://www.w3.org/2000/svg"
   xmlns="http://www.w3.org/2000/svg"
   xmlns:sodipodi="http://sodipodi.sourceforge.net/DTD/sodipodi-0.dtd"
   xmlns:inkscape="http://www.inkscape.org/namespaces/inkscape"
   width="300mm"
   height="300mm"
   viewBox="0 0 300 300"
   version="1.1"
   id="svg42"
   inkscape:version="1.0.1 (3bc2e813f5, 2020-09-07)"
   sodipodi:docname="NOUN_Tree.svg">
  <defs
     id="defs36" />
  <sodipodi:namedview
     id="base"
     pagecolor="#ffffff"
     bordercolor="#666666"
     borderopacity="1.0"
     inkscape:pageopacity="0.0"
     inkscape:pageshadow="2"
     inkscape:zoom="0.5"
     inkscape:cx="495.459"
     inkscape:cy="440"
     inkscape:document-units="mm"
     inkscape:current-layer="layer1"
     inkscape:document-rotation="0"
     showgrid="false"
     inkscape:window-width="1267"
     inkscape:window-height="1040"
     inkscape:window-x="512"
     inkscape:window-y="95"
     inkscape:window-maximized="0" />
  <metadata
     id="metadata39">
    <rdf:RDF>
      <cc:Work
         rdf:about="">
        <dc:format>image/svg+xml</dc:format>
        <dc:type
           rdf:resource="http://purl.org/dc/dcmitype/StillImage" />
        <dc:title></dc:title>
      </cc:Work>
    </rdf:RDF>
  </metadata>
  <g
     inkscape:label="Layer 1"
     inkscape:groupmode="layer"
     id="layer1">
    <path
       style="stroke-width:1.32292"
       id="path466"
       d="m 148.1299,235.29756 c -0.0157,-0.11792 -0.0494,-0.23483 -0.047,-0.35378 0.0393,-1.99743 0.29009,-4.04013 0.37056,-6.03248 0.23052,-5.70735 0.14903,-5.18654 0.0963,-11.53173 -0.49391,-17.77123 -0.15478,-35.54722 0.42005,-53.31121 0.57279,-16.232 1.23501,-32.46037 2.03145,-48.68292 0.41977,-8.98933 0.81209,-17.979812 1.25411,-26.968091 0,0 -16.40953,2.271519 -16.40953,2.271519 v 0 c -0.19501,8.953084 -0.45412,17.904272 -0.79253,26.853202 -0.54265,16.25855 -1.22516,32.51243 -1.64004,48.77472 -0.30088,17.77423 -0.32367,35.56026 -1.1577,53.32023 -0.49184,6.04541 -0.34273,5.53492 -1.13593,10.96217 -0.13328,0.91193 -0.80841,4.73738 -0.93001,5.94871 -0.12605,1.25569 -0.0805,1.76128 -0.037,2.8732 0,0 17.97726,-4.12354 17.97726,-4.12354 z" />
    <path
       style="stroke-width:1.32292"
       id="path468"
       d="m 118.7436,32.879368 c -0.0706,-0.01527 -0.15171,-0.0859 -0.21175,-0.04577 -0.29886,0.199742 -0.53714,0.47793 -0.80066,0.722413 -1.13728,1.055135 -2.2303,2.157318 -3.36786,3.212145 -0.91712,0.850421 -1.85673,1.676271 -2.78509,2.514404 -1.20469,1.131213 -2.40938,2.262426 -3.61407,3.393639 -7.64851,6.911755 -13.955422,14.487554 -19.494352,23.189583 -4.063809,6.38452 -5.661057,9.682522 -9.218025,16.345688 -3.884554,7.599955 -7.113794,15.500369 -10.35526,23.38658 0,0 16.009715,0.84658 16.009715,0.84658 v 0 c 2.97247,-7.596038 5.967476,-15.194681 9.816907,-22.404577 3.524015,-6.31317 4.983022,-9.32661 9.168735,-15.233112 5.63682,-7.954172 12.5732,-14.793638 20.16091,-20.876691 2.2475,-1.775923 4.65694,-3.728199 6.99657,-5.415233 1.41615,-1.021135 2.17581,-1.51222 3.6037,-2.279441 0.28831,-0.154913 0.61101,-0.248203 0.8815,-0.432477 0.21079,-0.143597 0.36244,-0.358947 0.54366,-0.538422 0,0 -17.33463,-6.385306 -17.33463,-6.385306 z" />
    <path
       style="stroke-width:1.32292"
       id="path470"
       d="m 159.6181,44.035143 c 3.06712,0.926616 5.50674,3.075025 7.9124,5.10222 7.84482,7.472278 14.3908,16.16575 21.03494,24.687191 6.07996,7.735615 11.72042,15.793246 17.19391,23.963963 2.03243,3.036083 4.02867,6.095683 6.00931,9.165683 0,0 15.45521,-8.001447 15.45521,-8.001447 v 0 c -2.08168,-3.090191 -4.15387,-6.187242 -6.3001,-9.2333 -5.80965,-8.197088 -11.70117,-16.338584 -17.91276,-24.238156 -6.97296,-8.781267 -13.85082,-17.646036 -21.10847,-26.195139 -0.85432,-0.908851 -1.68138,-1.844124 -2.56296,-2.726557 -1.96262,-1.964508 -4.15611,-3.712964 -6.40452,-5.334828 0,0 -13.31696,12.81037 -13.31696,12.81037 z" />
    <path
       style="stroke-width:1.32292"
       id="path472"
       d="m 97.548233,149.04988 c -0.469852,0.41216 -1.097666,0.56078 -1.603134,0.91024 -1.084583,0.74984 -2.224733,1.88165 -3.156342,2.77482 -2.247685,2.15498 -1.64974,1.58493 -3.911666,4.00589 -4.689755,5.40053 -8.546735,11.45605 -11.995994,17.70346 -2.543296,5.29656 -4.27047,10.93579 -5.909069,16.56359 0,0 17.567677,-0.0258 17.567677,-0.0258 v 0 c 1.427618,-4.91839 2.982764,-9.83881 5.630175,-14.26272 3.257978,-5.37552 6.74129,-10.71446 11.57431,-14.82597 1.6045,-1.24061 3.14009,-2.57314 5.11542,-3.1807 0.3651,-0.11229 0.75364,-0.13045 1.12323,-0.2269 2.05919,-0.53738 0.25711,-0.21169 1.66259,-0.44168 0,0 -16.097197,-8.99427 -16.097197,-8.99427 z" />
    <path
       style="stroke-width:1.32292"
       id="path474"
       d="m 166.75181,158.44013 c 2.33306,0.10782 4.33025,1.34549 6.27317,2.53386 4.93119,3.57356 9.00143,8.17719 13.0774,12.66397 3.03127,3.35349 5.9045,6.84497 8.55911,10.50353 0.779,1.07352 1.48224,2.1971 2.1742,3.32744 0,0 16.18719,-8.08726 16.18719,-8.08726 v 0 c -0.85255,-1.35126 -1.71676,-2.69554 -2.68058,-3.97171 -2.94808,-3.89949 -6.14283,-7.59961 -9.49728,-11.15573 -4.58069,-4.89431 -9.05497,-9.91104 -13.97346,-14.47111 -2.56098,-2.04246 -5.22366,-4.0052 -8.19284,-5.42167 0,0 -11.92691,14.07868 -11.92691,14.07868 z" />
    <path
       style="stroke-width:1.32292"
       id="path480"
       d="m 110.35087,254.78849 c -0.18064,0.11379 0.13974,0.64744 -0.0706,0.82729 -0.0472,0.0403 -0.11439,-0.07 -0.17578,-0.0611 -0.0955,0.0139 -0.16495,0.12549 -0.26149,0.12452 -0.1384,-0.001 -0.25725,-0.10966 -0.39399,-0.13107 -0.19514,-0.0306 -0.39473,-0.0156 -0.59211,-0.0233 -0.28619,0.0693 -0.57406,0.13206 -0.85859,0.20791 -0.88543,0.23603 -3.84028,1.15062 -2.5711,0.61179 20.48884,-8.69851 9.73364,-3.64547 7.05907,-2.73621 -0.80905,0.27505 -1.63986,0.48136 -2.45979,0.72204 -6.16394,1.67442 -12.532223,1.44063 -18.824065,0.86409 0,0 -10.039808,14.21138 -10.039808,14.21138 v 0 c 7.086391,1.02158 14.27094,1.72151 21.421223,0.91294 0.51177,-0.072 4.99803,-0.67043 5.59878,-0.8763 4.45303,-1.52609 8.86196,-3.18754 13.21439,-4.98052 0.90942,-0.37464 2.88109,-1.92928 3.61744,-2.63826 0.48207,-0.46414 0.89163,-0.99813 1.33745,-1.4972 0.35044,-0.56976 0.75043,-1.11187 1.05132,-1.70929 0.38836,-0.77109 0.83543,-2.10986 1.02286,-3.00505 0.13175,-0.6293 0.1292,-1.28181 0.26116,-1.91107 0.011,-0.0522 0.0574,-0.0899 0.0861,-0.13479 0,0 -18.42246,1.22224 -18.42246,1.22224 z" />
    <path
       style="stroke-width:1.32292"
       id="path482"
       d="m 135.87815,258.29621 c 0.29041,1.94168 0.79267,3.84593 1.40361,5.70917 1.12865,3.1869 3.26651,5.93698 6.14734,7.74123 0.84404,0.52863 1.76753,0.91826 2.6513,1.37736 6.71507,2.66759 13.98335,3.22734 21.11871,3.76465 5.03354,0.32417 10.08083,0.34518 15.11382,0.0265 1.70704,-0.11753 3.39965,-0.34157 5.08851,-0.60764 0,0 6.98854,-16.67124 6.98854,-16.67124 v 0 c -1.22772,0.57718 -2.45404,1.14615 -3.80864,1.36707 -4.56247,0.93679 -9.20703,1.277 -13.86433,1.21067 -6.09852,-0.10038 -12.27614,-0.26673 -18.20985,-1.8169 -0.81008,-0.2246 -3.22922,-0.63912 -3.71731,-1.58343 -0.10928,-0.21145 -0.16569,-0.44627 -0.24854,-0.66939 -0.20336,-0.66824 -0.75191,-2.08004 -0.43613,-2.73497 0,0 -18.22703,2.88688 -18.22703,2.88688 z" />
    <path
       style="stroke-width:1.32292"
       id="path492"
       d="m 111.56198,84.522097 c 0.0299,-0.05137 0.0316,-0.14125 0.0896,-0.15412 0.19062,-0.04229 0.39274,0.03389 0.58574,0.0043 0.31339,-0.04804 0.58239,-0.258908 0.89013,-0.33514 0.56385,-0.139676 1.14197,-0.214653 1.70936,-0.339187 2.7986,-0.447972 5.61264,-0.772565 8.43191,-1.057029 3.67958,-0.378056 7.37794,-0.357519 11.07164,-0.37664 3.74706,-0.0525 7.49417,-0.02969 11.24116,0.01032 3.20255,-0.0069 6.40489,0.0089 9.60733,0.03074 2.72946,0.05071 5.45901,0.0024 8.18857,0.0055 2.40818,0.01812 4.8163,0.03545 7.22451,0.04798 0.29121,-0.01241 0.58243,-0.02482 0.87364,-0.03722 0,0 9.75795,-15.359676 9.75795,-15.359676 v 0 c -0.37894,-0.03214 -0.75788,-0.06428 -1.13682,-0.09642 -2.42753,0.01238 -4.85499,0.02946 -7.28251,0.04724 -2.73115,0.0027 -5.46227,-0.04598 -8.19333,0.0038 -3.21416,0.02077 -6.42822,0.03552 -9.64247,0.02726 -3.76376,0.03826 -7.52754,0.05855 -11.29141,0.01707 -3.8552,0.0011 -7.71206,-0.01201 -11.56578,0.0468 -2.95351,0.08009 -5.90701,0.237278 -8.84451,0.563705 -0.35547,0.01506 -0.71094,0.03013 -1.06641,0.04519 -0.26072,0.03002 -0.52018,0.07442 -0.78215,0.09005 -0.0538,0.0032 -1.21268,-0.0085 -1.35022,0.02365 -0.0756,0.01767 -0.0951,0.146338 -0.17199,0.157173 -0.15208,0.02143 -0.30373,-0.04582 -0.45559,-0.06873 0,0 -7.88833,16.70332 -7.88833,16.70332 z" />
  </g>
</svg>
