<?xml version="1.0" encoding="UTF-8" standalone="no"?>
<svg
   xmlns:dc="http://purl.org/dc/elements/1.1/"
   xmlns:cc="http://creativecommons.org/ns#"
   xmlns:rdf="http://www.w3.org/1999/02/22-rdf-syntax-ns#"
   xmlns:svg="http://www.w3.org/2000/svg"
   xmlns="http://www.w3.org/2000/svg"
   xmlns:sodipodi="http://sodipodi.sourceforge.net/DTD/sodipodi-0.dtd"
   xmlns:inkscape="http://www.inkscape.org/namespaces/inkscape"
   width="300mm"
   height="300mm"
   viewBox="0 0 300 300"
   version="1.1"
   id="svg42"
   inkscape:version="1.0.1 (3bc2e813f5, 2020-09-07)"
   sodipodi:docname="NOUN_Time.svg">
  <defs
     id="defs36" />
  <sodipodi:namedview
     id="base"
     pagecolor="#ffffff"
     bordercolor="#666666"
     borderopacity="1.0"
     inkscape:pageopacity="0.0"
     inkscape:pageshadow="2"
     inkscape:zoom="0.35"
     inkscape:cx="400"
     inkscape:cy="560"
     inkscape:document-units="mm"
     inkscape:current-layer="layer1"
     inkscape:document-rotation="0"
     showgrid="false"
     inkscape:window-width="1267"
     inkscape:window-height="1040"
     inkscape:window-x="514"
     inkscape:window-y="86"
     inkscape:window-maximized="0" />
  <metadata
     id="metadata39">
    <rdf:RDF>
      <cc:Work
         rdf:about="">
        <dc:format>image/svg+xml</dc:format>
        <dc:type
           rdf:resource="http://purl.org/dc/dcmitype/StillImage" />
        <dc:title></dc:title>
      </cc:Work>
    </rdf:RDF>
  </metadata>
  <g
     inkscape:label="Layer 1"
     inkscape:groupmode="layer"
     id="layer1">
    <path
       style="stroke-width:1.32292"
       id="path110"
       d="m 43.957226,139.81707 c 1.531377,-2.55264 3.18398,-5.03177 4.815814,-7.52311 5.328536,-8.14557 11.689868,-15.50213 18.220081,-22.6904 8.242535,-8.50429 17.104593,-16.58616 27.083877,-23.031185 1.912371,-1.235086 3.908504,-2.335377 5.862756,-3.503062 2.038716,-1.041591 4.043906,-2.151566 6.116136,-3.124767 2.10514,-0.988658 4.24607,-1.9031 6.40914,-2.757604 2.20922,-0.87273 8.99301,-3.048785 6.7019,-2.4218 -5.28276,1.445686 -10.54044,3.013753 -15.68923,4.881277 -2.39958,0.870358 4.93075,-1.32938 7.42258,-1.882865 2.57422,-0.571786 5.17934,-0.994325 7.76901,-1.49149 15.45115,-2.421314 31.13134,-2.250507 46.6986,-1.393701 8.19418,0.604393 16.46559,2.114296 23.72119,6.164371 1.18383,0.660818 2.2885,1.454425 3.43274,2.181638 7.83293,5.986338 12.30733,14.938438 16.9766,23.381318 5.57225,10.08632 10.26049,20.61491 14.91412,31.14481 4.24344,9.22328 7.5651,18.79491 10.46774,28.50999 1.91831,6.51339 3.55393,13.10431 5.03537,19.72923 0.16528,0.77512 0.33057,1.55024 0.49585,2.32535 0,0 24.61919,-7.3391 24.61919,-7.3391 v 0 c -0.19273,-0.77605 -0.38545,-1.55209 -0.57816,-2.32814 -1.7178,-6.61814 -3.59175,-13.19628 -5.70521,-19.69986 -3.16996,-9.72978 -6.43695,-19.44732 -10.77126,-28.73502 -4.87674,-10.49324 -9.68074,-21.02769 -14.9875,-31.31299 -3.97149,-7.379149 -7.9166,-15.452661 -13.7184,-21.600496 -1.02895,-1.090324 -2.20085,-2.036294 -3.30127,-3.054439 -1.1902,-0.815015 -2.33222,-1.70529 -3.5706,-2.445047 -7.49494,-4.477152 -16.21697,-6.164439 -24.80985,-6.816391 -15.75925,-0.767718 -31.6156,-0.927151 -47.29946,1.055356 -2.58533,0.442656 -5.18478,0.809551 -7.75599,1.327971 -11.96303,2.412044 -27.90497,7.896799 -37.263184,10.90169 -6.725521,2.159545 -13.104948,5.35736 -19.255134,8.784654 -1.936425,1.220268 -3.914712,2.376505 -5.809271,3.660809 -9.929805,6.731309 -18.727134,15.028463 -27.114095,23.554393 -6.864361,7.39588 -13.528762,14.97975 -19.312401,23.26815 -1.907492,2.64616 -3.913025,5.25291 -5.579109,8.05846 0,0 25.75743,-5.778 25.75743,-5.778 z" />
    <path
       style="stroke-width:1.32292"
       id="path112"
       d="m 226.0675,227.39654 c -2.7409,-2.91685 -5.40543,-5.90018 -7.99978,-8.94775 -6.66789,-7.86357 -13.7062,-15.4016 -20.51622,-23.14135 -5.9384,-6.89862 -12.03387,-13.65237 -18.37704,-20.18058 -6.07237,-6.25366 -13.17024,-11.35457 -20.10344,-16.58949 -5.46636,-4.15737 -11.11065,-8.07195 -16.8086,-11.90294 -4.3576,-2.92931 -8.69408,-5.88978 -13.05521,-8.81386 -1.65874,-1.1304 -3.33192,-2.23853 -5.01521,-3.33187 0,0 -24.12496,9.31002 -24.12496,9.31002 v 0 c 1.72985,1.03736 3.45002,2.09041 5.11964,3.22357 4.45937,2.89012 8.8873,5.82751 13.36279,8.69251 5.76258,3.74469 11.34507,7.75574 16.96931,11.70337 6.97515,5.02253 14.00455,10.03699 20.05548,16.18585 6.43825,6.44035 12.50018,13.23514 18.64573,19.95252 6.82509,7.5575 13.81233,15.00022 19.84473,23.22561 2.31419,3.12666 4.74855,6.15465 7.14557,9.21589 0,0 24.85721,-8.6015 24.85721,-8.6015 z" />
    <path
       style="stroke-width:1.32292"
       id="path114"
       d="m 256.60319,44.205704 c 0.59987,1.997803 0.83637,4.089628 1.14755,6.147028 0.66839,4.649372 0.93753,9.342212 1.19039,14.028576 0.34746,6.478701 0.67845,12.957108 0.91497,19.441067 0.21795,6.814272 0.34026,13.631143 0.43976,20.448025 0.0315,6.00653 0.0702,12.0104 0.35664,18.01094 0.17732,3.41895 0.33517,6.83876 0.48012,10.25921 0,0 24.7634,-6.91977 24.7634,-6.91977 v 0 c -0.22691,-3.39716 -0.45614,-6.79427 -0.63865,-10.19419 -0.27236,-5.96217 -0.38674,-11.92865 -0.48416,-17.895962 -0.12621,-6.826139 -0.27496,-13.651884 -0.50874,-20.475316 -0.20762,-6.514031 -0.46538,-13.026199 -0.68895,-19.539682 -0.19876,-4.779013 -0.42151,-9.560616 -0.9076,-14.320652 -0.2358,-2.259891 -0.45678,-4.526265 -0.8641,-6.762946 0,0 -25.20063,7.773672 -25.20063,7.773672 z" />
  </g>
</svg>
