<?xml version="1.0" encoding="UTF-8" standalone="no"?>
<svg
   xmlns:dc="http://purl.org/dc/elements/1.1/"
   xmlns:cc="http://creativecommons.org/ns#"
   xmlns:rdf="http://www.w3.org/1999/02/22-rdf-syntax-ns#"
   xmlns:svg="http://www.w3.org/2000/svg"
   xmlns="http://www.w3.org/2000/svg"
   xmlns:sodipodi="http://sodipodi.sourceforge.net/DTD/sodipodi-0.dtd"
   xmlns:inkscape="http://www.inkscape.org/namespaces/inkscape"
   width="300mm"
   height="300mm"
   viewBox="0 0 300 300"
   version="1.1"
   id="svg42"
   inkscape:version="1.0.1 (3bc2e813f5, 2020-09-07)"
   sodipodi:docname="NOUN_Meet.svg">
  <defs
     id="defs36" />
  <sodipodi:namedview
     id="base"
     pagecolor="#ffffff"
     bordercolor="#666666"
     borderopacity="1.0"
     inkscape:pageopacity="0.0"
     inkscape:pageshadow="2"
     inkscape:zoom="0.35"
     inkscape:cx="400"
     inkscape:cy="560"
     inkscape:document-units="mm"
     inkscape:current-layer="layer1"
     inkscape:document-rotation="0"
     showgrid="false"
     inkscape:window-width="1267"
     inkscape:window-height="1040"
     inkscape:window-x="514"
     inkscape:window-y="86"
     inkscape:window-maximized="0" />
  <metadata
     id="metadata39">
    <rdf:RDF>
      <cc:Work
         rdf:about="">
        <dc:format>image/svg+xml</dc:format>
        <dc:type
           rdf:resource="http://purl.org/dc/dcmitype/StillImage" />
        <dc:title></dc:title>
      </cc:Work>
    </rdf:RDF>
  </metadata>
  <g
     inkscape:label="Layer 1"
     inkscape:groupmode="layer"
     id="layer1">
    <path
       style="stroke-width:1.32292"
       id="path211"
       d="m 132.41534,18.056109 c 0.31714,3.540663 0.36022,7.102921 0.36828,10.655686 -0.0957,8.498731 -0.20462,16.997304 -0.26833,25.496712 -0.14626,12.302906 -0.23353,24.605369 -0.18056,36.909041 0.15712,13.913392 0.58972,27.823072 1.08806,41.728002 0.48452,14.47214 1.1818,28.9357 1.84007,43.40061 0.49208,11.00671 0.87735,22.01794 1.15994,33.03195 0.26283,7.51963 0.32267,15.04017 0.16626,22.56204 -0.0566,5.90638 -0.4244,11.79676 -0.89369,17.68224 -0.41373,4.29758 -0.91544,8.5853 -1.2475,12.89028 -0.17903,2.53578 -0.0913,1.28133 -0.26328,3.76335 0,0 24.99419,-6.66656 24.99419,-6.66656 v 0 c 0.14328,-2.4534 0.0645,-1.21366 0.23722,-3.71919 0.33696,-4.28676 0.72219,-8.56967 1.03546,-12.85825 0.34053,-5.91076 0.64514,-11.82278 0.59693,-17.74633 0.0548,-7.53858 -0.0371,-15.07669 -0.53494,-22.60206 -0.59976,-10.95568 -1.20195,-21.9112 -1.87396,-32.86277 -0.83793,-14.42798 -1.60147,-28.86221 -1.99805,-43.31017 -0.42553,-13.90475 -0.68998,-27.815382 -0.80273,-41.72616 0.0232,-12.317245 0.15923,-24.634028 0.52301,-36.946498 0.29125,-8.578389 0.72767,-17.14985 1.05591,-25.726627 0.11336,-3.639937 0.14722,-7.288881 0.45274,-10.919004 0,0 -25.45503,6.963708 -25.45503,6.963708 z" />
    <path
       style="stroke-width:1.32292"
       id="path213"
       d="m 99.728257,60.774291 c -0.530815,2.26468 -1.549043,4.397182 -2.549459,6.488295 -2.281034,4.790384 -4.827955,9.447167 -7.359576,14.107956 -3.080136,5.806734 -6.052089,11.678026 -8.828807,17.636482 -2.409505,5.154256 -4.614537,10.405476 -6.537867,15.760146 -1.143971,3.34407 -2.206914,6.71469 -3.332258,10.06492 0,0 24.957902,-5.99176 24.957902,-5.99176 v 0 c 1.046284,-3.33177 2.072894,-6.67097 3.269618,-9.95298 1.96128,-5.25238 4.12087,-10.427844 6.46933,-15.51951 2.76569,-5.911527 5.65389,-11.772926 8.84683,-17.466937 2.64789,-4.743651 5.28751,-9.493408 7.74325,-14.340424 1.09077,-2.265492 2.10793,-4.560435 2.9694,-6.923228 0,0 -25.648363,6.13704 -25.648363,6.13704 z" />
    <path
       style="stroke-width:1.32292"
       id="path215"
       d="m 165.79133,60.639793 c 0.53161,1.482611 1.37581,2.838828 2.22159,4.159607 2.03918,2.990619 4.14012,5.937988 6.30183,8.841128 2.58062,3.511286 5.24261,6.961085 7.88024,10.429367 2.46252,3.138697 4.82286,6.354361 7.20695,9.552371 2.25803,2.773545 4.33784,5.674688 6.38881,8.602414 1.61256,2.27446 0.78358,1.12767 2.48888,3.43899 0,0 24.3734,-8.359211 24.3734,-8.359211 v 0 c -1.6475,-2.252784 -0.85054,-1.12137 -2.39283,-3.392868 -2.03054,-2.979412 -4.03429,-5.984055 -6.40012,-8.714087 -2.43532,-3.181897 -4.8227,-6.399662 -7.33333,-9.523515 -2.64335,-3.445394 -5.25181,-6.914126 -7.80982,-10.423573 -2.11156,-2.820916 -4.15865,-5.692319 -5.93138,-8.742119 -0.64008,-1.049676 -1.3416,-2.145588 -1.6829,-3.332913 0,0 -25.31132,7.464409 -25.31132,7.464409 z" />
    <path
       style="stroke-width:1.32292"
       id="path217"
       d="m 68.92845,162.52389 c 0.177559,2.93301 0.298114,5.86956 0.443037,8.80454 0.280167,6.30036 0.84918,12.5808 1.318226,18.86841 0.64757,7.83055 1.040042,15.67779 1.373282,23.52691 0.390242,6.89912 0.679704,13.8028 0.918231,20.70863 0.206346,4.83174 0.252143,9.66349 0.197739,14.49837 -0.01146,0.66636 -0.02291,1.33272 -0.03438,1.99909 0,0 24.904906,-6.79455 24.904906,-6.79455 v 0 c -0.0021,-0.66598 -0.0043,-1.33197 -0.0065,-1.99796 -0.02318,-4.852 -0.18007,-9.69867 -0.508108,-14.54057 -0.380233,-6.88237 -0.804429,-13.76224 -1.160463,-20.64596 -0.400431,-7.86181 -0.882102,-15.71899 -1.353529,-23.57681 -0.332679,-6.2927 -0.812234,-12.57983 -0.900218,-18.88299 -0.0031,-2.97634 0.005,-5.95423 0.236593,-8.92365 0,0 -25.42881,6.95654 -25.42881,6.95654 z" />
    <path
       style="stroke-width:1.32292"
       id="path219"
       d="m 202.71891,158.66325 c 0.23441,2.17597 0.0641,4.35885 -0.0583,6.53534 -0.33695,4.31155 -0.77546,8.61402 -1.18445,12.91906 -0.45615,5.29215 -1.20649,10.55231 -1.82873,15.82612 -0.76424,6.5563 -1.36628,13.13121 -1.92106,19.70827 -0.54318,7.13103 -0.83763,14.27749 -1.18237,21.41992 -0.28124,5.68553 -0.47112,11.37492 -0.64691,17.06451 -0.17333,3.1837 -0.0217,6.36886 0.0971,9.55083 0,0 24.77415,-6.88623 24.77415,-6.88623 v 0 c -0.13872,-3.12358 -0.21325,-6.24827 -0.11427,-9.37492 0.0905,-5.65069 0.2155,-11.30077 0.3875,-16.94961 0.23167,-7.10789 0.56722,-14.21403 1.17421,-21.30093 0.56542,-6.57604 1.26834,-13.13804 2.17712,-19.67632 0.6798,-5.28873 1.37657,-10.57602 1.88478,-15.88486 0.51228,-4.35109 1.01285,-8.70225 1.40781,-13.06602 0.20442,-2.28074 0.37709,-4.56182 0.48848,-6.84887 0,0 -25.45503,6.96371 -25.45503,6.96371 z" />
    <path
       style="stroke-width:1.32292"
       id="path221"
       d="m 42.63513,142.87877 c 2.9895,0.44015 6.010735,0.57827 9.029734,0.69814 7.113521,0.20676 14.230284,0.29915 21.346599,0.32648 8.53576,-0.0759 17.067609,-0.36805 25.601181,-0.56049 10.781876,-0.28672 21.558806,-0.72175 32.340166,-1.02975 9.23313,-0.27903 18.46819,-0.40222 27.70505,-0.42591 9.65441,0.0188 19.30667,-0.0273 28.95891,-0.23549 7.22489,-0.13881 14.44829,-0.339 21.66396,-0.73528 4.29009,-0.29244 8.56382,-0.77636 12.84178,-1.20381 1.93995,-0.16493 3.87329,-0.3858 5.80472,-0.62873 0,0 23.58261,-11.01751 23.58261,-11.01751 v 0 c -1.9638,0.26395 -3.92123,0.58731 -5.89675,0.75159 -4.37695,0.45365 -8.74534,0.98396 -13.12283,1.43238 -7.38689,0.57757 -14.79179,0.89538 -22.19795,1.0947 -9.60106,0.27241 -19.20113,0.34669 -28.80586,0.23032 -9.35071,0.005 -18.69815,0.13045 -28.0425,0.50328 -10.71167,0.32093 -21.42146,0.71693 -32.1349,0.96703 -8.4537,0.11393 -16.90511,0.30285 -25.357059,0.50446 -6.945296,0.003 -13.890603,-0.15165 -20.830106,-0.43849 -2.758921,-0.13819 -5.610021,-0.14009 -8.308625,-0.73934 0,0 -24.17813,10.50642 -24.17813,10.50642 z" />
  </g>
</svg>
