<?xml version="1.0" encoding="UTF-8" standalone="no"?>
<svg
   xmlns:dc="http://purl.org/dc/elements/1.1/"
   xmlns:cc="http://creativecommons.org/ns#"
   xmlns:rdf="http://www.w3.org/1999/02/22-rdf-syntax-ns#"
   xmlns:svg="http://www.w3.org/2000/svg"
   xmlns="http://www.w3.org/2000/svg"
   xmlns:sodipodi="http://sodipodi.sourceforge.net/DTD/sodipodi-0.dtd"
   xmlns:inkscape="http://www.inkscape.org/namespaces/inkscape"
   height="643"
   width="535.62195"
   sodipodi:docname="NOUN_Light.svg"
   version="1.1"
   id="svg19"
   viewBox="0 0 535.62195 643"
   inkscape:version="1.0.1 (3bc2e813f5, 2020-09-07)"
   inkscape:export-filename="C:\Users\metro\OneDrive\Desktop\attris-glyphs\NOUN_Light.png"
   inkscape:export-xdpi="96"
   inkscape:export-ydpi="96">
  <sodipodi:namedview
     id="base"
     pagecolor="#ffffff"
     bordercolor="#666666"
     borderopacity="1.0"
     inkscape:pageopacity="0.0"
     inkscape:pageshadow="2"
     inkscape:zoom="1"
     inkscape:cx="254.4134"
     inkscape:cy="370.14092"
     inkscape:document-units="px"
     inkscape:current-layer="layer26"
     showgrid="false"
     showguides="true"
     inkscape:window-width="1662"
     inkscape:window-height="1017"
     inkscape:window-x="0"
     inkscape:window-y="0"
     inkscape:window-maximized="0"
     showborder="true"
     inkscape:showpageshadow="false"
     inkscape:document-rotation="0">
    <sodipodi:guide
       id="guide_baseline"
       inkscape:label="baseline"
       position="-214.69533,0"
       orientation="0,1" />
    <sodipodi:guide
       id="guide_ascender"
       inkscape:label="ascender"
       position="-214.69533,692"
       orientation="0,1" />
    <sodipodi:guide
       id="guide_caps"
       inkscape:label="caps"
       position="-214.69533,643"
       orientation="0,1" />
    <sodipodi:guide
       id="guide_xheight"
       inkscape:label="xheight"
       position="-214.69533,476"
       orientation="0,1" />
    <sodipodi:guide
       id="guide_descender"
       inkscape:label="descender"
       position="-214.69533,-225"
       orientation="0,1" />
  </sodipodi:namedview>
  <defs
     id="defs4" />
  <metadata
     id="metadata7">
    <rdf:RDF>
      <cc:Work
         rdf:about="">
        <dc:format>image/svg+xml</dc:format>
        <dc:type
           rdf:resource="http://purl.org/dc/dcmitype/StillImage" />
        <dc:title />
      </cc:Work>
    </rdf:RDF>
  </metadata>
  <g
     inkscape:groupmode="layer"
     id="layer26"
     inkscape:label="NOUN_Light"
     style="display:inline"
     sodipodi:insensitive="true"
     transform="translate(-214.69533,-104)">
    <path
       id="path1303"
       style="stroke-width:7.28742;stroke-miterlimit:4;stroke-dasharray:none"
       d="m 549.62295,135.99035 c 7.81133,22.69388 16.54757,43.72352 25.23468,64.76204 16.41855,38.75265 32.64434,77.86109 48.32962,118.07877 10.27615,26.95601 20.67824,53.73925 30.45086,81.61233 5.80055,16.54408 7.60456,22.55974 12.91614,39.19065 11.59641,37.60044 21.47306,77.62154 31.0782,117.82666 6.39023,26.83946 12.28589,54.22067 17.83808,81.9525 2.61824,13.85956 5.32051,27.721 6.99116,42.31427 0.77123,7.2522 1.5344,14.5385 2.42129,21.73219 0,0 25.4343,-30.67516 25.4343,-30.67516 v 0 c -0.93829,-7.12842 -1.64089,-14.40191 -2.5558,-21.54739 -2.00512,-14.66938 -4.84883,-28.58871 -7.91037,-42.32101 -2.65788,-12.44803 -5.16002,-25.06662 -7.94349,-37.38145 -2.92703,-12.94998 -3.30194,-14.00633 -6.60069,-26.94863 -1.43109,-5.61475 -2.86055,-11.23151 -4.29082,-16.84726 -2.60521,-10.31486 -7.92789,-31.35532 -10.41936,-41.36385 -6.53229,-26.24094 -12.53458,-53.32723 -20.86354,-77.11698 -6.99248,-20.50534 -14.15466,-40.66142 -21.37923,-60.76829 -3.71618,-10.34263 -11.21252,-31.37928 -15.12392,-41.80935 -2.33678,-6.23126 -4.75329,-12.31379 -7.12996,-18.47067 -5.0086,-12.57853 -9.92135,-25.01586 -15.02307,-37.41607 C 620.00036,223.87085 608.4167,197.9537 597.87016,169.97448 589.81482,148.83096 581.32132,127.97506 574.99444,104 c 0,0 -25.37149,31.99035 -25.37149,31.99035 z m -192.85924,25.69044 c 0.60947,1.00263 1.24154,1.94305 1.82839,3.00793 5.98726,10.86428 11.70288,22.61409 17.52437,33.87973 14.65702,28.36398 7.55378,14.50728 23.24017,45.44316 28.72347,56.23058 57.1162,113.25728 84.67117,172.20987 19.28249,40.15837 36.10485,85.33008 52.22038,131.51467 7.04726,21.56431 14.12859,43.27821 19.70855,66.86605 2.59701,10.97819 3.57316,16.33989 5.84707,27.67384 4.83349,26.1438 8.73176,53.03111 12.85823,79.72396 0,0 26.1778,-31.65789 26.1778,-31.65789 v 0 c -4.76015,-26.26641 -8.60122,-53.27147 -13.42718,-79.48791 -2.25466,-11.25282 -3.35352,-17.40516 -6.04749,-28.1936 -5.90023,-23.62828 -13.71935,-44.67524 -21.05571,-66.18073 -7.82113,-21.59431 -8.62746,-23.92484 -16.72121,-45.83086 -11.20218,-30.31916 -22.63609,-60.41489 -36.28098,-85.76174 -28.7276,-56.29595 -57.08076,-113.48039 -84.89908,-171.91497 -13.45502,-28.40303 -27.06207,-56.53073 -39.49366,-87.11595 0,0 -26.15082,35.82444 -26.15082,35.82444 z m -142.06838,28.52859 c 6.95944,18.53439 14.01358,36.87286 20.8783,55.60315 8.19659,22.36425 16.20192,45.11532 24.30289,67.67297 8.15653,22.5771 16.24059,45.30134 24.46962,67.7313 19.35054,52.74399 39.29822,104.08543 59.47128,155.06404 9.47162,24.95861 19.95889,48.04111 28.49727,74.9449 4.47819,14.11039 7.8285,29.33986 11.00746,45.18801 3.87812,23.76832 7.21692,48.01058 10.63183,72.16703 2.01228,12.93001 0.99256,6.79909 3.03049,18.41922 0,0 23.30064,-30.97418 23.30064,-30.97418 v 0 c -2.18607,-10.9918 -1.10214,-5.14064 -3.20791,-17.59845 -1.87742,-12.3287 -3.72509,-24.6606 -5.44818,-37.11582 -0.66324,-4.79426 -2.64692,-19.77378 -3.48881,-24.78394 -0.61487,-3.65919 -1.37961,-7.16791 -2.06942,-10.7519 -3.64633,-15.7661 -7.36034,-31.33366 -12.29095,-45.15419 -9.35856,-26.23212 -21.00641,-47.29974 -31.28696,-71.32971 -5.84778,-13.18918 -11.79455,-26.13798 -17.54336,-39.56754 -24.30016,-56.76656 -47.3934,-116.40793 -69.00444,-178.95953 -7.86206,-22.7562 -15.63524,-45.71153 -22.97855,-69.41423 -6.05926,-19.55803 -11.4696,-40.19205 -17.2044,-60.28808 0,0 -21.0668,29.14695 -21.0668,29.14695 z" />
  </g>
</svg>
