<?xml version="1.0" encoding="UTF-8" standalone="no"?>
<svg
   xmlns:dc="http://purl.org/dc/elements/1.1/"
   xmlns:cc="http://creativecommons.org/ns#"
   xmlns:rdf="http://www.w3.org/1999/02/22-rdf-syntax-ns#"
   xmlns:svg="http://www.w3.org/2000/svg"
   xmlns="http://www.w3.org/2000/svg"
   xmlns:sodipodi="http://sodipodi.sourceforge.net/DTD/sodipodi-0.dtd"
   xmlns:inkscape="http://www.inkscape.org/namespaces/inkscape"
   height="431.20233"
   width="354.24942"
   sodipodi:docname="NOUN_Story.svg"
   version="1.1"
   id="svg19"
   viewBox="0 0 354.24942 431.20233"
   inkscape:version="1.0.1 (3bc2e813f5, 2020-09-07)"
   inkscape:export-filename="C:\Users\metro\OneDrive\Desktop\attris-glyphs\NOUN_Light.png"
   inkscape:export-xdpi="96"
   inkscape:export-ydpi="96">
  <sodipodi:namedview
     id="base"
     pagecolor="#ffffff"
     bordercolor="#666666"
     borderopacity="1.0"
     inkscape:pageopacity="0.0"
     inkscape:pageshadow="2"
     inkscape:zoom="1"
     inkscape:cx="162.08639"
     inkscape:cy="158.34324"
     inkscape:document-units="px"
     inkscape:current-layer="layer24"
     showgrid="false"
     showguides="true"
     inkscape:window-width="1662"
     inkscape:window-height="1017"
     inkscape:window-x="0"
     inkscape:window-y="0"
     inkscape:window-maximized="0"
     showborder="true"
     inkscape:showpageshadow="false"
     inkscape:document-rotation="0">
    <sodipodi:guide
       id="guide_baseline"
       inkscape:label="baseline"
       position="-307.02234,1.1542969e-05"
       orientation="0,1" />
    <sodipodi:guide
       id="guide_ascender"
       inkscape:label="ascender"
       position="-307.02234,692.00001"
       orientation="0,1" />
    <sodipodi:guide
       id="guide_caps"
       inkscape:label="caps"
       position="-307.02234,643.00001"
       orientation="0,1" />
    <sodipodi:guide
       id="guide_xheight"
       inkscape:label="xheight"
       position="-307.02234,476.00001"
       orientation="0,1" />
    <sodipodi:guide
       id="guide_descender"
       inkscape:label="descender"
       position="-307.02234,-224.99999"
       orientation="0,1" />
  </sodipodi:namedview>
  <defs
     id="defs4" />
  <metadata
     id="metadata7">
    <rdf:RDF>
      <cc:Work
         rdf:about="">
        <dc:format>image/svg+xml</dc:format>
        <dc:type
           rdf:resource="http://purl.org/dc/dcmitype/StillImage" />
        <dc:title />
      </cc:Work>
    </rdf:RDF>
  </metadata>
  <g
     inkscape:groupmode="layer"
     id="layer24"
     inkscape:label="NOUN_Voice"
     style="display:inline"
     transform="translate(-307.02234,-315.79768)">
    <path
       id="path1273"
       style="stroke-width:4.41696;stroke-miterlimit:4;stroke-dasharray:none"
       d="m 645.28944,534.08586 c -1.19082,3.96201 -3.544,7.30725 -5.6324,10.65167 -2.86375,4.52143 -6.25417,8.50362 -9.49655,12.62584 -6.32047,7.5879 -11.61564,16.26273 -17.23805,24.57249 -7.3257,10.50361 -14.85493,20.78568 -22.89567,30.51276 -8.20489,9.79189 -17.81632,17.50592 -27.73057,24.55447 -6.82275,4.50283 -13.80957,8.7406 -21.10214,12.05385 -3.85723,1.75246 -5.64938,2.3511 -9.53031,3.80477 -8.58448,2.8347 -17.40278,4.39486 -26.23428,5.60304 -11.20707,1.44565 -22.37888,3.14516 -33.62666,4.07871 -6.75525,0.49178 -13.48395,1.19441 -20.18151,-0.37718 -4.43702,-1.04115 -8.10568,-2.5275 -12.43672,-4.10345 -14.19456,-5.65234 -27.49413,-14.00656 -40.57453,-22.5934 -8.87236,-5.68668 -17.37692,-12.11076 -25.40676,-19.36517 -4.5849,-4.61326 -8.52485,-10.0777 -12.54963,-15.37427 -3.8883,-5.4018 -7.79858,-10.78561 -11.31565,-16.54489 -3.62636,-6.88567 -7.64642,-13.45156 -11.43233,-20.21074 -2.60972,-4.81296 -5.92644,-8.96726 -8.85985,-13.48207 -2.62875,-4.18934 -1.34605,-2.1923 -3.83978,-5.9988 -1.21773,-1.98426 -1.42005,-2.21228 -2.42112,-4.18888 -0.36769,-0.72599 -1.42169,-2.93878 -1.0627,-2.20657 16.72326,34.11039 11.67667,25.83614 8.31632,14.98672 -1.17661,-4.2763 -2.30872,-8.58412 -2.99047,-13.01757 -0.16849,-2.83149 -0.57322,-5.51062 -1.27929,-8.21949 -0.49838,-2.12432 -0.26723,-1.07408 -0.69604,-3.14991 0,0 -14.46567,-22.78119 -14.46567,-22.78119 v 0 c 0.35638,2.16647 0.16082,1.07485 0.58882,3.27431 0.58867,2.67698 1.61766,5.15473 1.51299,7.99352 0.50542,4.6867 1.66131,9.17618 2.85499,13.67171 0.21719,0.77278 1.62398,5.88363 1.94028,6.5818 5.08417,11.22225 9.74105,23.1489 16.45337,33.22848 4.2257,6.40095 8.6636,12.61827 12.48611,19.38255 3.8607,6.75903 7.73228,13.50948 11.57743,20.27985 3.63929,5.66096 7.53404,11.06957 11.50853,16.39632 4.06868,5.32154 8.05079,10.81777 12.95267,15.08473 8.03688,6.84222 16.59297,12.70889 25.31995,18.19512 13.28957,8.46323 26.68879,16.94559 41.04956,22.5328 6.10574,2.20998 12.2756,4.65518 18.68684,5.23152 4.86602,0.43745 9.90199,-0.80456 14.74748,-1.05393 11.29309,-1.17064 22.59614,-2.19152 33.86026,-3.73223 8.98771,-1.1435 17.94511,-2.83437 26.62773,-5.92023 3.82147,-1.54238 5.80639,-2.27765 9.60393,-4.09025 7.34258,-3.50468 14.40647,-7.81978 21.34326,-12.33796 10.08952,-7.16928 19.95078,-14.87357 28.23967,-24.93165 5.76085,-7.18692 11.34128,-14.56206 17.00536,-21.85683 1.1733,-1.51108 2.38875,-2.97531 3.54467,-4.50549 0.95497,-1.26421 1.85762,-2.58373 2.78642,-3.87557 5.3004,-8.44463 10.63071,-16.93435 17.16436,-24.097 3.46739,-4.01017 6.84808,-8.15151 9.89667,-12.62888 1.31131,-2.16357 2.54835,-4.38359 3.91962,-6.49462 0.19325,-0.2975 1.89297,-2.7682 2.18045,-3.34378 0.12747,-0.25522 0.16094,-0.56268 0.24141,-0.844 0,0 -13.41047,-23.97103 -13.41047,-23.97103 z M 588.61603,402.33708 c 0.22681,5.02875 -0.32056,10.04936 -0.98318,15.00442 -0.96326,5.41427 -2.67984,10.58558 -4.24183,15.78281 -2.31705,8.33182 -4.35731,16.74317 -7.14781,24.87519 -2.703,7.20242 -6.96723,13.14406 -11.68504,18.53988 -4.98008,5.89576 -10.37571,11.24428 -15.98734,16.2485 -4.86944,4.27272 -10.03781,8.05203 -15.26239,11.6665 -5.96381,4.27556 -12.60594,6.83197 -19.16911,9.4288 -9.53594,3.67378 -19.32657,6.14301 -29.22904,7.84813 -8.14976,1.3973 -16.37032,2.07382 -24.59601,2.32733 -5.86744,0.15473 -11.02281,-3.27222 -16.04431,-6.49055 -8.24151,-5.39137 -15.80495,-12.10927 -23.25969,-18.91051 -6.87741,-6.16278 -12.91472,-13.54299 -18.93725,-20.84523 -4.97237,-6.05393 -9.70587,-12.38422 -14.3131,-18.83684 -0.95612,-1.47058 -1.83652,-2.7449 -2.66852,-4.31361 -0.3527,-0.66502 -1.31016,-2.7329 -0.97874,-2.05236 19.00831,39.03144 12.21641,27.15996 9.20834,17.77898 -0.98305,-3.18878 -1.64993,-6.4913 -1.96579,-9.86612 -0.27618,-3.02118 -0.96807,-5.95334 -1.35934,-8.95682 -0.18165,-2.33228 -0.50444,-4.63987 -0.97454,-6.91373 -0.35607,-1.69819 -0.61854,-3.40472 -0.9993,-5.09481 0,0 -14.88225,-22.59577 -14.88225,-22.59577 v 0 c 0.75049,1.51004 1.12347,3.13715 1.31581,4.8756 0.46654,2.22847 1.05848,4.45123 1.20947,6.74818 0.27367,3.00329 0.6744,5.99785 1.46248,8.87697 0.15017,3.58444 0.61846,7.10945 1.59295,10.52018 0.0402,0.14549 1.25711,4.56361 1.3149,4.68832 5.21643,11.25664 9.57153,22.81003 16.58598,32.44072 4.63033,6.27923 9.37789,12.43804 14.32393,18.36376 6.12037,7.28854 12.25192,14.63057 19.25363,20.72495 7.59306,6.7462 15.38513,13.22478 23.62124,18.80243 5.41712,3.39635 11.01721,6.80845 17.32009,6.16519 8.18781,-0.80851 16.35943,-1.83536 24.511,-3.06307 10.0318,-1.74327 19.90106,-4.3966 29.58709,-8.00661 6.78896,-2.48024 13.77439,-4.69197 19.86639,-9.19543 5.28411,-3.70837 10.41933,-7.71302 15.3855,-12.00748 5.7365,-4.97741 11.01249,-10.61941 16.25307,-16.3207 1.84749,-1.96491 2.74037,-2.78104 4.33819,-4.97262 3.18108,-4.36316 5.84377,-9.35278 8.06795,-14.47311 2.78829,-8.01396 4.8701,-16.33343 7.5711,-24.38986 1.54738,-5.35643 2.98855,-10.76547 4.47686,-16.14372 0.87856,-4.90936 1.26628,-9.96874 1.5456,-14.97325 0,0 -14.12699,-23.28464 -14.12699,-23.28464 z M 512.7335,360.76867 c 0.17547,6.52915 0.17967,13.06282 0.17869,19.59467 -0.12437,4.32535 0.37883,8.96214 -1.02409,13.08722 -0.64972,1.91043 -1.55975,3.31979 -2.5188,5.00311 -2.45647,4.30985 -6.43772,5.6907 -10.37144,7.17675 -1.29066,0.3753 -2.59127,1.09646 -3.95588,0.95812 -2.2067,-0.2237 -4.33696,-1.32092 -6.36714,-2.27377 -3.04533,-1.43682 -6.31918,-3.47588 -7.96093,-7.07617 -0.22037,-0.48326 -0.34237,-1.0221 -0.51355,-1.53313 21.41767,43.16819 11.36589,28.9701 10.41459,19.21605 -0.28306,-2.90231 -0.26436,-5.84717 -0.29711,-8.76336 -0.14705,-7.28569 1.3819,-14.36025 2.95365,-21.33574 1.29891,-5.49873 2.15826,-7.69747 6.15237,-10.79422 2.31515,-1.83979 4.88269,-2.79987 7.61386,-3.19312 1.44759,0.24719 3.03611,0.0398 4.45867,0.49644 0.28644,0.0919 1.52866,0.92219 1.73815,1.05784 2.01487,0.94886 3.34301,2.92664 4.45914,5.06306 -3.79532,-7.74259 -7.56133,-15.50591 -11.38596,-23.22779 -0.21538,-0.43483 0.4015,0.89225 0.5562,1.36267 0.73059,2.22158 0.84436,4.55498 0.80343,6.90863 -0.14667,4.26915 -1.36305,6.70761 -3.44829,10.06041 -2.42918,3.53254 -5.47176,6.33658 -8.22824,9.47564 -2.3278,2.93836 -4.95418,5.48878 -7.5714,8.04024 -1.3367,1.57107 -2.71782,3.04123 -4.23963,4.35262 -0.54505,0.12298 -1.00624,1.07924 -1.57567,1.05149 -0.3001,-0.0146 0.1703,-0.69303 0.208,-1.04986 0.0308,-0.29075 -0.0675,-0.58054 -0.10128,-0.87082 3.85771,7.90056 7.71543,15.80113 11.57314,23.7017 -0.30779,-0.65572 -0.62633,-1.23374 -0.76893,-1.9859 -0.26783,-1.41273 -0.1366,-2.97431 -0.0983,-4.40529 0.0902,-2.54525 1.04972,-4.86433 2.15035,-6.99142 1.10761,-1.65936 2.27997,-3.26817 3.51517,-4.79349 2.23347,-2.64864 2.94006,-6.53985 3.96326,-9.98292 0.94799,-2.96301 1.75254,-6.41318 4.09016,-8.23709 0.15696,-0.0359 0.32777,-0.19316 0.47089,-0.10799 0.0722,0.0429 0.24799,0.96188 0.26574,1.17143 0.0211,0.24866 0.10694,0.96411 -4.9e-4,0.74983 -12.24264,-24.41753 -19.03375,-27.02418 -11.27243,-23.90411 0.0194,0.12293 0.0889,0.24921 0.0582,0.36883 -0.0439,0.17133 -0.71854,1.39671 -0.75214,1.46308 -0.43265,0.85486 -0.76698,1.67398 -1.01999,2.6241 -0.35572,2.26788 0.47956,4.4112 1.15083,6.47726 0,0 14.84431,22.3514 14.84431,22.3514 v 0 c -0.78886,-1.72072 -1.4317,-3.50602 -2.07853,-5.30917 -0.27606,-2.03045 0.58782,-2.9067 1.65256,-4.37356 4.99187,-9.24543 1.05339,-1.24642 -11.53063,-26.46737 -0.13384,-0.26825 -0.47228,-0.27533 -0.72474,-0.35434 -1.12312,-0.35147 -2.17928,-0.15042 -3.18853,0.52378 -2.86361,2.30815 -4.12459,5.63906 -5.23688,9.46707 -0.89687,2.90558 -1.61758,6.57963 -3.22415,8.99536 -1.39353,1.57351 -2.53476,3.43422 -3.84144,5.10807 -1.55068,2.3328 -2.51384,5.14547 -3.26652,7.97153 -0.0725,1.54424 -0.13288,3.09072 -0.23237,4.63291 -0.0312,0.48365 -0.1204,0.96467 -0.10801,1.44953 0.2597,10.17049 37.46926,16.15049 12.50267,26.60176 0.26864,0.18816 0.50224,0.48295 0.80592,0.56448 1.56254,0.41953 2.76181,-0.80538 3.9964,-1.67444 1.55888,-1.35942 3.05275,-2.82382 4.34995,-4.54139 2.58948,-2.69561 5.15632,-5.43129 7.54225,-8.38916 2.88473,-3.185 6.07024,-6.01008 8.58566,-9.65578 2.47003,-3.71863 4.23531,-5.95464 4.61138,-10.89408 0.18106,-1.45743 0.3788,-2.62247 0.36127,-4.09757 -0.13665,-11.49581 -9.66045,-23.38488 -13.05681,-30.8009 -1.59504,-2.01302 -3.34815,-3.58438 -5.5768,-4.47282 -2.36435,-0.93473 -4.88918,-1.05701 -7.36343,-0.84075 -3.02058,0.63092 -5.86258,1.88987 -8.42823,3.93918 -4.55104,3.5103 -6.07421,5.78529 -7.47238,12.19406 -1.37271,6.21974 -0.21678,0.8622 -1.55822,7.45283 -0.95465,4.69031 -2.04397,9.34256 -1.96108,14.22401 -0.008,2.91445 -0.0364,5.83102 0.0166,8.74513 0.002,0.0733 0.0817,3.97169 0.19497,4.23075 3.85843,8.82682 8.09131,17.41157 12.13695,26.11736 2.56099,3.74665 6.03511,5.99557 9.85106,7.50148 4.60923,1.86499 7.22698,2.92821 11.83865,0.6673 4.30464,-1.85572 8.84875,-3.54879 11.59672,-8.26488 1.56019,-2.66882 3.35574,-5.34849 4.11491,-8.54355 0.82062,-3.45369 0.33414,-7.18644 0.49206,-10.70298 -8.1e-4,-6.33543 -0.003,-12.67313 0.17869,-19.0056 0,0 -14.12698,-23.28465 -14.12698,-23.28465 z" />
  </g>
</svg>
