<?xml version="1.0" encoding="UTF-8" standalone="no"?>
<svg
   xmlns:dc="http://purl.org/dc/elements/1.1/"
   xmlns:cc="http://creativecommons.org/ns#"
   xmlns:rdf="http://www.w3.org/1999/02/22-rdf-syntax-ns#"
   xmlns:svg="http://www.w3.org/2000/svg"
   xmlns="http://www.w3.org/2000/svg"
   xmlns:sodipodi="http://sodipodi.sourceforge.net/DTD/sodipodi-0.dtd"
   xmlns:inkscape="http://www.inkscape.org/namespaces/inkscape"
   height="431.20233"
   width="354.24942"
   sodipodi:docname="NOUN_Voice.svg"
   version="1.1"
   id="svg19"
   viewBox="0 0 354.24942 431.20233"
   inkscape:version="1.0.1 (3bc2e813f5, 2020-09-07)"
   inkscape:export-filename="C:\Users\metro\OneDrive\Desktop\attris-glyphs\NOUN_Light.png"
   inkscape:export-xdpi="96"
   inkscape:export-ydpi="96">
  <sodipodi:namedview
     id="base"
     pagecolor="#ffffff"
     bordercolor="#666666"
     borderopacity="1.0"
     inkscape:pageopacity="0.0"
     inkscape:pageshadow="2"
     inkscape:zoom="1"
     inkscape:cx="162.08639"
     inkscape:cy="158.34324"
     inkscape:document-units="px"
     inkscape:current-layer="layer24"
     showgrid="false"
     showguides="true"
     inkscape:window-width="1662"
     inkscape:window-height="1017"
     inkscape:window-x="0"
     inkscape:window-y="0"
     inkscape:window-maximized="0"
     showborder="true"
     inkscape:showpageshadow="false"
     inkscape:document-rotation="0">
    <sodipodi:guide
       id="guide_baseline"
       inkscape:label="baseline"
       position="-307.02234,1.1542969e-05"
       orientation="0,1" />
    <sodipodi:guide
       id="guide_ascender"
       inkscape:label="ascender"
       position="-307.02234,692.00001"
       orientation="0,1" />
    <sodipodi:guide
       id="guide_caps"
       inkscape:label="caps"
       position="-307.02234,643.00001"
       orientation="0,1" />
    <sodipodi:guide
       id="guide_xheight"
       inkscape:label="xheight"
       position="-307.02234,476.00001"
       orientation="0,1" />
    <sodipodi:guide
       id="guide_descender"
       inkscape:label="descender"
       position="-307.02234,-224.99999"
       orientation="0,1" />
  </sodipodi:namedview>
  <defs
     id="defs4" />
  <metadata
     id="metadata7">
    <rdf:RDF>
      <cc:Work
         rdf:about="">
        <dc:format>image/svg+xml</dc:format>
        <dc:type
           rdf:resource="http://purl.org/dc/dcmitype/StillImage" />
        <dc:title />
      </cc:Work>
    </rdf:RDF>
  </metadata>
  <g
     inkscape:groupmode="layer"
     id="layer24"
     inkscape:label="NOUN_Voice"
     style="display:inline"
     sodipodi:insensitive="true"
     transform="translate(-307.02234,-315.79768)">
    <path
       id="path1273"
       style="stroke-width:5;stroke-miterlimit:4;stroke-dasharray:none"
       d="m 502.1998,332.40999 c 4.09847,1.47514 7.55891,4.39015 11.01851,6.97717 4.67715,3.5475 8.79648,7.7474 13.06067,11.76392 7.84923,7.82952 16.82281,14.38896 25.41876,21.35375 10.86534,9.07476 21.50152,18.40164 31.5636,28.36216 10.12912,10.16386 18.10881,22.07009 25.40011,34.35144 4.65791,8.45172 9.04163,17.10669 12.46898,26.14042 1.81281,4.77816 2.43207,6.9982 3.93581,11.80572 2.93232,10.63408 4.54622,21.55782 5.796,32.4979 1.49544,13.88283 3.25348,27.72198 4.21918,41.65525 0.50872,8.36811 1.23555,16.70333 -0.39017,24.99998 -1.07701,5.49638 -2.61455,10.04096 -4.24477,15.40606 -5.84701,17.58361 -14.48894,34.05854 -23.37151,50.26198 -5.88252,10.99069 -12.52784,21.52578 -20.03209,31.47279 -4.77214,5.67958 -10.42478,10.56021 -15.90376,15.54594 -5.58783,4.81666 -11.15706,9.66054 -17.11468,14.01734 -7.12281,4.49217 -13.91482,9.47205 -20.90679,14.16187 -4.97872,3.23281 -9.27609,7.34142 -13.94639,10.9752 -4.33362,3.25638 -2.2678,1.66743 -6.20539,4.75655 -2.0526,1.50848 -2.28847,1.7591 -4.33314,2.99918 -0.751,0.45548 -3.03999,1.76113 -2.28256,1.31644 35.28513,-20.71606 26.72591,-14.46456 15.50284,-10.3019 -4.42356,1.45753 -8.87975,2.85994 -13.46588,3.70445 -2.929,0.20872 -5.70041,0.71009 -8.50256,1.58474 -2.19749,0.61737 -1.11108,0.33103 -3.2584,0.86222 0,0 -23.56576,17.91944 -23.56576,17.91944 v 0 c 2.24108,-0.44147 1.11187,-0.19921 3.38707,-0.7294 2.76917,-0.72921 5.33226,-2.00389 8.26881,-1.87422 4.84811,-0.6261 9.49221,-2.05796 14.14256,-3.53664 0.7994,-0.26904 6.08626,-2.01172 6.80848,-2.40354 11.60873,-6.29805 23.94613,-12.06678 34.37284,-20.38173 6.62141,-5.2346 13.05285,-10.73209 20.05008,-15.46724 6.99181,-4.78248 13.97474,-9.57842 20.97829,-14.34162 5.85591,-4.5082 11.4508,-9.33284 16.96099,-14.25628 5.50481,-5.0401 11.19033,-9.97296 15.60424,-16.0452 7.07787,-9.95573 13.14658,-20.55465 18.82176,-31.36525 8.7547,-16.46254 17.52918,-33.06093 23.30881,-50.85043 2.2861,-7.56352 4.81551,-15.20648 5.4117,-23.14844 0.45251,-6.02781 -0.83227,-12.26616 -1.09023,-18.26854 -1.21096,-13.98939 -2.26699,-27.99112 -3.86077,-41.94463 -1.18288,-11.13358 -2.93198,-22.22962 -6.12412,-32.98527 -1.5955,-4.73388 -2.35609,-7.19271 -4.23111,-11.89694 -3.62538,-9.09567 -8.08909,-17.84611 -12.76288,-26.4391 -7.41618,-12.49846 -15.3858,-24.71416 -25.79028,-34.98209 -7.43443,-7.13628 -15.06357,-14.04908 -22.60956,-21.06549 -1.56313,-1.45343 -3.07779,-2.95909 -4.66067,-4.39098 -1.30774,-1.18299 -2.6727,-2.30114 -4.00904,-3.45171 -8.73545,-6.5659 -17.51755,-13.16886 -24.92689,-21.26246 -4.14827,-4.29526 -8.43224,-8.48311 -13.06381,-12.25957 -2.23808,-1.62439 -4.53456,-3.15678 -6.71829,-4.85545 -0.30774,-0.23939 -2.86354,-2.34493 -3.45894,-2.70105 -0.264,-0.1579 -0.58205,-0.19937 -0.87307,-0.29905 0,0 -24.79658,16.61231 -24.79658,16.61231 z m -136.28614,70.20456 c 5.20194,-0.28095 10.39545,0.39711 15.52116,1.21792 5.60074,1.19326 10.95015,3.31968 16.32637,5.2546 8.61876,2.87027 17.31979,5.39765 25.73188,8.8544 7.45046,3.34836 13.59673,8.63071 19.17839,14.47492 6.0988,6.16911 11.63152,12.85299 16.80808,19.80443 4.41987,6.03205 8.32934,12.4344 12.06829,18.90638 4.42281,7.38772 7.06726,15.6157 9.75353,23.74587 3.8003,11.81271 6.35457,23.94092 8.1184,36.20767 1.44543,10.09557 2.14525,20.27884 2.40749,30.46847 0.16006,7.26833 -3.38491,13.65458 -6.71408,19.87499 -5.57704,10.20923 -12.52631,19.5785 -19.56178,28.81311 -6.37502,8.51943 -14.0094,15.99819 -21.56313,23.45864 -6.26242,6.15955 -12.81072,12.02321 -19.48557,17.73044 -1.52123,1.1844 -2.83943,2.27501 -4.46217,3.30565 -0.68792,0.43692 -2.82702,1.62297 -2.12304,1.21242 40.37567,-23.54666 28.09533,-15.13316 18.39128,-11.40689 -3.2986,1.21776 -6.71486,2.04387 -10.2059,2.43513 -3.12523,0.34213 -6.15837,1.19921 -9.26529,1.6839 -2.41261,0.22502 -4.79967,0.62488 -7.15184,1.20721 -1.75668,0.44109 -3.52198,0.76622 -5.27028,1.23789 0,0 -23.37395,18.43549 -23.37395,18.43549 v 0 c 1.56205,-0.92967 3.2452,-1.3917 5.04351,-1.62996 2.30522,-0.57793 4.60453,-1.31121 6.98059,-1.49825 3.10672,-0.339 6.20441,-0.83541 9.18268,-1.81165 3.7079,-0.18603 7.3543,-0.76612 10.8825,-1.97328 0.15049,-0.0499 4.72078,-1.55725 4.84978,-1.62884 11.64431,-6.46189 23.59559,-11.8568 33.55796,-20.546 6.49548,-5.73584 12.86641,-11.61692 18.9962,-17.74386 7.53956,-7.58165 15.13444,-15.17715 21.43871,-23.85056 6.97853,-9.40596 13.68023,-19.05844 19.44997,-29.26097 3.51332,-6.71049 7.04293,-13.64765 6.37752,-21.45537 -0.83636,-10.14272 -1.89857,-20.26536 -3.16856,-30.36317 -1.80331,-12.42696 -4.54802,-24.65258 -8.28235,-36.65121 -2.56567,-8.40987 -4.85356,-17.06312 -9.51212,-24.60962 -3.83608,-6.54573 -7.97865,-12.90702 -12.42101,-19.0589 -5.14883,-7.10613 -10.98514,-13.64179 -16.88278,-20.1336 -2.03258,-2.28859 -2.87681,-3.39464 -5.14387,-5.37396 -4.51343,-3.94058 -9.67489,-7.23901 -14.97156,-9.99422 -8.28996,-3.45402 -16.89594,-6.03287 -25.22984,-9.37875 -5.54089,-1.91683 -11.13622,-3.70209 -16.69969,-5.54575 -5.07845,-1.08831 -10.31207,-1.5686 -15.48893,-1.91462 0,0 -24.08655,17.4999 -24.08655,17.4999 z m -43,94 c 6.75401,-0.21736 13.51269,-0.22257 20.26949,-0.22135 4.47432,0.15406 9.27079,-0.46928 13.53795,1.26859 1.97622,0.80485 3.43411,1.93215 5.1754,3.12019 4.45828,3.04296 5.88669,7.97477 7.42392,12.84769 0.38823,1.5988 1.13422,3.20995 0.99112,4.90037 -0.2314,2.73356 -1.36641,5.37244 -2.35208,7.88733 -1.4863,3.77243 -3.59559,7.82793 -7.31987,9.86166 -0.49991,0.27299 -1.05729,0.42411 -1.58593,0.63616 44.65488,-26.53127 29.96781,-14.07956 19.87784,-12.90113 -3.00226,0.35064 -6.04854,0.32747 -9.06516,0.36804 -7.53661,0.18215 -14.85482,-1.71183 -22.07054,-3.65885 -5.6881,-1.60903 -7.96257,-2.67356 -11.16596,-7.62129 -1.90316,-2.86791 -2.8963,-6.04847 -3.3031,-9.43172 0.25571,-1.79322 0.0412,-3.761 0.51354,-5.52321 0.0951,-0.35483 0.95395,-1.89364 1.09428,-2.15314 0.98154,-2.49594 3.02742,-4.14118 5.23742,-5.5238 -8.00924,4.70148 -16.03992,9.36665 -24.02774,14.10444 -0.44981,0.2668 0.92298,-0.49736 1.4096,-0.689 2.29809,-0.90502 4.71185,-1.04596 7.14656,-0.99525 4.41617,0.18168 6.93862,1.68849 10.40688,4.27159 3.6542,3.00916 6.55481,6.77818 9.80199,10.19279 3.03955,2.88358 5.67781,6.13702 8.31714,9.37912 1.62518,1.65585 3.14597,3.36671 4.50252,5.25187 0.12721,0.67519 1.1164,1.24648 1.0877,1.95187 -0.0151,0.37175 -0.7169,-0.21096 -1.08601,-0.25766 -0.30077,-0.0381 -0.60054,0.0836 -0.90082,0.12546 8.17266,-4.77877 16.34531,-9.55754 24.51797,-14.33631 -0.6783,0.38129 -1.27622,0.77588 -2.05428,0.95253 -1.46139,0.33177 -3.07675,0.16921 -4.55701,0.12181 -2.63291,-0.11178 -5.03186,-1.30034 -7.2322,-2.66376 -1.71651,-1.37206 -3.38072,-2.82433 -4.95858,-4.35443 -2.73986,-2.76673 -6.76508,-3.64203 -10.32672,-4.90953 -3.06506,-1.17433 -6.63406,-2.17096 -8.52078,-5.0667 -0.0372,-0.19444 -0.19981,-0.40603 -0.11171,-0.58332 0.0444,-0.0894 0.99501,-0.3072 1.21177,-0.32919 0.25723,-0.0261 0.99732,-0.13248 0.77566,6.1e-4 -25.25845,15.16564 -27.95487,23.57818 -24.72736,13.96379 0.12717,-0.024 0.2578,-0.1101 0.38153,-0.0721 0.17724,0.0544 1.44481,0.89009 1.51348,0.93171 0.8843,0.53595 1.73163,0.95011 2.71447,1.26353 2.34598,0.44065 4.56312,-0.59406 6.70033,-1.4256 0,0 23.12117,-18.38848 23.12117,-18.38848 v 0 c -1.77998,0.9772 -3.62676,1.77351 -5.49201,2.57478 -2.10038,0.34198 -3.00681,-0.72815 -4.52419,-2.04711 -9.56383,-6.18372 -1.28934,-1.3049 -27.37889,14.28364 -0.27748,0.1658 -0.28481,0.58504 -0.36654,0.89778 -0.36357,1.39127 -0.1556,2.69959 0.54181,3.94981 2.38765,3.54731 5.83327,5.10936 9.79312,6.48723 3.00564,1.111 6.80622,2.00377 9.30515,3.99393 1.6277,1.72625 3.55249,3.13995 5.284,4.7586 2.41313,1.92093 5.32267,3.11404 8.24606,4.04643 1.59742,0.0898 3.19716,0.1646 4.79246,0.28785 0.50031,0.0387 0.99789,0.14914 1.49946,0.1338 10.52075,-0.3217 16.7067,-46.4153 27.51791,-15.48777 0.19464,-0.33278 0.49957,-0.62215 0.58391,-0.99833 0.43399,-1.93561 -0.83311,-3.42122 -1.7321,-4.95057 -1.40624,-1.93108 -2.92107,-3.78162 -4.69779,-5.38853 -2.78845,-3.20773 -5.61834,-6.38743 -8.67808,-9.34302 -3.2947,-3.57348 -6.21707,-7.51954 -9.98833,-10.63554 -3.84669,-3.05977 -6.15971,-5.24653 -11.26926,-5.71238 -1.50762,-0.22428 -2.71278,-0.46924 -4.23869,-0.44752 -11.89172,0.16927 -24.19024,11.96694 -31.86166,16.17421 -2.08236,1.97586 -3.70783,4.14754 -4.62686,6.90829 -0.96693,2.92886 -1.09342,6.05651 -0.86971,9.12151 0.65264,3.74175 1.95495,7.2623 4.07485,10.44052 3.63119,5.63763 5.98452,7.52447 12.61401,9.25646 6.43394,1.70046 0.89189,0.26853 7.7095,1.93025 4.85185,1.18259 9.66432,2.53199 14.71388,2.42931 3.01482,0.0101 6.03183,0.0451 9.04631,-0.0205 0.0758,-0.002 4.10847,-0.10125 4.37645,-0.24153 9.13082,-4.77964 18.01122,-10.02315 27.01683,-15.03472 3.87568,-3.17243 6.20205,-7.47603 7.75983,-12.20307 1.92922,-5.70971 3.02906,-8.95247 0.69028,-14.6652 -1.91963,-5.3324 -3.67101,-10.96144 -8.54951,-14.36551 -2.76075,-1.9327 -5.5327,-4.15695 -8.83779,-5.09738 -3.57264,-1.01655 -7.43394,-0.41391 -11.07159,-0.60954 -6.55362,0.001 -13.10959,0.003 -19.66015,-0.22136 0,0 -24.08655,17.4999 -24.08655,17.4999 z" />
  </g>
</svg>
