<?xml version="1.0" encoding="UTF-8" standalone="no"?>
<svg
   xmlns:dc="http://purl.org/dc/elements/1.1/"
   xmlns:cc="http://creativecommons.org/ns#"
   xmlns:rdf="http://www.w3.org/1999/02/22-rdf-syntax-ns#"
   xmlns:svg="http://www.w3.org/2000/svg"
   xmlns="http://www.w3.org/2000/svg"
   xmlns:sodipodi="http://sodipodi.sourceforge.net/DTD/sodipodi-0.dtd"
   xmlns:inkscape="http://www.inkscape.org/namespaces/inkscape"
   width="300mm"
   height="300mm"
   viewBox="0 0 300 300"
   version="1.1"
   id="svg42"
   inkscape:version="1.0.1 (3bc2e813f5, 2020-09-07)"
   sodipodi:docname="NOUN_Surprise.svg">
  <defs
     id="defs36" />
  <sodipodi:namedview
     id="base"
     pagecolor="#ffffff"
     bordercolor="#666666"
     borderopacity="1.0"
     inkscape:pageopacity="0.0"
     inkscape:pageshadow="2"
     inkscape:zoom="0.35"
     inkscape:cx="400"
     inkscape:cy="560"
     inkscape:document-units="mm"
     inkscape:current-layer="layer1"
     inkscape:document-rotation="0"
     showgrid="false"
     inkscape:window-width="1267"
     inkscape:window-height="1040"
     inkscape:window-x="514"
     inkscape:window-y="86"
     inkscape:window-maximized="0" />
  <metadata
     id="metadata39">
    <rdf:RDF>
      <cc:Work
         rdf:about="">
        <dc:format>image/svg+xml</dc:format>
        <dc:type
           rdf:resource="http://purl.org/dc/dcmitype/StillImage" />
        <dc:title></dc:title>
      </cc:Work>
    </rdf:RDF>
  </metadata>
  <g
     inkscape:label="Layer 1"
     inkscape:groupmode="layer"
     id="layer1">
    <path
       style="stroke-width:1.2178"
       id="path44"
       d="m 145.93559,10.862241 c -0.10897,1.027214 -0.428,2.020645 -0.67095,3.026044 -0.39906,2.084381 -0.71866,4.179207 -1.07799,6.269007 -0.60957,3.704103 -1.00157,7.426945 -1.38632,11.151179 -0.48973,5.575055 -0.90923,11.155321 -1.28619,16.736784 -0.4182,6.742996 -0.6272,13.493111 -0.80511,20.24313 -0.18678,7.249681 -0.15701,14.501394 -0.21204,21.752279 -0.0275,4.845599 -0.0734,9.691105 -0.11469,14.536626 0,0 22.92954,-9.916262 22.92954,-9.916262 v 0 c -0.11601,-4.778758 -0.24548,-9.557298 -0.34035,-14.336402 -0.14361,-7.215228 -0.19199,-14.431524 0.13215,-21.64446 0.22924,-6.753635 0.50063,-13.507785 1.02626,-20.250317 0.44247,-5.596101 0.88425,-11.195122 1.58626,-16.772937 0.49483,-3.729959 1.02097,-7.458677 1.74474,-11.16256 0.41919,-2.0905582 0.8348,-4.1853296 1.43278,-6.2455781 0.27952,-0.9291147 0.40149,-1.9371714 0.9899,-2.7718439 0,0 -23.94799,9.385311 -23.94799,9.385311 z" />
    <path
       style="stroke-width:1.56505"
       id="path52"
       d="m 69.080704,229.69707 c -1.913122,1.33498 -3.69261,2.89549 -5.424511,4.48004 -6.35634,6.16733 -12.487203,12.56944 -18.653381,18.92934 -10.29074,10.7466 -20.471578,21.59962 -30.652806,32.45155 -4.8918358,5.19152 -9.7072929,10.45447 -14.50211352,15.7368 0,0 28.55511852,-5.64609 28.55511852,-5.64609 v 0 c 4.625304,-5.25144 9.268154,-10.48768 14.067064,-15.57976 10.281949,-10.94733 20.622213,-21.84327 31.21823,-32.48303 6.510242,-6.45034 12.940427,-13.02605 19.983825,-18.8922 1.918957,-1.47176 3.875947,-2.98174 6.131308,-3.87839 0,0 -30.722734,4.88174 -30.722734,4.88174 z" />
    <path
       style="stroke-width:1.49865"
       id="path54"
       d="m 144.40275,222.2315 c -0.31987,3.26834 -0.46345,6.5824 -0.6277,9.87285 -0.50761,9.20511 -1.22701,18.38872 -1.89609,27.57626 -0.76048,11.65664 -1.5343,23.3094 -2.44274,34.94882 -0.14426,1.63645 -0.28852,3.27291 -0.43278,4.90937 0,0 24.39204,-8.23545 24.39204,-8.23545 v 0 c 0.10562,-1.63411 0.21124,-3.26825 0.31687,-4.9024 0.69316,-11.64707 1.47157,-23.28544 2.42661,-34.90252 0.77896,-9.26704 1.6118,-18.5262 2.49343,-27.77811 0.3503,-3.27642 0.64426,-6.59201 1.35658,-9.77844 0,0 -25.58622,8.28962 -25.58622,8.28962 z" />
    <path
       style="stroke-width:1.32292"
       id="path58"
       d="m 199.92373,224.91197 c 1.57307,2.5138 3.61561,4.73236 5.61914,6.90898 5.07059,4.9432 10.34018,9.67925 15.51058,14.51865 5.42781,5.01164 10.7294,10.15469 16.02704,15.30252 5.88527,5.57688 12.17048,10.70356 18.60276,15.63073 5.45668,4.17515 11.03553,8.19058 16.42769,12.44944 0,0 23.96693,-8.97535 23.96693,-8.97535 v 0 c -5.56148,-4.20767 -11.35485,-8.09517 -16.94336,-12.26717 -6.32682,-4.85052 -12.46798,-9.94117 -18.22315,-15.46523 -5.35503,-5.13219 -10.73537,-10.23776 -16.16255,-15.29378 -5.06001,-4.74035 -10.19337,-9.42059 -14.93524,-14.48384 -1.69989,-1.96462 -3.45256,-3.97659 -4.72314,-6.25039 0,0 -25.1667,7.92544 -25.1667,7.92544 z" />
  </g>
</svg>
