<?xml version="1.0" encoding="UTF-8" standalone="no"?>
<svg
   xmlns:dc="http://purl.org/dc/elements/1.1/"
   xmlns:cc="http://creativecommons.org/ns#"
   xmlns:rdf="http://www.w3.org/1999/02/22-rdf-syntax-ns#"
   xmlns:svg="http://www.w3.org/2000/svg"
   xmlns="http://www.w3.org/2000/svg"
   xmlns:sodipodi="http://sodipodi.sourceforge.net/DTD/sodipodi-0.dtd"
   xmlns:inkscape="http://www.inkscape.org/namespaces/inkscape"
   width="300mm"
   height="300mm"
   viewBox="0 0 300 300"
   version="1.1"
   id="svg42"
   inkscape:version="1.0.1 (3bc2e813f5, 2020-09-07)"
   sodipodi:docname="NOUN_Time.svg">
  <defs
     id="defs36" />
  <sodipodi:namedview
     id="base"
     pagecolor="#ffffff"
     bordercolor="#666666"
     borderopacity="1.0"
     inkscape:pageopacity="0.0"
     inkscape:pageshadow="2"
     inkscape:zoom="0.35"
     inkscape:cx="400"
     inkscape:cy="560"
     inkscape:document-units="mm"
     inkscape:current-layer="layer1"
     inkscape:document-rotation="0"
     showgrid="false"
     inkscape:window-width="1267"
     inkscape:window-height="1040"
     inkscape:window-x="514"
     inkscape:window-y="86"
     inkscape:window-maximized="0" />
  <metadata
     id="metadata39">
    <rdf:RDF>
      <cc:Work
         rdf:about="">
        <dc:format>image/svg+xml</dc:format>
        <dc:type
           rdf:resource="http://purl.org/dc/dcmitype/StillImage" />
        <dc:title></dc:title>
      </cc:Work>
    </rdf:RDF>
  </metadata>
  <g
     inkscape:label="Layer 1"
     inkscape:groupmode="layer"
     id="layer1">
    <path
       style="stroke-width:1.42172"
       id="path75"
       d="m 202.14817,298.0812 c 5.25328,-0.21378 10.51266,-0.17788 15.76909,-0.16865 6.98063,0.0236 13.94824,-0.45031 20.91594,-0.80941 6.16155,-0.26756 12.31266,-0.71849 18.46616,-1.12214 14.76387,-0.66237 16.67492,-1.89911 36.8739,-9.0251 0.70039,-0.24709 0.80362,-1.24793 1.20544,-1.87189 0.25011,-1.0022 0.57546,-1.98862 0.75035,-3.00662 0.39032,-2.2719 0.65545,-6.68451 0.76057,-8.83501 0.30082,-6.15427 0.27619,-12.31428 0.28849,-18.47374 0.0281,-17.77286 -0.40356,-35.53405 -1.25988,-53.28499 -1.19162,-21.54441 -2.65492,-43.07377 -4.06619,-64.60499 -1.03905,-15.85011 -1.79941,-31.71605 -2.5566,-47.581444 -0.4618,-8.83804 -0.83343,-17.67901 -0.45263,-26.52513 0.34627,-6.93979 1.69084,-13.77647 3.16089,-20.55183 1.02628,-4.60997 2.12082,-9.20686 2.92881,-13.86133 0.56591,-3.64991 0.97689,-7.32016 1.27969,-11.00036 0.0907,-2.50258 0.43393,-5.44172 -1.11208,-7.6276594 -0.35301,-0.49911 -0.83526,-0.89319 -1.25289,-1.3398 -0.70883,-0.35977 -1.37135,-0.83067 -2.12648,-1.07928 -2.11788,-0.69731 -5.36201,-0.92269 -7.46256,-1.03878 -5.34301,-0.2953 -10.70567,-0.15544 -16.05146,-0.063 -8.69622,0.24331 -17.38905,0.59471 -26.08309,0.90496 -4.81352,0.14441 -9.62455,0.33381 -14.43345,0.58801 0,0 -25.13907,11.5179294 -25.13907,11.5179294 v 0 c 4.90945,-0.32737 9.81864,-0.64526 14.73799,-0.78507 8.86224,-0.40304 17.72261,-0.84903 26.58771,-1.18694 7.8994,-0.22608 15.8938,-0.50207 23.71171,0.87975 0.29097,0.13271 0.62011,0.20239 0.87292,0.39812 1.35471,1.04887 0.75588,4.5049 0.78435,5.95661 -0.31169,3.59392 -0.66962,7.18796 -1.27183,10.74676 -0.79492,4.57851 -1.68628,9.13871 -2.59106,13.6967 -1.30037,6.91981 -2.56777,13.8823 -2.83531,20.93276 -0.23173,8.88573 0.42595,17.73728 1.23689,26.58357 1.27224,15.743024 2.6961,31.473694 3.89158,47.223034 1.60933,21.48978 3.17934,42.98894 4.08154,64.52192 0.55891,17.82337 0.52921,35.64794 0.0455,53.47427 -0.16539,6.1344 -0.24632,12.29338 -0.92778,18.39968 -0.2408,2.15769 -0.74568,6.07468 -1.62279,8.26046 -0.28534,0.71106 -0.83295,1.28654 -1.24943,1.92981 -9.13254,4.33026 -3.32393,1.48502 23.33358,-6.63311 0.61581,-0.18753 -1.26153,0.26253 -1.89938,0.3497 -2.34156,0.32 -4.7155,0.29545 -7.0659,0.5081 -6.26854,0.40866 -12.52496,0.98759 -18.79888,1.31222 -6.86419,0.37182 -13.72975,0.73743 -20.6048,0.82675 -5.00688,0.009 -10.01801,0.0583 -15.02113,-0.16864 0,0 -25.79838,11.63383 -25.79838,11.63383 z" />
    <path
       style="stroke-width:1.69897"
       id="path77"
       d="m 99.259953,94.874188 c 0.933687,7.774312 1.313567,15.677032 1.742807,23.558622 0.77804,14.08431 1.32843,28.19279 1.73702,42.31798 0.26392,10.89393 0.49066,21.79084 0.68034,32.68901 0.10444,6.74998 0.1925,13.5008 0.25002,20.25233 0,0 24.81192,-11.29692 24.81192,-11.29692 v 0 c -0.13185,-6.74156 -0.2562,-13.48361 -0.44779,-20.22157 -0.29464,-10.86181 -0.67529,-21.71442 -1.12493,-32.56205 -0.52763,-14.16102 -1.05095,-28.32244 -1.58724,-42.48258 -0.3122,-8.072854 -0.64113,-16.153538 -0.73569,-24.242303 0,0 -25.326457,11.987481 -25.326457,11.987481 z" />
    <path
       style="stroke-width:1.47355"
       id="path79"
       d="m 131.1151,32.469488 c 0.67288,2.327836 1.04767,4.757304 1.41991,7.179443 1.17588,9.853519 1.53244,19.828075 2.07765,29.757332 1.0008,17.744493 1.79005,35.505077 2.66091,53.259717 0.92233,16.31391 1.59757,32.64626 2.30889,48.97568 0.517,11.57555 0.94645,23.1565 1.33766,34.7395 0.31347,9.92849 0.45697,19.86363 0.59225,29.79783 0.1329,7.49668 -0.0497,14.99433 -0.20875,22.48808 -0.0242,4.52846 -0.31075,9.0419 -0.5083,13.56118 0,0 25.06245,-8.33448 25.06245,-8.33448 v 0 c 0.17856,-4.53007 0.29873,-9.06065 0.22073,-13.59739 -0.02,-7.48489 -0.0339,-14.97122 -0.21086,-22.45348 -0.20804,-9.93367 -0.4753,-19.86504 -0.80069,-29.79392 -0.39937,-11.56894 -1.00982,-23.12332 -1.77169,-34.66437 -1.0219,-16.25623 -1.90617,-32.52437 -2.80383,-48.79178 -0.91133,-17.772421 -1.79281,-35.554682 -2.23179,-53.355872 -0.18837,-10.169638 -0.20317,-20.3621 -0.88756,-30.504243 -0.2294,-2.666396 -0.5348,-5.303572 -1.05635,-7.907827 0,0 -25.20063,9.6446 -25.20063,9.6446 z" />
    <path
       style="stroke-width:1.67082"
       id="path83"
       d="m 167.95166,84.968701 c -0.0109,2.554812 0.18134,5.031238 0.45958,7.545118 0.91179,7.950741 1.63426,15.950971 2.37609,23.945191 0.9332,9.63821 1.86115,19.27731 2.74807,28.92672 0.92728,8.60191 1.48742,17.28235 2.11709,25.947 0.43345,6.4971 0.99074,12.96944 1.50757,19.4503 0.34766,4.32639 0.62471,8.66555 0.84103,13.01335 0.0276,0.61766 0.0552,1.23537 0.0828,1.85305 0,0 25.10042,-11.29933 25.10042,-11.29933 v 0 c -0.0351,-0.62573 -0.0701,-1.25144 -0.10521,-1.87717 -0.26814,-4.39782 -0.58366,-8.78748 -1.02052,-13.15202 -0.6165,-6.4182 -1.27169,-12.82751 -1.7453,-19.27822 -0.73204,-8.66961 -1.34051,-17.36811 -2.24844,-25.99821 -0.94838,-9.6104 -1.95256,-19.20787 -2.82132,-28.83719 -0.65072,-8.03763 -1.32681,-16.075996 -1.81217,-24.143472 -0.10499,-2.397084 -0.15446,-4.797743 -0.0378,-7.197427 0,0 -25.44192,11.10231 -25.44192,11.10231 z" />
    <path
       style="stroke-width:1.42172"
       id="path75-5"
       d="m 95.896579,3.6853614 c -5.25328,0.21378 -10.51266,0.17788 -15.76909,0.16864 -6.980635,-0.0235 -13.948255,0.45033 -20.915945,0.80942 -6.16155,0.2675699 -12.31266,0.7184999 -18.46616,1.1221499 -14.76388,0.66236 -16.67493,1.8991 -36.8739104,9.0250997 -0.70039,0.24709 -0.80362,1.24793 -1.20544,1.8719 -0.25011,1.00218 -0.57546,1.9886 -0.75035,3.00661 -0.39032,2.2719 -0.65545,6.68452 -0.76057,8.835 -0.30082003,6.15428 -0.27619003,12.31429 -0.28849003,18.47375 -0.0281,17.77286 0.40356003,35.53405 1.25988003,53.284989 1.19162,21.54441 2.65492,43.07377 4.06619,64.60499 1.03905,15.8501 1.79941,31.71604 2.5566,47.58145 0.4618,8.83804 0.83343,17.67901 0.45263,26.52513 -0.34627,6.93979 -1.69084,13.77647 -3.16089,20.55183 -1.02628,4.60997 -2.12082,9.20686 -2.92881,13.86133 -0.56591,3.64991 -0.97689,7.32016 -1.27969,11.00036 -0.0907,2.50258 -0.43393,5.44172 1.11208,7.62766 0.35301,0.49911 0.83526,0.89319 1.25289,1.3398 0.70883,0.35977 1.37135,0.83067 2.12648,1.07928 2.11788,0.69731 5.3620104,0.92269 7.4625604,1.03878 5.34301,0.2953 10.70568,0.15544 16.05146,0.063 8.69622,-0.24331 17.38905,-0.59471 26.0831,-0.90496 4.81352,-0.14441 9.62455,-0.33381 14.43345,-0.58801 0,0 25.139075,-11.51793 25.139075,-11.51793 v 0 c -4.90945,0.32737 -9.81864,0.64526 -14.73799,0.78507 -8.862245,0.40304 -17.722615,0.84903 -26.587715,1.18694 -7.8994,0.22608 -15.89381,0.50207 -23.71172,-0.87975 -0.29097,-0.13271 -0.62011,-0.20239 -0.87291,-0.39812 -1.35472,-1.04887 -0.75588,-4.5049 -0.78435,-5.95661 0.31169,-3.59392 0.66961,-7.18796 1.27182,-10.74676 0.79492,-4.57851 1.68628,-9.13871 2.59106,-13.6967 1.30038,-6.91981 2.56777,-13.8823 2.83532,-20.93276 0.23173,-8.88573 -0.42595,-17.73728 -1.23689,-26.58357 -1.27225,-15.74304 -2.69611,-31.4737 -3.89159,-47.22304 -1.60932,-21.48978 -3.17934,-42.98894 -4.08154,-64.521919 -0.55891,-17.82337 -0.5292,-35.64794 -0.0455,-53.47427 0.1654,-6.1344 0.24633,-12.29338 0.92778,-18.39968 0.2408,-2.1577 0.74568,-6.07467 1.62279,-8.26047 0.28534,-0.71104 0.83296,-1.28654 1.24944,-1.9298 9.13253,-4.3302697 3.32392,-1.48502 -23.3335904,6.63311 -0.61581,0.18754 1.26153,-0.26252 1.89938,-0.3497 2.3415604,-0.32001 4.7155004,-0.29546 7.0659004,-0.50811 6.26854,-0.40865 12.52496,-0.98758 18.79889,-1.31222 6.86418,-0.37182 13.72975,-0.73742 20.6048,-0.82675 5.00688,-0.009 10.018,-0.0583 15.02113,0.16865 0,0 25.798385,-11.6338396 25.798385,-11.6338396 z" />
  </g>
</svg>
