<?xml version="1.0" encoding="UTF-8" standalone="no"?>
<svg
   xmlns:dc="http://purl.org/dc/elements/1.1/"
   xmlns:cc="http://creativecommons.org/ns#"
   xmlns:rdf="http://www.w3.org/1999/02/22-rdf-syntax-ns#"
   xmlns:svg="http://www.w3.org/2000/svg"
   xmlns="http://www.w3.org/2000/svg"
   xmlns:sodipodi="http://sodipodi.sourceforge.net/DTD/sodipodi-0.dtd"
   xmlns:inkscape="http://www.inkscape.org/namespaces/inkscape"
   width="300mm"
   height="300mm"
   viewBox="0 0 300 300"
   version="1.1"
   id="svg42"
   inkscape:version="1.0.1 (3bc2e813f5, 2020-09-07)"
   sodipodi:docname="NOUN_Surprise.svg">
  <defs
     id="defs36" />
  <sodipodi:namedview
     id="base"
     pagecolor="#ffffff"
     bordercolor="#666666"
     borderopacity="1.0"
     inkscape:pageopacity="0.0"
     inkscape:pageshadow="2"
     inkscape:zoom="0.35"
     inkscape:cx="400"
     inkscape:cy="560"
     inkscape:document-units="mm"
     inkscape:current-layer="layer1"
     inkscape:document-rotation="0"
     showgrid="false"
     inkscape:window-width="1267"
     inkscape:window-height="1040"
     inkscape:window-x="514"
     inkscape:window-y="86"
     inkscape:window-maximized="0" />
  <metadata
     id="metadata39">
    <rdf:RDF>
      <cc:Work
         rdf:about="">
        <dc:format>image/svg+xml</dc:format>
        <dc:type
           rdf:resource="http://purl.org/dc/dcmitype/StillImage" />
        <dc:title></dc:title>
      </cc:Work>
    </rdf:RDF>
  </metadata>
  <g
     inkscape:label="Layer 1"
     inkscape:groupmode="layer"
     id="layer1">
    <path
       id="path44"
       style="stroke-width:1.2178"
       d="m 126.04245,301.2948 22.92986,-9.91619 c -0.11601,-4.77876 -0.24568,-9.5575 -0.34054,-14.3366 -0.14361,-7.21522 -0.19185,-14.43122 0.13229,-21.64415 0.22924,-6.75364 0.50066,-13.50791 1.02629,-20.25045 0.44247,-5.59609 0.88394,-11.19531 1.58595,-16.77313 0.49483,-3.72996 1.02083,-7.45874 1.7446,-11.16263 0.41919,-2.09056 0.835,-4.18536 1.43298,-6.24561 0.27952,-0.92911 0.40171,-1.93674 0.99013,-2.77141 l -23.94842,9.38496 c -0.10896,1.02721 -0.42781,2.02078 -0.67075,3.02617 -0.39906,2.08439 -0.71864,4.17907 -1.07797,6.26887 -0.60958,3.7041 -1.00173,7.42702 -1.38648,11.15125 -0.48973,5.57507 -0.90927,11.15551 -1.28623,16.73697 -0.4182,6.743 -0.62721,13.49319 -0.80512,20.24321 -0.18678,7.24968 -0.15684,14.50128 -0.21187,21.75216 -0.0275,4.8456 -0.0734,9.69106 -0.11472,14.53658 z m 11.17761,-140.64723 c 9.23281,0.0545 19.08251,-3.28549 25.2522,-9.94926 1.08823,-1.16504 1.87658,-2.56002 2.27377,-4.11086 0.33658,-1.49491 0.53916,-3.02646 0.42323,-4.56148 -0.0182,-0.25138 -0.0416,-0.50222 -0.0615,-0.75344 l 2.29857,-0.68782 c -0.23131,-0.94702 -0.10777,-0.47569 -0.37156,-1.41335 -0.43984,-1.3632 -1.01514,-2.66134 -1.62574,-3.95531 -0.66663,-1.35182 -1.44559,-2.68949 -2.53059,-3.74913 -1.10638,-0.89477 -2.09926,-1.96891 -3.53622,-2.3275 -1.63479,-0.62929 -3.31364,-0.70499 -5.03587,-0.36174 -8.54792,2.57269 -17.10706,5.10868 -25.64391,7.71788 -0.88668,0.27101 -1.72527,0.88399 -2.42104,1.48001 -0.71916,0.61606 -0.70412,0.68117 -1.28674,1.44177 -1.14527,1.80209 -1.94707,3.76658 -2.25051,5.8937 -0.16213,2.06658 0.12536,4.03397 0.8971,5.96863 0.65501,1.69021 1.48702,3.30894 2.78019,4.60747 1.21077,1.21159 2.36394,2.50682 3.86178,3.38222 1.32745,0.8116 2.5364,1.35848 4.13567,1.25212 0.93715,0.0784 1.88605,0.12045 2.84117,0.12609 z m -2.80655,-3.89175 c -0.0312,-0.001 -0.0327,-0.008 0.0139,-0.0227 0.49093,-0.15582 0.92721,-0.2962 1.40405,-0.44803 -0.25626,0.16694 -0.52565,0.30881 -0.81959,0.38757 -0.1418,0.038 -0.50468,0.0864 -0.59841,0.0832 z m 21.72994,-7.09931 c 6.55698,-2.19487 6.99281,-2.37323 2.02572,-0.2806 -0.66545,0.13626 -1.34691,0.25573 -2.02572,0.2806 z m -4.91443,-15.77992 c 0.76818,-0.41016 1.5572,-0.7145 2.43241,-0.86609 0.30155,-0.0522 1.19613,-0.25185 0.90382,-0.16123 -1.1115,0.34457 -2.22395,0.6853 -3.33623,1.02732 z m -25.292,-45.04686 24.39232,-8.235156 c 0.10561,-1.634109 0.21114,-3.268392 0.31677,-4.902544 0.69316,-11.64708 1.47169,-23.285698 2.42673,-34.902777 0.77896,-9.267052 1.61175,-18.526252 2.49339,-27.778148 0.3503,-3.2764151 0.64418,-6.5917765 1.3565,-9.7782065 L 131.3367,11.522294 c -0.31986,3.268345 -0.46361,6.58286 -0.62787,9.873297 -0.50761,9.205119 -1.22693,18.388568 -1.89601,27.576108 -0.76049,11.656639 -1.53433,23.309349 -2.44275,34.94877 -0.14426,1.63645 -0.28878,3.2728 -0.43305,4.909261 z m -53.901608,-3.044774 23.96701,-8.975164 c -5.56148,-4.207669 -11.35464,-8.094951 -16.94315,-12.266951 -6.32682,-4.850519 -12.46801,-9.941145 -18.22318,-15.465206 -5.35503,-5.132189 -10.73566,-10.238136 -16.16284,-15.294146 -5.06001,-4.740355 -10.19313,-9.420622 -14.93501,-14.483874 -1.69987,-1.964637 -3.45263,-3.976476 -4.72321,-6.250278 l -25.1669602,7.92562 c 1.57308,2.513806 3.61577,4.732522 5.6193,6.909144 5.0706102,4.943183 10.3402902,9.679093 15.5107002,14.518489 5.42779,5.011642 10.72928,10.154597 16.02692,15.302425 5.88527,5.57688 12.17072,10.703401 18.603,15.63057 5.45668,4.175151 11.03526,8.19051 16.42742,12.449371 z m 124.087508,-7.828463 28.55485,-5.646168 c 4.6253,-5.25144 9.26845,-10.487848 14.06736,-15.579926 10.28195,-10.947331 20.62172,-21.843016 31.21773,-32.482785 6.51025,-6.45033 12.94091,-13.02623 19.98431,-18.8923868 1.91896,-1.4717448 3.87553,-2.9816424 6.13089,-3.8783154 l -30.72267,4.88188 c -1.91312,1.3349816 -3.69258,2.8952824 -5.42448,4.4798452 -6.35633,6.167332 -12.48694,12.569693 -18.65312,18.929588 -10.29074,10.746594 -20.47169,21.599313 -30.65291,32.451243 -4.89184,5.191519 -9.70714,10.454696 -14.50196,15.737025 z" />
    <path
       style="stroke-width:1.32292"
       id="path63"
       d="m 121.36972,100.01406 c -1.14956,0.97848 -2.25586,1.98059 -3.3285,3.04764 -1.95726,1.75348 -3.69308,3.72091 -5.35108,5.75659 -2.10474,2.90572 -4.19079,5.83092 -6.12699,8.85211 -1.93196,3.13586 -3.70393,6.36939 -5.43487,9.61987 -1.700241,3.20252 -3.174914,6.51634 -4.740501,9.78542 -1.456452,2.78958 -2.677383,5.69708 -3.984107,8.55942 -1.162142,2.73137 -2.243576,5.4942 -3.259322,8.28313 -0.972312,2.91493 -1.743578,5.89082 -2.56023,8.85171 -0.754283,2.65565 -1.337271,5.35109 -1.802922,8.07059 -0.381306,2.29705 -0.616526,4.61502 -0.783306,6.93648 -0.184637,2.33442 -0.26375,4.66391 -0.205198,7.0037 0.06153,2.14314 0.275603,4.28529 0.561837,6.40976 0.223221,1.90347 0.542272,3.78839 0.8938,5.67139 0.233817,1.55795 0.675672,3.06935 1.237237,4.53778 0.801536,2.02245 1.95395,3.86643 3.138545,5.68059 0.268796,0.37616 0.537594,0.75232 0.806389,1.12849 0,0 24.627318,-8.43758 24.627318,-8.43758 v 0 c -0.25102,-0.33616 -0.50204,-0.67232 -0.75305,-1.00848 -1.08822,-1.65367 -2.10132,-3.34986 -2.78852,-5.21579 -0.51818,-1.31684 -0.92983,-2.67099 -1.14722,-4.07276 -0.36063,-1.82361 -0.69057,-3.64976 -0.90734,-5.4974 -0.24618,-2.0337 -0.45921,-4.07925 -0.51955,-6.12728 -0.0282,-2.25501 0.0947,-4.50779 0.27687,-6.75522 0.19972,-2.24028 0.43124,-4.47927 0.81678,-6.69651 0.46543,-2.6248 1.04527,-5.22783 1.75026,-7.79922 0.80137,-2.91266 1.63542,-5.8177 2.6733,-8.65679 1.00771,-2.72108 2.05908,-5.42912 3.24615,-8.07759 1.2966,-2.84634 2.57298,-5.70195 3.9438,-8.51374 1.51641,-3.25082 3.01852,-6.51029 4.74925,-9.65498 1.71738,-3.19143 3.48912,-6.35772 5.47473,-9.39197 1.97663,-2.93899 3.9921,-5.86624 6.30578,-8.55356 1.73926,-1.93533 3.58599,-3.757925 5.53149,-5.48658 1.16808,-1.012319 2.38966,-1.96488 3.61646,-2.903768 0,0 -25.95729,4.654548 -25.95729,4.654548 z" />
    <path
       style="stroke-width:1.32292"
       id="path65"
       d="m 148.83636,103.04593 c 2.19075,1.53125 3.99525,3.66704 5.82053,5.61298 3.2272,3.63086 6.41634,7.29418 9.65923,10.91161 3.5974,3.94842 7.08492,7.99229 10.44274,12.14606 3.10316,3.82686 5.51343,8.12332 7.76375,12.48639 2.63544,5.20742 4.91196,10.57753 6.98817,16.02825 1.71168,4.61371 3.25696,9.27979 4.47935,14.04678 0.94676,4.08589 1.32969,8.26684 1.31837,12.45329 -0.0288,3.66409 -0.76679,7.24249 -1.68015,10.77183 -1.03395,3.51793 -2.45315,6.89822 -4.09128,10.17266 -1.3764,2.6809 -3.01603,5.21041 -4.60567,7.76567 -1.06198,1.93088 -2.27449,3.77105 -3.35848,5.68808 -0.9555,1.75839 -2.15447,3.34485 -3.30585,4.97323 -1.2371,1.80248 -2.61638,3.46306 -4.12805,5.03753 -1.62225,1.9425 -3.53584,3.59691 -5.37877,5.31757 -2.19512,2.05659 -4.59646,3.84685 -7.05768,5.56581 -2.90776,2.20393 -6.06989,4.0239 -9.28878,5.72638 -3.2985,1.58226 -6.68111,2.95708 -10.14489,4.12919 -9.53949,2.85555 2.04678,-0.60861 21.36297,-6.57215 0.5012,-0.15474 -1.00706,0.29432 -1.51396,0.4292 -1.5877,0.42248 -3.1876,0.73252 -4.8039,1.0204 -3.52856,0.78312 -7.01816,0.62084 -10.55192,0.0344 -4.34899,-0.85699 -8.50366,-2.40435 -12.50589,-4.27867 -3.62008,-1.71047 -6.94555,-3.93244 -10.10534,-6.37401 -3.16866,-2.49822 -5.99984,-5.3683 -8.65352,-8.39758 -2.62812,-3.05815 -4.83356,-6.43587 -6.90314,-9.88668 -1.74042,-2.9073 -2.95333,-6.07365 -4.11652,-9.24261 -1.06181,-2.82549 -1.84196,-5.74127 -2.32262,-8.71919 -0.37373,-2.59365 -0.55593,-5.20243 -0.55528,-7.82096 0.007,-2.19648 0.0379,-4.38574 0.23947,-6.57299 0.11654,-1.25341 0.0599,-0.63033 0.16998,-1.86924 0,0 -25.289618,6.69275 -25.289618,6.69275 v 0 c -0.09695,1.24332 -0.04953,0.61488 -0.142063,1.88533 -0.130786,2.25405 -0.121312,4.513 -0.1001,6.77013 0.06681,2.74476 0.284284,5.48318 0.738584,8.19341 0.560954,3.12326 1.355421,6.2057 2.516344,9.16404 1.241361,3.31724 2.491192,6.64819 4.345911,9.68505 2.174856,3.55253 4.437348,7.06071 7.089597,10.28149 2.707082,3.17059 5.557198,6.21138 8.800706,8.84732 3.206429,2.64853 6.613589,5.05707 10.364349,6.88225 4.06689,2.06617 8.29469,3.77175 12.72637,4.89312 3.55633,0.86038 7.14248,1.59663 10.8002,0.86907 11.7141,-1.62413 22.92329,-5.65797 34.04704,-9.6452 3.4297,-1.31161 6.81361,-2.76435 10.03965,-4.52492 3.20925,-1.83406 6.31458,-3.83192 9.28496,-6.03537 2.4868,-1.82022 4.85691,-3.78501 7.09517,-5.90555 1.90659,-1.75234 3.70516,-3.61441 5.42347,-5.55185 1.46992,-1.69961 2.78007,-3.52553 4.08839,-5.35105 1.19231,-1.6697 2.24842,-3.42564 3.26793,-5.20559 1.11775,-1.85851 2.17657,-3.75018 3.2855,-5.61403 1.57022,-2.60425 3.09134,-5.2443 4.39366,-7.99457 1.57662,-3.4512 2.96376,-6.991 3.93134,-10.66612 0.91259,-3.74327 1.55702,-7.5453 1.49552,-11.41454 -0.1199,-4.37977 -0.57856,-8.74774 -1.59061,-13.01884 -1.26467,-4.86084 -2.94679,-9.58256 -4.75326,-14.2671 -2.13325,-5.51957 -4.46103,-10.95628 -7.00657,-16.2996 -2.26896,-4.54048 -4.65028,-9.05512 -7.84439,-13.02891 -3.39396,-4.19034 -7.04297,-8.15854 -10.61765,-12.19364 -3.15739,-3.67447 -6.25504,-7.40056 -9.45198,-11.04088 -1.83865,-2.060906 -3.69318,-4.117581 -5.41047,-6.280286 0,0 -24.70085,9.290846 -24.70085,9.290846 z" />
    <path
       style="stroke-width:1.32292"
       id="path71"
       d="m 64.676413,89.493213 c 11.621601,-2.112116 22.935901,-5.785112 33.961975,-10.003298 4.334052,-1.843632 8.888742,-3.56626 12.565762,-6.604243 0.70157,-0.579636 1.32606,-1.246693 1.98908,-1.870038 3.50137,-3.642664 5.72882,-8.093371 6.53518,-13.083944 0.19968,-1.235816 0.27008,-2.489076 0.40512,-3.733613 0.16809,-4.154556 -0.0996,-8.30712 -0.30408,-12.454403 0,0 -24.219353,6.758787 -24.219353,6.758787 v 0 c 0.212166,4.007199 0.472093,8.027948 0.04249,12.033726 -0.195974,1.156806 -0.321976,2.327669 -0.587917,3.47042 -1.063424,4.569545 -3.577958,8.506368 -7.059509,11.611809 -0.679662,0.525761 -1.33318,1.087178 -2.038985,1.577287 -3.853926,2.676154 -8.327051,4.320497 -12.679722,5.971066 -9.616948,3.153347 -5.634207,1.826297 19.688804,-5.902002 0.561967,-0.171506 -1.128601,0.328554 -1.699106,0.469064 -1.067597,0.262943 -1.246508,0.253902 -2.220894,0.415237 -0.174631,0.02892 -0.34834,0.06312 -0.522513,0.09468 0,0 -23.856336,11.249464 -23.856336,11.249464 z" />
    <path
       style="stroke-width:1.32292"
       id="path73"
       d="m 221.10365,69.971432 c -31.58571,9.560682 -35.52709,10.788698 -1.34181,0.306594 0.38215,-0.117176 -0.76137,0.243988 -1.14504,0.356082 -1.45458,0.424966 -2.9251,0.747032 -4.40714,1.058553 -4.71779,1.077325 -8.2676,-0.781146 -12.2069,-3.178255 -5.15039,-3.409301 -9.38378,-7.920934 -13.35292,-12.601741 -3.35901,-3.925713 -6.08242,-8.294709 -8.44652,-12.871701 0,0 -24.4703,7.992782 -24.4703,7.992782 v 0 c 2.54633,4.702479 5.38386,9.23092 8.88199,13.297556 4.06151,4.877255 8.423,9.543047 13.55579,13.318913 3.77213,2.651982 7.76329,5.459637 12.59465,5.149596 17.27379,-2.773426 58.71175,-18.650162 6.50619,-1.496304 0,0 23.83201,-11.332075 23.83201,-11.332075 z" />
  </g>
</svg>
