<?xml version="1.0" encoding="UTF-8" standalone="no"?>
<svg
   xmlns:dc="http://purl.org/dc/elements/1.1/"
   xmlns:cc="http://creativecommons.org/ns#"
   xmlns:rdf="http://www.w3.org/1999/02/22-rdf-syntax-ns#"
   xmlns:svg="http://www.w3.org/2000/svg"
   xmlns="http://www.w3.org/2000/svg"
   xmlns:sodipodi="http://sodipodi.sourceforge.net/DTD/sodipodi-0.dtd"
   xmlns:inkscape="http://www.inkscape.org/namespaces/inkscape"
   width="300mm"
   height="300mm"
   viewBox="0 0 300 300"
   version="1.1"
   id="svg42"
   inkscape:version="1.0.1 (3bc2e813f5, 2020-09-07)"
   sodipodi:docname="NOUN_Time.svg">
  <defs
     id="defs36" />
  <sodipodi:namedview
     id="base"
     pagecolor="#ffffff"
     bordercolor="#666666"
     borderopacity="1.0"
     inkscape:pageopacity="0.0"
     inkscape:pageshadow="2"
     inkscape:zoom="0.35"
     inkscape:cx="400"
     inkscape:cy="560"
     inkscape:document-units="mm"
     inkscape:current-layer="layer1"
     inkscape:document-rotation="0"
     showgrid="false"
     inkscape:window-width="1267"
     inkscape:window-height="1040"
     inkscape:window-x="514"
     inkscape:window-y="86"
     inkscape:window-maximized="0" />
  <metadata
     id="metadata39">
    <rdf:RDF>
      <cc:Work
         rdf:about="">
        <dc:format>image/svg+xml</dc:format>
        <dc:type
           rdf:resource="http://purl.org/dc/dcmitype/StillImage" />
        <dc:title></dc:title>
      </cc:Work>
    </rdf:RDF>
  </metadata>
  <g
     inkscape:label="Layer 1"
     inkscape:groupmode="layer"
     id="layer1">
    <path
       style="stroke-width:1.32292"
       id="path117"
       d="m 4.1595434,206.83328 c 0.8779504,1.80204 2.039966,2.6566 3.8002942,3.5784 5.5319334,2.33639 11.5095474,3.30468 17.4008294,4.26133 8.714628,1.43861 17.539313,1.54036 26.340019,1.22118 12.111836,-0.53636 24.148764,-1.99005 36.101422,-3.97023 11.574216,-1.93547 23.045192,-4.38184 34.344852,-7.54535 17.3725,-4.75907 34.5889,-10.14609 50.43601,-18.80201 1.83278,-1.0011 3.60528,-2.10881 5.40793,-3.16322 10.02886,-6.38188 18.59722,-14.62428 26.50536,-23.42466 7.04681,-8.37553 12.30595,-18.02183 17.42144,-27.64278 2.13684,-4.01509 4.07413,-8.13096 6.04986,-12.22627 0,0 -24.49236,5.55343 -24.49236,5.55343 v 0 c -1.86441,4.04803 -3.72015,8.1022 -5.78864,12.05185 -4.98378,9.50176 -10.27433,18.92518 -17.41918,27.0071 -7.86532,8.57558 -16.36756,16.61259 -26.40858,22.62314 -1.80503,1.00918 -3.58435,2.06579 -5.41508,3.02754 -5.4595,2.86807 -11.14111,5.3892 -16.88113,7.63876 -1.7538,0.68733 -7.11809,2.45196 -5.29856,1.96454 6.07134,-1.62641 12.04712,-3.59065 18.07068,-5.38598 -11.31639,3.36451 -22.84706,5.89318 -34.47831,7.91313 -11.730251,2.0661 -23.549823,3.56753 -35.463362,4.02468 -8.634151,0.38422 -17.316222,0.50029 -25.880184,-0.87893 -5.548329,-0.87596 -11.162035,-1.7873 -16.399174,-3.90018 -1.163339,-0.46982 -2.4292,-0.7469 -2.842392,-2.0637 0,0 -25.1117446,8.13823 -25.1117446,8.13823 z" />
    <path
       style="stroke-width:1.32292"
       id="path125"
       d="m 172.6665,51.429073 c -2.70117,1.330732 -5.51592,2.448856 -8.29237,3.622765 -5.03722,1.977249 -9.34228,4.854776 -13.52559,8.237828 -6.30617,5.41519 -11.62952,11.799554 -16.60092,18.425961 -5.57694,7.420531 -10.54447,15.272978 -15.11378,23.345983 -3.804,7.0847 -6.90552,14.51396 -10.0661,21.89937 0,0 24.35977,-5.63398 24.35977,-5.63398 v 0 c 3.02762,-7.35509 6.14694,-14.69303 10.12599,-21.596798 4.61669,-7.939604 9.51507,-15.729924 15.13542,-23.006299 5.12748,-6.50059 10.61843,-12.774004 17.19413,-17.864047 4.33642,-3.119311 8.9436,-5.726446 13.94075,-7.653015 2.983,-1.260634 6.02998,-2.411986 8.84702,-4.024249 0,0 -26.00432,4.246481 -26.00432,4.246481 z" />
    <path
       style="stroke-width:1.32292"
       id="path127"
       d="m 266.72095,212.46893 c -0.26564,-3.40131 -0.32612,-6.81479 -0.4681,-10.22262 -0.40711,-7.38238 -0.64101,-14.77231 -0.87315,-22.16175 -0.30263,-8.8521 -0.61238,-17.70316 -0.81826,-26.55825 -0.30146,-9.59802 -0.59898,-19.1837 -0.38775,-28.78611 0.31065,-9.46676 0.72193,-18.9297 1.03498,-28.396408 0.22302,-7.65043 0.44127,-15.300124 0.86839,-22.942291 0.23458,-3.292382 0.47252,-6.584513 0.71348,-9.876435 0,0 -24.55625,6.533544 -24.55625,6.533544 v 0 c -0.22119,3.304524 -0.46435,6.607662 -0.64761,9.914607 -0.31818,7.633051 -0.38997,15.27148 -0.55354,22.908823 -0.23665,9.45222 -0.51989,18.903 -0.82016,28.3534 -0.23519,9.6527 -0.0367,19.29482 0.25717,28.94491 0.228,8.87222 0.48992,17.74388 0.6282,26.61811 0.17178,7.40475 0.4866,14.80596 0.56432,22.21261 -0.0456,3.47458 -0.11113,6.95234 -0.38363,10.41798 0,0 25.44191,-6.96012 25.44191,-6.96012 z" />
  </g>
</svg>
