<?xml version="1.0" encoding="UTF-8" standalone="no"?>
<svg
   xmlns:dc="http://purl.org/dc/elements/1.1/"
   xmlns:cc="http://creativecommons.org/ns#"
   xmlns:rdf="http://www.w3.org/1999/02/22-rdf-syntax-ns#"
   xmlns:svg="http://www.w3.org/2000/svg"
   xmlns="http://www.w3.org/2000/svg"
   xmlns:sodipodi="http://sodipodi.sourceforge.net/DTD/sodipodi-0.dtd"
   xmlns:inkscape="http://www.inkscape.org/namespaces/inkscape"
   width="300mm"
   height="300mm"
   viewBox="0 0 300 300"
   version="1.1"
   id="svg42"
   inkscape:version="1.0.1 (3bc2e813f5, 2020-09-07)"
   sodipodi:docname="NOUN_Surprise.svg">
  <defs
     id="defs36" />
  <sodipodi:namedview
     id="base"
     pagecolor="#ffffff"
     bordercolor="#666666"
     borderopacity="1.0"
     inkscape:pageopacity="0.0"
     inkscape:pageshadow="2"
     inkscape:zoom="0.35"
     inkscape:cx="400"
     inkscape:cy="560"
     inkscape:document-units="mm"
     inkscape:current-layer="layer1"
     inkscape:document-rotation="0"
     showgrid="false"
     inkscape:window-width="1267"
     inkscape:window-height="1040"
     inkscape:window-x="514"
     inkscape:window-y="86"
     inkscape:window-maximized="0" />
  <metadata
     id="metadata39">
    <rdf:RDF>
      <cc:Work
         rdf:about="">
        <dc:format>image/svg+xml</dc:format>
        <dc:type
           rdf:resource="http://purl.org/dc/dcmitype/StillImage" />
        <dc:title></dc:title>
      </cc:Work>
    </rdf:RDF>
  </metadata>
  <g
     inkscape:label="Layer 1"
     inkscape:groupmode="layer"
     id="layer1">
    <path
       style="stroke-width:1.2178"
       id="path44"
       d="m 145.93559,10.862241 c -0.10897,1.027214 -0.428,2.020645 -0.67095,3.026044 -0.39906,2.084381 -0.71866,4.179207 -1.07799,6.269007 -0.60957,3.704103 -1.00157,7.426945 -1.38632,11.151179 -0.48973,5.575055 -0.90923,11.155321 -1.28619,16.736784 -0.4182,6.742996 -0.6272,13.493111 -0.80511,20.24313 -0.18678,7.249681 -0.15701,14.501394 -0.21204,21.752279 -0.0275,4.845599 -0.0734,9.691105 -0.11469,14.536626 0,0 22.92954,-9.916262 22.92954,-9.916262 v 0 c -0.11601,-4.778758 -0.24548,-9.557298 -0.34035,-14.336402 -0.14361,-7.215228 -0.19199,-14.431524 0.13215,-21.64446 0.22924,-6.753635 0.50063,-13.507785 1.02626,-20.250317 0.44247,-5.596101 0.88425,-11.195122 1.58626,-16.772937 0.49483,-3.729959 1.02097,-7.458677 1.74474,-11.16256 0.41919,-2.0905582 0.8348,-4.1853296 1.43278,-6.2455781 0.27952,-0.9291147 0.40149,-1.9371714 0.9899,-2.7718439 0,0 -23.94799,9.385311 -23.94799,9.385311 z" />
    <path
       style="stroke-width:1.56505"
       id="path52"
       d="m 69.080704,229.69707 c -1.913122,1.33498 -3.69261,2.89549 -5.424511,4.48004 -6.35634,6.16733 -12.487203,12.56944 -18.653381,18.92934 -10.29074,10.7466 -20.471578,21.59962 -30.652806,32.45155 -4.8918358,5.19152 -9.7072929,10.45447 -14.50211352,15.7368 0,0 28.55511852,-5.64609 28.55511852,-5.64609 v 0 c 4.625304,-5.25144 9.268154,-10.48768 14.067064,-15.57976 10.281949,-10.94733 20.622213,-21.84327 31.21823,-32.48303 6.510242,-6.45034 12.940427,-13.02605 19.983825,-18.8922 1.918957,-1.47176 3.875947,-2.98174 6.131308,-3.87839 0,0 -30.722734,4.88174 -30.722734,4.88174 z" />
    <path
       style="stroke-width:1.49865"
       id="path54"
       d="m 144.40275,222.2315 c -0.31987,3.26834 -0.46345,6.5824 -0.6277,9.87285 -0.50761,9.20511 -1.22701,18.38872 -1.89609,27.57626 -0.76048,11.65664 -1.5343,23.3094 -2.44274,34.94882 -0.14426,1.63645 -0.28852,3.27291 -0.43278,4.90937 0,0 24.39204,-8.23545 24.39204,-8.23545 v 0 c 0.10562,-1.63411 0.21124,-3.26825 0.31687,-4.9024 0.69316,-11.64707 1.47157,-23.28544 2.42661,-34.90252 0.77896,-9.26704 1.6118,-18.5262 2.49343,-27.77811 0.3503,-3.27642 0.64426,-6.59201 1.35658,-9.77844 0,0 -25.58622,8.28962 -25.58622,8.28962 z" />
    <path
       style="stroke-width:1.32292"
       id="path58"
       d="m 199.92373,224.91197 c 1.57307,2.5138 3.61561,4.73236 5.61914,6.90898 5.07059,4.9432 10.34018,9.67925 15.51058,14.51865 5.42781,5.01164 10.7294,10.15469 16.02704,15.30252 5.88527,5.57688 12.17048,10.70356 18.60276,15.63073 5.45668,4.17515 11.03553,8.19058 16.42769,12.44944 0,0 23.96693,-8.97535 23.96693,-8.97535 v 0 c -5.56148,-4.20767 -11.35485,-8.09517 -16.94336,-12.26717 -6.32682,-4.85052 -12.46798,-9.94117 -18.22315,-15.46523 -5.35503,-5.13219 -10.73537,-10.23776 -16.16255,-15.29378 -5.06001,-4.74035 -10.19337,-9.42059 -14.93524,-14.48384 -1.69989,-1.96462 -3.45256,-3.97659 -4.72314,-6.25039 0,0 -25.1667,7.92544 -25.1667,7.92544 z" />
    <path
       style="stroke-width:1.32292"
       id="path60"
       d="m 145.38061,159.66955 c 0.23863,0.98821 0.31191,2.00764 0.39043,3.01841 -0.0103,1.25088 -0.19424,2.47211 -0.6538,3.6358 -0.53803,1.23275 -1.6079,1.96341 -2.53791,2.85245 -0.52272,0.3925 -1.05757,0.87078 -1.70805,1.04508 -0.18907,0.0507 -0.77067,0.11948 -0.58411,0.0603 25.64261,-8.13907 32.03127,-10.84985 23.74152,-7.35739 -1.17987,0.2416 -2.41037,0.44314 -3.5864,0.12579 -1.3982,-0.50468 -2.52016,-1.46902 -3.56433,-2.49553 -1.11752,-0.99813 -1.86444,-2.23321 -2.44035,-3.59824 -0.6085,-1.52983 -0.93666,-3.03044 -0.57254,-4.64773 0.40482,-1.77772 1.31908,-3.28023 2.61483,-4.53697 0.96331,-0.58737 1.93375,-1.02093 3.04119,-1.21275 0.30155,-0.0522 1.1962,-0.25166 0.90389,-0.16104 -7.93248,2.45914 -15.88726,4.84575 -23.83089,7.26863 1.45513,-0.42575 2.9518,-0.71283 4.47086,-0.69538 1.16409,0.12404 2.15212,0.50942 3.07064,1.22289 0.98295,0.67246 1.62995,1.65669 2.18752,2.68634 0.55439,1.1628 1.08876,2.32963 1.48926,3.55496 0.22574,0.80586 0.12013,0.39916 0.31641,1.22021 0,0 25.13696,-7.5221 25.13696,-7.5221 v 0 c -0.23131,-0.94702 -0.10752,-0.47585 -0.37131,-1.41351 -0.43985,-1.3632 -1.01526,-2.66133 -1.62586,-3.9553 -0.66663,-1.35182 -1.44552,-2.68935 -2.53052,-3.74899 -1.10638,-0.89477 -2.09921,-1.96889 -3.53617,-2.32748 -1.63479,-0.62929 -3.3139,-0.70535 -5.03613,-0.3621 -8.54792,2.57269 -17.1069,5.10888 -25.64375,7.71808 -0.88668,0.27101 -1.72514,0.88415 -2.42091,1.48017 -0.71916,0.61606 -0.70454,0.68101 -1.28716,1.44161 -1.14527,1.80209 -1.94699,3.76643 -2.25043,5.89355 -0.16213,2.06658 0.12561,4.03403 0.89735,5.96869 0.65501,1.69021 1.48686,3.30912 2.78003,4.60765 1.21077,1.21159 2.36375,2.50683 3.86159,3.38223 1.32745,0.8116 2.53683,1.35848 4.1361,1.25212 9.99633,0.83591 21.28514,-2.47013 28.09308,-9.82326 1.08823,-1.16504 1.87667,-2.56011 2.27386,-4.11095 0.33658,-1.49491 0.53914,-3.02628 0.42321,-4.5613 -0.0817,-1.12618 -0.17235,-2.25159 -0.33678,-3.36932 0,0 -25.31133,7.46441 -25.31133,7.46441 z" />
  </g>
</svg>
