<?xml version="1.0" encoding="UTF-8" standalone="no"?>
<svg
   xmlns:dc="http://purl.org/dc/elements/1.1/"
   xmlns:cc="http://creativecommons.org/ns#"
   xmlns:rdf="http://www.w3.org/1999/02/22-rdf-syntax-ns#"
   xmlns:svg="http://www.w3.org/2000/svg"
   xmlns="http://www.w3.org/2000/svg"
   xmlns:sodipodi="http://sodipodi.sourceforge.net/DTD/sodipodi-0.dtd"
   xmlns:inkscape="http://www.inkscape.org/namespaces/inkscape"
   width="580.83215"
   height="645.63354"
   version="1.1"
   viewBox="0 0 580.83319 645.6319"
   id="svg4"
   sodipodi:docname="NOUN_Earth.svg"
   inkscape:version="1.0.1 (3bc2e813f5, 2020-09-07)">
  <metadata
     id="metadata10">
    <rdf:RDF>
      <cc:Work
         rdf:about="">
        <dc:format>image/svg+xml</dc:format>
        <dc:type
           rdf:resource="http://purl.org/dc/dcmitype/StillImage" />
      </cc:Work>
    </rdf:RDF>
  </metadata>
  <defs
     id="defs8" />
  <sodipodi:namedview
     pagecolor="#ffffff"
     bordercolor="#666666"
     borderopacity="1"
     objecttolerance="10"
     gridtolerance="10"
     guidetolerance="10"
     inkscape:pageopacity="0"
     inkscape:pageshadow="2"
     inkscape:window-width="830"
     inkscape:window-height="480"
     id="namedview6"
     showgrid="false"
     inkscape:zoom="1.3165231"
     inkscape:cx="290.41732"
     inkscape:cy="322.81362"
     inkscape:window-x="0"
     inkscape:window-y="0"
     inkscape:window-maximized="0"
     inkscape:current-layer="svg4" />
  <path
     d="m 52.81031,623.72361 c 5.2632,-1.9575 10.174,-4.8302 14.971,-7.7414 9.0557,-5.4954 18.183,-10.877 27.077,-16.64 3.5778,-2.318 15.664,-11.956 18.794,-14.418 9.971,-8.7602 21.098,-16.358 30.274,-26.047 4.264,-4.502 5.1603,-6.2105 8.6928,-11.309 8.5024,-15.097 17.39,-30.05 24.98,-45.66 2.026,-4.1666 3.8533,-8.4304 5.7799,-12.646 11.749,-28.391 22.482,-57.209 33.344,-85.961 9.6561,-24.429 16.029,-49.969 22.766,-75.334 3.8639,-13.543 5.9228,-27.589 9.9044,-41.097 0.73518,-2.4941 1.6285,-4.937 2.4427,-7.4055 4.4216,-11.662 7.5625,-23.799 12.409,-35.289 2.4731,-6.2749 5.1733,-12.471 7.3608,-18.857 1.9916,-3.7291 2.0765,-8.5761 4.7952,-11.889 -6.6873,3.9264 -13.661,7.3842 -20.062,11.779 -0.49764,0.34169 0.17677,1.2098 0.26352,1.815 0.15305,1.0674 0.30577,2.1348 0.45595,3.2026 0.94285,6.7034 1.5474,13.427 2.1928,20.167 2.4834,23.556 3.7078,47.252 6.4562,70.78 0.67913,5.8137 1.5569,11.601 2.3353,17.402 4.3426,29.761 11.666,59.019 21.036,87.536 1.907,5.8036 4.0226,11.534 6.0339,17.301 2.1357,5.837 4.1881,11.706 6.4072,17.511 3.7149,9.7172 10.751,26.821 14.754,36.343 5.5776,13.265 9.732,23.107 16.088,35.993 2.7497,5.575 5.7453,11.02 8.618,16.531 9.6933,18.249 20.256,36.106 33.048,52.296 6.3357,8.0189 7.991,9.5229 14.677,16.698 6.6309,6.4126 13.38,12.901 20.984,18.137 2.2608,1.5568 5.5432,3.2876 7.9252,4.6015 5.62,2.8702 2.8414,1.503 8.3315,4.1105 l 18.837,-12.735 c -5.4773,-2.469 -2.7193,-1.1533 -8.2682,-3.9597 -0.633,-0.34973 -7.058,-3.8843 -7.788,-4.3461 -7.7774,-4.92 -14.843,-10.981 -21.505,-17.342 -6.5093,-6.6126 -8.9075,-8.7762 -15.016,-16.204 -13.036,-15.851 -23.567,-33.637 -33.518,-51.601 -2.8993,-5.4573 -5.9367,-10.841 -8.6978,-16.372 -14.441,-28.929 -25.754,-59.429 -36.97,-89.755 -11.776,-34.093 -22.003,-68.577 -26.761,-104.51 -0.72887,-5.7987 -1.5587,-11.585 -2.1866,-17.396 -2.5608,-23.699 -3.6304,-47.549 -5.3707,-71.316 -0.41852,-6.898 -0.79293,-13.79 -1.4648,-20.668 -0.11034,-1.1287 -0.19265,-2.2612 -0.34754,-3.3845 -0.11358,-0.82308 0.32092,-2.6991 -0.45697,-2.4496 -7.3463,2.3561 -14.125,6.2609 -21.187,9.3913 -1.6564,3.9787 -2.7165,8.183 -4.3333,12.18 -2.2894,6.2617 -4.7791,12.447 -7.184,18.663 -4.4356,11.564 -7.5508,23.604 -11.879,35.214 -5.0431,15.857 -7.932,32.249 -11.858,48.415 -6.3754,25.256 -12.731,50.578 -22.275,74.838 -10.827,28.772 -21.439,57.656 -33.575,85.889 -2.0002,4.2109 -3.9108,8.4673 -6.0006,12.633 -7.8587,15.665 -16.837,30.773 -25.89,45.737 -3.7383,5.0963 -4.3955,6.359 -8.7717,10.879 -9.1005,9.4 -19.774,17.108 -29.676,25.562 -3.2641,2.5275 -6.4908,5.1057 -9.7922,7.5824 -3.095,2.3219 -11.697,3.6755 -9.3943,6.8114 2.3307,3.1742 6.776,-3.9194 10.323,-5.546 3.8631,-1.7713 -7.2706,4.4603 -11.099,6.3081 -0.92465,0.44629 -1.918,0.72656 -2.877,1.0898 l -18.154,14.485 z m -31.584,-115.6 c 15.613,-14.704 29.889,-30.728 43.862,-47.03 34.55,-39.55 56.373,-87.932 79.913,-134.58 34.442,-68.996 70.183,-137.3 106.24,-205.43 16.777,-33.897002 36.439,-66.756002 49.818,-102.300002 1.1463,-3.6616 2.0726,-7.3401 1.1699,-11.1530001 -0.34406,-1.4534 -1.1173,-2.7301 -1.5768,-4.1386 -1.7529,-0.48169 1.2145,-1.4871 0.80527,-1.2307 -6.3383,3.9705 -12.81,7.716 -19.167,11.6570001 -0.11668,0.0724 0.29722,-0.10755 0.40908,-0.0274 0.23657,0.16914 0.35343,0.46606 0.53014,0.69909 3.0555,6.7056 3.5868,14.301 4.8263,21.51 2.044,11.861 4.4982,23.616 7.357,35.299 5.5648,21.622 12.115,42.952002 18.713,64.263002 8.4548,27.693 18.838,54.685 29.857,81.403 10.304,25.205 23.371,49.041 36.932,72.536 14.055,22.987 27.813,46.157 42.193,68.936 12.718,20.459 27.584,39.361 42.38,58.266 7.4117,9.2961 14.422,18.94 21.997,28.102 3.3925,4.1031 8.7829,10.126 12.27,14.067 6.587,7.2694 13.718,13.98 20.849,20.681 3.591,3.375 7.7944,7.468 11.624,10.595 2.0545,1.6779 4.224,3.204 6.336,4.806 7.6825,5.4052 15.828,10.049 23.967,14.683 l 18.302,-12.167 c -8.0896,-4.4831 -16.136,-9.0509 -23.623,-14.55 -13.988,-10.556 -26.822,-22.699 -38.799,-35.555 -11.862,-13.653 -23.102,-27.807 -34.347,-41.99 -14.976,-18.686 -29.832,-37.506 -42.637,-57.843 -14.457,-22.692 -28,-45.963 -42.182,-68.834 -13.437,-23.45 -26.454,-47.206 -36.916,-72.223 -11.109,-26.634 -21.368,-53.626 -29.448,-81.397 -6.5319,-21.334 -13.064,-42.685002 -17.997,-64.477002 -2.5715,-11.733 -4.8856,-23.513 -6.9648,-35.348 -1.2255,-7.613 -1.689,-15.5860001 -4.7756,-22.7160001 -0.0995,-0.15297 -1.705,-2.8252 -2.122,-2.628 -7.6403,3.6124 -23.447,5.1211 -20.59,14.9530001 0.49709,1.1868 1.2044,2.3569 1.5062,3.6177 0.78485,3.2798 -0.0943,6.5629 -0.917,9.7359 -11.591,35.077 -30.116,67.322 -46.25,100.310002 -35.446,68.323 -70.671,136.76 -105.81,205.25 -24.48,47.022 -47.547,95.607 -82.934,135.4 -14.61,16.664 -29.604,32.96 -46.027,47.803 l 21.225,-8.9606 z"
     id="path2" />
</svg>
