<?xml version="1.0" encoding="UTF-8" standalone="no"?>
<svg
   xmlns:dc="http://purl.org/dc/elements/1.1/"
   xmlns:cc="http://creativecommons.org/ns#"
   xmlns:rdf="http://www.w3.org/1999/02/22-rdf-syntax-ns#"
   xmlns:svg="http://www.w3.org/2000/svg"
   xmlns="http://www.w3.org/2000/svg"
   xmlns:sodipodi="http://sodipodi.sourceforge.net/DTD/sodipodi-0.dtd"
   xmlns:inkscape="http://www.inkscape.org/namespaces/inkscape"
   width="300mm"
   height="300mm"
   viewBox="0 0 300 300"
   version="1.1"
   id="svg42"
   inkscape:version="1.0.1 (3bc2e813f5, 2020-09-07)"
   sodipodi:docname="NOUN_Crimson.svg">
  <defs
     id="defs36" />
  <sodipodi:namedview
     id="base"
     pagecolor="#ffffff"
     bordercolor="#666666"
     borderopacity="1.0"
     inkscape:pageopacity="0.0"
     inkscape:pageshadow="2"
     inkscape:zoom="0.5"
     inkscape:cx="495.459"
     inkscape:cy="440"
     inkscape:document-units="mm"
     inkscape:current-layer="layer1"
     inkscape:document-rotation="0"
     showgrid="false"
     inkscape:window-width="1267"
     inkscape:window-height="1040"
     inkscape:window-x="512"
     inkscape:window-y="95"
     inkscape:window-maximized="0" />
  <metadata
     id="metadata39">
    <rdf:RDF>
      <cc:Work
         rdf:about="">
        <dc:format>image/svg+xml</dc:format>
        <dc:type
           rdf:resource="http://purl.org/dc/dcmitype/StillImage" />
        <dc:title></dc:title>
      </cc:Work>
    </rdf:RDF>
  </metadata>
  <g
     inkscape:label="Layer 1"
     inkscape:groupmode="layer"
     id="layer1">
    <path
       style="stroke-width:1.32292"
       id="path392"
       d="m 12.078649,195.11793 c 0.0098,-0.0752 -0.02419,-0.17201 0.02953,-0.22551 0.504411,-0.50238 3.152262,-0.60376 3.510513,-0.63319 2.592555,-0.21297 5.189569,-0.36768 7.783979,-0.55669 17.416776,-1.58721 34.867144,-2.63208 52.337764,-3.38525 21.093237,-0.71467 42.186466,-1.48517 63.289166,-1.85244 18.26517,-0.14332 36.52845,-0.10217 54.79072,-0.49826 13.88801,-0.38858 27.774,-0.85642 41.66513,-1.12107 9.47367,-0.15941 18.94452,0.0812 28.40766,0.50662 6.09133,0.1487 12.13104,0.78489 18.14243,1.74231 0.79092,0.13517 1.58184,0.27033 2.37276,0.4055 0,0 10.61553,-14.18518 10.61553,-14.18518 v 0 c -0.8496,-0.14389 -1.69923,-0.28778 -2.54886,-0.43167 -6.37739,-0.94374 -12.75049,-2.09533 -19.22031,-2.10751 -9.76033,-0.31378 -19.52583,-0.2707 -29.28907,-0.10952 -14.02871,0.28299 -28.03665,1.06622 -42.05639,1.61803 -18.35221,0.66099 -36.70926,1.05931 -55.07357,1.1764 -21.16637,0.33727 -42.31681,1.15038 -63.474349,1.82411 -17.116444,0.54774 -34.232681,1.12373 -51.349955,1.62908 -3.999277,0.0294 -8.094225,0.26439 -12.044351,-0.49908 0,0 -7.888327,16.70332 -7.888326,16.70332 z" />
    <path
       style="stroke-width:1.32292"
       id="path394"
       d="m 221.13918,175.44357 c -0.65466,-2.51426 -1.9593,-4.77605 -3.22119,-7.02323 -1.42385,-2.5881 -3.01182,-5.07313 -4.82894,-7.40131 -2.5563,-3.12597 -5.58504,-5.813 -8.63965,-8.4362 -3.5265,-3.01823 -7.34668,-5.64348 -11.30681,-8.05197 -3.83139,-2.33285 -7.96467,-4.05326 -12.19789,-5.49744 -4.1345,-1.38802 -8.32982,-2.56916 -12.5853,-3.51949 -6.2281,-1.11878 -12.5479,-1.66535 -18.83421,-2.36636 -5.88058,-0.68132 -11.7577,-1.39136 -17.64685,-1.99561 -3.33314,-0.36804 -6.70163,-0.43273 -10.02148,0.10013 -0.81854,0.13138 -1.65222,0.22697 -2.43815,0.49073 -4.44388,1.49139 -8.81973,3.1783 -13.2296,4.76745 -4.6241,2.75451 -8.232196,6.82291 -11.830706,10.75506 -3.511574,3.6743 -5.370674,7.95455 -7.261204,12.57608 -1.526572,3.99735 -2.79487,8.09002 -4.007927,12.19185 -0.787506,2.44826 -1.538137,4.90812 -2.242352,7.38158 0,0 18.08584,-0.0955 18.08584,-0.0955 v 0 c 0.682112,-2.42203 1.401349,-4.8333 2.089509,-7.25362 1.10536,-3.69966 2.21927,-7.41225 3.83108,-10.93035 0.67826,-1.39336 1.01916,-2.1962 1.84313,-3.49707 1.3402,-2.1159 3.09044,-3.93405 4.81049,-5.73691 2.9908,-2.94337 6.1117,-5.76152 10.29368,-6.82004 -3.03758,1.05325 -6.05313,2.17231 -9.11273,3.15974 -0.60428,0.19502 1.14969,-0.54095 1.73807,-0.7797 2.40952,-0.97771 4.95384,-1.61269 7.56666,-1.5859 5.86975,0.27768 11.71749,0.90688 17.56273,1.493 5.9862,0.68044 11.96149,1.428 17.92741,2.26925 3.96983,0.65405 7.88229,1.61109 11.72937,2.79068 3.66845,1.07601 7.3082,2.24053 10.67881,4.08693 3.59045,1.91261 7.05146,4.04121 10.2173,6.61124 2.60748,2.18354 5.14578,4.45397 7.37333,7.03328 1.53941,1.83575 2.89002,3.80485 4.06254,5.89751 0.51293,0.93101 1.64801,2.63384 1.70954,3.73603 0.002,0.0262 -0.0402,-0.0339 -0.0603,-0.0508 0,0 17.94582,-4.29899 17.94582,-4.29899 z" />
    <path
       style="stroke-width:2.64583"
       d="m 100.39664,175.10777 c 4.33245,-14.23379 5.91639,-17.38003 11.58106,-23.00392 6.4631,-6.41656 6.37634,-6.39176 18.55723,-5.30472 25.05358,2.23584 39.5587,5.10785 48.48906,9.60082 5.17471,2.60346 12.06298,7.72735 16.24677,12.0853 2.39059,2.49008 4.34651,4.74417 4.34651,5.00909 0,0.68115 -11.2691,1.10173 -44.71458,1.66879 -16.00729,0.27141 -34.90701,0.6572 -41.99938,0.85732 l -12.89521,0.36385 z"
       id="path396" />
    <path
       style="stroke-width:1.32292"
       id="path398"
       d="m 109.82301,178.13401 c 0.2204,-1.36724 0.85235,-2.63916 1.38678,-3.91138 0.88539,-2.30763 1.83388,-4.58542 2.83898,-6.84361 0.96756,-2.24993 2.18806,-4.38593 3.34815,-6.54208 1.10175,-1.89842 2.14081,-3.86289 3.49118,-5.60005 1.18172,-1.62471 2.23405,-3.3456 3.66033,-4.7725 0.91868,-1.12887 2.25964,-1.68122 3.44555,-2.4477 0.1767,2.7e-4 0.35347,-0.004 0.53009,10e-4 0.42719,0.013 1.67893,-0.11137 1.28135,0.0455 -3.43039,1.35316 -6.91366,2.56873 -10.38508,3.8129 -0.27545,0.0987 0.52264,-0.2647 0.79355,-0.37526 0.28405,-0.11592 0.57932,-0.20216 0.86898,-0.30325 1.82498,-0.74417 3.495,-1.08473 5.46805,-1.08111 3.02936,0.18477 6.02824,0.72182 9.01406,1.2474 3.1539,0.58138 6.28359,1.27456 9.40398,2.01151 2.93191,0.66699 5.83619,1.45197 8.69053,2.3974 3.15801,1.05305 6.31008,2.12369 9.47086,3.16847 2.92577,0.92715 5.79371,2.02204 8.65818,3.12068 2.338,0.91641 4.66114,1.86748 6.92131,2.96361 2.05975,0.95249 4.06993,2.00527 6.08803,3.04173 1.42807,0.89059 3.00536,1.52716 4.44252,2.3922 1.55153,1.13781 2.77465,2.63618 4.01101,4.09281 0.98276,1.11586 1.98981,2.21098 2.80618,3.45748 0.31926,0.49482 0.54848,1.03481 0.75593,1.5832 0,0 17.13434,-6.47365 17.13434,-6.47365 v 0 c -0.44338,-1.12361 -0.91931,-2.23537 -1.53781,-3.27648 -1.05729,-1.74609 -2.25839,-3.39779 -3.69754,-4.85326 -1.6471,-1.79756 -3.10448,-3.7718 -4.9009,-5.43079 -0.74277,-0.69982 -1.23495,-1.20618 -2.05708,-1.8127 -1.12635,-0.83096 -2.46197,-1.33573 -3.66344,-2.0411 -2.12082,-1.1902 -4.31103,-2.24609 -6.45156,-3.40022 -2.47179,-1.14842 -4.89545,-2.41628 -7.45739,-3.35909 -3.02977,-1.23378 -6.09371,-2.38858 -9.18324,-3.46366 -3.1367,-1.00217 -6.23601,-2.10771 -9.35435,-3.16417 -3.08449,-1.04589 -6.15439,-2.14877 -9.31449,-2.95276 -3.23652,-0.81337 -6.48618,-1.55895 -9.75438,-2.23255 -3.24139,-0.72413 -6.50597,-1.29328 -9.77604,-1.87605 -2.74599,-0.48092 -5.48683,-1.04481 -8.28747,-0.65748 -6.33714,0.98993 -13.21816,2.52768 -17.72013,7.28571 -1.55545,1.40161 -2.84775,3.05626 -4.06052,4.75768 -1.25736,1.88929 -2.5238,3.77169 -3.75519,5.67799 -1.2346,2.15674 -2.48141,4.30411 -3.57975,6.53551 -1.228071,2.37873 -2.385255,4.78997 -3.3797,7.27702 -1.002146,2.34628 -1.981036,4.70202 -2.988117,7.04616 -0.350877,0.87153 -0.727067,1.74039 -1.048361,2.62335 -0.06799,0.18686 -0.300511,1.00475 -0.465375,1.2751 -0.02863,0.0469 -0.09096,0.0618 -0.136446,0.0927 0,0 18.444439,0.96365 18.444439,0.96365 z" />
    <path
       style="stroke-width:1.32292"
       id="path400"
       d="m 195.46637,172.39302 c 3.79498,-1.33193 7.57249,-2.71471 11.38494,-3.99579 0.20957,-0.0704 -0.29232,0.34818 -0.49021,0.44675 -0.58359,0.29073 -1.27053,0.36009 -1.90216,0.47197 -2.23781,0.33246 -4.49524,0.45992 -6.75521,0.47429 -3.18429,-0.0134 -6.36734,-0.0172 -9.55052,-0.10463 -4.16782,-0.12332 -8.33676,-0.19742 -12.50556,-0.27735 -4.69056,-0.091 -9.3823,-0.0912 -14.07358,-0.0964 -5.19758,0.0265 -10.39318,-0.0604 -15.58873,-0.19381 -4.57345,-0.11911 -9.14751,-0.21154 -13.72171,-0.29563 -3.36209,-0.0671 -6.72354,-0.16238 -10.086,-0.20954 -2.68001,-0.0344 -5.36069,-0.0333 -8.03968,-0.1195 -2.19447,-0.0756 -4.38043,0.0681 -6.56563,0.24831 -0.85821,0.1041 -1.70906,0.13934 -2.5721,0.12901 0,0 -8.59346,16.12722 -8.59346,16.12722 v 0 c 0.779333,-0.22771 1.552795,-0.25618 2.363732,-0.30005 2.028738,-0.17049 4.042748,-0.44966 6.066908,-0.64082 2.60465,-0.2153 5.22591,-0.048 7.83683,-0.0904 3.38898,0.007 6.77793,-0.019 10.16691,-0.005 4.57019,0.0311 9.14029,0.0771 13.70993,0.15607 5.24404,0.0877 10.48664,0.24852 15.73172,0.24875 4.63923,0.0483 9.27826,0.10977 13.91744,0.16226 4.09894,0.0506 8.19795,0.12519 12.2945,0.2785 3.22487,0.12997 6.44469,0.33495 9.67361,0.33923 2.49749,0.068 4.98915,0.23778 7.48885,0.15684 7.52578,-0.0719 3.22501,0.85047 16.03916,-4.09516 0,0 -16.22998,-8.81554 -16.22998,-8.81554 z" />
    <path
       style="stroke-width:1.2135"
       id="path402"
       d="m 63.934896,169.51552 c -0.211405,-2.09817 0.04419,-4.21263 0.186021,-6.30676 0.445584,-5.34499 1.62204,-10.54713 3.223642,-15.63327 1.680167,-4.83513 3.953768,-9.46863 6.899439,-13.61024 0.592541,-0.83311 1.249941,-1.61421 1.874911,-2.42133 4.538894,-5.70524 10.700525,-9.41593 16.729606,-13.15457 4.319895,-2.57609 8.804305,-4.8299 13.360055,-6.91477 3.07012,-1.40498 6.88425,-3.08923 10.06258,-4.20205 1.30131,-0.45562 -2.55705,1.04123 -3.83558,1.56185 8.15262,-2.82138 16.41264,-5.62584 24.9387,-6.96209 1.40309,-0.2199 2.81975,-0.33282 4.22961,-0.49924 9.19249,-0.52324 18.1334,1.93868 26.83116,4.73486 7.22205,2.34493 13.92874,5.98621 20.49674,9.82629 7.65919,4.65107 15.12573,9.63728 22.53457,14.70458 5.41873,3.55409 10.32269,7.79753 14.83989,12.49976 3.17664,3.26428 5.42202,7.27463 7.62192,11.2704 1.45211,2.64941 2.78268,5.36569 3.81203,8.2224 0.4812,1.49693 0.25347,0.75415 0.68461,2.22788 0,0 15.41137,-5.44025 15.41137,-5.44025 v 0 c -0.56743,-1.76855 -0.26869,-0.86944 -0.89853,-2.6965 -1.24368,-3.32725 -2.80892,-6.49288 -4.61416,-9.53123 -2.66886,-4.5973 -5.27295,-9.31383 -8.88417,-13.20048 -4.98923,-5.12835 -10.3812,-9.80433 -16.37127,-13.63694 -3.92923,-2.5761 -7.86348,-5.14129 -11.7484,-7.78944 -2.50359,-1.70657 -4.97086,-3.47079 -7.48982,-5.15276 -1.12786,-0.7531 -2.27654,-1.47194 -3.41483,-2.2079 -7.00575,-4.33163 -14.22249,-8.347382 -21.99456,-11.005624 -9.5576,-3.149131 -19.30234,-6.059741 -29.37536,-6.577176 -1.65659,0.0512 -3.31903,2.48e-4 -4.96979,0.153633 -2.97629,0.276497 -7.17864,1.204619 -10.05887,1.900384 -5.49603,1.327649 -10.91855,2.970485 -16.296,4.739996 -4.83164,1.818086 -9.68416,3.577233 -14.49487,5.45426 -8.399728,3.277377 -16.598545,7.624687 -24.354011,12.291727 -2.910044,1.89088 -4.87453,3.07452 -7.605694,5.20452 -4.009376,3.12686 -7.516816,6.87389 -10.474983,11.07578 -0.664191,1.01002 -1.357406,2.00007 -1.992572,3.03006 -3.060843,4.96346 -5.406529,10.37604 -7.133728,15.98423 -1.60617,5.72282 -2.851648,11.54036 -3.507602,17.47041 -0.291483,2.42482 -0.515015,4.85202 -0.639382,7.29202 0,0 16.417328,-2.70242 16.417328,-2.70242 z" />
    <path
       style="stroke-width:1.30208"
       id="path406"
       d="m 296.8098,159.25705 c 0.0227,0.0871 0.10908,0.33905 0.0685,0.26113 -0.25347,-0.48687 -0.36683,-1.0548 -0.56349,-1.57568 -0.24181,-0.64042 -0.47358,-1.28715 -0.74915,-1.90902 -1.30327,-2.94095 -1.69202,-3.44423 -3.35684,-6.40319 -6.44563,-10.06403 -13.19159,-19.8843 -20.23974,-29.39182 C 263.5661,109.29278 253.97449,99.701954 244.18021,90.481042 233.82677,80.768557 222.02038,73.583781 210.187,66.648625 c -7.60704,-4.272318 -15.20812,-8.610214 -23.11191,-12.114384 -4.99722,-2.215534 -6.18127,-2.537858 -11.28972,-4.377618 -8.77019,-2.849607 -17.72675,-5.102428 -26.8111,-6.062556 -1.68655,-0.178252 -3.37948,-0.26333 -5.06921,-0.394996 -11.02663,-0.44795 -21.95752,1.643169 -32.81732,3.568094 -10.61465,1.841098 -21.037398,4.827669 -31.359121,8.185927 -8.681419,2.977094 -17.314889,6.412882 -25.128481,11.768733 -3.344066,2.292201 -3.631455,2.655114 -6.787771,5.28341 -5.215161,4.822877 -10.305607,9.905927 -14.574509,15.87739 -0.85184,1.191579 -1.638276,2.443846 -2.457412,3.665771 -2.919103,4.857596 -5.690241,9.879474 -7.922611,15.213424 -1.360138,3.24985 -1.721699,4.50454 -2.85743,7.85365 -2.197134,7.16243 -3.676756,14.57533 -4.93331,22.0235 -0.864426,5.76041 -1.551329,11.55534 -2.13027,17.3629 -0.270014,2.70052 -0.514258,5.4043 -0.747699,8.10934 0,0 16.359098,-2.07055 16.359098,-2.07055 v 0 c 0.170587,-2.62008 0.348108,-5.23973 0.573784,-7.85438 0.501401,-5.51719 1.047708,-11.03517 1.957184,-16.486 1.155047,-6.79218 2.479251,-13.57983 4.72701,-20.01761 0.43123,-1.14484 0.836337,-2.30333 1.293688,-3.43449 2.409069,-5.95834 5.484179,-11.56332 9.024716,-16.701323 0.777998,-1.026849 1.53112,-2.079692 2.333991,-3.080547 4.147178,-5.16985 8.889715,-9.696553 13.910807,-13.676956 3.174264,-2.258794 6.346914,-4.361576 9.755216,-6.12287 1.156596,-0.59769 4.741063,-2.020396 3.505677,-1.696921 -1.789307,0.468515 -11.456275,4.801851 -1.740873,0.508579 9.975641,-3.744226 20.092378,-7.013312 30.438596,-9.083166 10.34829,-1.922898 20.74387,-3.879433 31.23685,-4.259261 1.57806,0.03406 3.15743,0.01988 4.73417,0.102152 8.67244,0.452569 17.25996,2.250616 25.67155,4.665674 4.82004,1.584155 6.06294,1.900391 10.79429,3.824675 7.79809,3.171565 15.32963,7.146213 22.78951,11.245452 11.37187,6.539578 22.67066,13.38952 32.70018,22.503232 9.53106,8.67177 18.77756,17.82692 26.86185,28.32433 1.24716,1.68361 2.51909,3.34305 3.74148,5.05083 1.83387,2.56205 5.21439,7.58231 6.97461,10.23785 1.8548,2.79824 4.22741,6.41509 5.97189,9.34968 0.74973,1.26122 1.44324,2.56604 2.16485,3.84906 0.47809,0.97652 0.98937,1.93225 1.43427,2.92957 0.9079,2.03528 1.32796,4.21541 1.91816,6.37651 0,0 15.48815,-7.83768 15.48815,-7.83768 z" />
    <path
       style="stroke-width:1.32292"
       id="path414"
       d="m 48.735818,206.61476 c 0.618263,2.23055 1.096947,4.49434 1.576607,6.75765 1.026348,5.73378 2.456638,11.37954 3.835887,17.03501 1.20899,5.3087 2.345748,10.62585 3.973245,15.82488 1.897319,5.28192 5.007017,8.53099 10.376334,10.53565 4.394385,1.64066 8.159996,1.81075 12.819412,2.40664 2.851456,0.13719 5.700254,0.35128 8.554376,0.41158 6.872559,0.14521 13.637681,-0.0987 20.504071,-0.423 11.13794,-0.526 22.26048,-1.3839 33.3834,-2.15152 15.78052,-1.13474 31.56438,-2.19882 47.36824,-2.94689 9.92361,-0.52157 19.85229,-0.85772 29.78813,-1.00051 6.33147,-0.0831 12.66319,-0.14064 18.99514,-0.16713 4.08423,-0.0551 8.1672,-0.088 12.25158,-0.0404 6.86208,0.14481 5.72164,0.12317 16.0036,-4.89425 0.62839,-0.30664 0.82127,-1.13835 1.14104,-1.76018 0.9152,-1.77978 0.89662,-2.41839 1.2894,-4.38246 0.29138,-4.28772 0.0396,-8.59415 -0.0393,-12.88766 -0.0716,-4.25606 -0.32891,-8.50975 -0.6145,-12.75651 0,0 -17.55527,3.52862 -17.55527,3.52862 v 0 c 0.34018,4.0549 0.53428,8.11957 0.57051,12.18902 0.0337,2.03378 0.0864,4.07056 0.026,6.10448 -0.0203,0.68531 -0.059,2.1282 -0.26326,2.87759 -0.0479,0.17573 -0.18183,0.31566 -0.27275,0.47348 -0.0933,-0.0556 -0.20805,-0.0854 -0.27982,-0.16692 -0.0283,-0.0322 -0.539,-0.92959 -0.48653,-0.95204 3.56381,-1.52494 7.21375,-2.85508 10.90321,-4.04424 0.25094,-0.0809 -0.20639,0.51981 -0.42512,0.66703 -0.31416,0.21143 -0.72114,0.23141 -1.08171,0.34711 -3.9961,0.55589 -8.03756,0.32101 -12.05939,0.49984 -6.45378,0.20315 -12.90793,0.39682 -19.36053,0.63528 -10.12575,0.37266 -20.2653,0.54925 -30.36983,1.33893 -16.08832,1.22049 -32.16323,2.5757 -48.21732,4.19226 -20.01856,1.69529 -40.17133,3.43003 -60.260056,1.95824 -5.974763,-0.72569 -5.159629,-0.49099 -10.3417,-1.54525 -0.687866,-0.13995 -3.059935,-0.56078 -3.901816,-1.13834 -0.930227,-0.63817 -1.178488,-1.65046 -1.607727,-2.61919 -1.61336,-4.947 -2.804298,-10.01087 -4.048699,-15.06061 -1.30238,-5.48802 -2.551295,-10.99058 -3.31129,-16.5854 -0.320143,-2.18104 -0.689382,-4.37145 -0.917744,-6.55982 0,0 -17.945819,4.29899 -17.945819,4.29899 z" />
    <path
       style="stroke-width:1.32292"
       id="path416"
       d="m 115.20722,199.39511 c -0.79144,3.40699 -0.88489,6.95626 -0.90274,10.44079 0.163,5.90984 1.65649,11.65464 3.44389,17.25445 1.57381,4.07716 4.2308,7.51394 8.40347,9.18323 2.86058,1.14438 4.72717,1.07549 7.75669,1.33791 1.48025,-0.027 2.96167,-0.0165 4.44077,-0.081 2.48228,-0.10827 7.41282,-0.53403 9.84435,-0.73952 4.77702,-0.40371 9.55125,-0.8368 14.32507,-1.27634 6.32111,-0.62086 12.65291,-1.13158 18.97304,-1.76145 3.71693,-0.36373 7.40063,-0.96186 11.08647,-1.54975 2.73805,-0.6247 5.48051,-1.22984 8.21755,-1.85991 3.12749,-1.39895 11.29095,-2.41145 14.30203,-6.64616 1.12397,-1.58071 1.6218,-3.35366 2.11467,-5.1959 0.80183,-3.16952 0.76419,-6.46491 0.6894,-9.7101 -0.0254,-2.40715 -0.35651,-4.79878 -0.87299,-7.14611 -0.36373,-1.44994 -0.18746,-0.7459 -0.5289,-2.1121 0,0 -17.43543,5.23903 -17.43543,5.23903 v 0 c 0.29472,1.17695 0.15822,0.60349 0.41171,1.71985 0.33146,1.75123 0.56476,3.51496 0.5531,5.30235 0.0184,1.91539 0.0705,3.92306 -0.95869,5.61783 -0.70639,0.40664 -0.41038,0.007 -0.99027,-0.22741 -0.35979,-0.14532 -0.78523,-0.0426 -1.14304,-0.004 3.41476,-1.27369 6.82952,-2.54739 10.24428,-3.82108 -2.24632,1.23115 -4.70336,1.77858 -7.17246,2.39898 -3.36698,1.07209 -6.88022,1.6436 -10.35782,2.23024 -6.32396,1.04707 -12.70726,1.65745 -19.06336,2.4748 -9.09653,1.07583 -18.20836,1.99785 -27.36019,2.45683 -0.58335,0.0295 -4.14168,0.19909 -5.05114,0.2783 -0.61233,0.0533 -1.47092,0.31862 -2.10852,0.0441 -0.90935,-0.39147 -1.10235,-1.13764 -1.57109,-1.95786 -1.54891,-4.44151 -2.79011,-9.04018 -2.53546,-13.79152 0.15408,-1.53915 0.16388,-2.08424 0.47752,-3.56596 0.0621,-0.2935 0.25941,-1.40413 0.60993,-1.54974 0.21157,-0.0879 0.34356,0.70686 0.27467,0.63005 0,0 -18.11651,-3.61295 -18.11651,-3.61295 z" />
    <path
       style="stroke-width:1.32292"
       id="path418"
       d="m 12.440174,207.28094 c 0.971808,2.66168 1.446864,5.48241 2.037776,8.24621 1.382343,5.92673 2.373442,11.93421 3.279564,17.94913 0.831035,5.46637 1.350058,10.97147 1.7686,16.48253 0.31593,5.10354 0.706331,10.20052 1.248189,15.28508 0.560052,3.53282 0.666981,7.19971 1.680388,10.65178 0.208493,0.71022 0.487446,1.39782 0.73117,2.09672 1.368179,3.09552 3.457434,5.78977 6.46372,7.45323 2.321507,1.28458 3.432117,1.39689 6.005822,2.07095 1.295919,0.19841 2.5855,0.44386 3.887756,0.59518 5.340508,0.62052 10.746692,0.67998 16.11517,0.72964 4.997087,0.0462 8.3982,0.008 13.418486,-0.0212 14.834685,0.0167 29.640548,-0.93898 44.443175,-1.78729 16.94552,-1.10894 33.92202,-1.52871 50.89709,-1.85205 14.60967,-0.15759 29.21636,-0.47623 43.82292,-0.80574 9.9891,-0.2222 19.97458,-0.58626 29.95857,-0.97078 6.96706,-0.30634 13.92724,-0.72872 20.89761,-0.95716 5.2456,-0.16531 10.4945,-0.20005 15.73936,-0.38647 1.83957,-0.0937 3.68231,-0.18495 5.51145,-0.41294 0.58391,-0.0728 1.19333,-0.056 1.7466,-0.25643 4.17261,-1.51167 8.32903,-3.08264 12.39292,-4.86609 0.51729,-0.22704 0.84336,-0.75186 1.26505,-1.12778 1.24452,-1.47585 2.55712,-2.95855 3.49518,-4.66093 0.54014,-0.98028 0.70151,-1.52178 1.09781,-2.56993 0.76877,-2.57349 1.10151,-5.21727 1.08201,-7.89542 -0.0487,-3.1692 -1.11887,-6.13599 -2.19165,-9.07503 -1.26706,-3.31584 -2.54609,-6.62243 -3.71684,-9.97367 -1.22627,-3.28599 -1.83055,-6.72122 -2.1695,-10.19698 -0.17399,-3.51638 -0.11007,-7.04632 0.0196,-10.5639 0.10126,-3.48451 0.48964,-6.9518 0.82164,-10.41971 0.0483,-0.50993 0.0966,-1.01987 0.14486,-1.52981 0,0 -17.91994,1.99383 -17.91994,1.99383 v 0 c -0.0371,0.50211 -0.0741,1.00423 -0.11118,1.50634 -0.28088,3.65385 -0.61399,7.30651 -0.68016,10.97279 -0.0851,3.97 -0.14838,7.95427 0.25001,11.91089 0.51157,4.1888 1.31836,8.32735 2.76346,12.30626 1.16057,3.38123 2.3907,6.73347 3.66041,10.07523 0.61603,1.79523 1.25534,3.6062 1.07476,5.5369 -0.13205,1.18011 -0.29273,2.5246 -1.13612,3.42437 -0.87561,0.8668 -1.86605,1.82851 -3.13873,1.96392 -4.19952,0.50269 -2.79312,0.39516 9.35975,-3.73569 0.3352,-0.11393 -0.52364,0.48283 -0.82439,0.66962 -1.25415,0.77888 -2.75704,1.02317 -4.17926,1.279 -5.15416,0.71054 -10.3514,0.76205 -15.54329,0.98494 -7.05485,0.27913 -14.1162,0.46241 -21.15515,1.04404 -10.05087,0.71919 -20.1136,1.28725 -30.17746,1.78679 -14.67676,0.58314 -29.35816,1.05865 -44.0437,1.35628 -17.03029,0.38761 -34.06453,0.76054 -51.07892,1.62086 -14.61584,0.69035 -29.230181,1.56808 -43.866139,1.66622 -10.361324,0.008 -20.773716,0.0358 -31.073595,-1.23042 -0.76667,-0.10769 -1.531901,-0.22617 -2.300013,-0.32303 -1.769451,-0.2231 -3.077818,0.12168 -4.127441,-1.50638 -1.32324,-3.26194 -1.416855,-6.91454 -1.991784,-10.35042 -0.521118,-5.00539 -0.889865,-10.02386 -1.283218,-15.04058 -0.497102,-5.74674 -1.072663,-11.4913 -2.026288,-17.18324 -1.019085,-6.09916 -2.09845,-12.18803 -3.132267,-18.28469 -0.516128,-3.10763 -1.059945,-6.21054 -1.64247,-9.30648 0,0 -17.571235,5.63135 -17.571235,5.63135 z" />
  </g>
</svg>
