<?xml version="1.0" encoding="UTF-8" standalone="no"?>
<svg
   xmlns:dc="http://purl.org/dc/elements/1.1/"
   xmlns:cc="http://creativecommons.org/ns#"
   xmlns:rdf="http://www.w3.org/1999/02/22-rdf-syntax-ns#"
   xmlns:svg="http://www.w3.org/2000/svg"
   xmlns="http://www.w3.org/2000/svg"
   xmlns:sodipodi="http://sodipodi.sourceforge.net/DTD/sodipodi-0.dtd"
   xmlns:inkscape="http://www.inkscape.org/namespaces/inkscape"
   width="300mm"
   height="300mm"
   viewBox="0 0 300 300"
   version="1.1"
   id="svg42"
   inkscape:version="1.0.1 (3bc2e813f5, 2020-09-07)"
   sodipodi:docname="NOUN_Magic.svg">
  <defs
     id="defs36" />
  <sodipodi:namedview
     id="base"
     pagecolor="#ffffff"
     bordercolor="#666666"
     borderopacity="1.0"
     inkscape:pageopacity="0.0"
     inkscape:pageshadow="2"
     inkscape:zoom="0.5"
     inkscape:cx="495.459"
     inkscape:cy="440"
     inkscape:document-units="mm"
     inkscape:current-layer="layer1"
     inkscape:document-rotation="0"
     showgrid="false"
     inkscape:window-width="1267"
     inkscape:window-height="1040"
     inkscape:window-x="512"
     inkscape:window-y="95"
     inkscape:window-maximized="0" />
  <metadata
     id="metadata39">
    <rdf:RDF>
      <cc:Work
         rdf:about="">
        <dc:format>image/svg+xml</dc:format>
        <dc:type
           rdf:resource="http://purl.org/dc/dcmitype/StillImage" />
        <dc:title></dc:title>
      </cc:Work>
    </rdf:RDF>
  </metadata>
  <g
     inkscape:label="Layer 1"
     inkscape:groupmode="layer"
     id="layer1">
    <path
       style="stroke-width:1.11929"
       id="path394"
       d="m 202.9704,151.1019 c -0.46863,-2.51426 -1.40255,-4.77605 -2.30587,-7.02323 -1.01926,-2.5881 -2.156,-5.07313 -3.45678,-7.40131 -1.82992,-3.12597 -3.99803,-5.813 -6.18466,-8.4362 -2.52442,-3.01823 -5.25909,-5.64348 -8.09393,-8.05197 -2.74269,-2.33285 -5.70148,-4.05326 -8.73181,-5.49744 -2.95967,-1.38802 -5.96287,-2.56916 -9.00914,-3.51949 -4.45836,-1.11878 -8.98236,-1.66535 -13.48239,-2.36636 -4.20959,-0.68132 -8.4167,-1.39136 -12.63243,-1.99561 -2.38601,-0.36804 -4.79733,-0.43273 -7.17384,0.10013 -0.58595,0.13138 -1.18273,0.22697 -1.74533,0.49073 -3.18114,1.49139 -6.31357,3.1783 -9.47036,4.76745 -3.31015,2.75451 -5.89299,6.82291 -8.46897,10.75506 -2.51374,3.6743 -3.84457,7.95455 -5.1979,12.57608 -1.09279,3.99735 -2.00069,8.09002 -2.86906,12.19185 -0.56373,2.44826 -1.10107,4.90812 -1.60518,7.38158 0,0 12.94668,-0.0955 12.94668,-0.0955 v 0 c 0.48829,-2.42203 1.00315,-4.8333 1.49576,-7.25362 0.79128,-3.69966 1.58867,-7.41225 2.74247,-10.93035 0.48553,-1.39336 0.72957,-2.1962 1.3194,-3.49707 0.95938,-2.1159 2.21228,-3.93405 3.44357,-5.73691 2.14095,-2.94337 4.37504,-5.76152 7.36869,-6.82004 -2.17444,1.05325 -4.33311,2.17231 -6.52331,3.15974 -0.43258,0.19502 0.823,-0.54095 1.24419,-0.7797 1.72484,-0.97771 3.54618,-1.61269 5.41656,-1.5859 4.20184,0.27768 8.38792,0.90688 12.57221,1.493 4.2852,0.68044 8.56259,1.428 12.83326,2.26925 2.84179,0.65405 5.64251,1.61109 8.39643,2.79068 2.62604,1.07601 5.23154,2.24053 7.64438,4.08693 2.57021,1.91261 5.04776,4.04121 7.31401,6.61124 1.86655,2.18354 3.68359,4.45397 5.27817,7.03328 1.10198,1.83575 2.06881,3.80485 2.90816,5.89751 0.36717,0.93101 1.17972,2.63384 1.22376,3.73603 0.002,0.0262 -0.0288,-0.0339 -0.0431,-0.0508 0,0 12.84644,-4.29899 12.84644,-4.29899 z" />
    <path
       style="stroke-width:1.20527"
       id="path402"
       d="m 70.133824,148.68982 c -0.19497,-2.24429 0.04076,-4.50601 0.171559,-6.74597 0.410941,-5.71723 1.495931,-11.28166 2.973014,-16.722 1.549539,-5.17186 3.646375,-10.12804 6.36303,-14.55808 0.546473,-0.89113 1.152762,-1.72663 1.729142,-2.58996 4.186011,-6.10256 9.868595,-10.071667 15.428935,-14.070677 3.984036,-2.75549 8.119796,-5.16626 12.321366,-7.39632 2.83142,-1.50283 6.34902,-3.304372 9.28024,-4.49469 1.20014,-0.487351 -2.35825,1.113743 -3.53737,1.67062 7.51877,-3.017866 15.1366,-6.017637 22.9998,-7.446946 1.294,-0.235214 2.60051,-0.355998 3.90077,-0.534008 8.4778,-0.559679 16.72358,2.073693 24.74512,5.064607 6.66055,2.508235 12.84582,6.403097 18.90319,10.510607 7.0637,4.97498 13.94975,10.308437 20.78257,15.728637 4.99745,3.8016 9.52014,8.34056 13.68615,13.37026 2.92966,3.49161 5.00047,7.78125 7.02934,12.05529 1.33921,2.83392 2.56633,5.73937 3.51565,8.79502 0.44379,1.60118 0.23377,0.80667 0.63138,2.38304 0,0 14.21319,-5.81912 14.21319,-5.81912 v 0 c -0.52331,-1.89172 -0.2478,-0.92999 -0.82867,-2.88429 -1.14699,-3.55897 -2.59054,-6.94506 -4.25543,-10.195 -2.46136,-4.91747 -4.86299,-9.96246 -8.19345,-14.11979 -4.60133,-5.48549 -9.5741,-10.48712 -15.09845,-14.586637 -3.62375,-2.7555 -7.25213,-5.49934 -10.83501,-8.33191 -2.30894,-1.82542 -4.58439,-3.7125 -6.90751,-5.511604 -1.04017,-0.805547 -2.09955,-1.574448 -3.14934,-2.361662 -6.46107,-4.633295 -13.11674,-8.928711 -20.28456,-11.772078 -8.81452,-3.368442 -17.80164,-6.481752 -27.09151,-7.035222 -1.5278,0.05477 -3.06099,2.66e-4 -4.58341,0.164333 -2.74489,0.295752 -6.62053,1.28851 -9.27682,2.03273 -5.06874,1.420108 -10.06968,3.177354 -15.02904,5.070097 -4.456,1.944701 -8.93126,3.826358 -13.36795,5.834104 -7.746677,3.505619 -15.308064,8.155687 -22.460567,13.147752 -2.683798,2.02256 -4.495552,3.28863 -7.014377,5.56697 -3.69766,3.34462 -6.932408,7.352597 -9.660587,11.847107 -0.612553,1.08036 -1.251872,2.13936 -1.837656,3.24108 -2.822873,5.30913 -4.986189,11.09865 -6.579104,17.0974 -1.481296,6.12137 -2.629942,12.34405 -3.234897,18.68708 -0.268822,2.59369 -0.474975,5.18992 -0.589673,7.79985 0,0 15.140935,-2.89062 15.140935,-2.89062 z" />
    <path
       style="stroke-width:1.29002"
       id="path406"
       d="m 292.61882,144.44038 c 0.0223,0.0871 0.10707,0.33905 0.0672,0.26113 -0.2488,-0.48687 -0.36007,-1.0548 -0.5531,-1.57568 -0.23735,-0.64042 -0.46484,-1.28715 -0.73533,-1.90902 -1.27924,-2.94095 -1.66082,-3.44423 -3.29493,-6.40319 -6.32675,-10.06403 -12.9483,-19.8843 -19.86646,-29.39182 C 259.9882,94.476113 250.57349,84.885283 240.95985,75.664375 230.79736,65.95189 219.20872,58.767114 207.59358,51.831958 200.12684,47.55964 192.66595,43.221744 184.90793,39.717574 c -4.90506,-2.215534 -6.06727,-2.537858 -11.0815,-4.377618 -8.60844,-2.849607 -17.39982,-5.102428 -26.31662,-6.062556 -1.65545,-0.178252 -3.31715,-0.26333 -4.97572,-0.394996 -10.82326,-0.44795 -21.55255,1.643169 -32.21206,3.568094 -10.418893,1.841098 -20.649403,4.827669 -30.780761,8.185927 -8.521306,2.977094 -16.995547,6.412882 -24.665032,11.768733 -3.28239,2.292201 -3.564479,2.655114 -6.662583,5.28341 -5.118976,4.822877 -10.115538,9.905927 -14.305708,15.87739 -0.83613,1.191579 -1.608061,2.443846 -2.41209,3.665771 -2.865265,4.857596 -5.585295,9.879474 -7.776493,15.213424 -1.335053,3.24985 -1.689945,4.50454 -2.80473,7.853647 -2.156612,7.16243 -3.608945,14.57533 -4.842324,22.0235 -0.848483,5.76041 -1.522717,11.55534 -2.090981,17.3629 -0.265034,2.70052 -0.504773,5.4043 -0.733909,8.10934 0,0 16.057384,-2.07055 16.057384,-2.07055 v 0 c 0.167441,-2.62008 0.341688,-5.23973 0.563202,-7.85438 0.492154,-5.51719 1.028385,-11.03517 1.921087,-16.486 1.133745,-6.79218 2.433526,-13.57983 4.639829,-20.01761 0.423277,-1.14484 0.820912,-2.303327 1.269828,-3.434487 2.364639,-5.95834 5.383034,-11.56332 8.858272,-16.701323 0.763649,-1.026849 1.502881,-2.079692 2.290945,-3.080547 4.070691,-5.16985 8.72576,-9.696553 13.654247,-13.676956 3.115721,-2.258794 6.229857,-4.361576 9.575299,-6.12287 1.135265,-0.59769 4.653623,-2.020396 3.441022,-1.696921 -1.756307,0.468515 -11.244985,4.801851 -1.708766,0.508579 9.791658,-3.744226 19.721809,-7.013312 29.877212,-9.083166 10.15743,-1.922898 20.36128,-3.879433 30.66074,-4.259261 1.54896,0.03406 3.0992,0.01988 4.64686,0.102152 8.51249,0.452569 16.94163,2.250616 25.19808,4.665674 4.73115,1.584155 5.95112,1.900391 10.59521,3.824675 7.65427,3.171565 15.0469,7.146213 22.3692,11.245452 11.16214,6.539578 22.25254,13.38952 32.09709,22.503232 9.35527,8.67177 18.43124,17.826917 26.36643,28.324327 1.22416,1.68361 2.47263,3.34305 3.67247,5.05083 1.80005,2.56205 5.11822,7.58231 6.84598,10.23785 1.82059,2.79824 4.14944,6.41509 5.86175,9.34968 0.7359,1.26122 1.41662,2.56604 2.12492,3.84906 0.46927,0.97652 0.97112,1.93225 1.40782,2.92957 0.89115,2.03528 1.30347,4.21541 1.88278,6.37651 0,0 15.2025,-7.83768 15.2025,-7.83768 z" />
    <path
       style="stroke-width:1.26962"
       id="path414"
       d="m 46.68669,190.21059 c 0.56944,2.23055 1.010329,4.49434 1.452113,6.75765 0.945296,5.73378 2.262642,11.37954 3.53298,17.03501 1.113522,5.3087 2.160518,10.62585 3.659502,15.82488 1.747498,5.28192 4.611632,8.53099 9.556963,10.53565 4.047387,1.64066 7.515646,1.81075 11.807125,2.40664 2.626294,0.13719 5.250138,0.35128 7.878883,0.41158 6.329868,0.14521 12.56078,-0.0987 18.884964,-0.423 10.25843,-0.526 20.50268,-1.3839 30.74729,-2.15152 14.5344,-1.13474 29.07189,-2.19882 43.6278,-2.94689 9.13999,-0.52157 18.28465,-0.85772 27.43591,-1.00051 5.8315,-0.0831 11.66324,-0.14064 17.49519,-0.16713 3.76172,-0.0551 7.52227,-0.088 11.28413,-0.0404 6.32022,0.14481 5.26983,0.12317 14.73987,-4.89425 0.57877,-0.30664 0.75643,-1.13835 1.05094,-1.76018 0.84293,-1.77978 0.82582,-2.41839 1.18759,-4.38246 0.26836,-4.28772 0.0365,-8.59415 -0.0362,-12.88766 -0.066,-4.25606 -0.30293,-8.50975 -0.56598,-12.75651 0,0 -16.16902,3.52862 -16.16902,3.52862 v 0 c 0.31332,4.0549 0.4921,8.11957 0.52546,12.18902 0.031,2.03378 0.0795,4.07056 0.024,6.10448 -0.0187,0.68531 -0.0543,2.1282 -0.24247,2.87759 -0.0442,0.17573 -0.16747,0.31566 -0.25121,0.47348 -0.086,-0.0556 -0.19162,-0.0854 -0.25773,-0.16692 -0.026,-0.0322 -0.49643,-0.92959 -0.4481,-0.95204 3.28239,-1.52494 6.64411,-2.85508 10.04223,-4.04424 0.23113,-0.0809 -0.19009,0.51981 -0.39154,0.66703 -0.28937,0.21143 -0.66421,0.23141 -0.9963,0.34711 -3.68055,0.55589 -7.40287,0.32101 -11.10713,0.49984 -5.94415,0.20315 -11.88864,0.39682 -17.83172,0.63528 -9.32616,0.37266 -18.66505,0.54925 -27.97167,1.33893 -14.81791,1.22049 -29.62346,2.5757 -44.40985,4.19226 -18.43778,1.69529 -36.99919,3.43003 -55.501615,1.95824 -5.502963,-0.72569 -4.752191,-0.49099 -9.525068,-1.54525 -0.633543,-0.13995 -2.818303,-0.56078 -3.593703,-1.13834 -0.856775,-0.63817 -1.085431,-1.65046 -1.480776,-2.61919 -1.485961,-4.947 -2.582858,-10.01087 -3.728994,-15.06061 -1.199538,-5.48802 -2.349828,-10.99058 -3.049814,-16.5854 -0.29486,-2.18104 -0.634943,-4.37145 -0.84527,-6.55982 0,0 -16.528729,4.29899 -16.528729,4.29899 z" />
    <path
       style="stroke-width:1.32292"
       id="path416"
       d="m 97.744717,180.87427 c -0.79144,3.40699 -0.88489,6.95626 -0.90274,10.44079 0.163,5.90984 1.65649,11.65464 3.443893,17.25445 1.57381,4.07716 4.2308,7.51394 8.40347,9.18323 2.86058,1.14438 4.72717,1.07549 7.75669,1.33791 1.48025,-0.027 2.96167,-0.0165 4.44077,-0.081 2.48228,-0.10827 7.41282,-0.53403 9.84435,-0.73952 4.77702,-0.40371 9.55125,-0.8368 14.32507,-1.27634 6.32111,-0.62086 12.65291,-1.13158 18.97304,-1.76145 3.71693,-0.36373 7.40063,-0.96186 11.08647,-1.54975 2.73805,-0.6247 5.48051,-1.22984 8.21755,-1.85991 3.12749,-1.39895 11.29095,-2.41145 14.30203,-6.64616 1.12397,-1.58071 1.6218,-3.35366 2.11467,-5.1959 0.80183,-3.16952 0.76419,-6.46491 0.6894,-9.7101 -0.0254,-2.40715 -0.35651,-4.79878 -0.87299,-7.14611 -0.36373,-1.44994 -0.18746,-0.7459 -0.5289,-2.1121 0,0 -17.43543,5.23903 -17.43543,5.23903 v 0 c 0.29472,1.17695 0.15822,0.60349 0.41171,1.71985 0.33146,1.75123 0.56476,3.51496 0.5531,5.30235 0.0184,1.91539 0.0705,3.92306 -0.95869,5.61783 -0.70639,0.40664 -0.41038,0.007 -0.99027,-0.22741 -0.35979,-0.14532 -0.78523,-0.0426 -1.14304,-0.004 3.41476,-1.27369 6.82952,-2.54739 10.24428,-3.82108 -2.24632,1.23115 -4.70336,1.77858 -7.17246,2.39898 -3.36698,1.07209 -6.88022,1.6436 -10.35782,2.23024 -6.32396,1.04707 -12.70726,1.65745 -19.06336,2.4748 -9.09653,1.07583 -18.20836,1.99785 -27.36019,2.45683 -0.58335,0.0295 -4.14168,0.19909 -5.05114,0.2783 -0.61233,0.0533 -1.47092,0.31862 -2.10852,0.0441 -0.90935,-0.39147 -1.10235,-1.13764 -1.57109,-1.95786 -1.54891,-4.44151 -2.79011,-9.04018 -2.53546,-13.79152 0.15408,-1.53915 0.16388,-2.08424 0.47752,-3.56596 0.0621,-0.2935 0.25941,-1.40413 0.60993,-1.54974 0.21157,-0.0879 0.34356,0.70686 0.27467,0.63005 0,0 -18.116513,-3.61295 -18.116513,-3.61295 z" />
    <path
       style="stroke-width:1.31312"
       id="path418"
       d="m 8.7705073,191.9351 c 0.957456,2.66168 1.4254967,5.48241 2.0076817,8.24621 1.361928,5.92673 2.338391,11.93421 3.231131,17.94913 0.818762,5.46637 1.33012,10.97147 1.742481,16.48253 0.311264,5.10354 0.695899,10.20052 1.229755,15.28508 0.551781,3.53282 0.657131,7.19971 1.655572,10.65178 0.205414,0.71022 0.480247,1.39782 0.720372,2.09672 1.347973,3.09552 3.406373,5.78977 6.368262,7.45323 2.287222,1.28458 3.38143,1.39689 5.917126,2.07095 1.276781,0.19841 2.547317,0.44386 3.830341,0.59518 5.261638,0.62052 10.587982,0.67998 15.877177,0.72964 4.923289,0.0462 8.274174,0.008 13.220319,-0.0212 14.615603,0.0167 29.202809,-0.93898 43.786825,-1.78729 16.69527,-1.10894 33.42105,-1.52871 50.14543,-1.85205 14.39391,-0.15759 28.78489,-0.47623 43.17573,-0.80574 9.84158,-0.2222 19.67959,-0.58626 29.51614,-0.97078 6.86417,-0.30634 13.72156,-0.72872 20.58899,-0.95716 5.16813,-0.16531 10.33951,-0.20005 15.50691,-0.38647 1.81241,-0.0937 3.62793,-0.18495 5.43006,-0.41294 0.57529,-0.0728 1.17571,-0.056 1.72081,-0.25643 4.11098,-1.51167 8.20602,-3.08264 12.20989,-4.86609 0.50965,-0.22704 0.83091,-0.75186 1.24637,-1.12778 1.22614,-1.47585 2.51936,-2.95855 3.44356,-4.66093 0.53217,-0.98028 0.69115,-1.52178 1.0816,-2.56993 0.75742,-2.57349 1.08524,-5.21727 1.06603,-7.89542 -0.048,-3.1692 -1.10234,-6.13599 -2.15928,-9.07503 -1.24835,-3.31584 -2.50849,-6.62243 -3.66195,-9.97367 -1.20816,-3.28599 -1.80352,-6.72122 -2.13746,-10.19698 -0.17142,-3.51638 -0.10844,-7.04632 0.0193,-10.5639 0.0998,-3.48451 0.48241,-6.9518 0.80951,-10.41971 0.0476,-0.50993 0.0952,-1.01987 0.14272,-1.52981 0,0 -17.6553,1.99383 -17.6553,1.99383 v 0 c -0.0365,0.50211 -0.073,1.00423 -0.10954,1.50634 -0.27673,3.65385 -0.60492,7.30651 -0.67011,10.97279 -0.0838,3.97 -0.14619,7.95427 0.24632,11.91089 0.50401,4.1888 1.29889,8.32735 2.72265,12.30626 1.14343,3.38123 2.35539,6.73347 3.60635,10.07523 0.60693,1.79523 1.2368,3.6062 1.05889,5.5369 -0.1301,1.18011 -0.28841,2.5246 -1.11935,3.42437 -0.86267,0.8668 -1.83849,1.82851 -3.09237,1.96392 -4.1375,0.50269 -2.75187,0.39516 9.22152,-3.73569 0.33025,-0.11393 -0.51591,0.48283 -0.81221,0.66962 -1.23563,0.77888 -2.71633,1.02317 -4.11754,1.279 -5.07805,0.71054 -10.19853,0.76205 -15.31375,0.98494 -6.95066,0.27913 -13.90773,0.46241 -20.84272,1.04404 -9.90244,0.71919 -19.81656,1.28725 -29.73179,1.78679 -14.46001,0.58314 -28.9246,1.05865 -43.39326,1.35628 -16.77878,0.38761 -33.56145,0.76054 -50.32457,1.62086 -14.39999,0.69035 -28.798503,1.56808 -43.218314,1.66622 -10.208305,0.008 -20.466924,0.0358 -30.614692,-1.23042 -0.755348,-0.10769 -1.509278,-0.22617 -2.266046,-0.32303 -1.743319,-0.2231 -3.032364,0.12168 -4.066486,-1.50638 -1.303698,-3.26194 -1.395931,-6.91454 -1.962369,-10.35042 -0.513422,-5.00539 -0.876723,-10.02386 -1.264267,-15.04058 -0.489761,-5.74674 -1.056822,-11.4913 -1.996363,-17.18324 -1.004035,-6.09916 -2.06746,-12.18803 -3.086009,-18.28469 -0.508506,-3.10763 -1.044292,-6.21054 -1.618214,-9.30648 0,0 -17.3117387,5.63135 -17.3117387,5.63135 z" />
    <path
       style="stroke-width:0.987463"
       id="path434"
       d="m 4.5695993,159.22227 c 0.07586,0.66456 0.06675,1.33207 0.07759,1.99809 0.02568,1.09325 0.03138,2.18655 0.05635,3.27979 0.145076,1.79296 0.23732,3.58667 0.459643,5.37655 0.188354,1.87094 0.488961,3.72612 1.287234,5.5315 1.037005,2.03243 3.256257,3.62054 6.2412977,4.54665 0.6635,0.20585 1.369314,0.34919 2.05397,0.52378 5.519601,1.09204 11.353222,1.08515 17.070807,1.04671 8.538948,-0.16788 17.056814,-0.62011 25.57369,-1.03146 10.388078,-0.51145 20.796345,-0.80777 31.201094,-1.13184 10.462104,-0.31256 20.894595,-0.91752 31.331115,-1.46644 10.51794,-0.59233 21.07458,-0.76605 31.62506,-0.91417 9.40364,-0.13338 18.81011,-0.1247 28.21519,-0.0825 7.0966,0.047 14.19378,0.0708 21.29077,0.0678 5.9139,-0.008 11.81749,-0.22281 17.70638,-0.55797 5.74612,-0.34182 11.49281,-0.6765 17.23685,-1.03278 4.83366,-0.29367 9.68243,-0.46091 14.52396,-0.6906 3.8926,-0.14284 7.77722,-0.34973 11.65849,-0.58579 2.95639,-0.14585 5.91545,-0.28311 8.86771,-0.45944 0.86766,-0.082 1.78317,-0.0916 2.63113,-0.25511 0.6883,-0.13272 0.40707,-0.25508 1.21777,-0.29249 0.78364,0.04 1.48309,0.28591 2.25584,0.28845 0.62981,0.46509 0.87177,1.14803 1.10767,1.73576 0.31856,1.01325 0.35352,2.05792 0.42644,3.08877 -0.0316,0.59756 -0.015,0.29759 -0.0499,0.89992 0,0 16.73714,-1.7093 16.73714,-1.7093 v 0 c -0.0354,-0.80691 -0.008,-0.39027 -0.0872,-1.24984 -0.16122,-1.44164 -0.31279,-2.89448 -0.87029,-4.29978 -0.63579,-1.46139 -1.48742,-2.88561 -2.78504,-4.16093 -0.76843,-0.6532 -0.94824,-0.87019 -1.8865,-1.41879 -1.12487,-0.6577 -2.52006,-1.06846 -3.86849,-1.49302 -0.63895,-0.18282 -1.90849,-0.55775 -2.54318,-0.68681 -1.46202,-0.29729 -2.9968,-0.23102 -4.48537,-0.0697 -2.86596,0.28881 -5.74466,0.48882 -8.62852,0.69629 -3.88165,0.17241 -7.74082,0.48459 -11.61909,0.68419 -4.92256,0.20714 -9.82769,0.55053 -14.75469,0.71903 -5.76406,0.30841 -11.49689,0.80145 -17.26335,1.09483 -5.73372,0.31621 -11.46424,0.66523 -17.21654,0.81359 -7.10807,0.15348 -14.22281,0.0502 -21.33325,0.1465 -9.51283,0.0587 -19.02715,0.0635 -28.53826,0.20284 -10.68127,0.15702 -21.37376,0.26889 -32.03411,0.75083 -10.37695,0.50914 -20.73231,1.20501 -31.128715,1.54065 -10.416461,0.36646 -20.840138,0.6455 -31.255946,1.02192 -8.312983,0.31526 -16.620594,0.69406 -24.942129,0.90811 -4.83945,0.0639 -9.697954,0.1151 -14.513562,-0.25907 -0.372666,-0.0363 -1.572236,-0.16758 -2.061001,-0.1732 -0.279109,-0.003 -0.826593,0.16518 -0.853493,0.14703 -0.110765,-0.0748 -0.145139,-0.18449 -0.217709,-0.27674 -0.673174,-1.36879 -0.696986,-2.83384 -0.91962,-4.25174 -0.146846,-1.66035 -0.199915,-3.32416 -0.191348,-4.98713 0.02494,-1.09709 0.0307,-2.19424 0.05635,-3.29132 0.01088,-0.67131 0.0022,-1.34407 0.07759,-2.01396 0,0 -16.9398237,1.73242 -16.9398247,1.73242 z" />
  </g>
</svg>
