<?xml version="1.0" encoding="UTF-8" standalone="no"?>
<svg
   xmlns:dc="http://purl.org/dc/elements/1.1/"
   xmlns:cc="http://creativecommons.org/ns#"
   xmlns:rdf="http://www.w3.org/1999/02/22-rdf-syntax-ns#"
   xmlns:svg="http://www.w3.org/2000/svg"
   xmlns="http://www.w3.org/2000/svg"
   xmlns:sodipodi="http://sodipodi.sourceforge.net/DTD/sodipodi-0.dtd"
   xmlns:inkscape="http://www.inkscape.org/namespaces/inkscape"
   width="300mm"
   height="300mm"
   viewBox="0 0 300 300"
   version="1.1"
   id="svg42"
   inkscape:version="1.0.1 (3bc2e813f5, 2020-09-07)"
   sodipodi:docname="NOUN_Death.svg">
  <defs
     id="defs36" />
  <sodipodi:namedview
     id="base"
     pagecolor="#ffffff"
     bordercolor="#666666"
     borderopacity="1.0"
     inkscape:pageopacity="0.0"
     inkscape:pageshadow="2"
     inkscape:zoom="0.35"
     inkscape:cx="400"
     inkscape:cy="560"
     inkscape:document-units="mm"
     inkscape:current-layer="layer1"
     inkscape:document-rotation="0"
     showgrid="false"
     inkscape:window-width="1267"
     inkscape:window-height="1040"
     inkscape:window-x="514"
     inkscape:window-y="86"
     inkscape:window-maximized="0" />
  <metadata
     id="metadata39">
    <rdf:RDF>
      <cc:Work
         rdf:about="">
        <dc:format>image/svg+xml</dc:format>
        <dc:type
           rdf:resource="http://purl.org/dc/dcmitype/StillImage" />
        <dc:title></dc:title>
      </cc:Work>
    </rdf:RDF>
  </metadata>
  <g
     inkscape:label="Layer 1"
     inkscape:groupmode="layer"
     id="layer1">
    <path
       style="stroke-width:1.32292"
       id="path153"
       d="m 34.148088,47.578689 c 0.373829,4.963335 0.877173,9.916891 1.325054,14.874441 1.156388,15.091571 3.033075,30.101042 5.33282,45.0566 2.404248,15.51757 5.46594,30.91683 9.211101,46.16388 2.247945,8.8838 4.879157,17.71502 8.68132,26.07445 2.428698,5.33974 3.168288,6.27749 6.151491,11.31009 5.699078,9.02981 12.600215,17.18366 19.791394,25.04156 3.748739,4.13497 7.3073,7.9664 12.65632,10.02421 5.097372,1.96099 8.810752,2.38364 14.266302,3.42856 17.17782,2.28402 34.5582,3.04357 51.874,2.57644 5.93129,-0.48265 12.05571,-0.72642 17.81552,-2.40875 5.72367,-1.67178 23.73614,-5.78824 33.09228,-11.00337 1.53833,-0.85747 2.96861,-1.89583 4.45291,-2.84375 8.11001,-6.36461 14.58698,-14.6068 20.04699,-23.30263 1.23493,-1.9668 2.35591,-4.00289 3.53386,-6.00433 6.95586,-12.91457 12.10921,-26.67717 16.83466,-40.53092 4.12821,-12.75462 7.18537,-25.83129 9.95265,-38.93929 2.18837,-11.134618 3.79756,-22.37308 5.41121,-33.602344 1.02401,-6.381069 1.74109,-12.788629 2.18961,-19.232951 0,0 -24.52576,6.550142 -24.52576,6.550142 v 0 c -0.32592,6.334394 -0.99392,12.63596 -1.74646,18.933379 -1.33296,11.152542 -2.86769,22.287544 -5.02102,33.315224 -2.6522,13.01692 -5.66065,25.97935 -9.83417,38.60488 -4.61723,13.74407 -9.63473,27.43284 -16.9398,40.01776 -1.2102,1.95965 -2.36365,3.9555 -3.6306,5.87894 -5.611,8.51848 -12.25566,16.54222 -20.71013,22.36031 -1.50827,0.85399 -2.97102,1.79392 -4.52481,2.56197 -5.90308,2.91793 -23.83753,8.38546 13.6681,-3.4155 1.78682,-0.56222 -3.62051,0.97114 -5.45502,1.34982 -5.26667,1.08716 -7.23398,1.14431 -12.67792,1.70532 -2.46182,0.12542 -4.92147,0.30507 -7.38544,0.37625 -14.75454,0.42624 -29.80605,-0.37448 -44.42357,-2.36682 -5.22738,-1.06568 -8.2133,-1.42631 -13.05709,-3.24153 -4.98126,-1.86675 -8.66492,-5.43268 -12.27566,-9.20431 -7.35231,-7.57261 -14.43486,-15.45807 -20.208921,-24.32992 -1.077571,-1.78703 -2.220184,-3.53642 -3.23271,-5.3611 -5.422273,-9.7715 -8.862431,-20.48014 -11.73548,-31.23099 -3.81526,-15.14529 -6.958671,-30.45388 -9.366099,-45.88855 -2.273269,-14.939136 -4.073959,-29.954902 -4.363977,-45.082776 -0.08219,-5.059299 -0.192204,-10.128166 0.268965,-15.174516 0,0 -25.44192,6.960121 -25.44192,6.960121 z" />
    <path
       style="stroke-width:1.32292"
       id="path155"
       d="m 159.19297,62.891254 c -0.1147,0.2272 -0.20329,0.46959 -0.3441,0.681601 -0.2894,0.435734 -1.8772,2.342586 -2.00429,2.50113 -2.26553,2.826205 -4.53494,5.647206 -6.82192,8.456446 -5.77678,6.963962 -11.73064,13.781243 -17.35316,20.87164 -4.06378,4.961849 -7.43121,10.413489 -10.61109,15.966019 -1.31025,2.85784 -4.10849,6.4813 -4.18143,9.74734 -0.0116,0.52163 0.15489,1.03196 0.23234,1.54793 0.40003,0.54592 0.63756,1.26142 1.20008,1.63774 2.46716,1.65048 8.38324,0.90485 11.09588,0.77888 3.55555,-0.16511 7.10981,-0.35675 10.66495,-0.53031 8.40165,-0.3076 16.785,-0.93227 25.16554,-1.58106 4.80091,-0.31645 9.5875,-0.79939 14.37936,-1.22225 3.24371,-0.21084 5.18268,-0.31886 7.71645,1.86851 2.49348,2.63256 3.09033,6.00894 3.38498,9.48375 0.0849,6.33052 -2.99628,11.8469 -6.17272,17.10289 -4.80359,7.6501 -10.77583,14.43819 -16.76758,21.16037 -5.0807,5.517 -10.27299,10.93218 -15.50439,16.30626 -3.25135,3.44054 -6.74627,6.63714 -10.00119,10.0729 -0.4195,0.42619 -0.839,0.85239 -1.25851,1.27858 0,0 25.41889,-4.89975 25.41889,-4.89975 v 0 c 0.40131,-0.42691 0.80261,-0.85382 1.20391,-1.28072 3.21066,-3.3489 6.54284,-6.58076 9.6683,-10.01172 5.02808,-5.41985 10.09691,-10.80301 15.02967,-16.31023 5.99797,-6.88022 11.93208,-13.85655 16.76356,-21.62981 3.48581,-5.89045 6.57266,-11.74304 6.39232,-18.78591 -0.33701,-4.16982 -1.07382,-7.90531 -3.70445,-11.29053 -2.74448,-3.07675 -4.50457,-3.92018 -8.70358,-3.88908 -4.94163,0.36664 -9.85278,1.07922 -14.79892,1.40836 -8.56065,0.76934 -17.12146,1.58408 -25.71266,1.93025 -4.6251,0.21923 -5.84171,0.2912 -10.42516,0.45291 -2.5398,0.0896 -5.0868,0.0311 -7.62085,0.22393 -1.1429,0.087 -1.46429,0.20529 -2.34027,0.45956 -0.41157,-2.65077 2.78398,-7.12265 3.83846,-9.48284 3.09166,-5.41869 6.49223,-10.648717 10.38271,-15.534801 5.52463,-7.0705 11.2387,-13.992788 17.14962,-20.744283 2.46971,-2.831303 3.16963,-3.659129 5.59127,-6.345068 1.384,-1.535043 2.83317,-3.397699 4.47233,-4.699791 0.16434,-0.130548 0.37742,-0.183721 0.56613,-0.275582 0,0 -25.99048,4.576739 -25.99048,4.576739 z" />
    <path
       style="stroke-width:1.32292"
       id="path163"
       d="m 115.9894,37.177212 c 2.30601,-0.11304 4.61494,0.07475 6.91989,0.165119 4.27768,0.112535 8.54725,0.383519 12.81622,0.668221 9.5992,0.742545 19.1734,1.770758 28.7513,2.742941 6.23999,0.702526 12.50643,1.142245 18.78499,1.237487 0,0 23.37735,-10.585084 23.37735,-10.585084 v 0 c -6.41549,0.231156 -12.84356,-0.196575 -19.23358,-0.747435 -9.50946,-0.824833 -19.01719,-1.688491 -28.49023,-2.870398 -4.08967,-0.466413 -8.18205,-1.00126 -12.30441,-1.033368 -2.19741,-0.09 -4.39862,-0.18035 -6.58164,-0.431908 0,0 -24.03989,10.854425 -24.03989,10.854425 z" />
  </g>
</svg>
