<?xml version="1.0" encoding="UTF-8" standalone="no"?>
<svg
   xmlns:dc="http://purl.org/dc/elements/1.1/"
   xmlns:cc="http://creativecommons.org/ns#"
   xmlns:rdf="http://www.w3.org/1999/02/22-rdf-syntax-ns#"
   xmlns:svg="http://www.w3.org/2000/svg"
   xmlns="http://www.w3.org/2000/svg"
   xmlns:sodipodi="http://sodipodi.sourceforge.net/DTD/sodipodi-0.dtd"
   xmlns:inkscape="http://www.inkscape.org/namespaces/inkscape"
   height="482.88147"
   width="515.17889"
   sodipodi:docname="NOUN_Stop.svg"
   version="1.1"
   id="svg19"
   viewBox="0 0 515.17889 482.88147"
   inkscape:version="1.0.1 (3bc2e813f5, 2020-09-07)"
   inkscape:export-filename="C:\Users\metro\OneDrive\Desktop\attris-glyphs\NOUN_Light.png"
   inkscape:export-xdpi="96"
   inkscape:export-ydpi="96">
  <sodipodi:namedview
     id="base"
     pagecolor="#ffffff"
     bordercolor="#666666"
     borderopacity="1.0"
     inkscape:pageopacity="0.0"
     inkscape:pageshadow="2"
     inkscape:zoom="1"
     inkscape:cx="241.69819"
     inkscape:cy="210.02239"
     inkscape:document-units="px"
     inkscape:current-layer="layer13"
     showgrid="false"
     showguides="true"
     inkscape:window-width="1662"
     inkscape:window-height="1017"
     inkscape:window-x="0"
     inkscape:window-y="0"
     inkscape:window-maximized="0"
     showborder="true"
     inkscape:showpageshadow="false"
     inkscape:document-rotation="0">
    <sodipodi:guide
       id="guide_baseline"
       inkscape:label="baseline"
       position="-227.41054,-2.7343759e-07"
       orientation="0,1" />
    <sodipodi:guide
       id="guide_ascender"
       inkscape:label="ascender"
       position="-227.41054,692"
       orientation="0,1" />
    <sodipodi:guide
       id="guide_caps"
       inkscape:label="caps"
       position="-227.41054,643"
       orientation="0,1" />
    <sodipodi:guide
       id="guide_xheight"
       inkscape:label="xheight"
       position="-227.41054,476"
       orientation="0,1" />
    <sodipodi:guide
       id="guide_descender"
       inkscape:label="descender"
       position="-227.41054,-225"
       orientation="0,1" />
  </sodipodi:namedview>
  <defs
     id="defs4" />
  <metadata
     id="metadata7">
    <rdf:RDF>
      <cc:Work
         rdf:about="">
        <dc:format>image/svg+xml</dc:format>
        <dc:type
           rdf:resource="http://purl.org/dc/dcmitype/StillImage" />
        <dc:title />
      </cc:Work>
    </rdf:RDF>
  </metadata>
  <g
     inkscape:groupmode="layer"
     id="layer13"
     inkscape:label="NOUN_Stop"
     style="display:inline"
     sodipodi:insensitive="true"
     transform="translate(-227.41054,-264.11853)">
    <path
       id="path1050-9"
       style="display:inline;stroke-width:5;stroke-miterlimit:4;stroke-dasharray:none"
       d="m 275.2651,738.84423 c 4.71223,-0.67929 9.36316,-1.64508 14.01441,-2.64658 4.90558,-1.15117 9.94541,-1.32512 14.95983,-1.44086 5.3132,-0.0371 10.62579,-0.1185 15.93899,-0.0898 11.9474,0.36498 23.87019,1.32821 35.77752,2.34334 5.88921,0.39564 11.66945,1.63726 17.53609,2.20893 5.10875,0.27127 10.23103,0.033 15.30524,-0.58033 3.92225,-0.43906 7.76641,-1.28788 11.5238,-2.47566 3.06004,-1.49885 6.27515,-2.66988 9.54211,-3.6293 0,0 23.57433,-18.17954 23.57433,-18.17954 v 0 c -3.3129,0.97447 -6.64174,1.95359 -9.82519,3.2978 -3.32091,2.0848 -7.42324,2.64387 -11.20993,3.34138 -4.92804,0.75628 -9.89722,1.05807 -14.88391,1.0799 -6.00336,-0.43609 -11.92147,-1.59377 -17.93488,-1.93592 -11.91039,-0.93969 -23.85206,-1.48029 -35.75402,-2.54948 -5.25255,-0.28069 -10.50808,-0.38555 -15.76756,-0.22377 -5.08614,0.11778 -10.22546,0.0354 -15.24486,0.96519 -4.54411,0.95888 -9.02714,2.20878 -13.66591,2.63714 0,0 -23.88606,17.87751 -23.88606,17.87751 z m 81.26636,-180.83627 c -6.69661,4.6223 -13.00618,9.76686 -19.44362,14.7371 -9.17991,6.81036 -17.59361,14.55775 -25.80283,22.48907 -6.30847,6.17927 -13.1516,11.77166 -19.41841,17.99205 -2.94391,2.56192 -4.31944,6.20426 -6.37688,9.37407 -1.99431,1.72311 -3.19291,4.16114 -4.56789,6.37475 -1.34266,3.11226 -3.11507,6.00496 -4.47069,9.10736 -1.3892,3.31124 -0.36039,5.78085 3.20763,7.05838 1.09042,0.39042 2.25554,0.52758 3.38331,0.79137 9.12003,1.32865 18.38206,0.73456 27.54572,0.32681 9.59972,-0.42715 12.64229,-0.63218 22.15508,-1.17871 15.28803,-0.68091 30.40991,-2.966 45.55281,-5.01361 5.17454,-0.64348 10.33892,-1.50429 15.55531,-1.75649 0.72458,-0.035 1.4509,-0.0195 2.17625,-0.009 0.24019,0.004 0.82914,0.26455 0.71884,0.0512 -0.23266,-0.45013 -0.7898,-0.63498 -1.18471,-0.95248 -0.57042,0.20788 -1.19498,0.30421 -1.71127,0.62364 -1.00641,0.62266 -1.86401,1.45886 -2.80809,2.17248 -1.39884,1.05739 -2.80699,2.10249 -4.2204,3.14033 -5.58237,4.09905 -11.26218,8.02474 -17.01349,11.8818 -10.82301,7.47123 -21.49145,15.19525 -31.78358,23.38433 -7.76228,6.41315 -15.70456,12.649 -23.06034,19.53396 -3.71372,3.82576 -7.59199,7.49398 -11.31318,11.30681 -2.10429,2.45522 -3.68857,5.31436 -5.00546,8.25558 -0.66146,1.41601 -1.57155,2.68106 -2.3547,4.0302 0,0 27.12833,-12.0592 27.12833,-12.0592 v 0 c 0.8138,-1.37929 1.61199,-2.76756 2.28122,-4.22488 1.45499,-2.65764 3.07533,-5.23478 5.29324,-7.33291 3.73094,-3.66433 7.26796,-7.52294 11.10047,-11.08457 7.3157,-6.64105 14.91725,-12.96228 22.64355,-19.11873 10.33575,-8.02651 20.88752,-15.78279 31.71454,-23.13569 5.813,-3.9623 11.60195,-7.95317 17.26236,-12.13262 0.91541,-0.67591 6.31859,-4.62861 7.45764,-5.98766 0.56913,-0.67905 0.79353,-1.58443 1.19029,-2.37665 -0.30919,-0.85245 -0.39274,-1.82507 -0.92758,-2.55734 -0.80922,-1.10794 -3.14234,-0.84534 -4.06334,-0.79781 -5.4615,0.28188 -10.85162,1.39029 -16.26143,2.09454 -15.27248,2.08467 -30.55218,4.21372 -45.91246,5.54183 -10.49892,0.66861 -20.96971,1.19951 -31.49223,1.28834 -3.78549,0.032 -8.50621,0.0297 -12.37345,-0.2494 -1.39956,-0.10101 -2.78981,-0.30467 -4.18471,-0.457 -0.96112,-0.15633 -1.92358,-0.30466 -2.88337,-0.46899 -0.48653,-0.0833 -0.96748,-0.19849 -1.4553,-0.27388 -0.10166,-0.0157 -0.26976,0.0965 -0.30859,10e-4 -0.18287,-0.44863 0.9211,-2.2642 0.97839,-2.63037 1.472,-2.94427 2.90837,-5.92227 4.62026,-8.73458 1.48183,-2.22116 3.11323,-4.31587 4.58174,-6.53162 1.64632,-3.18425 3.76828,-6.05166 6.38605,-8.51749 6.19552,-6.05453 12.76789,-11.70736 18.96387,-17.76285 8.23966,-7.8487 16.73173,-15.4365 25.90546,-22.19246 6.64998,-5.10837 13.21013,-10.38469 20.36047,-14.78995 0,0 -27.76483,10.76957 -27.76483,10.76957 z m 359.02106,175.12831 c 0.88033,-7.52898 0.94717,-15.13076 1.04512,-22.70214 0.007,-9.60507 0.0713,-19.20954 0.15886,-28.8142 -0.0177,-13.74144 -1.17331,-27.44366 -2.14888,-41.14045 -1.23118,-13.05702 -1.40986,-26.18113 -2.06519,-39.27366 -0.77476,-14.49883 -2.27296,-28.93983 -3.52316,-43.40096 -0.66891,-6.33559 -1.30106,-12.6744 -1.96933,-19.01005 -0.27527,-2.60984 -0.82088,-8.55427 -1.34934,-11.29938 -0.26429,-1.37286 -0.71242,-2.70385 -1.06863,-4.05577 -0.59662,-0.89652 -0.94533,-2.02138 -1.78987,-2.68955 -0.85288,-0.67476 -3.95266,-1.7585 -3.05547,-1.14388 6.84832,4.69137 14.79394,7.88273 20.97737,13.42112 1.57038,1.40656 -4.20978,-0.27281 -6.31789,-0.2909 -3.94688,-0.0339 -15.25302,0.3921 -18.7007,0.5074 -24.68063,0.86228 -49.36795,1.5302 -74.04776,2.4126 -25.65444,0.99689 -51.32059,1.65199 -76.98814,2.19479 -21.29718,0.46 -42.60215,0.60668 -63.89094,1.40619 -11.46171,0.43045 -20.39622,0.91724 -31.85898,1.4944 -22.76315,1.00047 -45.46533,3.09502 -68.21994,4.20813 -14.03597,0.46926 -28.08075,0.5115 -42.11849,0.13867 -9.66522,-0.13127 -19.31943,-0.3901 -28.97512,-0.82629 -6.23663,-0.31645 -12.47508,-0.51589 -18.7195,-0.55094 -3.65074,-0.12049 -7.31661,0.19238 -10.96054,-0.0927 -11.75307,-1.08022 -27.28907,-6.14854 -30.70258,-18.04879 -1.72139,-5.69691 -3.61747,-11.33827 -5.09222,-17.1079 -1.35391,-5.34198 -2.03937,-10.77655 -2.4399,-16.26084 -0.36355,-6.06281 -0.20249,-12.13032 0.1043,-18.18984 0.44543,-6.41692 1.72148,-12.72273 2.77868,-19.0562 1.12067,-6.17067 1.31802,-12.44252 1.91479,-18.66849 0.5606,-5.07336 0.76165,-10.17284 0.9032,-15.27171 -0.11451,-6.70675 -1.18522,-13.34449 -1.93051,-19.99858 -0.37426,-5.4742 -1.32223,-10.88538 -1.82099,-16.34669 -0.7915,-8.81228 -2.54871,-17.49189 -4.34979,-26.14166 -2.09514,-9.00244 -4.46257,-17.93817 -6.37319,-26.98276 -1.43658,-7.35922 -2.0067,-14.84912 -2.73153,-22.30406 -1.00613,-7.8088 -1.9775,-15.61578 -2.48093,-23.47455 -0.31093,-5.10241 -0.29333,-10.21895 -0.28879,-15.32896 -0.005,-2.10978 -0.0261,-4.21946 -0.046,-6.32914 0,0 26.40653,13.46201 26.40653,13.46201 v 0 c -0.029,2.08728 -0.0594,4.1746 -0.0634,6.26213 0.017,5.04441 0.0343,10.08991 0.27837,15.12978 0.43349,7.75115 1.26236,15.46916 2.18001,23.17673 0.84785,7.44282 1.79143,14.87837 3.22725,22.23451 1.75634,8.92951 3.63381,17.83111 5.77816,26.67753 1.87599,8.89603 3.95676,17.78556 4.97617,26.83122 0.47057,5.39139 1.08893,10.76797 1.59116,16.15641 0.76948,6.78691 1.81457,13.57029 1.86249,20.41372 -0.10823,5.1666 -0.37618,10.32703 -0.97392,15.46297 -0.56768,6.26661 -1.13316,12.53208 -2.18391,18.74266 -0.94915,6.25903 -2.09867,12.49858 -2.54757,18.82036 -0.29717,5.97019 -0.26022,11.94528 0.17574,17.90996 0.44007,5.31476 1.27621,10.56995 2.58047,15.74633 1.51385,5.66405 3.2221,11.32548 5.63413,16.67716 7.08423,8.28494 0.66803,0.5556 -23.83625,-13.35911 -0.24328,-0.13815 0.31135,0.47793 0.53363,0.64783 0.88879,0.67935 2.08039,0.43583 3.09375,0.72615 0.30236,0.0546 2.37609,0.43491 2.62631,0.45499 2.77302,0.22252 5.5916,-0.11096 8.36713,0.09 6.32194,0.10524 12.6495,0.10494 18.95831,0.5743 9.76075,0.58942 19.52679,1.01231 29.30543,1.16479 14.05208,0.35676 28.10052,0.80689 42.15473,0.12272 23.21218,-0.74244 46.41571,-1.72162 69.59535,-3.18107 15.90629,-0.83245 31.81372,-1.67558 47.73753,-2.10511 12.19959,-0.32907 19.38459,-0.29252 31.60746,-0.50629 5.47797,-0.0958 10.95507,-0.23635 16.43261,-0.35453 25.46101,-0.76525 50.90146,-2.05215 76.36892,-2.61635 24.57706,-0.75263 49.15965,-1.39791 73.71985,-2.60941 6.05781,-0.34085 12.11304,-0.72761 18.1719,-1.04926 2.09265,-0.11109 4.33648,-1.06303 6.28052,-0.28059 10.24856,4.12486 19.94546,9.52543 29.67779,14.75315 1.03389,0.55536 1.82651,1.52888 2.46605,2.51293 0.64645,0.99468 0.87739,2.20439 1.31608,3.30659 2.07392,11.39595 2.37565,23.05734 3.83916,34.53995 1.09031,14.44308 2.47513,28.86358 3.20678,43.33296 0.7238,13.14534 1.49459,26.28685 2.40818,39.42053 0.68493,13.78204 1.82376,27.54203 2.15166,41.33884 0.0786,9.63277 0.14605,19.26602 -0.0794,28.89765 -0.11161,7.78564 -0.0764,15.57914 -0.49063,23.35633 0,0 -26.39258,-13.86376 -26.39258,-13.86376 z" />
  </g>
</svg>
