<?xml version="1.0" encoding="UTF-8" standalone="no"?>
<svg
   xmlns:dc="http://purl.org/dc/elements/1.1/"
   xmlns:cc="http://creativecommons.org/ns#"
   xmlns:rdf="http://www.w3.org/1999/02/22-rdf-syntax-ns#"
   xmlns:svg="http://www.w3.org/2000/svg"
   xmlns="http://www.w3.org/2000/svg"
   xmlns:sodipodi="http://sodipodi.sourceforge.net/DTD/sodipodi-0.dtd"
   xmlns:inkscape="http://www.inkscape.org/namespaces/inkscape"
   height="643"
   width="237.2382"
   version="1.1"
   id="svg19"
   viewBox="0 0 237.2382 643"
   sodipodi:docname="NOUN_Down.svg"
   inkscape:version="1.0.1 (3bc2e813f5, 2020-09-07)">
  <metadata
     id="metadata8">
    <rdf:RDF>
      <cc:Work
         rdf:about="">
        <dc:format>image/svg+xml</dc:format>
        <dc:type
           rdf:resource="http://purl.org/dc/dcmitype/StillImage" />
      </cc:Work>
    </rdf:RDF>
  </metadata>
  <defs
     id="defs6" />
  <sodipodi:namedview
     pagecolor="#ffffff"
     bordercolor="#666666"
     borderopacity="1"
     objecttolerance="10"
     gridtolerance="10"
     guidetolerance="10"
     inkscape:pageopacity="0"
     inkscape:pageshadow="2"
     inkscape:window-width="830"
     inkscape:window-height="480"
     id="namedview4"
     showgrid="false"
     inkscape:zoom="1.3219285"
     inkscape:cx="-250.7618"
     inkscape:cy="217.5"
     inkscape:window-x="0"
     inkscape:window-y="0"
     inkscape:window-maximized="0"
     inkscape:current-layer="svg19" />
  <path
     style="stroke-width:6.00236;stroke-miterlimit:4;stroke-dasharray:none"
     id="path1010-1"
     d="m 27.093748,19.80494 c -1.65629,13.16466 -1.44305,26.55469 -1.08567,39.85776 1.39412,20.92104 2.26012,41.90066 3.39246,62.85069 0.86908,21.23754 1.93155,42.44266 3.13057,63.64692 1.4527,24.42086 3.6033,48.75288 5.82985,73.04994 2.08992,19.6688 3.44701,39.46374 5.13629,59.20663 1.85945,22.47042 5.93607,44.3553 9.51499,66.33782 4.31117,23.72711 7.51868,47.81728 11.28982,71.72313 2.5418,14.28142 4.76255,28.686 7.57713,42.86455 1.91945,9.66925 2.81767,13.45615 4.95171,23.0693 4.08897,18.29593 8.74585,36.37516 15.11305,53.29214 3.44758,8.56844 7.41188,16.95674 12.273002,24.02049 0.98182,1.4267 2.04149,2.73758 3.06224,4.10636 1.08273,1.31424 2.14564,2.66318 3.2482,3.94274 1.17435,1.36288 5.05709,5.61096 6.36467,6.8271 1.08691,1.01091 4.4798,3.73182 3.36404,2.78847 -22.213702,-18.78112 -28.864162,-23.43915 -17.33374,-15.09337 7.43801,5.07424 15.30237,8.70036 23.19851,11.96389 1.95593,0.80839 3.90401,1.67158 5.8893,2.31439 1.96002,0.63465 3.95626,1.00933 5.93439,1.51398 2.61348,-0.0198 5.23463,0.22947 7.84046,-0.0592 6.86059,-0.76022 14.37367,-3.02826 21.02576,-5.26014 9.09967,-3.05312 17.93854,-6.98547 26.75383,-11.3957 5.56033,-3.48012 12.61607,-6.00001 17.22673,-12.05009 0.13053,-0.28282 0.37687,-0.50943 0.39159,-0.84843 0.0175,-0.40281 -0.23095,-0.73885 -0.30578,-1.12777 -0.26189,-1.36117 -0.51142,-2.72944 -0.70289,-4.11476 -0.40385,-2.92201 -0.75632,-5.85894 -1.08221,-8.8011 -1.271,-11.47471 -2.2462,-22.40605 -3.33951,-33.9781 -2.94854,-34.09761 -6.03361,-68.1723 -8.79906,-102.30223 -0.38082,-6.98193 -1.39088,-14.01616 -0.96445,-21.05136 0.19201,-3.16763 0.77161,-7.33778 1.15961,-10.42441 1.07489,-7.3627 0.55006,-3.72694 1.57535,-10.90701 0,0 25.79975,19.92168 25.79975,19.92168 v 0 c -1.04751,7.08717 -0.53976,3.50691 -1.5211,10.74141 -0.40613,3.97087 -0.69511,6.04664 -0.81998,9.97981 -0.21367,6.72982 0.38865,13.47988 0.48244,20.19871 1.5075,33.85898 3.84388,67.66419 7.61944,101.16506 2.13171,17.1307 2.19921,19.03806 4.70245,34.68167 0.49238,3.07708 1.12387,6.10574 1.61312,9.18386 0.59203,3.72474 1.28765,7.10029 -0.54159,10.24396 -5.22,6.79432 -12.48785,9.15531 -18.91587,12.55338 -9.0933,4.13965 -18.22531,7.85624 -27.48476,11.16307 -6.59192,2.35417 -13.99667,4.99224 -20.76416,6.38429 -2.61735,0.53838 -5.26684,0.67702 -7.90026,1.01553 -2.04749,-0.3825 -4.11792,-0.56422 -6.14248,-1.14753 -2.03853,-0.58735 -4.01634,-1.54987 -6.01849,-2.35631 -7.82462,-3.1516 -15.665,-6.42005 -23.1499,-11.01951 -16.10919,-10.94922 -32.213132,-23.19848 -45.370972,-40.68649 -5.9153,-8.69922 -11.06206,-18.41286 -14.89048,-29.31955 -5.84563,-17.16555 -10.14983,-35.3077 -14.2339,-53.47368 -4.82073,-21.85596 -9.09763,-43.93453 -12.52573,-66.33892 -3.60817,-23.89627 -6.8066,-47.92979 -11.17922,-71.57283 -3.75244,-22.12412 -7.77574,-44.20387 -9.5896,-66.8869 -1.77905,-19.67516 -3.36818,-39.38265 -4.97976,-59.08755 -2.11308,-24.36131 -4.3727802,-48.71337 -5.7431802,-73.19071 -1.26668,-21.30219 -2.66812,-42.59075 -3.44887,-63.94611 -0.8557,-21.01559 -1.86521,-42.00565 -3.37789995,-62.94865 -0.48276,-13.69641 -0.53785,-27.35636 0.37321,-41.02526 0,0 26.37755015,19.80503 26.37755015,19.80503 z" />
</svg>
