<?xml version="1.0" encoding="UTF-8" standalone="no"?>
<svg
   xmlns:dc="http://purl.org/dc/elements/1.1/"
   xmlns:cc="http://creativecommons.org/ns#"
   xmlns:rdf="http://www.w3.org/1999/02/22-rdf-syntax-ns#"
   xmlns:svg="http://www.w3.org/2000/svg"
   xmlns="http://www.w3.org/2000/svg"
   xmlns:sodipodi="http://sodipodi.sourceforge.net/DTD/sodipodi-0.dtd"
   xmlns:inkscape="http://www.inkscape.org/namespaces/inkscape"
   width="300mm"
   height="300mm"
   viewBox="0 0 300 300"
   version="1.1"
   id="svg42"
   inkscape:version="1.0.1 (3bc2e813f5, 2020-09-07)"
   sodipodi:docname="NOUN_Surprise.svg">
  <defs
     id="defs36" />
  <sodipodi:namedview
     id="base"
     pagecolor="#ffffff"
     bordercolor="#666666"
     borderopacity="1.0"
     inkscape:pageopacity="0.0"
     inkscape:pageshadow="2"
     inkscape:zoom="0.35"
     inkscape:cx="400"
     inkscape:cy="560"
     inkscape:document-units="mm"
     inkscape:current-layer="layer1"
     inkscape:document-rotation="0"
     showgrid="false"
     inkscape:window-width="1267"
     inkscape:window-height="1040"
     inkscape:window-x="514"
     inkscape:window-y="86"
     inkscape:window-maximized="0" />
  <metadata
     id="metadata39">
    <rdf:RDF>
      <cc:Work
         rdf:about="">
        <dc:format>image/svg+xml</dc:format>
        <dc:type
           rdf:resource="http://purl.org/dc/dcmitype/StillImage" />
        <dc:title></dc:title>
      </cc:Work>
    </rdf:RDF>
  </metadata>
  <g
     inkscape:label="Layer 1"
     inkscape:groupmode="layer"
     id="layer1">
    <path
       style="stroke-width:1.42172"
       id="path75"
       d="m 202.14817,298.0812 c 5.25328,-0.21378 10.51266,-0.17788 15.76909,-0.16865 6.98063,0.0236 13.94824,-0.45031 20.91594,-0.80941 6.16155,-0.26756 12.31266,-0.71849 18.46616,-1.12214 14.76387,-0.66237 16.67492,-1.89911 36.8739,-9.0251 0.70039,-0.24709 0.80362,-1.24793 1.20544,-1.87189 0.25011,-1.0022 0.57546,-1.98862 0.75035,-3.00662 0.39032,-2.2719 0.65545,-6.68451 0.76057,-8.83501 0.30082,-6.15427 0.27619,-12.31428 0.28849,-18.47374 0.0281,-17.77286 -0.40356,-35.53405 -1.25988,-53.28499 -1.19162,-21.54441 -2.65492,-43.07377 -4.06619,-64.60499 -1.03905,-15.85011 -1.79941,-31.71605 -2.5566,-47.581444 -0.4618,-8.83804 -0.83343,-17.67901 -0.45263,-26.52513 0.34627,-6.93979 1.69084,-13.77647 3.16089,-20.55183 1.02628,-4.60997 2.12082,-9.20686 2.92881,-13.86133 0.56591,-3.64991 0.97689,-7.32016 1.27969,-11.00036 0.0907,-2.50258 0.43393,-5.44172 -1.11208,-7.6276594 -0.35301,-0.49911 -0.83526,-0.89319 -1.25289,-1.3398 -0.70883,-0.35977 -1.37135,-0.83067 -2.12648,-1.07928 -2.11788,-0.69731 -5.36201,-0.92269 -7.46256,-1.03878 -5.34301,-0.2953 -10.70567,-0.15544 -16.05146,-0.063 -8.69622,0.24331 -17.38905,0.59471 -26.08309,0.90496 -4.81352,0.14441 -9.62455,0.33381 -14.43345,0.58801 0,0 -25.13907,11.5179294 -25.13907,11.5179294 v 0 c 4.90945,-0.32737 9.81864,-0.64526 14.73799,-0.78507 8.86224,-0.40304 17.72261,-0.84903 26.58771,-1.18694 7.8994,-0.22608 15.8938,-0.50207 23.71171,0.87975 0.29097,0.13271 0.62011,0.20239 0.87292,0.39812 1.35471,1.04887 0.75588,4.5049 0.78435,5.95661 -0.31169,3.59392 -0.66962,7.18796 -1.27183,10.74676 -0.79492,4.57851 -1.68628,9.13871 -2.59106,13.6967 -1.30037,6.91981 -2.56777,13.8823 -2.83531,20.93276 -0.23173,8.88573 0.42595,17.73728 1.23689,26.58357 1.27224,15.743024 2.6961,31.473694 3.89158,47.223034 1.60933,21.48978 3.17934,42.98894 4.08154,64.52192 0.55891,17.82337 0.52921,35.64794 0.0455,53.47427 -0.16539,6.1344 -0.24632,12.29338 -0.92778,18.39968 -0.2408,2.15769 -0.74568,6.07468 -1.62279,8.26046 -0.28534,0.71106 -0.83295,1.28654 -1.24943,1.92981 -9.13254,4.33026 -3.32393,1.48502 23.33358,-6.63311 0.61581,-0.18753 -1.26153,0.26253 -1.89938,0.3497 -2.34156,0.32 -4.7155,0.29545 -7.0659,0.5081 -6.26854,0.40866 -12.52496,0.98759 -18.79888,1.31222 -6.86419,0.37182 -13.72975,0.73743 -20.6048,0.82675 -5.00688,0.009 -10.01801,0.0583 -15.02113,-0.16864 0,0 -25.79838,11.63383 -25.79838,11.63383 z" />
    <path
       style="stroke-width:1.32292"
       id="path77"
       d="m 59.950429,109.80531 c 0.933691,4.7137 1.313566,9.50526 1.742805,14.28401 0.778047,8.53956 1.328433,17.09378 1.737021,25.65813 0.263925,6.60518 0.490662,13.21217 0.680339,19.81992 0.104442,4.09263 0.192501,8.18577 0.250018,12.27934 0,0 24.811921,-6.84952 24.811921,-6.84952 v 0 c -0.131842,-4.08753 -0.256201,-8.17535 -0.447791,-12.26069 -0.294632,-6.58571 -0.675283,-13.16583 -1.124921,-19.74294 -0.527635,-8.58608 -1.050952,-17.1724 -1.587244,-25.75794 -0.312205,-4.89471 -0.64113,-9.79417 -0.735687,-14.69853 0,0 -25.326461,7.26822 -25.326461,7.26822 z" />
    <path
       style="stroke-width:1.32292"
       id="path79"
       d="m 122.04367,51.009277 c 0.67288,1.876267 1.04767,3.83445 1.41991,5.786726 1.17588,7.942067 1.53244,15.981691 2.07765,23.984804 1.0008,14.302296 1.79005,28.617563 2.66091,42.928033 0.92233,13.14923 1.59757,26.31332 2.30889,39.47505 0.517,9.33005 0.94645,18.66444 1.33766,28.0005 0.31347,8.00249 0.45697,16.01034 0.59225,24.01744 0.1329,6.04243 -0.0497,12.08563 -0.20875,18.12569 -0.0242,3.65 -0.31075,7.28789 -0.5083,10.93049 0,0 25.06245,-6.7177 25.06245,-6.7177 v 0 c 0.17856,-3.6513 0.29873,-7.303 0.22073,-10.95968 -0.02,-6.03291 -0.0339,-12.067 -0.21086,-18.0978 -0.20804,-8.00667 -0.4753,-16.01148 -0.80069,-24.01429 -0.39937,-9.32472 -1.00982,-18.6377 -1.77169,-27.93995 -1.0219,-13.10273 -1.90617,-26.21506 -2.80383,-39.32682 -0.91133,-14.3248 -1.79281,-28.657537 -2.23179,-43.005531 -0.18837,-8.196863 -0.20317,-16.412123 -0.88756,-24.586824 -0.2294,-2.14915 -0.5348,-4.274749 -1.05635,-6.373813 0,0 -25.20063,7.773675 -25.20063,7.773675 z" />
    <path
       style="stroke-width:1.32292"
       id="path83"
       d="m 191.38618,109.56678 c -0.0109,1.60163 0.18134,3.15412 0.45958,4.73009 0.91179,4.98438 1.63426,9.99978 2.37609,15.01142 0.9332,6.04226 1.86115,12.08508 2.74807,18.13437 0.92728,5.3926 1.48742,10.83443 2.11709,16.26636 0.43345,4.07308 0.99074,8.13064 1.50757,12.19354 0.34766,2.71224 0.62471,5.4325 0.84103,8.15816 0.0276,0.38722 0.0552,0.77446 0.0828,1.16169 0,0 25.10042,-7.08363 25.10042,-7.08363 v 0 c -0.0351,-0.39227 -0.0701,-0.78454 -0.10521,-1.17681 -0.26814,-2.75703 -0.58366,-5.50894 -1.02052,-8.2451 -0.6165,-4.02361 -1.27169,-8.04166 -1.7453,-12.08566 -0.73204,-5.43504 -1.34051,-10.88819 -2.24844,-16.29847 -0.94838,-6.02483 -1.95256,-12.04155 -2.82132,-18.07824 -0.65072,-5.03885 -1.32681,-10.07816 -1.81217,-15.13572 -0.10499,-1.50275 -0.15446,-3.00774 -0.0378,-4.51212 0,0 -25.44192,6.96012 -25.44192,6.96012 z" />
  </g>
</svg>
