<?xml version="1.0" encoding="UTF-8" standalone="no"?>
<svg
   xmlns:dc="http://purl.org/dc/elements/1.1/"
   xmlns:cc="http://creativecommons.org/ns#"
   xmlns:rdf="http://www.w3.org/1999/02/22-rdf-syntax-ns#"
   xmlns:svg="http://www.w3.org/2000/svg"
   xmlns="http://www.w3.org/2000/svg"
   xmlns:sodipodi="http://sodipodi.sourceforge.net/DTD/sodipodi-0.dtd"
   xmlns:inkscape="http://www.inkscape.org/namespaces/inkscape"
   width="300mm"
   height="300mm"
   viewBox="0 0 300 300"
   version="1.1"
   id="svg42"
   inkscape:version="1.0.1 (3bc2e813f5, 2020-09-07)"
   sodipodi:docname="NOUN_Surprise.svg">
  <defs
     id="defs36" />
  <sodipodi:namedview
     id="base"
     pagecolor="#ffffff"
     bordercolor="#666666"
     borderopacity="1.0"
     inkscape:pageopacity="0.0"
     inkscape:pageshadow="2"
     inkscape:zoom="0.35"
     inkscape:cx="400"
     inkscape:cy="560"
     inkscape:document-units="mm"
     inkscape:current-layer="layer1"
     inkscape:document-rotation="0"
     showgrid="false"
     inkscape:window-width="1267"
     inkscape:window-height="1040"
     inkscape:window-x="514"
     inkscape:window-y="86"
     inkscape:window-maximized="0" />
  <metadata
     id="metadata39">
    <rdf:RDF>
      <cc:Work
         rdf:about="">
        <dc:format>image/svg+xml</dc:format>
        <dc:type
           rdf:resource="http://purl.org/dc/dcmitype/StillImage" />
        <dc:title></dc:title>
      </cc:Work>
    </rdf:RDF>
  </metadata>
  <g
     inkscape:label="Layer 1"
     inkscape:groupmode="layer"
     id="layer1">
    <path
       style="stroke-width:1.42172"
       id="path75"
       d="M 97.607977,3.8269406 C 92.354692,4.0407188 87.095316,4.0048207 81.838885,3.9955885 74.858253,3.97196 67.890639,4.4459012 60.922947,4.8049964 54.761396,5.0725561 48.61028,5.5234949 42.456782,5.9271458 27.692911,6.5895097 25.78186,7.826255 5.582882,14.952246 4.8824898,15.199336 4.7792595,16.200169 4.3774482,16.82413 4.1273292,17.826335 3.8019855,18.812756 3.627091,19.830749 3.2367713,22.102649 2.9716445,26.515264 2.8665263,28.665763 2.5657004,34.820027 2.5903299,40.980043 2.5780309,47.139501 2.5498847,64.91236 2.9815965,82.67355 3.8379174,100.42449 c 1.1916153,21.54441 2.6549211,43.07377 4.0661856,64.60499 1.0390537,15.85011 1.7994148,31.71605 2.5566,47.58145 0.461803,8.83804 0.833426,17.67901 0.452626,26.52513 -0.346265,6.93979 -1.6908351,13.77647 -3.1608853,20.55183 -1.0262806,4.60997 -2.1208203,9.20686 -2.928806,13.86133 -0.5659144,3.64991 -0.9768924,7.32016 -1.2796965,11.00036 -0.090697,2.50258 -0.4339305,5.44172 1.1120783,7.62766 0.3530137,0.49911 0.8352652,0.89319 1.2528977,1.3398 0.7088255,0.35977 1.3713454,0.83067 2.1264764,1.07928 2.1178784,0.69731 5.3620144,0.92269 7.4625634,1.03878 5.343004,0.2953 10.705667,0.15544 16.05146,0.063 8.69622,-0.24331 17.389044,-0.59471 26.083087,-0.90496 4.813521,-0.14441 9.624545,-0.33381 14.433452,-0.58801 0,0 25.139067,-11.51793 25.139067,-11.51793 v 0 c -4.909452,0.32737 -9.818642,0.64526 -14.737991,0.78507 -8.862235,0.40304 -17.722604,0.84903 -26.587713,1.18694 -7.899399,0.22608 -15.893792,0.50207 -23.711705,-0.87975 -0.290975,-0.13271 -0.620114,-0.20239 -0.872922,-0.39812 -1.354707,-1.04887 -0.755877,-4.5049 -0.784349,-5.95661 0.311695,-3.59392 0.669621,-7.18796 1.271832,-10.74676 0.794916,-4.57851 1.686281,-9.13871 2.591055,-13.6967 1.300374,-6.91981 2.567771,-13.8823 2.835309,-20.93276 0.231736,-8.88573 -0.425949,-17.73728 -1.236882,-26.58357 -1.272248,-15.74303 -2.696105,-31.4737 -3.891582,-47.22304 -1.609336,-21.48978 -3.179339,-42.98894 -4.08154,-64.521917 -0.558912,-17.82337 -0.529214,-35.647944 -0.04545,-53.474269 0.165389,-6.134403 0.246314,-12.293379 0.927778,-18.399678 0.240798,-2.157691 0.745681,-6.074689 1.622792,-8.260466 0.285334,-0.711057 0.832951,-1.286539 1.249426,-1.929808 9.132541,-4.3302624 3.323934,-1.485016 -23.3335807,6.633106 -0.615805,0.187533 1.2615321,-0.262531 1.8993847,-0.349699 2.341559,-0.320002 4.715499,-0.295451 7.065894,-0.508101 6.26854,-0.408654 12.524967,-0.987585 18.798881,-1.312221 6.864192,-0.371814 13.729757,-0.737423 20.604799,-0.82675 5.006882,-0.0087 10.018014,-0.05833 15.021134,0.168648 0,0 25.798377,-11.6338347 25.798377,-11.6338347 z" />
    <path
       style="stroke-width:1.32292"
       id="path77"
       d="m 69.77781,111.31721 c 0.933691,4.7137 1.313566,9.50526 1.742805,14.28401 0.778047,8.53956 1.328433,17.09378 1.737021,25.65813 0.263925,6.60518 0.490662,13.21217 0.680339,19.81992 0.104442,4.09263 0.192501,8.18577 0.250018,12.27934 0,0 24.811921,-6.84952 24.811921,-6.84952 v 0 c -0.131842,-4.08753 -0.256201,-8.17535 -0.447791,-12.26069 -0.294632,-6.58571 -0.675283,-13.16583 -1.124921,-19.74294 -0.527635,-8.58608 -1.050952,-17.1724 -1.587244,-25.75794 -0.312205,-4.89471 -0.64113,-9.79417 -0.735687,-14.69853 0,0 -25.326461,7.26822 -25.326461,7.26822 z" />
    <path
       style="stroke-width:1.32292"
       id="path79"
       d="m 143.21034,50.253324 c 0.67288,1.876267 1.04767,3.83445 1.41991,5.786726 1.17588,7.942067 1.53244,15.981691 2.07765,23.984804 1.0008,14.302296 1.79005,28.617566 2.66091,42.928036 0.92233,13.14923 1.59757,26.31332 2.30889,39.47505 0.517,9.33005 0.94645,18.66444 1.33766,28.0005 0.31347,8.00249 0.45697,16.01034 0.59225,24.01744 0.1329,6.04243 -0.0497,12.08563 -0.20875,18.12569 -0.0242,3.65 -0.31075,7.28789 -0.5083,10.93049 0,0 25.06245,-6.7177 25.06245,-6.7177 v 0 c 0.17856,-3.6513 0.29873,-7.303 0.22073,-10.95968 -0.02,-6.03291 -0.0339,-12.067 -0.21086,-18.0978 -0.20804,-8.00667 -0.4753,-16.01148 -0.80069,-24.01429 -0.39937,-9.32472 -1.00982,-18.6377 -1.77169,-27.93995 -1.0219,-13.10273 -1.90617,-26.21506 -2.80383,-39.32682 -0.91133,-14.3248 -1.79281,-28.65754 -2.23179,-43.005534 -0.18837,-8.196863 -0.20317,-16.412123 -0.88756,-24.586824 -0.2294,-2.14915 -0.5348,-4.274749 -1.05635,-6.373813 0,0 -25.20063,7.773675 -25.20063,7.773675 z" />
    <path
       style="stroke-width:1.32292"
       id="path83"
       d="m 226.15999,106.54297 c -0.0109,1.60163 0.18134,3.15412 0.45958,4.73009 0.91179,4.98438 1.63426,9.99978 2.37609,15.01142 0.9332,6.04226 1.86115,12.08508 2.74807,18.13437 0.92728,5.3926 1.48742,10.83443 2.11709,16.26636 0.43345,4.07308 0.99074,8.13064 1.50757,12.19354 0.34766,2.71224 0.62471,5.4325 0.84103,8.15816 0.0276,0.38722 0.0552,0.77446 0.0828,1.16169 0,0 25.10042,-7.08363 25.10042,-7.08363 v 0 c -0.0351,-0.39227 -0.0701,-0.78454 -0.10521,-1.17681 -0.26814,-2.75703 -0.58366,-5.50894 -1.02052,-8.2451 -0.6165,-4.02361 -1.27169,-8.04166 -1.7453,-12.08566 -0.73204,-5.43504 -1.34051,-10.88819 -2.24844,-16.29847 -0.94838,-6.02483 -1.95256,-12.04155 -2.82132,-18.07824 -0.65072,-5.03885 -1.32681,-10.07816 -1.81217,-15.13572 -0.10499,-1.50275 -0.15446,-3.00774 -0.0378,-4.512119 0,0 -25.44192,6.960119 -25.44192,6.960119 z" />
  </g>
</svg>
