<?xml version="1.0" encoding="UTF-8" standalone="no"?>
<svg
   xmlns:dc="http://purl.org/dc/elements/1.1/"
   xmlns:cc="http://creativecommons.org/ns#"
   xmlns:rdf="http://www.w3.org/1999/02/22-rdf-syntax-ns#"
   xmlns:svg="http://www.w3.org/2000/svg"
   xmlns="http://www.w3.org/2000/svg"
   xmlns:sodipodi="http://sodipodi.sourceforge.net/DTD/sodipodi-0.dtd"
   xmlns:inkscape="http://www.inkscape.org/namespaces/inkscape"
   height="319.39819"
   width="652.23395"
   sodipodi:docname="NOUN_Water.svg"
   version="1.1"
   id="svg19"
   viewBox="0 0 652.23395 319.39819"
   inkscape:version="1.0.1 (3bc2e813f5, 2020-09-07)"
   inkscape:export-filename="C:\Users\metro\OneDrive\Desktop\attris-glyphs\NOUN_Light.png"
   inkscape:export-xdpi="96"
   inkscape:export-ydpi="96">
  <sodipodi:namedview
     id="base"
     pagecolor="#ffffff"
     bordercolor="#666666"
     borderopacity="1.0"
     inkscape:pageopacity="0.0"
     inkscape:pageshadow="2"
     inkscape:zoom="1"
     inkscape:cx="282.02769"
     inkscape:cy="46.53911"
     inkscape:document-units="px"
     inkscape:current-layer="layer1"
     showgrid="false"
     showguides="true"
     inkscape:window-width="1662"
     inkscape:window-height="1017"
     inkscape:window-x="0"
     inkscape:window-y="0"
     inkscape:window-maximized="0"
     showborder="true"
     inkscape:showpageshadow="false"
     inkscape:document-rotation="0">
    <sodipodi:guide
       id="guide_baseline"
       inkscape:label="baseline"
       position="-187.08104,3.7619925e-06"
       orientation="0,1" />
    <sodipodi:guide
       id="guide_ascender"
       inkscape:label="ascender"
       position="-187.08104,692"
       orientation="0,1" />
    <sodipodi:guide
       id="guide_caps"
       inkscape:label="caps"
       position="-187.08104,643"
       orientation="0,1" />
    <sodipodi:guide
       id="guide_xheight"
       inkscape:label="xheight"
       position="-187.08104,476"
       orientation="0,1" />
    <sodipodi:guide
       id="guide_descender"
       inkscape:label="descender"
       position="-187.08104,-225"
       orientation="0,1" />
  </sodipodi:namedview>
  <defs
     id="defs4" />
  <metadata
     id="metadata7">
    <rdf:RDF>
      <cc:Work
         rdf:about="">
        <dc:format>image/svg+xml</dc:format>
        <dc:type
           rdf:resource="http://purl.org/dc/dcmitype/StillImage" />
        <dc:title />
      </cc:Work>
    </rdf:RDF>
  </metadata>
  <g
     inkscape:groupmode="layer"
     id="layer1"
     inkscape:label="NOUN_Water "
     style="display:inline"
     sodipodi:insensitive="true"
     transform="translate(-187.08104,-427.60181)">
    <path
       style="stroke-width:6.11156"
       id="path106"
       d="m 230.31622,576.29625 c 1.7444,-2.08564 3.71993,-3.84732 5.65072,-5.61523 2.6608,-2.18079 5.04203,-4.89528 7.59996,-7.25886 2.98371,-2.763 5.65559,-6.06621 8.4507,-9.15071 3.30996,-3.59909 6.45349,-7.44165 9.63487,-11.23721 2.87488,-3.46611 5.83762,-6.80021 8.88291,-9.99193 3.47325,-3.7163 6.94626,-7.42347 10.42726,-11.12907 4.0244,-4.21688 8.01201,-8.50477 12.08911,-12.62866 4.90238,-4.99021 9.71219,-10.13744 14.51696,-15.29562 4.50467,-4.4212 8.78499,-9.22527 13.09009,-13.98704 5.0565,-5.7806 10.22366,-11.37638 15.43665,-16.89792 10.87455,-12.25891 36.76946,-30.7002 -16.6847,11.03455 5.36018,-4.36656 11.04185,-7.79142 16.9624,-10.5013 7.32061,-3.24924 14.91263,-4.8024 22.54681,-5.92908 11.83266,-1.29721 23.71219,-1.51572 35.57694,-1.78437 7.92341,-0.2935 15.81502,0.0174 23.66463,1.49888 7.49727,1.70725 14.7199,5.04711 21.81969,8.63023 6.44188,3.22422 12.31503,8.03959 18.12529,12.90354 5.99579,5.02288 11.61453,10.77603 17.18326,16.60375 5.30836,5.56914 10.02253,12.05517 14.69044,18.55473 4.35542,6.1181 8.43373,12.54902 13.13637,18.1953 6.93438,7.31256 14.42512,13.63151 21.84601,20.00557 7.733,6.5966 16.07068,11.68058 24.59917,16.08307 10.15489,5.0461 20.61322,8.84639 31.17401,11.98387 12.98642,3.56074 26.15261,5.74095 39.29177,7.98803 10.12738,2.04504 20.3232,2.09236 30.51695,1.3155 9.62389,-0.48075 18.01398,-4.19162 26.84739,-9.006 11.41425,-6.67275 22.45531,-14.43171 33.41934,-22.33518 19.37371,-14.20571 38.66871,-28.68373 57.25825,-44.68856 8.74453,-7.82252 17.50615,-15.61934 26.0611,-23.81509 6.5812,-5.73732 12.21082,-13.06839 17.66109,-20.58456 5.27531,-7.47013 10.18921,-15.38008 15.41263,-22.9117 1.86369,-2.70856 3.77666,-5.34793 5.73503,-7.9316 0,0 -33.46214,18.69597 -33.46214,18.69597 v 0 c -1.86323,2.64548 -3.71914,5.30031 -5.52336,8.01941 -5.00954,7.61663 -9.91905,15.36169 -15.25926,22.57078 -5.53595,7.23941 -11.3522,14.04593 -17.80623,19.78936 -8.50693,8.05759 -17.13489,15.88827 -25.88939,23.45077 -10.66612,8.92874 -32.2802,25.39384 16.9406,-12.73118 1.42504,-1.1038 -2.83634,2.23958 -4.26348,3.33843 -3.90634,3.00771 -5.31877,4.01031 -9.33096,6.96007 -10.85062,7.99774 -21.8087,15.76194 -33.09485,22.59868 -8.322,4.83818 -16.79323,9.24138 -25.94383,10.05496 -10.15977,1.09161 -20.33382,1.60089 -30.47638,-0.25589 -13.05666,-1.94306 -26.13884,-3.94858 -38.98945,-7.71054 -10.40543,-3.02485 -20.74765,-6.60786 -30.75979,-11.51614 -8.3354,-4.18307 -16.4117,-9.23037 -24.02705,-15.4491 -7.31243,-6.06233 -14.66392,-12.15693 -21.33318,-19.46943 -4.62352,-5.59196 -8.65015,-11.95717 -13.02473,-17.89221 -4.80414,-6.61832 -9.51257,-13.43105 -14.94509,-19.14007 -5.66959,-5.90495 -11.38998,-11.73462 -17.40676,-16.99202 -5.9606,-5.0412 -11.94394,-10.16504 -18.48612,-13.74964 -7.29863,-3.66148 -14.72718,-6.97946 -22.32076,-9.33942 -3.08013,-0.73881 -4.37858,-1.13213 -7.47696,-1.55503 -5.6008,-0.76448 -11.23537,-0.41593 -16.85205,-0.37438 -11.91204,0.46648 -23.82525,0.90916 -35.73273,1.55765 -7.64903,0.66506 -15.24722,1.62378 -22.61152,4.69074 -6.07187,2.33865 -11.95196,5.26961 -17.40588,9.63183 -15.56222,12.12504 -31.23434,22.12473 -44.83549,37.56019 -5.19144,5.57871 -10.29754,11.29695 -15.43242,16.96928 -4.34318,4.73475 -8.76022,9.33868 -13.16493,13.9683 -4.78746,5.13358 -9.60526,10.21493 -14.49627,15.16946 -4.09227,4.25254 -8.22344,8.43796 -12.24943,12.80469 -3.50483,3.71539 -6.98753,7.4676 -10.48259,11.19956 -3.00331,3.33604 -5.97854,6.71908 -8.846,10.26677 -3.11904,3.82005 -6.39943,7.39143 -9.64226,11.01798 -2.80109,3.12496 -5.66615,6.13707 -8.65552,8.93173 -2.46914,2.53758 -5.12275,4.72315 -7.6368,7.17935 -1.96504,1.88419 -3.89619,3.92867 -6.02491,5.45174 0,0 34.32487,-17.81998 34.32487,-17.81998 z" />
    <path
       style="stroke-width:5.51162"
       id="path108"
       d="m 219.47762,731.20223 c 1.02865,-0.58454 1.73319,-1.70644 2.58751,-2.55559 0.56781,-0.56438 1.22317,-0.98449 1.83333,-1.47933 0.42883,-0.28893 0.86469,-0.56297 1.28648,-0.8668 1.13295,-0.81613 4.55541,-3.21563 3.41602,-2.41285 -9.11163,6.41978 -18.2443,12.79541 -27.36285,19.20067 -0.70928,0.49823 1.42567,-0.98141 2.135,-1.47952 10.49661,-7.37111 20.98853,-14.75208 31.48279,-22.12812 4.11161,-2.91469 7.97708,-6.29079 11.9582,-9.45006 4.29293,-3.87596 8.55113,-7.81372 12.66292,-11.9721 3.94938,-3.61095 7.48884,-7.79775 11.12168,-11.85164 4.96633,-5.5775 9.98544,-11.0865 15.06499,-16.51151 5.54328,-5.73499 11.18416,-11.32698 16.73206,-17.05567 5.71759,-5.71819 11.58678,-11.20509 17.32103,-16.89768 5.69427,-5.53496 11.54421,-10.83062 17.57051,-15.81895 10.1068,-7.64488 27.07068,-19.54128 -20.17552,14.00679 -0.97796,0.69442 1.98033,-1.33708 2.98003,-1.98416 2.53846,-1.64308 3.09732,-1.93783 5.64052,-3.43754 5.07452,-3.11745 10.50568,-5.05508 16.02024,-6.61 5.48542,-1.71476 11.08662,-2.2372 16.72701,-2.30522 6.1191,-0.143 12.19279,0.54938 18.22392,1.7416 5.71059,1.27496 11.28689,3.25076 16.75946,5.58191 4.88323,2.03682 9.61064,4.5383 14.21138,7.37401 4.3042,2.82252 8.40881,6.06878 12.58877,9.15086 4.93113,3.70324 9.92087,7.2897 14.91261,10.87054 7.13144,5.22756 14.59515,9.72849 22.08774,14.1287 8.00564,4.58371 15.96235,9.29049 24.00218,13.78536 8.93452,4.65504 17.95771,9.0636 27.00996,13.3696 8.62164,4.1085 17.10883,8.61102 25.77828,12.57031 10.98697,4.9247 22.37855,8.32254 33.71045,11.83746 6.52027,2.05463 13.10527,3.89505 19.81786,4.72806 4.87103,0.60447 6.60044,0.52998 11.61955,0.67867 14.43317,-0.0941 28.8447,-1.24364 43.22967,-2.59295 7.21784,-0.68513 14.45199,-1.63435 21.48211,-3.81958 4.47017,-1.38948 6.15796,-2.2327 10.5788,-4.09755 10.77306,-4.97394 21.40653,-10.40271 31.72522,-16.64198 19.78926,-12.57922 39.11093,-26.21214 57.23634,-42.0469 8.90725,-7.55482 17.41357,-15.77217 25.57733,-24.47154 7.5101,-8.25925 14.47961,-17.1841 21.45276,-26.09712 4.5737,-5.85935 9.16239,-11.70249 13.87468,-17.39757 3.19315,-3.85912 6.34742,-7.75054 9.21022,-11.98009 2.05207,-2.67825 3.94966,-5.52113 5.74611,-8.4546 0,0 -31.86321,16.60836 -31.86321,16.60836 v 0 c -1.8535,2.77681 -3.73439,5.51933 -5.67845,8.20496 -2.91481,3.98368 -5.99327,7.77585 -9.0663,11.57866 -4.56065,5.70439 -9.05682,11.48235 -13.50586,17.31558 -6.83055,8.86889 -13.78487,17.61147 -21.33875,25.58597 -8.21868,8.48882 -16.71529,16.57291 -25.57705,24.05384 -4.72409,4.02094 -9.46655,7.97155 -14.37353,11.65976 -1.57491,1.18375 -6.36898,4.59501 -4.75948,3.48207 50.09708,-34.64141 27.26424,-19.0167 19.29987,-13.57543 -10.22488,6.44888 -20.78365,12.03721 -31.52333,17.10407 -3.76128,1.69065 -6.41975,2.97985 -10.2468,4.34232 -6.98922,2.48822 -14.21765,3.75242 -21.45505,4.565 -14.27208,1.61534 -28.57821,2.94671 -42.92395,2.86833 -4.02222,-0.11361 -7.25118,-0.12625 -11.23405,-0.52768 -6.65789,-0.67108 -13.20616,-2.38152 -19.69902,-4.22701 -11.22922,-3.24193 -22.48668,-6.56193 -33.28666,-11.5799 -8.6389,-4.06674 -17.19664,-8.3808 -25.82013,-12.49549 -8.96726,-4.25551 -17.90053,-8.61625 -26.71223,-13.33138 -8.05905,-4.4605 -16.08553,-9.00463 -24.09242,-13.60201 -7.34898,-4.35108 -14.65252,-8.84491 -21.59666,-14.10467 -4.94936,-3.5903 -9.87523,-7.22692 -14.75444,-10.95689 -4.25722,-3.11067 -8.40899,-6.43303 -12.72956,-9.41166 -4.71395,-2.89482 -9.46401,-5.70886 -14.4698,-7.80072 -5.62656,-2.46753 -11.36269,-4.55118 -17.2266,-6.01928 -6.103,-1.4579 -12.27581,-2.51566 -18.51333,-2.39827 -5.7362,-0.0685 -11.50863,-0.1658 -17.12036,1.53314 -5.64144,1.4386 -11.30965,2.92774 -16.55602,5.93661 -16.36973,9.13803 -31.91072,20.44232 -46.94156,32.48356 -5.94188,5.13648 -11.76154,10.47755 -17.41955,16.06921 -5.776,5.63425 -11.6181,11.17006 -17.28474,16.96817 -5.58902,5.68163 -11.22883,11.29242 -16.70016,17.14244 -5.12652,5.52877 -10.23851,11.0778 -15.29359,16.70307 -3.64105,4.03187 -7.36409,7.94106 -11.2338,11.6482 -4.16396,4.02926 -8.37006,8.00858 -12.80265,11.59674 -3.94501,3.21722 -7.93237,6.3574 -12.0442,9.25374 9.10574,-6.38302 18.21118,-12.76663 27.3172,-19.14903 0.70486,-0.49405 -1.40871,0.9902 -2.11373,1.4839 -10.50842,7.3587 -21.02721,14.69556 -31.52659,22.07327 -1.64989,1.15935 -3.27233,2.40684 -4.80271,3.78767 -1.52038,1.44538 -3.02132,2.9136 -4.56468,4.32063 0,0 32.39658,-15.79777 32.39658,-15.79777 z" />
  </g>
</svg>
