<?xml version="1.0" encoding="UTF-8" standalone="no"?>
<svg
   xmlns:dc="http://purl.org/dc/elements/1.1/"
   xmlns:cc="http://creativecommons.org/ns#"
   xmlns:rdf="http://www.w3.org/1999/02/22-rdf-syntax-ns#"
   xmlns:svg="http://www.w3.org/2000/svg"
   xmlns="http://www.w3.org/2000/svg"
   xmlns:sodipodi="http://sodipodi.sourceforge.net/DTD/sodipodi-0.dtd"
   xmlns:inkscape="http://www.inkscape.org/namespaces/inkscape"
   width="300mm"
   height="300mm"
   viewBox="0 0 300 300"
   version="1.1"
   id="svg42"
   inkscape:version="1.0.1 (3bc2e813f5, 2020-09-07)"
   sodipodi:docname="NOUN_House.svg">
  <defs
     id="defs36" />
  <sodipodi:namedview
     id="base"
     pagecolor="#ffffff"
     bordercolor="#666666"
     borderopacity="1.0"
     inkscape:pageopacity="0.0"
     inkscape:pageshadow="2"
     inkscape:zoom="0.35"
     inkscape:cx="400"
     inkscape:cy="560"
     inkscape:document-units="mm"
     inkscape:current-layer="layer1"
     inkscape:document-rotation="0"
     showgrid="false"
     inkscape:window-width="1267"
     inkscape:window-height="1040"
     inkscape:window-x="514"
     inkscape:window-y="86"
     inkscape:window-maximized="0" />
  <metadata
     id="metadata39">
    <rdf:RDF>
      <cc:Work
         rdf:about="">
        <dc:format>image/svg+xml</dc:format>
        <dc:type
           rdf:resource="http://purl.org/dc/dcmitype/StillImage" />
        <dc:title></dc:title>
      </cc:Work>
    </rdf:RDF>
  </metadata>
  <g
     inkscape:label="Layer 1"
     inkscape:groupmode="layer"
     id="layer1">
    <path
       style="stroke-width:1.32292"
       id="path167"
       d="m 31.468012,73.454537 c 5.486471,-0.172247 10.976157,-0.218617 16.464748,-0.275984 7.860572,-0.105746 15.738054,-0.08776 23.549784,0.918435 7.090603,0.913312 9.059458,1.505738 16.234254,3.053413 15.930422,4.059229 31.827402,8.892757 46.585352,16.253185 2.79477,1.393869 5.49043,2.978181 8.23565,4.467272 11.26515,6.521032 20.99411,15.181882 29.68586,24.809342 5.4682,6.05687 7.79758,9.26193 12.79723,15.6516 7.00814,9.32484 13.60556,18.97903 19.37698,29.12328 3.03327,5.33147 3.98485,7.3798 6.70166,12.76734 4.42998,8.98464 8.42356,18.17563 12.23902,27.43524 1.14264,2.83989 2.23648,5.69896 3.34419,8.55254 0,0 24.41053,-7.72829 24.41053,-7.72829 v 0 c -1.2599,-2.81175 -2.50246,-5.63102 -3.72059,-8.46118 -4.13949,-9.23124 -8.55719,-18.33614 -13.25338,-27.29767 -2.79155,-5.22369 -4.01058,-7.63789 -7.07464,-12.80709 C 221.01694,149.74695 214.17174,140.0889 206.97125,130.72191 194.61146,115.11148 181.79195,99.482403 164.33168,89.312 161.54024,87.783473 158.8013,86.154915 155.95737,84.726422 141.20996,77.318845 125.31171,72.466974 109.51038,67.904425 102.68591,66.195058 100.48568,65.488581 93.716342,64.363078 86.10879,63.098211 78.411066,62.828971 70.71302,62.892873 c -5.081085,-0.05569 -10.163739,-0.09556 -15.242286,-0.275982 0,0 -24.002722,10.837646 -24.002722,10.837646 z" />
    <path
       style="stroke-width:1.32292"
       id="path169"
       d="m 43.122093,98.01681 c -0.697696,4.79814 -1.101717,9.63955 -1.553517,14.4664 -0.747176,11.17805 -0.627465,22.39189 -0.748996,33.58872 -0.111339,10.93482 -0.171172,21.87017 -0.24607,32.80532 0.01775,6.552 -0.212035,13.10592 0.0024,19.65587 0.152561,2.89844 0.743387,5.95397 3.157418,7.88003 1.925863,1.53657 3.095199,1.59121 5.495835,2.29451 1.415635,0.20508 2.824314,0.46587 4.246907,0.61524 3.632837,0.38145 8.836363,0.58164 12.378623,0.71889 7.422409,0.28761 14.849269,0.48834 22.273496,0.72323 10.691558,0.34694 21.384301,0.54537 32.080231,0.36171 6.6729,-0.16196 13.3399,-0.49662 20.00807,-0.78621 3.94293,-0.12175 7.87635,-0.41843 11.80684,-0.74165 3.10615,-0.30388 6.21411,-0.58676 9.32388,-0.8507 2.08139,-0.16579 4.16713,-0.26781 6.25295,-0.35716 0,0 23.60434,-10.7686 23.60434,-10.7686 v 0 c -2.08459,0.0731 -4.16927,0.14128 -6.25192,0.26032 -3.15074,0.19135 -6.29018,0.52442 -9.43043,0.84013 -4.00011,0.42245 -8.01694,0.73301 -12.03154,0.97147 -6.83103,0.37187 -13.66054,0.77677 -20.49499,1.08138 -10.94863,0.30726 -21.89852,0.35581 -32.85021,0.12315 -12.497048,-0.31333 -25.050164,-0.48519 -37.46077,-2.10778 -1.919481,-0.36798 -4.425403,-0.54237 -5.870808,-2.11059 -1.248061,-1.3541 -1.298742,-3.34025 -1.511313,-5.04401 -0.434494,-6.45123 -0.401281,-12.92121 -0.591971,-19.38224 -0.241901,-10.8642 -0.506971,-21.73179 -0.317744,-32.59921 0.161364,-11.17964 0.318432,-22.38847 1.473679,-33.51789 0.683916,-4.92972 1.348484,-9.885601 2.807846,-14.659073 0,0 -25.552302,6.538743 -25.552302,6.538743 z" />
    <path
       style="stroke-width:1.32292"
       id="path171"
       d="m 194.19828,54.610489 c -0.5682,2.045052 -0.73023,4.226422 -0.94698,6.337951 -0.59816,4.5071 -0.14384,9.035372 0.45175,13.513553 0.68069,4.082794 1.73395,8.223504 4.13532,11.669636 0.5303,0.761024 1.16104,1.446898 1.74155,2.170345 3.25366,3.611145 7.1042,6.45341 11.59201,8.294849 3.24878,1.143495 6.70809,1.340485 10.03547,0.35134 8.92525,-2.653257 17.81065,-5.438761 26.71597,-8.158141 4.30537,-1.547643 8.44811,-3.493495 12.13604,-6.211818 2.58741,-2.264514 4.97657,-4.771454 7.16568,-7.422587 2.41969,-2.768467 2.79048,-6.256911 3.17746,-9.763852 0.33512,-4.138978 0.53398,-8.287769 0.76795,-12.433387 0,0 -24.55838,6.571419 -24.55838,6.571419 v 0 c -0.22645,4.100642 -0.44644,8.210224 -1.08913,12.272004 -0.6528,3.400819 -1.38616,5.867051 -3.79951,8.426395 -2.16588,2.447128 -4.40515,4.878697 -7.13812,6.706809 -3.77133,2.318414 -7.80863,4.13794 -12.0396,5.456488 7.27509,-2.196843 14.55148,-4.389389 21.82527,-6.590532 0.72323,-0.218861 -1.44445,0.445286 -2.17356,0.643673 -2.36446,0.643347 -4.74944,0.929322 -7.1581,0.308859 -4.61342,-1.247543 -7.9004,-3.53826 -11.2727,-6.907565 -0.52576,-0.60888 -1.09962,-1.17933 -1.57727,-1.826638 -2.27722,-3.086119 -3.1886,-6.942812 -3.81075,-10.652347 -0.54683,-4.297625 -0.80245,-8.626949 -0.042,-12.922165 0.33198,-1.984494 0.60112,-4.025043 1.55805,-5.823424 0,0 -25.69641,5.989135 -25.69641,5.989135 z" />
    <path
       style="stroke-width:1.32292"
       id="path173"
       d="m 142.99867,233.50254 c 0.0795,1.29841 0.0875,2.60096 0.10718,3.9015 0.1041,2.67249 0.0266,5.3416 -0.0706,8.01285 -0.25679,3.03541 -0.39849,6.08569 -0.78296,9.1085 -0.31566,2.52686 -0.55268,5.06139 -0.97586,7.57339 0,0 25.21708,-6.47831 25.21708,-6.47831 v 0 c 0.37404,-2.56005 0.68135,-5.12817 0.93128,-7.70344 0.24862,-3.07761 0.44707,-6.15968 0.65192,-9.24045 0.12442,-2.72471 0.26127,-5.44927 0.26979,-8.1776 0.0198,-1.32011 0.0285,-2.64209 0.10717,-3.96015 0,0 -25.45503,6.96371 -25.45503,6.96371 z" />
  </g>
</svg>
