<?xml version="1.0" encoding="UTF-8" standalone="no"?>
<svg
   xmlns:dc="http://purl.org/dc/elements/1.1/"
   xmlns:cc="http://creativecommons.org/ns#"
   xmlns:rdf="http://www.w3.org/1999/02/22-rdf-syntax-ns#"
   xmlns:svg="http://www.w3.org/2000/svg"
   xmlns="http://www.w3.org/2000/svg"
   xmlns:sodipodi="http://sodipodi.sourceforge.net/DTD/sodipodi-0.dtd"
   xmlns:inkscape="http://www.inkscape.org/namespaces/inkscape"
   height="644.45819"
   width="305.78366"
   version="1.1"
   id="svg19"
   viewBox="0 0 305.78366 644.45819"
   sodipodi:docname="NOUN_Fire.svg"
   inkscape:version="1.0.1 (3bc2e813f5, 2020-09-07)">
  <metadata
     id="metadata8">
    <rdf:RDF>
      <cc:Work
         rdf:about="">
        <dc:format>image/svg+xml</dc:format>
        <dc:type
           rdf:resource="http://purl.org/dc/dcmitype/StillImage" />
      </cc:Work>
    </rdf:RDF>
  </metadata>
  <defs
     id="defs6" />
  <sodipodi:namedview
     pagecolor="#ffffff"
     bordercolor="#666666"
     borderopacity="1"
     objecttolerance="10"
     gridtolerance="10"
     guidetolerance="10"
     inkscape:pageopacity="0"
     inkscape:pageshadow="2"
     inkscape:window-width="830"
     inkscape:window-height="480"
     id="namedview4"
     showgrid="false"
     inkscape:zoom="1.3189374"
     inkscape:cx="-195.56362"
     inkscape:cy="218.50927"
     inkscape:window-x="0"
     inkscape:window-y="0"
     inkscape:window-maximized="0"
     inkscape:current-layer="svg19" />
  <path
     style="fill-opacity:1;fill-rule:nonzero;stroke:none"
     id="path53"
     d="m 145.8139,7.75651 c 3.03787,3.29551 6.09439,6.5727 9.14505,9.85678 4.76246,5.14518 9.21706,10.55174 13.69738,15.94029 6.01346,6.93682 11.599,14.20614 16.95791,21.65401 5.10201,7.2384 9.55021,14.901 14.06943,22.50701 4.09017,7.35732 8.13408,14.74492 11.9815,22.23259 2.90586,6.13227 5.51635,12.39665 8.13589,18.65477 3.53143,7.75975 6.71061,15.65799 9.70197,23.63984 3.57894,9.0877 6.35579,18.45328 9.38834,27.72813 3.07591,9.15423 6.2514,18.26909 9.11496,27.49521 3.62265,11.89104 7.39783,23.73519 11.01108,35.62908 2.80605,10.27568 6.495,20.27013 9.91339,30.34874 4.34986,12.36306 6.9328,25.25023 9.54298,38.0661 2.53398,13.28453 4.17123,26.70106 5.6058,40.14023 1.36627,14.94607 2.52663,29.90683 3.65122,44.87218 0.86659,10.60606 1.25286,21.23977 1.36782,31.87786 0.47638,7.78818 0.60934,15.59339 1.06809,23.38123 0.79079,9.60214 1.61679,19.20342 2.27472,28.81588 0.67317,11.31915 0.90705,22.65563 0.99222,33.99235 0.26999,10.49984 -0.47908,20.96013 -2.02536,31.33918 -1.06987,7.48209 -2.79715,14.8179 -4.7886,22.10022 -1.60937,5.43055 -3.75554,10.67728 -6.25425,15.75448 -2.16774,4.4279 -4.37915,8.82454 -6.84869,13.09294 -2.79403,4.87827 -5.83889,9.62504 -9.42949,13.95731 -3.43096,3.52017 -7.41082,6.51537 -11.28754,9.53898 -5.9284,4.22117 -11.82743,8.47369 -17.62143,12.88105 -5.31758,4.004 -10.26585,8.46665 -15.60882,12.4365 -4.3844,2.88056 -12.50691,7.58399 8.24899,-4.62753 0.36833,-0.2167 -0.74799,0.41517 -1.13598,0.59432 -1.0561,0.48764 -1.25515,0.49524 -2.36221,0.80225 -3.84656,0.5954 -7.73416,0.94497 -11.60054,1.41447 -3.84775,0.50086 -7.71464,0.80882 -11.58946,0.98788 -3.96078,0.34364 -7.91888,0.69763 -11.8897,0.9042 -3.8023,0.13648 -7.60087,-0.28415 -11.40039,-0.44634 -4.10134,-0.24499 -8.22261,-0.0919 -12.29815,-0.65054 -4.85757,-0.6325 -9.66488,-1.50845 -14.38695,-2.81024 -5.81283,-1.54594 -11.47739,-3.57173 -17.18627,-5.45649 -4.92015,-1.71192 -9.91556,-3.18521 -14.86197,-4.81465 -2.90652,-0.78495 -5.60102,-2.13056 -8.28862,-3.45424 -3.44815,-1.60497 -6.66937,-3.57757 -9.83802,-5.6683 -4.89598,-3.22164 -9.68501,-6.60363 -14.31781,-10.19334 -4.85326,-3.6669 -9.26013,-7.88965 -13.62882,-12.11088 -4.65431,-4.71134 -9.39929,-9.33327 -13.97613,-14.12022 -2.97601,-2.85323 -5.77257,-5.88319 -8.71831,-8.76453 -2.85785,-2.83998 -5.51322,-5.87593 -7.9569,-9.0778 -3.32184,-4.35703 -6.01939,-9.12799 -8.48084,-14.00858 -2.92488,-5.83392 -5.32055,-11.91949 -7.84473,-17.93533 -1.71609,-4.46636 -3.26087,-9.01108 -4.6344,-13.59609 -1.32692,-4.50057 -2.25155,-9.0845 -3.22205,-13.67168 -0.93546,-4.4735 -1.64707,-8.99072 -2.31634,-13.51005 -0.88735,-5.91828 -1.49591,-11.8781 -2.14013,-17.82806 -0.54161,-5.00678 -0.66499,-10.04427 -0.72492,-15.07573 -0.0685,-5.6459 -0.0367,-11.29211 -0.0269,-16.93821 -0.015,-6.85676 -0.0963,-13.71263 -0.0681,-20.56953 0.0362,-4.76723 0.13515,-9.53386 0.16556,-14.30112 -0.0501,-4.69299 0.39755,-9.37966 0.70689,-14.06018 0.37433,-5.06315 1.03878,-10.10441 1.62703,-15.14779 1.0855,-6.99818 1.91196,-14.03048 2.85099,-21.04807 0.98731,-5.85528 1.99831,-11.70552 3.05721,-17.54825 1.31387,-5.49919 2.60269,-11.00327 3.94632,-16.49527 1.65509,-5.66969 3.07049,-11.4005 4.62338,-17.09812 2.13133,-7.38409 5.25447,-14.43087 8.59896,-21.33322 3.09472,-6.22861 5.81479,-12.63293 8.84446,-18.89112 2.77578,-6.22769 5.90928,-12.28392 8.86466,-18.42498 2.96486,-5.76124 5.32756,-11.79097 7.72086,-17.80454 3.03622,-7.32464 4.84117,-15.06656 6.7179,-22.74624 1.56331,-5.92439 2.78754,-11.926 4.24482,-17.8752 0.67328,-4.33194 1.84499,-8.54713 3.12107,-12.73299 0.88434,-3.77315 2.43091,-7.29996 3.92077,-10.86083 1.78056,-5.02082 4.01375,-9.83577 6.33608,-14.62336 3.58891,-6.53648 7.30846,-13.00333 10.99791,-19.48531 3.42824,-5.92451 6.61705,-11.97756 9.46185,-18.20354 2.76698,-6.01985 5.76137,-11.91883 9.0032,-17.69517 4.57922,-7.84942 9.47014,-15.50182 13.92845,-23.42207 3.36104,-6.03829 6.13593,-12.3653 9.01999,-18.63553 1.6042,-3.62632 3.54398,-7.06517 4.92512,-10.78255 1.3778,-3.39625 3.14375,-6.60085 4.62747,-9.95022 1.21458,-2.47314 2.31545,-5.02652 3.182,-7.64531 0.81547,-1.84696 1.25837,-3.79887 1.95047,-5.68639 0,0 -13.44629,6.27961 -13.44629,6.27961 v 0 c -0.65646,1.88512 -1.09344,3.84287 -1.90319,5.67695 -0.93545,2.54377 -1.95032,5.06101 -3.15007,7.49284 -1.51297,3.35599 -3.22468,6.61886 -4.61115,10.03195 -1.41678,3.60219 -3.22641,7.03298 -4.732,10.59889 -2.75732,6.22511 -5.5642,12.43803 -8.83965,18.41222 -4.48979,7.91951 -9.31425,15.63524 -13.98535,23.44795 -3.30724,5.82541 -6.33291,11.79434 -9.12837,17.88311 -2.84289,6.15802 -5.93105,12.1915 -9.38611,18.03171 -3.71155,6.51322 -7.42793,13.02733 -11.02757,19.60088 -2.35926,4.83521 -4.63288,9.70361 -6.46471,14.76727 -1.53177,3.59897 -3.03619,7.17906 -3.87768,11.01739 -1.22966,4.22179 -2.3409,8.4742 -3.07797,12.81378 -1.28259,5.91627 -2.45115,11.85538 -3.95503,17.72224 -1.80477,7.66421 -3.83063,15.29698 -6.85578,22.5848 -2.40612,6.04701 -4.97328,12.02001 -7.96005,17.80666 -2.89647,6.0836 -5.69884,12.21107 -8.59612,18.29429 -3.04717,6.25866 -5.95186,12.58475 -8.8611,18.90807 -3.31523,7.02818 -6.45566,14.16856 -8.64709,21.63959 -1.56259,5.70798 -2.99452,11.45077 -4.63648,17.1378 -1.41498,5.5064 -2.57225,11.07387 -3.93206,16.59413 -1.06588,5.83006 -1.9546,11.68858 -2.88672,17.54111 -0.93141,7.01586 -1.80839,14.03893 -2.81989,21.04395 -0.6928,5.10902 -1.65495,10.20537 -1.84452,15.36633 -0.22886,4.72532 -0.65419,9.44206 -0.74229,14.1721 0.0302,4.71128 0.12902,9.42193 0.16341,14.13319 0.0258,6.88306 -0.0588,13.76497 -0.0879,20.64782 -7.5e-4,5.65321 0.004,11.30657 0.0299,16.95967 0.0734,5.08175 0.10801,10.17538 0.7761,15.22325 0.78742,5.95183 1.43959,11.91344 2.09592,17.8805 0.58605,4.55007 1.51462,9.04315 2.49619,13.52309 0.93609,4.65546 1.64045,9.35553 3.1289,13.8811 1.46371,4.59887 2.99282,9.2014 4.8746,13.64477 2.68474,5.99184 4.98746,12.13954 7.79514,18.07165 2.56524,4.91166 5.36711,9.71023 8.55884,14.24411 2.42286,3.32142 5.13439,6.38798 8.05779,9.28016 2.93607,2.88548 5.69244,5.95534 8.76834,8.70335 4.73079,4.67121 9.54094,9.25788 14.15928,14.04294 4.35699,4.2853 8.65186,8.71499 13.60848,12.31445 4.63889,3.60806 9.46529,6.96193 14.28346,10.32484 3.14444,2.19502 6.31477,4.28464 9.80658,5.89572 2.69929,1.46476 5.51219,2.83552 8.48707,3.62558 5.0358,1.51856 10.08016,2.98941 15.06994,4.65519 5.70139,1.84221 11.29393,3.97674 17.04877,5.64025 4.75158,1.2646 9.55253,2.24554 14.41842,2.96901 4.13161,0.78995 8.32183,0.4985 12.50884,0.71125 3.79108,0.18428 7.57445,0.67578 11.36204,0.65306 3.95598,-0.21746 7.9043,-0.53102 11.84927,-0.89717 3.95214,-0.14229 7.89324,-0.50445 11.81539,-1.00885 3.82383,-0.46829 7.65264,-0.86376 11.49145,-1.15073 7.76549,-1.35526 14.1259,-6.76267 20.56494,-11.11643 5.11473,-3.99758 9.94332,-8.3478 15.13873,-12.24516 5.92228,-4.47108 12.05567,-8.63303 18.00668,-13.06208 3.90736,-3.09537 8.01772,-6.09238 11.25947,-9.90182 3.37414,-4.51323 6.39747,-9.26922 9.26321,-14.11927 2.45143,-4.3289 4.63196,-8.80275 6.88394,-13.23722 2.29995,-5.12613 4.35392,-10.36427 5.77273,-15.81101 1.94566,-7.33709 3.97589,-14.66932 4.69419,-22.25518 0.58599,-4.70005 1.17238,-9.4213 1.45909,-14.15146 0.28623,-4.72208 0.14942,-5.72964 0.0826,-10.5775 -0.0301,-2.1835 -0.0499,-4.36712 -0.0749,-6.55068 -0.0374,-11.42514 0.27048,-22.87583 -0.63703,-34.27615 -0.69229,-9.62095 -1.59987,-19.22537 -2.14017,-28.85738 -0.35946,-7.78186 -0.60399,-15.56907 -1.04557,-23.34735 -0.39876,-10.58769 -0.89692,-21.17478 -1.82462,-31.73136 -1.29371,-14.92961 -2.60853,-29.85719 -3.86204,-44.79025 -1.23867,-13.53225 -2.75612,-27.0229 -5.52122,-40.3455 -2.67121,-12.87605 -5.14429,-25.86666 -9.41892,-38.32847 -3.40377,-10.07638 -6.92324,-20.11231 -9.85867,-30.34075 -3.79199,-11.83189 -7.8013,-23.59697 -11.0351,-35.6002 -2.71923,-9.2987 -5.88797,-18.43901 -8.94823,-27.62783 -3.07794,-9.26977 -6.04827,-18.57776 -9.51855,-27.71223 -2.91322,-8.04397 -5.96925,-16.02015 -9.46983,-23.82956 -2.55641,-6.33045 -5.29586,-12.58354 -8.23699,-18.74556 C 220.16307,85.37083 215.95774,78.0418 212.01165,70.57559 207.46346,62.93898 202.85523,55.329 197.79728,48.01537 195.19766,44.35362 192.6716,40.58618 189.83554,37.09972 186.87233,33.45696 183.60522,30.05054 180.74998,26.31483 176.39767,20.80646 172.20307,15.15624 167.31422,10.09888 164.24766,6.84101 161.30124,3.46604 158.47139,0 c 0,0 -12.65748,7.75651 -12.65748,7.75651 z" />
</svg>
