<?xml version="1.0" encoding="UTF-8" standalone="no"?>
<svg
   xmlns:dc="http://purl.org/dc/elements/1.1/"
   xmlns:cc="http://creativecommons.org/ns#"
   xmlns:rdf="http://www.w3.org/1999/02/22-rdf-syntax-ns#"
   xmlns:svg="http://www.w3.org/2000/svg"
   xmlns="http://www.w3.org/2000/svg"
   xmlns:sodipodi="http://sodipodi.sourceforge.net/DTD/sodipodi-0.dtd"
   xmlns:inkscape="http://www.inkscape.org/namespaces/inkscape"
   width="300mm"
   height="300mm"
   viewBox="0 0 300 300"
   version="1.1"
   id="svg42"
   inkscape:version="1.0.1 (3bc2e813f5, 2020-09-07)"
   sodipodi:docname="NOUN_Hammer.svg">
  <defs
     id="defs36" />
  <sodipodi:namedview
     id="base"
     pagecolor="#ffffff"
     bordercolor="#666666"
     borderopacity="1.0"
     inkscape:pageopacity="0.0"
     inkscape:pageshadow="2"
     inkscape:zoom="0.5"
     inkscape:cx="495.459"
     inkscape:cy="440"
     inkscape:document-units="mm"
     inkscape:current-layer="layer1"
     inkscape:document-rotation="0"
     showgrid="false"
     inkscape:window-width="1267"
     inkscape:window-height="1040"
     inkscape:window-x="512"
     inkscape:window-y="95"
     inkscape:window-maximized="0" />
  <metadata
     id="metadata39">
    <rdf:RDF>
      <cc:Work
         rdf:about="">
        <dc:format>image/svg+xml</dc:format>
        <dc:type
           rdf:resource="http://purl.org/dc/dcmitype/StillImage" />
        <dc:title></dc:title>
      </cc:Work>
    </rdf:RDF>
  </metadata>
  <g
     inkscape:label="Layer 1"
     inkscape:groupmode="layer"
     id="layer1">
    <path
       style="stroke-width:1.85729"
       id="path454"
       d="m 69.770988,46.278078 c 0.710552,0.105038 1.41276,0.33193 2.131654,0.315112 0.821216,-0.01922 1.624263,-0.243727 2.424069,-0.421682 1.833173,-0.407873 6.325719,-1.696561 7.860445,-2.098571 6.288307,-1.647181 5.851554,-1.472593 12.624851,-2.945879 12.793033,-2.407639 25.730283,-4.448507 38.756043,-5.308977 2.31354,-0.152835 4.63373,-0.195218 6.95061,-0.292827 12.6167,-0.03587 24.13529,3.752419 35.00742,9.632696 2.47741,1.339928 4.85095,2.845997 7.27644,4.268996 13.21404,8.472623 25.39069,18.432309 36.01429,29.734214 1.93749,2.061182 3.74928,4.225859 5.62391,6.338786 7.08077,8.583919 11.38861,17.451564 12.75326,28.341904 0.91877,7.332 0.435,9.99738 0.0288,17.37147 -1.49261,13.29503 -6.58454,25.7478 -13.68572,37.20881 -1.11185,1.79449 -2.34807,3.51685 -3.52209,5.27526 -2.58499,3.64926 -5.83018,6.56823 -9.67043,8.97486 -1.38184,0.86598 -3.60775,2.13285 -5.21667,2.70437 -0.67617,0.2402 -1.40012,0.33506 -2.10016,0.50258 -6.8182,-0.22167 -3.95321,0.0675 13.18614,-4.87478 0.24182,-0.0697 -0.3696,0.38224 -0.38185,0.62194 -0.025,0.48654 1.09136,1.55093 -0.0428,1.19852 0,0 -21.64445,13.92769 -21.64445,13.92769 v 0 c 2.35636,2.5047 4.69321,4.82742 8.08948,6.07661 0.9451,0.34762 1.98762,0.8313 2.97292,0.6057 16.26948,-3.72488 13.77925,-2.47645 21.20872,-7.13029 2.87605,-2.07146 5.68189,-4.17898 8.16734,-6.68291 3.83636,-3.86488 6.98631,-8.25319 9.69823,-12.88894 2.89488,-5.20625 4.2299,-7.37037 6.73436,-12.90811 5.12781,-11.33834 8.52756,-23.28647 9.4766,-35.62381 0.24698,-8.42694 0.69839,-11.73789 -0.476,-20.13971 C 258.20035,95.068705 253.25272,84.155515 244.78032,73.846307 242.74002,71.55949 240.7678,69.216312 238.65945,66.98586 227.35716,55.029039 214.48953,44.454477 200.96138,34.842941 198.36069,33.1397 195.8275,31.339569 193.15931,29.733215 183.392,23.852923 172.54779,19.109619 161.17556,16.885949 c -2.66729,-0.521552 -5.39009,-0.742519 -8.08515,-1.113778 -2.6074,-0.04502 -5.21545,-0.20644 -7.82221,-0.135067 -4.13187,0.113131 -11.60637,0.950473 -15.6633,1.410062 -8.12192,0.920096 -16.22027,2.011895 -24.31073,3.152019 -2.71282,0.415011 -9.90077,1.499384 -12.858174,2.005417 -1.838836,0.314636 -5.351856,0.974999 -7.367182,1.458896 -0.529568,0.127159 -1.14542,0.122139 -1.568716,0.449982 -0.178765,0.138458 0.108722,0.425768 0.163132,0.638653 0,0 -13.892199,21.52594 -13.892199,21.52594 z" />
    <path
       style="stroke-width:1.85729"
       id="path456"
       d="m 74.314842,269.33532 c -0.626474,-6.98324 -0.753254,-14.00201 -0.907636,-21.00583 -0.01941,-16.80173 1.37652,-33.56581 2.58934,-50.31717 0.859845,-13.21989 2.639553,-26.36051 4.216386,-39.51411 1.114312,-10.97492 2.463841,-21.92335 4.04918,-32.8454 1.235539,-8.713 2.540206,-17.43068 4.950008,-25.929854 0.49329,-0.783719 0.806009,-1.69985 1.479858,-2.351159 1.163776,-1.124836 3.335084,-1.359667 4.791478,-1.650604 1.228711,-0.245454 4.814584,-1.242236 3.692429,-0.707324 -6.051915,2.884871 -17.323996,5.951821 -5.762857,2.651193 7.006102,-1.572822 14.106782,-2.861822 21.285852,-3.463103 5.57896,-0.467264 7.04566,-0.391484 12.67555,-0.475817 10.3104,0.08977 20.61877,0.484935 30.89826,1.246488 4.72964,0.405494 9.4475,0.922101 14.16594,1.428881 0,0 14.57313,-20.081723 14.57313,-20.081723 v 0 c -4.85925,-0.38102 -9.717,-0.778836 -14.5731,-1.194756 -10.71694,-0.903102 -21.4492,-1.230852 -32.20844,-1.275374 -6.5769,-0.115488 -13.15502,-0.326411 -19.7278,0.05398 -4.67329,0.270457 -6.75144,0.552993 -11.32894,1.258514 -1.86662,0.287696 -3.72511,0.621077 -5.58764,0.931614 -11.615441,2.041694 -9.689664,1.400655 -26.830157,8.128229 -3.378733,1.326137 -6.879674,4.41399 -8.948033,7.218689 -2.404199,3.260108 -2.765115,5.378899 -3.929242,9.042186 -1.90405,9.04312 -3.390322,18.16699 -4.624236,27.31342 -1.243097,10.97781 -2.302706,21.97315 -3.477857,32.95757 -1.488375,13.35464 -3.218869,26.70399 -3.723688,40.13507 -0.801251,16.95465 -1.718858,33.90373 -2.555919,50.85679 -0.367143,7.18805 -0.735283,14.37842 -1.469621,21.54307 0,0 26.287755,-3.95347 26.287755,-3.95347 z" />
    <path
       style="stroke-width:1.5308"
       id="path464"
       d="m 85.735205,160.66975 c 3.16171,0.11003 6.292128,-0.21654 9.403621,-0.67636 7.524884,-1.2868 15.152934,-2.04331 22.777424,-2.75893 10.04645,-0.86852 20.13224,-1.3438 30.21656,-1.76339 7.81683,-0.28263 15.63021,-0.6206 23.41262,-1.31104 7.03876,-0.74654 14.02718,-1.77811 20.98284,-2.94578 7.2777,-1.27776 20.1743,-2.89435 20.84585,-10.61263 0.11008,-1.26484 0.017,-2.57148 -0.40177,-3.78959 -0.42287,-1.23014 -1.38442,-2.28007 -2.07664,-3.4201 -0.72871,-0.5917 -1.39752,-1.24079 -2.18614,-1.77511 -2.46922,-1.67303 -6.3903,-2.77614 -9.37501,-3.6274 -4.58982,-1.10883 -9.30406,-1.77132 -13.98233,-2.548 0,0 -13.70679,15.15204 -13.70679,15.15204 v 0 c 4.36293,0.65386 8.74231,1.27087 13.06157,2.10314 1.46972,0.24096 2.8969,0.51873 4.32739,0.8948 0.28534,0.0749 2.0187,0.59535 2.20787,0.52219 0.19553,-0.0756 0.0406,-0.36113 0.0609,-0.5417 -0.78809,-2.25952 -0.9453,-2.10558 -0.9006,-4.55821 0.01,-0.52748 0.27489,-1.04476 0.22833,-1.57083 -0.0145,-0.16144 -0.57464,-0.28649 -0.39841,-0.35074 4.18624,-1.52579 8.46397,-2.87284 12.76323,-4.15597 0.61155,-0.18252 -1.11237,0.56316 -1.66854,0.84475 -6.30057,1.92354 -12.91671,2.95188 -19.53026,3.783 -7.58875,0.96588 -15.23223,1.52958 -22.88868,1.96107 -10.16534,0.57197 -20.34387,0.96979 -30.51111,1.51883 -7.75148,0.47119 -15.4797,1.16022 -23.20082,1.90285 -0.75488,0.0938 -1.51276,0.17173 -2.26464,0.28132 -1.52243,0.2219 -3.050036,0.61475 -4.588337,0.74295 -0.150008,0.0123 -0.30061,-0.0191 -0.450927,-0.0287 0,0 -12.157151,16.72756 -12.157151,16.72756 z" />
  </g>
</svg>
