<?xml version="1.0" encoding="UTF-8" standalone="no"?>
<svg
   xmlns:dc="http://purl.org/dc/elements/1.1/"
   xmlns:cc="http://creativecommons.org/ns#"
   xmlns:rdf="http://www.w3.org/1999/02/22-rdf-syntax-ns#"
   xmlns:svg="http://www.w3.org/2000/svg"
   xmlns="http://www.w3.org/2000/svg"
   xmlns:sodipodi="http://sodipodi.sourceforge.net/DTD/sodipodi-0.dtd"
   xmlns:inkscape="http://www.inkscape.org/namespaces/inkscape"
   width="300mm"
   height="300mm"
   viewBox="0 0 300 300"
   version="1.1"
   id="svg42"
   inkscape:version="1.0.1 (3bc2e813f5, 2020-09-07)"
   sodipodi:docname="NOUN_Bird.svg">
  <defs
     id="defs36" />
  <sodipodi:namedview
     id="base"
     pagecolor="#ffffff"
     bordercolor="#666666"
     borderopacity="1.0"
     inkscape:pageopacity="0.0"
     inkscape:pageshadow="2"
     inkscape:zoom="0.5"
     inkscape:cx="495.459"
     inkscape:cy="440"
     inkscape:document-units="mm"
     inkscape:current-layer="layer1"
     inkscape:document-rotation="0"
     showgrid="false"
     inkscape:window-width="1267"
     inkscape:window-height="1040"
     inkscape:window-x="512"
     inkscape:window-y="95"
     inkscape:window-maximized="0" />
  <metadata
     id="metadata39">
    <rdf:RDF>
      <cc:Work
         rdf:about="">
        <dc:format>image/svg+xml</dc:format>
        <dc:type
           rdf:resource="http://purl.org/dc/dcmitype/StillImage" />
        <dc:title></dc:title>
      </cc:Work>
    </rdf:RDF>
  </metadata>
  <g
     inkscape:label="Layer 1"
     inkscape:groupmode="layer"
     id="layer1">
    <path
       style="stroke-width:1.32292"
       id="path494"
       d="m 39.668659,166.04182 c -0.599112,-5.41923 1.028808,-10.84192 2.426163,-16.00999 1.536943,-5.10323 3.592518,-10.03024 5.897512,-14.82976 1.50676,-3.13741 2.861371,-5.81095 4.803251,-8.69632 0.860687,-1.27885 1.848138,-2.46767 2.772206,-3.70151 3.074414,-3.60374 6.681894,-6.67647 10.43101,-9.54883 1.930482,-1.47903 5.413494,-4.03651 7.586422,-5.22207 1.195956,-0.65252 2.4867,-1.11386 3.730048,-1.67079 1.251437,-0.34596 4.891873,-1.66378 3.75431,-1.03789 -2.158788,1.18777 -4.887055,1.27477 -6.862196,2.74785 -1.101262,0.82133 2.69889,-0.54599 4.067654,-0.66365 5.271876,-0.45316 10.559322,0.3192 15.778395,0.93382 8.356296,1.1585 16.701226,2.52178 24.832976,4.79735 1.60163,0.58648 2.66608,0.85854 4.07846,1.80332 2.89484,1.93646 4.65065,5.05505 6.41886,7.94999 0.48772,0.85809 0.97544,1.71618 1.46317,2.57428 0,0 15.83396,-7.54347 15.83396,-7.54347 v 0 c -0.52765,-0.90399 -1.0553,-1.80797 -1.58295,-2.71196 -3.09523,-5.22515 -6.3397,-10.56309 -11.67475,-13.81114 -0.99107,-0.60338 -2.08989,-1.00876 -3.13483,-1.513138 -1.1232,-0.357542 -2.23202,-0.76385 -3.36959,-1.072626 -1.22195,-0.331682 -2.46487,-0.581319 -3.70283,-0.847088 -6.42803,-1.379984 -12.94984,-2.23411 -19.45139,-3.181739 C 98.096871,93.967283 92.376764,92.935011 86.652565,92.597852 84.90078,92.49467 83.102785,92.153884 81.38855,92.529112 69.281399,95.179221 69.394149,95.42917 61.779941,99.23781 c -1.350722,0.87165 -2.733829,1.69506 -4.052171,2.61495 -5.420545,3.78227 -11.152195,8.71495 -15.455265,13.72291 -1.187653,1.3822 -2.245748,2.87066 -3.368624,4.30598 -0.953807,1.50358 -1.967598,2.97074 -2.861421,4.51073 -1.768518,3.04703 -3.346334,6.41873 -4.763032,9.63875 -2.31535,5.26255 -4.370956,10.64093 -6.032452,16.14727 -1.812871,6.42832 -3.689292,12.99535 -3.591427,19.73852 0,0 18.01311,-3.8751 18.01311,-3.8751 z" />
    <path
       style="stroke-width:1.32292"
       id="path496"
       d="m 281.79027,159.20307 c 0.0825,-2.95758 0.29933,-5.91797 0.0795,-8.87522 -0.0784,-1.05506 -0.22183,-2.10428 -0.33274,-3.15641 -0.92782,-7.41203 -3.66996,-14.0327 -7.34894,-20.48661 -0.91077,-1.59775 -1.91137,-3.14261 -2.86708,-4.71392 -6.01871,-9.14511 -14.16891,-16.58609 -23.00032,-22.962209 -1.80264,-1.30148 -3.67591,-2.502244 -5.51386,-3.753363 -7.09187,-4.484642 -14.77547,-8.084902 -23.06844,-9.64974 -5.25685,-0.991939 -6.5149,-0.771777 -11.80122,-0.819515 -1.86757,0.200686 -3.74727,0.309723 -5.6027,0.602062 -8.65042,1.362942 -17.31028,4.9638 -25.23214,8.231933 -1.96439,0.8104 -6.27455,3.472146 -8.14655,4.590854 -3.88111,2.349858 -7.65765,4.862398 -11.52718,7.231008 0,0 16.30599,6.7439 16.30599,6.7439 v 0 c 3.54962,-2.40456 7.1034,-4.8108 10.84852,-6.90646 1.18213,-0.62128 2.34335,-1.28408 3.54639,-1.86384 1.28745,-0.62045 5.33448,-1.94459 3.92082,-1.73475 -2.12459,0.31537 -3.99758,1.64807 -6.10576,2.05907 -1.55435,0.30303 2.93443,-1.19408 4.42416,-1.73123 4.45181,-1.60517 4.61308,-1.51913 9.2083,-2.657883 4.42817,-0.5568 5.41603,-0.909368 9.93009,-0.542835 7.40981,0.601659 14.32988,3.400778 20.72666,7.060428 1.73998,1.10191 3.51631,2.14841 5.21993,3.30574 8.05022,5.46882 15.35902,12.07991 20.75348,20.23216 0.8472,1.39816 1.74565,2.76653 2.54161,4.1945 2.94467,5.28282 5.04745,10.96891 5.51579,17.03239 0.1034,3.04726 0.1847,6.34771 -0.8949,9.24834 0,0 18.42063,-0.6784 18.42063,-0.6784 z" />
    <path
       style="stroke-width:1.32292"
       id="path498"
       d="m 143.89657,172.32673 c -1.75969,-5.21097 -4.88207,-9.8699 -7.84981,-14.45928 -3.52015,-4.83489 -7.07632,-9.87653 -11.7573,-13.6882 -0.93931,-0.76486 -1.96188,-1.42137 -2.94282,-2.13205 -1.12356,-0.59325 -2.20042,-1.28493 -3.37067,-1.77975 -5.58879,-2.36317 -11.75145,-2.64369 -17.68685,-1.71288 -1.557403,0.24424 -3.083781,0.65642 -4.62567,0.98462 -4.941178,1.76639 -9.944576,3.36756 -14.823535,5.29918 -1.377743,0.54546 -2.626749,1.37422 -3.908851,2.11713 -2.367679,1.37195 -4.591658,2.83724 -6.76349,4.50038 -2.172071,1.66332 -3.349192,2.79703 -5.351653,4.6067 -2.836511,2.72821 -1.475759,1.37922 -4.088493,4.04067 0,0 17.020426,4.85001 17.020426,4.85001 v 0 c 2.364174,-2.26689 1.131279,-1.1273 3.705193,-3.41171 3.400391,-2.71523 6.926117,-5.12331 10.890383,-6.9619 1.150305,-0.5335 4.747664,-1.74224 3.510065,-1.46624 -2.338088,0.52141 -4.559189,1.47238 -6.838786,2.20858 1.238951,-0.45546 2.457889,-0.96957 3.716851,-1.36636 4.09293,-1.28999 8.6834,-2.10167 12.95354,-1.20851 0.80191,0.16773 1.56346,0.49031 2.34518,0.73546 0.71162,0.36538 1.45958,0.6673 2.13485,1.09615 1.54878,0.98361 2.93003,2.31141 4.1951,3.62035 2.26941,2.3481 4.3229,4.90551 6.2019,7.57331 1.6545,2.57547 3.28847,5.13665 4.52904,7.94573 0.31263,0.70791 0.75566,1.8615 0.90121,2.71102 0.004,0.025 -0.0487,0.0141 -0.0731,0.0211 0,0 17.97726,-4.12353 17.97726,-4.12353 z" />
    <path
       style="stroke-width:1.32292"
       id="path500"
       d="m 167.06691,172.67709 c -0.0348,0.0659 -0.0319,0.21525 -0.10433,0.1977 -0.2013,-0.0488 -0.36017,-0.21013 -0.51493,-0.34779 -1.46009,-1.29877 -1.89186,-3.3481 -2.36882,-5.14217 -0.36067,-2.60842 -1.05086,-5.72648 0.33948,-8.18025 0.52406,-0.92489 1.76774,-1.97612 2.49153,-2.66051 0.68907,-0.46731 1.36392,-0.95632 2.06722,-1.40192 3.22008,-2.0402 6.57251,-3.72393 10.14256,-5.06889 1.47269,-0.55481 5.83842,-2.30205 4.46536,-1.53305 -1.74772,0.97882 -3.73583,1.44707 -5.60374,2.17061 4.57256,-1.50538 9.25377,-2.66043 13.99325,-3.49804 2.42101,-0.42786 5.28336,-0.85162 7.76209,-0.94132 1.14292,-0.0414 2.28702,0.0378 3.43053,0.0568 4.64202,0.46989 9.28665,1.84659 13.01892,4.74769 0.60923,0.47356 1.15299,1.0258 1.72948,1.5387 2.08526,2.32937 1.08921,1.12659 2.98826,3.60823 0,0 15.38393,-8.69888 15.38393,-8.69888 v 0 c -2.42135,-3.20096 -1.14022,-1.58434 -3.85602,-4.83981 -2.16742,-2.19213 -2.68114,-2.90446 -5.22721,-4.69721 -4.29734,-3.02587 -9.28715,-4.83943 -14.38354,-5.97298 -3.80603,-0.49093 -4.99017,-0.81262 -8.87321,-0.62098 -1.53687,0.0759 -3.06453,0.29355 -4.58795,0.51015 -5.10891,0.72639 -10.16119,1.86641 -15.15761,3.13774 -10.3001,3.56811 -23.81726,7.02697 -31.99391,15.19877 -0.96361,0.96303 -1.75087,2.08767 -2.6263,3.13151 -1.61507,2.91165 -2.12856,3.34139 -2.86213,6.60474 -0.93315,4.15124 -0.32197,8.46658 0.44338,12.58046 0.25812,1.01105 0.47011,2.035 0.77434,3.03313 1.04293,3.42174 2.74755,6.5419 5.19755,9.15445 0,0 13.93182,-12.06685 13.93182,-12.06685 z" />
    <path
       style="stroke-width:1.32292"
       id="path508"
       d="m 175.80102,257.64128 c -0.0129,-1.84128 -0.25438,-3.6463 -0.55744,-5.46062 -0.17922,-0.84021 -0.33878,-1.68485 -0.53765,-2.52062 -0.56264,-2.36455 -1.21569,-4.70668 -1.8151,-7.06217 -1.2048,-4.73457 -2.36288,-9.47943 -3.58337,-14.21011 -3.24335,-11.76176 -5.93979,-23.65659 -8.48883,-35.5843 -2.97949,-13.54372 -4.95327,-27.26806 -6.56512,-41.03186 -1.55008,-14.23187 -2.49773,-28.52044 -2.95378,-42.82688 -0.12986,-10.716674 0.20877,-21.49839 1.97174,-32.091504 0.28546,-1.71521 0.67895,-3.410678 1.01842,-5.116018 0.97355,-4.014216 2.49734,-7.778978 5.13397,-10.995356 2.26003,-2.756982 5.1657,-4.763402 8.01493,-6.844659 3.15898,-2.105084 6.39498,-4.255895 9.92991,-5.698967 0.63656,-0.259861 2.59435,-0.908449 1.95904,-0.645552 -3.03039,1.254012 -6.09896,2.413736 -9.14844,3.620607 2.07202,-0.870876 1.00664,-0.524074 3.19629,-1.039937 0,0 8.59965,-15.640999 8.59965,-15.640999 v 0 c -3.4243,-0.0412 -1.67799,-0.07445 -5.23864,0.113441 -4.43406,1.657071 -8.91503,3.193677 -13.30219,4.971214 -0.78912,0.319728 -1.47014,0.859662 -2.19431,1.307473 -3.59527,2.223263 -7.01189,4.730319 -10.19575,7.512387 -2.51531,2.356569 -3.85876,3.434027 -6.00614,6.224997 -4.09847,5.326827 -6.35746,11.60947 -7.49115,18.185112 -0.27019,1.855123 -0.58146,3.70473 -0.81057,5.565375 -1.36499,11.084851 -1.71186,22.289256 -1.44123,33.445926 0.62266,14.5262 1.57341,29.04214 3.14079,43.49975 1.61169,14.04056 3.69519,28.019 6.56849,41.8625 2.44735,12.0593 5.18736,24.04857 8.1892,35.98249 1.07524,4.72707 2.11978,9.4582 3.08158,14.2099 0.45226,2.23435 0.8869,4.34596 1.1881,6.59723 0.0918,0.68622 0.13441,1.37812 0.20161,2.06719 0.0405,1.49846 0.002,2.99439 -0.091,4.49084 0,0 18.22703,-2.88688 18.22703,-2.88688 z" />
    <path
       style="stroke-width:1.32292"
       id="path522"
       d="m 185.93746,52.065295 c 1.40095,-0.51067 3.07859,-0.49439 4.56605,-0.621969 1.55124,-0.201613 3.10355,-0.184317 4.6618,-0.134528 0,0 9.8953,-14.983446 9.8953,-14.983446 v 0 c -1.77965,-0.158417 -3.55045,-0.390914 -5.33444,-0.495181 -1.74968,-0.04175 -3.5087,0.06162 -5.24897,-0.112924 0,0 -8.53974,16.348048 -8.53974,16.348048 z" />
    <path
       style="stroke-width:1.32292"
       id="path526"
       d="m 206.81198,51.713764 c 0.46469,-0.353965 1.07429,-0.442621 1.62938,-0.575061 1.30868,-0.43131 2.4759,-0.492514 3.86638,-0.330517 2.00418,0.196048 3.93374,0.795686 5.9292,1.051372 1.78773,0.266787 0.87694,0.119171 2.7319,0.445788 0,0 10.86877,-14.430007 10.86877,-14.430007 v 0 c -1.81585,-0.319114 -0.91553,-0.14461 -2.70116,-0.52257 -2.00878,-0.436391 -4.0843,-0.54849 -6.05583,-1.184712 -1.90782,-0.362492 -3.77365,-0.985684 -5.71742,-1.091597 -0.88749,-0.03005 -1.77658,-0.0052 -2.66289,-0.06602 0,0 -7.88833,16.70332 -7.88833,16.70332 z" />
  </g>
</svg>
