<?xml version="1.0" encoding="UTF-8" standalone="no"?>
<svg
   xmlns:dc="http://purl.org/dc/elements/1.1/"
   xmlns:cc="http://creativecommons.org/ns#"
   xmlns:rdf="http://www.w3.org/1999/02/22-rdf-syntax-ns#"
   xmlns:svg="http://www.w3.org/2000/svg"
   xmlns="http://www.w3.org/2000/svg"
   xmlns:sodipodi="http://sodipodi.sourceforge.net/DTD/sodipodi-0.dtd"
   xmlns:inkscape="http://www.inkscape.org/namespaces/inkscape"
   width="195.99976mm"
   height="169.258mm"
   viewBox="0 0 195.99976 169.258"
   version="1.1"
   id="svg8"
   sodipodi:docname="NUM_Two.svg"
   inkscape:version="1.0.1 (3bc2e813f5, 2020-09-07)">
  <defs
     id="defs2" />
  <sodipodi:namedview
     id="base"
     pagecolor="#ffffff"
     bordercolor="#666666"
     borderopacity="1.0"
     inkscape:pageopacity="0.0"
     inkscape:pageshadow="2"
     inkscape:zoom="0.35"
     inkscape:cx="338.43372"
     inkscape:cy="342.08239"
     inkscape:document-units="mm"
     inkscape:current-layer="layer1"
     inkscape:document-rotation="0"
     showgrid="false"
     inkscape:window-width="1267"
     inkscape:window-height="1040"
     inkscape:window-x="552"
     inkscape:window-y="91"
     inkscape:window-maximized="0" />
  <metadata
     id="metadata5">
    <rdf:RDF>
      <cc:Work
         rdf:about="">
        <dc:format>image/svg+xml</dc:format>
        <dc:type
           rdf:resource="http://purl.org/dc/dcmitype/StillImage" />
        <dc:title></dc:title>
      </cc:Work>
    </rdf:RDF>
  </metadata>
  <g
     inkscape:label="Layer 1"
     inkscape:groupmode="layer"
     id="layer1"
     transform="translate(-16.289413,-57.657369)">
    <path
       style="stroke-width:1.32292"
       id="path10"
       d="m 20.616009,103.56353 c -0.242571,1.48156 -0.336796,2.96225 -0.451329,4.47041 -0.371764,4.66834 -0.817278,9.33374 -1.40335,13.9803 -0.879066,5.86374 -0.839323,11.8064 -1.013921,17.7188 -0.250679,8.20157 -0.66906,16.39671 -1.041906,24.59333 -0.373335,5.88181 -0.42891,11.76954 -0.413943,17.66038 0.01261,4.71946 0.01801,9.43892 0.01621,14.1584 -0.0021,3.14935 -0.0057,6.29876 0.0227,9.44801 0.04214,2.69227 -0.05969,5.38754 0.05813,8.07789 0.710376,4.85711 5.350029,6.49642 9.378217,8.08901 5.764537,1.87083 11.711232,3.25689 17.720377,4.07008 3.647186,0.49356 5.555308,0.5512 9.226439,0.78709 10.25842,0.44837 20.531682,0.31685 30.793841,0.0872 14.460032,-0.63322 28.935786,-0.52979 43.405416,-0.51053 10.98051,0.0102 21.96195,-0.0433 32.94144,-0.20172 4.67047,-0.12757 9.34696,-0.26851 14.00253,-0.67994 10.86151,-1.51764 23.04721,-6.80008 29.23638,-15.72527 1.54299,-2.67679 2.18548,-5.73233 2.76347,-8.73412 0.71678,-4.24966 0.92679,-8.56065 1.13815,-12.85835 0.26271,-5.80283 0.51295,-11.60782 0.84225,-17.40748 0.3534,-6.49626 0.93177,-12.97779 1.4501,-19.46241 0.75088,-7.37475 1.41649,-14.7536 1.90594,-22.15056 0.53844,-7.89717 0.83456,-15.80357 0.93566,-23.71734 0.0392,-7.227364 0.19931,-14.45313 0.15154,-21.680681 -0.39188,-3.922027 -0.12783,-8.088461 -1.30885,-11.901831 -0.18814,-0.607457 -0.47165,-1.181161 -0.70748,-1.77174 -1.07851,-1.538296 -1.24675,-2.082544 -2.9383,-3.143719 -4.22647,-2.651421 -11.32113,-3.277655 -16.11696,-3.98749 -14.14196,-1.793991 -28.36734,-2.815505 -42.57834,-3.882422 -11.18268,-1.074256 -22.38473,-1.428768 -33.60895,-1.129485 -8.81725,0.371737 -17.626226,0.952013 -26.42494,1.630715 -5.931746,0.398378 -11.819485,1.222465 -17.701421,2.059127 -4.378068,0.663253 -8.764365,1.266545 -13.153146,1.853385 -3.273034,0.467977 -6.528792,1.042501 -9.800463,1.519958 -1.665018,0.208544 -3.322878,0.458126 -4.978572,0.729731 0,0 -20.78174,15.791788 -20.78174,15.791788 v 0 c 1.62679,-0.446434 3.290778,-0.759449 4.967065,-0.95514 3.309509,-0.470395 6.604638,-1.022689 9.900235,-1.578618 4.456938,-0.73252 8.94825,-1.252048 13.397785,-2.037416 5.91671,-0.919858 11.85019,-1.756878 17.811588,-2.330847 8.89883,-0.881033 17.817531,-1.617191 26.750095,-2.046401 11.318944,-0.404887 22.630074,-0.317405 33.928284,0.596037 14.0549,0.881277 28.13299,1.816965 42.0608,3.977024 4.38692,0.766807 5.273,0.827018 9.34488,1.860465 2.06598,0.524346 4.80725,1.082257 6.46028,2.609017 0.33895,0.313057 0.56167,0.732186 0.8425,1.09828 1.61078,3.993777 1.6106,8.41621 1.93441,12.656452 0.20409,7.149661 0.23303,14.302281 0.1062,21.454061 -0.15209,7.87664 -0.46583,15.7494 -1.0262,23.60849 -0.56028,7.40186 -1.32277,14.78313 -2.02535,22.17229 -0.58068,6.5279 -1.24266,13.05143 -1.56289,19.5992 -0.32202,5.82435 -0.61342,11.65043 -0.99769,17.47123 -0.30849,4.22763 -0.6368,8.47328 -1.56358,12.61963 -0.67374,2.69644 -1.38475,5.52406 -3.49892,7.48021 -7.71123,5.3338 -0.28695,0.16039 20.48619,-11.62301 0.33556,-0.19034 -0.61188,0.47665 -0.95326,0.65633 -1.20651,0.63503 -2.61811,0.87029 -3.92163,1.19731 -4.74924,0.76393 -9.57311,0.85562 -14.36188,1.24086 -11.34665,0.53307 -22.69703,1.03799 -34.05839,1.10038 -7.752,0.0619 -8.73121,0.10808 -16.55337,0.0133 -8.68681,-0.10525 -17.38023,-0.53798 -26.06587,-0.15368 -10.189962,0.36568 -20.389713,0.52101 -30.579375,0.0233 -2.925739,-0.14721 -6.174997,-0.2656 -9.090052,-0.59151 -5.798063,-0.64823 -11.546773,-1.91269 -17.061764,-3.81305 -2.038977,-0.84868 -5.642269,-1.92214 -6.840916,-4.05469 -0.372406,-0.66256 -0.345533,-1.11139 -0.43285,-1.85366 -0.09277,-2.65171 -0.05925,-5.30611 -0.104611,-7.95887 -0.01558,-3.13175 -0.07774,-6.263 -0.155792,-9.39379 -0.111892,-4.66489 -0.233164,-9.32971 -0.285962,-13.99576 -0.02111,-5.83234 0.206441,-11.65953 0.288822,-17.491 0.183441,-8.15926 0.377833,-16.32123 0.871873,-24.46872 0.391769,-5.95421 0.843032,-11.90052 1.597002,-17.82187 0.485372,-4.71481 0.917694,-9.43793 1.68947,-14.117547 0.235014,-1.515025 0.557533,-3.008085 0.833112,-4.513434 0,0 -23.695423,11.584571 -23.695423,11.584571 z" />
    <path
       style="stroke-width:1.32292"
       id="path28"
       d="m 102.05027,75.954256 c 0.29133,3.287313 0.28993,6.59435 0.32636,9.892078 0.14158,6.966177 0.14572,13.931444 0.0645,20.898296 -0.091,8.99552 -0.24163,17.9898 -0.39827,26.98437 -0.15209,9.95184 -0.33559,19.90311 -0.46627,29.85526 -0.13026,10.04829 -0.0989,20.0975 -0.17607,30.14622 -0.0749,8.02483 -0.27048,16.04775 -0.3515,24.07246 -0.0227,2.99616 -0.0573,5.99218 -0.0961,8.98817 0,0 22.77657,-11.5981 22.77657,-11.5981 v 0 c -0.024,-2.97092 -0.0437,-5.94187 -0.0477,-8.9129 -0.0294,-7.93524 -0.16314,-15.86967 -0.16474,-23.80509 0.0203,-10.05677 0.15829,-20.11214 0.25725,-30.16833 0.10259,-9.94473 0.19906,-19.89014 0.47647,-29.83191 0.23898,-9.03061 0.46917,-18.06105 0.58224,-27.094355 0.14335,-7.060729 0.36114,-14.119998 0.40483,-21.18249 0.0373,-3.408812 0.0434,-6.825352 0.32637,-10.224658 0,0 -23.514,11.980979 -23.514,11.980979 z" />
    <path
       style="stroke-width:1.32292"
       id="path34"
       d="m 21.24886,161.66867 c 2.909088,-1.17992 6.071394,-1.49973 9.147912,-2.00497 4.321291,-0.6881 8.641128,-1.37949 12.987887,-1.88598 5.62724,-0.51961 11.262934,-0.95486 16.902324,-1.32022 5.496414,-0.27226 10.989341,-0.60393 16.483131,-0.9242 4.17912,-0.1947 8.356727,-0.40476 12.520994,-0.81457 2.721247,-0.30645 5.436952,-0.63578 8.17354,-0.75986 1.163944,-0.0932 2.325563,-0.0191 3.486212,0.0669 0,0 21.24313,-15.1286 21.24313,-15.1286 v 0 c -1.22674,-0.14117 -2.45204,-0.3239 -3.6891,-0.34243 -2.82869,0.0789 -5.64241,0.2552 -8.44029,0.7103 -4.20064,0.5373 -8.41527,0.9041 -12.647927,1.08188 -5.533543,0.32707 -11.060919,0.75195 -16.598886,1.00309 -5.619216,0.31793 -11.231915,0.72258 -16.843457,1.15404 -4.35555,0.35878 -8.677783,0.92201 -12.982712,1.68144 -2.966154,0.48106 -5.958258,0.85661 -8.916774,1.30353 0,0 -20.825984,16.17963 -20.825984,16.17963 z" />
  </g>
</svg>
